<svg xmlns="http://www.w3.org/2000/svg" version="1.1" xmlns:xlink="http://www.w3.org/1999/xlink" xmlns:svgjs="http://svgjs.com/svgjs" width="100%" height="100%" id="drawing-svg"><path d="M98,114.20000457763672 C98.93333435058594,113.53333791097005 101.60000610351562,111.9333381652832 103.60000610351562,110.20000457763672 C105.60000610351562,108.46667098999023 106.13333384195964,106.60000101725261 110,103.80000305175781 C113.86666615804036,101.00000508626302 121.2000020345052,96.06668345133464 126.80000305175781,93.40001678466797 C132.4000040690104,90.7333501180013 137.73333994547525,89.53333918253581 143.60000610351562,87.80000305175781 C149.466672261556,86.06666692097981 157.73333485921225,83.8000005086263 162,83 C166.26666514078775,82.1999994913737 166.9333292643229,82.59999720255534 169.1999969482422,83 C171.46666463216147,83.40000279744466 173.33333841959634,84.20001602172852 175.60000610351562,85.40001678466797 C177.8666737874349,86.60001754760742 179.86666870117188,86.60000737508138 182.8000030517578,90.20000457763672 C185.73333740234375,93.80000178019206 190.2666803995768,102.20000076293945 193.20001220703125,107 C196.1333440144857,111.79999923706055 197.1999969482422,114.1999994913737 200.39999389648438,119 C203.59999084472656,123.8000005086263 208.79999287923178,131.6666692097982 212.39999389648438,135.8000030517578 C215.99999491373697,139.93333689371744 216.66666666666666,140.86666870117188 222,143.8000030517578 C227.33333333333334,146.73333740234375 232.79999287923178,150.33334350585938 244.39999389648438,153.40000915527344 C255.99999491373697,156.4666748046875 278.8000030517578,160.1999969482422 291.6000061035156,162.1999969482422 C304.40000915527344,164.1999969482422 311.86667887369794,164.20000712076822 321.20001220703125,165.40000915527344 C330.53334554036456,166.60001118977866 338.000005086263,167.2666753133138 347.6000061035156,169.40000915527344 C357.20000712076825,171.53334299723306 371.33335367838544,175.5333455403646 378.8000183105469,178.20001220703125 C386.2666829427083,180.8666788736979 388.1333312988281,182.60001118977866 392.3999938964844,185.40000915527344 C396.6666564941406,188.20000712076822 399.1999918619792,189.4000015258789 404.3999938964844,195 C409.59999593098956,200.5999984741211 418.40000406901044,212.1999944051107 423.6000061035156,219 C428.8000081380208,225.8000055948893 431.73334248860675,230.86669921875 435.6000061035156,235.80003356933594 C439.4666697184245,240.73336791992188 440.13331604003906,242.466677347819 446.79998779296875,248.60000610351562 C453.46665954589844,254.73333485921225 466.5333658854167,266.6000061035156 475.60003662109375,272.6000061035156 C484.6667073567708,278.6000061035156 489.46668497721356,280.3333384195964 501.20001220703125,284.6000061035156 C512.933339436849,288.8666737874349 535.2000020345052,295.53334554036456 546,298.20001220703125 C556.7999979654948,300.86667887369794 560,299.8000081380208 566,300.6000061035156 C572,301.40000406901044 577.066660563151,303.1333312988281 582,303 C586.933339436849,302.8666687011719 593.0667012532552,300.3333485921224 595.6000366210938,299.8000183105469 C598.1333719889323,299.2666880289714 596.8000183105469,300.0666859944661 597.2000122070312,299.8000183105469 C597.6000061035156,299.5333506266276 597.8666687011719,299.1333465576172 598,298.20001220703125 C598.1333312988281,297.2666778564453 598,295.00001525878906 598,294.20001220703125 C598,293.40000915527344 598.2666625976562,293.6666615804036 598,293.3999938964844 C597.7333374023438,293.1333262125651 597.3333536783854,293.000005086263 596.4000244140625,292.6000061035156 C595.4666951497396,292.20000712076825 593.3333638509115,291.6666666666667 592.4000244140625,291 C591.4666849772135,290.3333333333333 591.1999918619791,289.1333363850911 590.7999877929688,288.6000061035156 C590.3999837239584,288.0666758219401 591.8666585286459,289.8000183105469 590,287.8000183105469 C588.1333414713541,285.8000183105469 589.2000325520834,288.33334096272785 579.6000366210938,276.6000061035156 C570.0000406901041,264.8666712443034 548.4000244140625,237.40000915527344 532.4000244140625,217.40000915527344 C516.4000244140625,197.40000915527344 496.5333760579427,172.60000483194986 483.60003662109375,156.60000610351562 C470.6666971842448,140.6000073750814 462.79999287923175,131.00001780192056 454.79998779296875,121.40001678466797 C446.79998270670575,111.80001576741536 439.2000020345052,103.26666895548503 435.6000061035156,99 C432.00001017252606,94.73333104451497 433.6000111897786,96.46666971842448 433.20001220703125,95.80000305175781 C432.8000132242839,95.13333638509114 433.3333485921224,95.13333384195964 433.20001220703125,95 C433.0666758219401,94.86666615804036 432.79999287923175,95 432.3999938964844,95 C431.999994913737,95 433.7333475748698,96.46666590372722 430.8000183105469,95 C427.86668904622394,93.53333409627278 424.00002034505206,90.73333740234375 414.8000183105469,86.20000457763672 C405.6000162760417,81.66667175292969 396.8000081380208,77.66667048136394 375.6000061035156,67.80000305175781 C354.40000406901044,57.933335622151695 311.20000712076825,37.266666412353516 287.6000061035156,27 Q264.000005086263,16.733333587646484 234,6.200004577636719" stroke-linejoin="round" stroke-linecap="round" stroke-width="3" stroke="#000000" fill="none"></path><path d="M464.4000244140625,295 C465.2000223795573,294.6000010172526 466.53334554036456,293.53334045410156 469.20001220703125,292.6000061035156 C471.86667887369794,291.6666717529297 468.5333557128906,292.3333282470703 480.4000244140625,289.3999938964844 C492.2666931152344,286.46665954589844 523.2000223795573,278.1999969482422 540.4000244140625,275 C557.6000264485677,271.8000030517578 569.4667053222656,270.6000111897786 583.6000366210938,270.20001220703125 C597.7333679199219,269.8000132242839 611.8666788736979,270.8666737874349 625.2000122070312,272.6000061035156 C638.5333455403646,274.3333384195964 653.7333679199219,277.8000081380208 663.6000366210938,280.6000061035156 C673.4667053222656,283.40000406901044 678.1333618164062,286.1999918619792 684.4000244140625,289.3999938964844 C690.6666870117188,292.59999593098956 694.933349609375,293.66668192545575 701.2000122070312,299.8000183105469 C707.4666748046875,305.933354695638 717.0666707356771,318.86667887369794 722,326.20001220703125 C726.9333292643229,333.53334554036456 728.2666524251302,337.1333516438802 730.7999877929688,343.8000183105469 C733.3333231608073,350.46668497721356 734.2666727701823,358.7333475748698 737.2000122070312,366.20001220703125 C740.1333516438802,373.6666768391927 744.4000244140625,382.3333384195964 748.4000244140625,388.6000061035156 C752.4000244140625,394.8666737874349 756.4000142415365,398.7333526611328 761.2000122070312,403.8000183105469 C766.000010172526,408.86668395996094 768.6666768391927,412.73333740234375 777.2000122070312,419 C785.7333475748698,425.26666259765625 803.0666910807291,435.9333241780599 812.4000244140625,441.3999938964844 C821.7333577473959,446.8666636149089 826.6666768391927,448.7333475748698 833.2000122070312,451.8000183105469 C839.7333475748698,454.86668904622394 844.5333658854166,456.7333526611328 851.6000366210938,459.8000183105469 C858.6667073567709,462.86668395996094 870.0000406901041,467.66668192545575 875.6000366210938,470.20001220703125 C881.2000325520834,472.73334248860675 882.933349609375,473.53333536783856 885.2000122070312,475 C887.4666748046875,476.46666463216144 888.1333414713541,478.066655476888 889.2000122070312,479 C890.2666829427084,479.933344523112 891.0667012532552,480.2000681559245 891.6000366210938,480.6000671386719 Q892.1333719889323,481.00006612141925 892.4000244140625,481.3999938964844" stroke-linejoin="round" stroke-linecap="round" stroke-width="3" stroke="#000000" fill="none"></path></svg>