<svg viewBox="133.022216796875 42.308135986328125 758.6666870117188 555.8215942382812" preserveAspectRatio="xMinYMin meet"><path d="M165.1999969482422,130.1999969482422 C164.93333180745444,128.9999974568685 163.86667124430338,124.86666615804036 163.60000610351562,123 C163.33334096272787,121.13333384195964 162.93333943684897,121.79999923706055 163.60000610351562,119 C164.26667277018228,116.20000076293945 164.8000055948893,110.60000356038411 167.60000610351562,106.20000457763672 C170.40000661214194,101.80000559488933 172.40000915527344,98.46667353312175 180.40000915527344,92.60000610351562 C188.40000915527344,86.7333386739095 205.86667124430338,75.53333155314128 215.60000610351562,71 C225.33334096272787,66.46666844685872 231.20001729329428,66.33334732055664 238.80001831054688,65.40001678466797 C246.40001932779947,64.4666862487793 252.66668192545572,62.60001881917318 261.20001220703125,65.40001678466797 C269.73334248860675,68.20001475016277 282.6666666666667,75.93334070841472 290,82.20000457763672 C297.3333333333333,88.46666844685872 300.8000132242839,95.66666666666667 305.20001220703125,103 C309.6000111897786,110.33333333333333 312.79999287923175,116.33333841959636 316.3999938964844,126.20000457763672 C319.999994913737,136.0666707356771 323.6000162760417,152.73333104451498 326.8000183105469,162.1999969482422 C330.00002034505206,171.6666628519694 332.40000915527344,176.06666056315103 335.6000061035156,183 C338.8000030517578,189.93333943684897 339.06666564941406,195.66669464111328 346,203.80003356933594 C352.93333435058594,211.9333724975586 367.0666758219401,223.9333724975586 377.20001220703125,231.80003356933594 C387.3333485921224,239.66669464111328 394.66668701171875,244.60000356038412 406.8000183105469,251 C418.933349609375,257.3999964396159 431.3333384195964,262.0666758219401 450,270.20001220703125 C468.6666615804036,278.3333485921224 499.8666483561198,292.20001729329425 518.7999877929688,299.8000183105469 C537.7333272298177,307.4000193277995 549.6000366210938,311.00002034505206 563.6000366210938,315.8000183105469 C577.6000366210938,320.6000162760417 589.1999918619791,324.3333435058594 602.7999877929688,328.6000061035156 C616.3999837239584,332.8666687011719 635.3333435058594,338.1999918619792 645.2000122070312,341.3999938964844 C655.0666809082031,344.59999593098956 657.2000020345052,345.8000183105469 662,347.8000183105469 C666.7999979654948,349.8000183105469 670,351.26666259765625 674,353.3999938964844 C678,355.5333251953125 683.3333333333334,358.73333740234375 686,360.6000061035156 C688.6666666666666,362.4666748046875 688.1333312988281,362.73333740234375 690,364.6000061035156 C691.8666687011719,366.4666748046875 691.8666788736979,367.4000193277995 697.2000122070312,371.8000183105469 C702.5333455403646,376.20001729329425 712.4000040690104,384.4666697184245 722,391 C731.5999959309896,397.5333302815755 745.3333231608073,406.1999969482422 754.7999877929688,411 C764.2666524251302,415.8000030517578 768.5333150227865,417.2666829427083 778.7999877929688,419.8000183105469 C789.066660563151,422.33335367838544 806.2666829427084,425.2666829427083 816.4000244140625,426.20001220703125 C826.5333658854166,427.1333414713542 832.5333760579427,426.3333282470703 839.6000366210938,425.3999938964844 C846.6666971842448,424.46665954589844 852.3999938964844,423.40000406901044 858.7999877929688,420.6000061035156 C865.1999816894531,417.8000081380208 873.3333333333334,412.20000712076825 878,408.6000061035156 C882.6666666666666,405.000005086263 884.7999877929688,401.93333435058594 886.7999877929688,399 C888.7999877929688,396.06666564941406 889.1999918619791,393.6666666666667 890,391 C890.8000081380209,388.3333333333333 891.4667053222656,385.3999989827474 891.6000366210938,383 C891.7333679199219,380.6000010172526 891.8666585286459,379.40000406901044 890.7999877929688,376.6000061035156 C889.7333170572916,373.8000081380208 888.8000081380209,372.0666809082031 885.2000122070312,366.20001220703125 C881.6000162760416,360.3333435058594 875.4666748046875,349.5333302815755 869.2000122070312,341.3999938964844 C862.933349609375,333.26665751139325 857.2000325520834,326.8666585286458 847.6000366210938,317.3999938964844 C838.0000406901041,307.93332926432294 829.7333780924479,297.80000559488934 811.6000366210938,284.6000061035156 C793.4666951497396,271.4000066121419 759.999989827474,250.06666310628256 738.7999877929688,238.1999969482422 C717.5999857584635,226.3333307902018 701.4666849772135,219.53334045410156 684.4000244140625,213.40000915527344 C667.3333638509115,207.2666778564453 655.4666951497396,204.73334248860678 636.4000244140625,201.40000915527344 C617.3333536783854,198.0666758219401 585.0666707356771,194.466677347819 570,193.40000915527344 C554.9333292643229,192.33334096272787 552.6666666666666,193.9333292643229 546,195 C539.3333333333334,196.0666707356771 534.2666625976562,197.93336741129556 530,199.80003356933594 C525.7333374023438,201.6666997273763 522.2666931152344,204.73333485921225 520.4000244140625,206.1999969482422 C518.5333557128906,207.66665903727213 519.066660563151,208.0666707356771 518.7999877929688,208.60000610351562 C518.5333150227865,209.13334147135416 520.3999837239584,209.00001017252603 518.7999877929688,209.40000915527344 C517.1999918619791,209.80000813802084 516.4000040690104,210.5999959309896 509.20001220703125,211 C502.00002034505206,211.4000040690104 486.40003458658856,211.66669464111328 475.60003662109375,211.80003356933594 C464.80003865559894,211.9333724975586 457.0666961669922,212.06670633951822 444.4000244140625,211.80003356933594 C431.7333526611328,211.53336079915366 418.1333414713542,211.0000025431315 399.6000061035156,210.1999969482422 C381.06667073567706,209.39999135335287 349.20001220703125,207.79999796549478 333.20001220703125,207 C317.20001220703125,206.20000203450522 313.3333384195964,206.4666748046875 303.6000061035156,205.40000915527344 C293.8666737874349,204.33334350585938 284.8000183105469,202.33334096272787 274.8000183105469,200.60000610351562 C264.8000183105469,198.86667124430338 251.60000610351562,197.26666768391928 243.60000610351562,195 C235.60000610351562,192.73333231608072 232.26668294270834,189.79999796549478 226.80001831054688,187 C221.3333536783854,184.20000203450522 216.0000203450521,181.00001271565756 210.80001831054688,178.20001220703125 C205.60001627604166,175.40001169840494 199.33334350585938,172.1999994913737 195.60000610351562,170.1999969482422 C191.86666870117188,168.1999944051107 190.66666158040366,166.86666361490884 188.39999389648438,166.1999969482422 C186.1333262125651,165.53333028157553 184.93333180745444,164.86666361490884 182,166.1999969482422 C179.06666819254556,167.53333028157553 175.06666819254556,169.533327738444 170.8000030517578,174.1999969482422 C166.53333791097006,178.86666615804037 160.53334299723306,186.73334503173828 156.40000915527344,194.20001220703125 C152.2666753133138,201.66667938232422 149.46666717529297,207.13333638509116 146,219 C142.53333282470703,230.86666361490884 137.60000610351562,253.1333262125651 135.60000610351562,265.3999938964844 C133.60000610351562,277.6666615804036 133.6000010172526,283.2666727701823 134,292.6000061035156 C134.3999989827474,301.93333943684894 134,311.6666615804036 138,321.3999938964844 C142,331.1333262125651 149.33333333333334,342.8666636149089 158,351 C166.66666666666666,359.1333363850911 177.1999969482422,365.2666778564453 190,370.20001220703125 C202.8000030517578,375.1333465576172 211.86668395996094,377.53334045410156 234.80001831054688,380.6000061035156 C257.7333526611328,383.6666717529297 302.53334045410156,387.000005086263 327.6000061035156,388.6000061035156 C352.6666717529297,390.20000712076825 366.40001424153644,389.6666768391927 385.20001220703125,390.20001220703125 C404.00001017252606,390.7333475748698 422.5333251953125,391.00002034505206 440.3999938964844,391.8000183105469 C458.26666259765625,392.6000162760417 480.8000233968099,393.93333435058594 492.4000244140625,395 C504.0000254313151,396.06666564941406 506.1333312988281,397.40000915527344 510,398.20001220703125 C513.8666687011719,399.00001525878906 514.2667032877604,399.2666880289714 515.6000366210938,399.8000183105469 C516.9333699544271,400.3333485921224 517.4666748046875,400.3333282470703 518,401.3999938964844 C518.5333251953125,402.46665954589844 519.3333231608073,403.6666768391927 518.7999877929688,406.20001220703125 C518.2666524251302,408.7333475748698 516.2666524251302,411.1333414713542 514.7999877929688,416.6000061035156 C513.3333231608073,422.06667073567706 511.06666056315106,432.46666463216144 510,439 C508.93333943684894,445.53333536783856 508.2666931152344,450.8666737874349 508.4000244140625,455.8000183105469 C508.5333557128906,460.7333628336589 509.06666056315106,464.2000681559245 510.79998779296875,468.6000671386719 C512.5333150227865,473.00006612141925 514.9333190917969,477.2666880289714 518.7999877929688,482.20001220703125 C522.6666564941406,487.1333363850911 525.5999959309896,491.53334554036456 534,498.20001220703125 C542.4000040690104,504.86667887369794 555.7333475748698,513.6666768391927 569.2000122070312,522.2000122070312 C582.6666768391927,530.7333475748698 601.4666544596354,541.0000203450521 614.7999877929688,549.4000244140625 C628.1333211263021,557.8000284830729 640.933339436849,566.7333679199219 649.2000122070312,572.6000366210938 C657.4666849772135,578.4667053222656 659.0666910807291,581.0000406901041 664.4000244140625,584.6000366210938 C669.7333577473959,588.2000325520834 677.3333435058594,592.0666809082031 681.2000122070312,594.2000122070312 C685.0666809082031,596.3333435058594 685.4667053222656,596.866689046224 687.6000366210938,597.4000244140625 C689.7333679199219,597.933359781901 690.6666666666666,598.7333577473959 694,597.4000244140625 C697.3333333333334,596.0666910807291 703.6000366210938,593.6666971842448 707.6000366210938,589.4000244140625 C711.6000366210938,585.1333516438802 714.8000081380209,578.3333231608073 718,571.7999877929688 C721.1999918619791,565.2666524251302 723.5999857584635,560.4666748046875 726.7999877929688,550.2000122070312 C729.999989827474,539.933349609375 734.8000081380209,522.7333475748698 737.2000122070312,510.20001220703125 C739.6000162760416,497.6666768391927 740.6666768391927,486.3333333333333 741.2000122070312,475 C741.7333475748698,463.6666666666667 742.6666870117188,454.20001220703125 740.4000244140625,442.20001220703125 C738.1333618164062,430.20001220703125 732.5333760579427,413.26666768391925 727.6000366210938,403 C722.6666971842448,392.73333231608075 718.5333251953125,388.3333384195964 710.7999877929688,380.6000061035156 C703.066650390625,372.8666737874349 696.4000040690104,365.53334045410156 681.2000122070312,356.6000061035156 C666.0000203450521,347.6666717529297 637.3333740234375,333.26666768391925 619.6000366210938,327 C601.86669921875,320.73333231608075 588.1333211263021,321.26666768391925 574.7999877929688,319 C561.4666544596354,316.73333231608075 551.0667012532552,314.7333272298177 539.6000366210938,313.3999938964844 C528.1333719889323,312.06666056315106 513.0666707356771,311.5333302815755 506,311 C498.93332926432294,310.4666697184245 498.93333943684894,310.4666798909505 497.20001220703125,310.20001220703125 C495.46668497721356,309.933344523112 496.40003458658856,312.8666636149089 495.60003662109375,309.3999938964844 C494.80003865559894,305.9333241780599 492.2666931152344,296.99998982747394 492.4000244140625,289.3999938964844 C492.5333557128906,281.7999979654948 495.0666910807292,273.6666844685872 496.4000244140625,263.8000183105469 C497.7333577473958,253.9333521525065 499.6000264485677,242.73333231608072 500.4000244140625,230.1999969482422 C501.2000223795573,217.66666158040366 501.6000162760417,199.13333892822266 501.20001220703125,188.60000610351562 C500.8000081380208,178.0666732788086 499.73333740234375,172.73333485921225 498,167 C496.26666259765625,161.26666514078775 493.99998982747394,158.1999969482422 490.79998779296875,154.1999969482422 C487.59998575846356,150.1999969482422 484.13332112630206,146.1999994913737 478.79998779296875,143 C473.46665445963544,139.8000005086263 463.46665445963544,136.86666615804037 458.79998779296875,135 C454.13332112630206,133.13333384195963 452.79998779296875,132.73333485921225 450.79998779296875,131.8000030517578 C448.79998779296875,130.86667124430338 447.7333170572917,132.20000966389975 446.79998779296875,129.40000915527344 C445.8666585286458,126.60000864664714 443.86667887369794,120.33333206176758 445.20001220703125,115 C446.53334554036456,109.66666793823242 449.066650390625,105.00001398722331 454.79998779296875,97.40001678466797 C460.5333251953125,89.80001958211263 473.2000325520833,76.73335075378418 479.60003662109375,69.40001678466797 C486.0000406901042,62.06668281555176 490.00002034505206,57.40001551310221 493.20001220703125,53.4000129699707 C496.40000406901044,49.400010426839195 497.46665445963544,47.13333702087402 498.79998779296875,45.400001525878906 C500.13332112630206,43.66666603088379 501.4666748046875,43.40000025431315 501.20001220703125,43 C500.933349609375,42.59999974568685 501.4666748046875,41.666666666666664 497.20001220703125,43 C492.933349609375,44.333333333333336 489.3333689371745,44.599997202555336 475.60003662109375,51 C461.866704305013,57.400002797444664 432.933354695638,71.53334935506184 414.8000183105469,81.40001678466797 C396.66668192545575,91.2666842142741 383.86668904622394,99.80000686645508 366.8000183105469,110.20000457763672 C349.7333475748698,120.60000228881836 333.46666463216144,130.73333613077799 312.3999938964844,143.8000030517578 C291.3333231608073,156.86666997273764 258.79999287923175,176.8666737874349 240.39999389648438,188.60000610351562 C221.99999491373697,200.33333841959634 213.3333307902018,206.73332977294922 202,214.1999969482422 C190.6666692097982,221.66666412353516 180.80000813802084,228.20000712076822 172.40000915527344,233.40000915527344 C164.00001017252603,238.60001118977866 157.33334096272787,242.33333841959634 151.60000610351562,245.40000915527344 C145.86667124430338,248.46667989095053 140.93333435058594,250.4667002360026 138,251.80003356933594 C135.06666564941406,253.13336690266928 134.8000005086263,253.2666803995768 134,253.40000915527344 C133.1999994913737,253.53333791097006 133.3333307902018,253.13334147135416 133.1999969482422,252.60000610351562 C133.06666310628256,252.0666707356771 133.1999969482422,250.86666361490884 133.1999969482422,250.1999969482422 C133.1999969482422,249.53333028157553 133.1999969482422,249 133.1999969482422,248.60000610351562 C133.1999969482422,248.20001220703125 133.1999969482422,247.13336690266928 133.1999969482422,247.80003356933594 C133.1999969482422,248.4667002360026 132.79999542236328,246.73334503173828 133.1999969482422,252.60000610351562 C133.5999984741211,258.46666717529297 134.6666717529297,272.6000010172526 135.60000610351562,283 C136.53334045410156,293.3999989827474 136.13333638509116,303.6666666666667 138.8000030517578,315 C141.46666971842447,326.3333333333333 147.33333841959634,341 151.60000610351562,351 C155.8666737874349,361 146.93334452311197,355.26666768391925 164.40000915527344,375 C181.8666737874349,394.73333231608075 231.73332977294922,448.3333282470703 256.3999938964844,469.3999938964844 C281.06665802001953,490.46665954589844 294.9333241780599,492.46665954589844 312.3999938964844,501.3999938964844 C329.8666636149089,510.3333282470703 343.73334248860675,515.1333262125651 361.20001220703125,523 C378.66668192545575,530.8666737874349 404.8000132242839,542.7333679199219 417.20001220703125,548.6000366210938 C429.6000111897786,554.4667053222656 430.8000081380208,555.8000183105469 435.6000061035156,558.2000122070312 C440.40000406901044,560.6000061035156 443.6000010172526,561.5333353678385 446,563 C448.3999989827474,564.4666646321615 448.93332926432294,566.2000020345052 450,567 C451.06667073567706,567.7999979654948 451.7333577473958,567.5333150227865 452.4000244140625,567.7999877929688 C453.0666910807292,568.066660563151 452.6666666666667,568.3333638509115 454,568.6000366210938 C455.3333333333333,568.866709391276 457.6000264485677,569.0000305175781 460.4000244140625,569.4000244140625 C463.2000223795573,569.8000183105469 466.2666524251302,570.6000061035156 470.79998779296875,571 C475.3333231608073,571.3999938964844 479.86669921875,571.1333211263021 487.60003662109375,571.7999877929688 C495.3333740234375,572.4666544596354 509.6000162760417,573.7999979654948 517.2000122070312,575 C524.8000081380209,576.2000020345052 529.3333435058594,578.066660563151 533.2000122070312,579 Q537.0666809082031,579.933339436849 540.4000244140625,580.6000366210938" stroke-linejoin="round" stroke-linecap="round" stroke-width="3" stroke="#000000" fill="none"></path></svg>