<svg xmlns="http://www.w3.org/2000/svg" version="1.1" xmlns:xlink="http://www.w3.org/1999/xlink" xmlns:svgjs="http://svgjs.com/svgjs" width="100%" height="100%" id="drawing-svg"><path d="M270.8000183105469,323 C270.2666829427083,321.3999989827474 268.6666768391927,316.3333282470703 267.6000061035156,313.3999938964844 C266.53333536783856,310.46665954589844 266.1333262125651,312.59999084472656 264.3999938964844,305.3999938964844 C262.6666615804036,298.1999969482422 258.6666768391927,280.0666783650716 257.20001220703125,270.20001220703125 C255.73334757486978,260.3333460489909 255.73334248860678,252.86666615804037 255.60000610351562,246.1999969482422 C255.46666971842447,239.533327738444 255.06666056315103,237.26665751139322 256.3999938964844,230.1999969482422 C257.7333272298177,223.13333638509116 261.4666697184245,210.2000274658203 263.6000061035156,203.80003356933594 C265.73334248860675,197.40003967285156 267.0666809082031,195.26670583089194 269.20001220703125,191.80003356933594 C271.3333435058594,188.33336130777994 271.3333282470703,185.8000055948893 276.3999938964844,183 C281.46665954589844,180.1999944051107 293.2000020345052,176.86666615804037 299.6000061035156,175 C306.00001017252606,173.13333384195963 308.933349609375,172.20000203450522 314.8000183105469,171.8000030517578 C320.66668701171875,171.4000040690104 326.2666880289714,171.00000508626303 334.8000183105469,172.60000610351562 C343.3333485921224,174.20000712076822 357.6000010172526,178.4666748046875 366,181.40000915527344 C374.3999989827474,184.33334350585938 378.40000915527344,187.13334147135416 385.20001220703125,190.20001220703125 C392.00001525878906,193.26668294270834 400.4000193277995,196.60003407796225 406.8000183105469,199.80003356933594 C413.20001729329425,203.00003306070963 414.1333363850911,205.9333470662435 423.6000061035156,209.40000915527344 C433.0666758219401,212.86667124430338 451.60003153483075,217.80000813802084 463.60003662109375,220.60000610351562 C475.60004170735675,223.4000040690104 483.06671142578125,224.46666463216147 495.60003662109375,226.1999969482422 C508.13336181640625,227.9333292643229 519.3333231608073,229.26666514078775 538.7999877929688,231 C558.2666524251302,232.73333485921225 593.7333577473959,234.73333994547525 612.4000244140625,236.60000610351562 C631.0666910807291,238.466672261556 639.5999857584635,240.1999969482422 650.7999877929688,242.1999969482422 C661.999989827474,244.1999969482422 670.4000345865885,245.6666692097982 679.6000366210938,248.60000610351562 C688.800038655599,251.53334299723306 698.5333353678385,256.20001729329425 706,259.8000183105469 C713.4666646321615,263.4000193277995 718.933359781901,266.86667887369794 724.4000244140625,270.20001220703125 C729.866689046224,273.53334554036456 732.7999877929688,275.00002034505206 738.7999877929688,279.8000183105469 C744.7999877929688,284.6000162760417 753.866689046224,292.8666687011719 760.4000244140625,299 C766.933359781901,305.1333312988281 772.1333312988281,311.1333363850911 778,316.6000061035156 C783.8666687011719,322.0666758219401 785.6000366210938,325.4000193277995 795.6000366210938,331.8000183105469 C805.6000366210938,338.20001729329425 828.8000081380209,349.93333435058594 838,355 Q847.1999918619791,360.06666564941406 850.7999877929688,362.20001220703125" stroke-linejoin="round" stroke-linecap="round" stroke-width="3" stroke="#000000" fill="none"></path><path d="M446,436.6000671386719 C446,435.4000549316406 446,431.93333943684894 446,429.3999938964844 C446,426.8666483561198 446.1333312988281,426.06666056315106 446,421.3999938964844 C445.8666687011719,416.7333272298177 445.3333435058594,407.6666564941406 445.20001220703125,401.3999938964844 C445.0666809082031,395.1333312988281 445.20001220703125,389.2666829427083 445.20001220703125,383.8000183105469 C445.20001220703125,378.33335367838544 444.53334554036456,375.40000915527344 445.20001220703125,368.6000061035156 C445.86667887369794,361.8000030517578 448.00001017252606,349.1333312988281 449.20001220703125,343 C450.40001424153644,336.8666687011719 451.6000264485677,334.46668497721356 452.4000244140625,331.8000183105469 C453.2000223795573,329.1333516438802 453.6000061035156,328.2000020345052 454,327 C454.3999938964844,325.7999979654948 454.53331502278644,325.000005086263 454.79998779296875,324.6000061035156 C455.06666056315106,324.20000712076825 455.33336385091144,324.4666748046875 455.60003662109375,324.6000061035156 C455.86670939127606,324.73333740234375 456.13336181640625,324.999994913737 456.4000244140625,325.3999938964844 C456.66668701171875,325.79999287923175 456.6666768391927,325.7999979654948 457.20001220703125,327 C457.7333475748698,328.2000020345052 458.26670328776044,330.6000061035156 459.60003662109375,332.6000061035156 C460.93336995442706,334.6000061035156 462.00002034505206,335.3999989827474 465.20001220703125,339 C468.40000406901044,342.6000010172526 474.2666524251302,350.0666758219401 478.79998779296875,354.20001220703125 C483.3333231608073,358.3333485921224 488.2666829427083,360.6000213623047 492.4000244140625,363.8000183105469 C496.5333658854167,367.00001525878906 498.0000406901042,368.7333272298177 503.60003662109375,373.3999938964844 C509.2000325520833,378.06666056315106 520,387.40001424153644 526,391.8000183105469 C532,396.2000223795573 534.0000305175781,397.1333516438802 539.6000366210938,399.8000183105469 C545.2000427246094,402.46668497721356 551.0667114257812,405.4000193277995 559.6000366210938,407.8000183105469 C568.1333618164062,410.20001729329425 581.1999918619791,412.7333475748698 590.7999877929688,414.20001220703125 C600.3999837239584,415.6666768391927 609.2000122070312,416.20000712076825 617.2000122070312,416.6000061035156 C625.2000122070312,417.000005086263 629.5999857584635,416.8666737874349 638.7999877929688,416.6000061035156 C647.999989827474,416.3333384195964 663.4666849772135,415.7999979654948 672.4000244140625,415 C681.3333638509115,414.2000020345052 686.2666931152344,413.00001525878906 692.4000244140625,411.8000183105469 C698.5333557128906,410.6000213623047 703.2000122070312,409.2666880289714 709.2000122070312,407.8000183105469 C715.2000122070312,406.3333485921224 723.866689046224,403.93333435058594 728.4000244140625,403 C732.933359781901,402.06666564941406 734.8000284830729,402.4666798909505 736.4000244140625,402.20001220703125 C738.0000203450521,401.933344523112 737.4666646321615,401.5333302815755 738,401.3999938964844 C738.5333353678385,401.26665751139325 739.2000325520834,401.1333262125651 739.6000366210938,401.3999938964844 C740.0000406901041,401.6666615804036 740.2666931152344,402.46666463216144 740.4000244140625,403 C740.5333557128906,403.53333536783856 740.5333557128906,403.93333943684894 740.4000244140625,404.6000061035156 C740.2666931152344,405.2666727701823 739.7333679199219,406.46666463216144 739.6000366210938,407 C739.4667053222656,407.53333536783856 739.6000366210938,407.5333506266276 739.6000366210938,407.8000183105469 C739.6000366210938,408.0666859944661 735.2000427246094,404.0666758219401 739.6000366210938,408.6000061035156 C744.0000305175781,413.1333363850911 757.7333374023438,428.99998982747394 766,435 C774.2666625976562,441.00001017252606 778.6666768391927,440.46673075358075 789.2000122070312,444.6000671386719 C799.7333475748698,448.733403523763 817.6000162760416,455.8000183105469 829.2000122070312,459.8000183105469 C840.8000081380209,463.8000183105469 851.3333231608073,466.6000671386719 858.7999877929688,468.6000671386719 C866.2666524251302,470.6000671386719 869.8666585286459,471.0000305175781 874,471.8000183105469 C878.1333414713541,472.6000061035156 881.0667012532552,473.2666524251302 883.6000366210938,473.3999938964844 C886.1333719889323,473.53333536783856 888.1333516438802,472.8667297363281 889.2000122070312,472.6000671386719 C890.2666727701823,472.3334045410156 889.8666687011719,472.0666961669922 890,471.8000183105469 C890.1333312988281,471.53334045410156 890,471.40000406901044 890,471 C890,470.59999593098956 889.8666687011719,471.26665751139325 890,469.3999938964844 C890.1333312988281,467.5333302815755 890.3999837239584,465.2666727701823 890.7999877929688,459.8000183105469 C891.1999918619791,454.33336385091144 892.1333516438802,442.46673583984375 892.4000244140625,436.6000671386719 C892.6666971842448,430.7333984375 892.933359781901,428.46668497721356 892.4000244140625,424.6000061035156 C891.866689046224,420.7333272298177 890.2666829427084,416.1999918619792 889.2000122070312,413.3999938964844 C888.1333414713541,410.59999593098956 887.8666687011719,409.8000183105469 886,407.8000183105469 C884.1333312988281,405.8000183105469 882.2666625976562,403.3999938964844 878,401.3999938964844 C873.7333374023438,399.3999938964844 867.7333577473959,398.0666809082031 860.4000244140625,395.8000183105469 C853.0666910807291,393.5333557128906 842.1333312988281,389.933354695638 834,387.8000183105469 C825.8666687011719,385.66668192545575 818.6666971842448,384.4666697184245 811.6000366210938,383 C804.5333760579427,381.5333302815755 799.866709391276,380.6000010172526 791.6000366210938,379 C783.3333638509115,377.3999989827474 770.4000040690104,374.59999084472656 762,373.3999938964844 C753.5999959309896,372.1999969482422 747.6000061035156,372.6000162760417 741.2000122070312,371.8000183105469 C734.8000183105469,371.00002034505206 731.2000325520834,369.6666768391927 723.6000366210938,368.6000061035156 C716.0000406901041,367.53333536783856 703.866709391276,366.1999918619792 695.6000366210938,365.3999938964844 C687.3333638509115,364.59999593098956 681.6000061035156,364.20001729329425 674,363.8000183105469 C666.3999938964844,363.4000193277995 659.4666646321615,363.1333363850911 650,363 C640.5333353678385,362.8666636149089 626.5333455403646,362.6000010172526 617.2000122070312,363 C607.8666788736979,363.3999989827474 601.5999959309896,364.46665954589844 594,365.3999938964844 C586.4000040690104,366.3333282470703 580.800038655599,367.1333363850911 571.6000366210938,368.6000061035156 C562.4000345865885,370.0666758219401 546.9333292643229,372.86667887369794 538.7999877929688,374.20001220703125 C530.6666463216146,375.53334554036456 528.2666524251302,375.93333943684894 522.7999877929688,376.6000061035156 C517.3333231608073,377.2666727701823 511.8666585286458,377.933344523112 506,378.20001220703125 C500.1333414713542,378.4666798909505 492.80003865559894,378.3333485921224 487.60003662109375,378.20001220703125 C482.40003458658856,378.0666758219401 478.79998779296875,377.93332926432294 474.79998779296875,377.3999938964844 C470.79998779296875,376.8666585286458 468.26670328776044,376.8666636149089 463.60003662109375,375 C458.93336995442706,373.1333363850911 451.3333282470703,368.86667887369794 446.79998779296875,366.20001220703125 C442.2666473388672,363.53334554036456 439.59999084472656,361.93333435058594 436.3999938964844,359 C433.1999969482422,356.06666564941406 430.40000406901044,352.20000712076825 427.6000061035156,348.6000061035156 C424.8000081380208,345.000005086263 421.73333740234375,340.46665954589844 419.6000061035156,337.3999938964844 C417.4666748046875,334.3333282470703 416.1333516438802,332.6000111897786 414.8000183105469,330.20001220703125 C413.46668497721356,327.8000132242839 412.93333943684894,325.53333536783856 411.6000061035156,323 C410.2666727701823,320.46666463216144 408.00002034505206,317 406.8000183105469,315 C405.6000162760417,313 405.46666463216144,312.1999969482422 404.3999938964844,311 C403.3333231608073,309.8000030517578 401.8666585286458,309.00001525878906 400.3999938964844,307.8000183105469 C398.93332926432294,306.6000213623047 397.2000020345052,304.86668904622394 395.6000061035156,303.8000183105469 C394.00001017252606,302.7333475748698 392.1333516438802,302.1999969482422 390.8000183105469,301.3999938964844 C389.46668497721356,300.59999084472656 389.3333435058594,299.93332926432294 387.6000061035156,299 C385.8666687011719,298.06667073567706 382.5333251953125,296.6000162760417 380.3999938964844,295.8000183105469 C378.26666259765625,295.00002034505206 376.5333506266276,294.7333475748698 374.8000183105469,294.20001220703125 C373.0666859944661,293.6666768391927 372,292.8666737874349 370,292.6000061035156 C368,292.3333384195964 364.8000183105469,292.6000061035156 362.8000183105469,292.6000061035156 C360.8000183105469,292.6000061035156 359.4666697184245,292.4666748046875 358,292.6000061035156 C356.5333302815755,292.73333740234375 355.3333333333333,293.1333262125651 354,293.3999938964844 C352.6666666666667,293.6666615804036 351.3333333333333,293.8000081380208 350,294.20001220703125 C348.6666666666667,294.6000162760417 347.06666564941406,295.1333516438802 346,295.8000183105469 C344.93333435058594,296.46668497721356 345.20000712076825,295.40001424153644 343.6000061035156,298.20001220703125 C342.000005086263,301.00001017252606 338.5333251953125,308.4666748046875 336.3999938964844,312.6000061035156 C334.26666259765625,316.73333740234375 332.2666829427083,319.1333312988281 330.8000183105469,323 C329.33335367838544,326.8666687011719 328.93333943684894,329.1333516438802 327.6000061035156,335.8000183105469 C326.2666727701823,342.46668497721356 324.4000193277995,355.53333536783856 322.8000183105469,363 C321.20001729329425,370.46666463216144 319.06667073567706,374.06667073567706 318,380.6000061035156 C316.93332926432294,387.1333414713542 316.9333241780599,393.53333536783856 316.3999938964844,402.20001220703125 C315.8666636149089,410.86668904622394 314.933349609375,423.66673278808594 314.8000183105469,432.6000671386719 C314.66668701171875,441.5334014892578 315.20000712076825,448.866694132487 315.6000061035156,455.8000183105469 C316.000005086263,462.73334248860675 315.86667887369794,467.00001525878906 317.20001220703125,474.20001220703125 C318.53334554036456,481.40000915527344 321.73334248860675,493.1333363850911 323.6000061035156,499 C325.4666697184245,504.8666636149089 326.6666615804036,506.59999593098956 328.3999938964844,509.3999938964844 C330.1333262125651,512.1999918619791 329.46666463216144,513.3999888102213 334,515.7999877929688 C338.53333536783856,518.1999867757162 346.53334045410156,522.3333129882812 355.6000061035156,523.7999877929688 C364.6666717529297,525.2666625976562 377.46665954589844,524.6000366210938 388.3999938964844,524.6000366210938 C399.3333282470703,524.6000366210938 403.4666798909505,524.999989827474 421.20001220703125,523.7999877929688 C438.933344523112,522.5999857584635 474.13332112630206,520.2000223795573 494.79998779296875,517.4000244140625 C515.4666544596354,514.6000264485677 528.2666727701823,510.8666687011719 545.2000122070312,507 C562.1333516438802,503.1333312988281 578.8000284830729,499.00001017252606 596.4000244140625,494.20001220703125 C614.0000203450521,489.40001424153644 637.5999857584635,482.20001220703125 650.7999877929688,478.20001220703125 C663.999989827474,474.20001220703125 668.5333658854166,472.20001220703125 675.6000366210938,470.20001220703125 C682.6667073567709,468.20001220703125 688.5333455403646,467.00001525878906 693.2000122070312,466.20001220703125 C697.8666788736979,465.40000915527344 701.6000366210938,465.5333302815755 703.6000366210938,465.3999938964844 C705.6000366210938,465.26665751139325 704.8000183105469,465.26665751139325 705.2000122070312,465.3999938964844 C705.6000061035156,465.5333302815755 705.8666687011719,465.8000081380208 706,466.20001220703125 C706.1333312988281,466.6000162760417 706,467.00002034505206 706,467.8000183105469 C706,468.6000162760417 706,469.26666768391925 706,471 C706,472.73333231608075 705.3333333333334,475.00001017252606 706,478.20001220703125 C706.6666666666666,481.40001424153644 708.6666666666666,487.00001525878906 710,490.20001220703125 C711.3333333333334,493.40000915527344 711.7333272298177,495.26666259765625 714,497.3999938964844 C716.2666727701823,499.5333251953125 718.2667032877604,501.3999989827474 723.6000366210938,503 C728.9333699544271,504.6000010172526 739.3333333333334,506.7333221435547 746,507 C752.6666666666666,507.2666778564453 757.0667012532552,505.9334004720052 763.6000366210938,504.6000671386719 C770.1333719889323,503.26673380533856 777.4666849772135,503.40000915527344 785.2000122070312,499 C792.933339436849,494.59999084472656 803.2000020345052,485.1333465576172 810,478.20001220703125 C816.7999979654948,471.2666778564453 821.4666646321615,464.33331807454425 826,457.3999938964844 C830.5333353678385,450.4666697184245 833.7333475748698,445.4000651041667 837.2000122070312,436.6000671386719 C840.6666768391927,427.80006917317706 845.066650390625,412.20001729329425 846.7999877929688,404.6000061035156 C848.5333251953125,396.999994913737 847.4666951497396,395.1333312988281 847.6000366210938,391 C847.7333780924479,386.8666687011719 849.3333740234375,384.7333526611328 847.6000366210938,379.8000183105469 C845.86669921875,374.86668395996094 841.3333536783854,366.59999593098956 837.2000122070312,361.3999938964844 C833.0666707356771,356.1999918619792 829.5999857584635,352.3333384195964 822.7999877929688,348.6000061035156 C815.999989827474,344.8666737874349 812.5333557128906,341.93333435058594 796.4000244140625,339 C780.2666931152344,336.06666564941406 748.1333312988281,332.73333231608075 726,331 C703.8666687011719,329.26666768391925 684.5333658854166,329.000005086263 663.6000366210938,328.6000061035156 C642.6667073567709,328.20000712076825 621.7333577473959,329.2666727701823 600.4000244140625,328.6000061035156 C579.0666910807291,327.93333943684894 550.9333699544271,326.20000712076825 535.6000366210938,324.6000061035156 C520.2667032877604,323.000005086263 515.7333577473959,321.1333312988281 508.4000244140625,319 C501.0666910807292,316.8666687011719 497.0667012532552,315.2666829427083 491.60003662109375,311.8000183105469 C486.1333719889323,308.33335367838544 480.1333719889323,303.1333465576172 475.60003662109375,298.20001220703125 C471.0667012532552,293.2666778564453 467.46669514973956,287.2666778564453 464.4000244140625,282.20001220703125 C461.33335367838544,277.1333465576172 459.3333435058594,272.8666814168294 457.20001220703125,267.8000183105469 C455.0666809082031,262.73335520426434 453.2000325520833,256.0667037963867 451.60003662109375,251.80003356933594 C450.0000406901042,247.53336334228516 448.80003865559894,245.53333028157553 447.60003662109375,242.1999969482422 C446.40003458658856,238.86666361490884 445.46669514973956,234.73336537679037 444.4000244140625,231.80003356933594 C443.33335367838544,228.8667017618815 442.1333465576172,227.80001068115234 441.20001220703125,224.60000610351562 C440.2666778564453,221.4000015258789 439.33335367838544,216.06666819254556 438.8000183105469,212.60000610351562 C438.2666829427083,209.1333440144857 438.26666768391925,207.6666997273763 438,203.80003356933594 C437.73333231608075,199.93336741129556 436.6666768391927,195.9333470662435 437.20001220703125,189.40000915527344 C437.7333475748698,182.86667124430338 439.4666748046875,171.80000813802084 441.20001220703125,164.60000610351562 C442.933349609375,157.4000040690104 445.3333740234375,151.39999643961588 447.60003662109375,146.1999969482422 Q449.86669921875,140.9999974568685 454.79998779296875,133.40000915527344" stroke-linejoin="round" stroke-linecap="round" stroke-width="3" stroke="#000000" fill="none"></path><path d="M277.20001220703125,451 C275.86667887369794,450.73333231608075 271.86667887369794,449.79998270670575 269.20001220703125,449.3999938964844 C266.53334554036456,449.000005086263 264.933344523112,449.26673380533856 261.20001220703125,448.6000671386719 C257.4666798909505,447.9334004720052 249.86668395996094,446.2000020345052 246.80001831054688,445.3999938964844 C243.7333526611328,444.59998575846356 244.13335164388022,444.46668497721356 242.80001831054688,443.8000183105469 C241.46668497721353,443.1333516438802 239.7333526611328,442.59998575846356 238.80001831054688,441.3999938964844 C237.86668395996094,440.2000020345052 237.60001627604166,439.4000651041667 237.20001220703125,436.6000671386719 C236.80000813802084,433.80006917317706 236.26666259765625,428.7333475748698 236.39999389648438,424.6000061035156 C236.5333251953125,420.46666463216144 236,418.0666859944661 238,411.8000183105469 C240,405.5333506266276 245.46665954589844,393.53333536783856 248.39999389648438,387 C251.3333282470703,380.46666463216144 253.60000610351562,376.20000712076825 255.60000610351562,372.6000061035156 C257.6000061035156,369.000005086263 258.5333251953125,367.79999287923175 260.3999938964844,365.3999938964844 C262.26666259765625,362.999994913737 264.933349609375,360.3333435058594 266.8000183105469,358.20001220703125 C268.66668701171875,356.0666809082031 269.73334248860675,355.000005086263 271.6000061035156,352.6000061035156 C273.4666697184245,350.20000712076825 273.6000010172526,348.33335367838544 278,343.8000183105469 C282.3999989827474,339.2666829427083 291.73333231608075,330.8666636149089 298,325.3999938964844 C304.26666768391925,319.9333241780599 309.4666697184245,315.7999979654948 315.6000061035156,311 C321.73334248860675,306.2000020345052 327.20001729329425,302.20000712076825 334.8000183105469,296.6000061035156 C342.4000193277995,291.000005086263 354.8000132242839,282.3333282470703 361.20001220703125,277.3999938964844 C367.6000111897786,272.46665954589844 369.3333485921224,270.06666564941406 373.20001220703125,267 C377.0666758219401,263.93333435058594 380.79999287923175,261.2666651407878 384.3999938964844,259 C387.999994913737,256.7333348592122 390.2666829427083,256.0666758219401 394.8000183105469,253.40000915527344 C399.33335367838544,250.73334248860678 406.8000081380208,246.46666717529297 411.6000061035156,243 C416.40000406901044,239.53333282470703 418.93333943684894,236.46666717529297 423.6000061035156,232.60000610351562 C428.2666727701823,228.73334503173828 433.0666758219401,224.60002899169922 439.6000061035156,219.80003356933594 C446.1333363850911,215.00003814697266 456.9333241780599,207.6667048136393 462.79998779296875,203.80003356933594 C468.6666514078776,199.93336232503256 469.46665445963544,198.73334503173828 474.79998779296875,196.60000610351562 C480.13332112630206,194.46666717529297 489.46665445963544,192.6000010172526 494.79998779296875,191 C500.13332112630206,189.3999989827474 502.13332112630206,188.1999944051107 506.79998779296875,187 C511.46665445963544,185.8000055948893 517.1999816894531,184.60003153483072 522.7999877929688,183.80003356933594 Q528.3999938964844,183.00003560384116 540.4000244140625,182.20001220703125" stroke-linejoin="round" stroke-linecap="round" stroke-width="3" stroke="#000000" fill="none"></path><path d="M680.4000244140625,256.6000061035156 C680.4000244140625,256.8666737874349 680.2666931152344,257.53334554036456 680.4000244140625,258.20001220703125 C680.5333557128906,258.86667887369794 680.933349609375,259.6666717529297 681.2000122070312,260.6000061035156 C681.4666748046875,261.53334045410156 681.8666687011719,263.1333516438802 682,263.8000183105469 C682.1333312988281,264.46668497721356 682,264.3333435058594 682,264.6000061035156 C682,264.8666687011719 682,265.1333262125651 682,265.3999938964844 C682,265.6666615804036 682,265.933344523112 682,266.20001220703125 C682,266.4666798909505 682,266.6000010172526 682,267 C682,267.3999989827474 682.1333312988281,268.20000712076825 682,268.6000061035156 C681.8666687011719,269.000005086263 681.4666748046875,268.999994913737 681.2000122070312,269.3999938964844 C680.933349609375,269.79999287923175 680.5333557128906,270.3333333333333 680.4000244140625,271 C680.2666931152344,271.6666666666667 680.5333557128906,272.8666585286458 680.4000244140625,273.3999938964844 C680.2666931152344,273.93332926432294 679.866709391276,273.6666768391927 679.6000366210938,274.20001220703125 C679.3333638509115,274.7333475748698 679.999989827474,273.8000081380208 678.7999877929688,276.6000061035156 C677.5999857584635,279.40000406901044 674.5333557128906,285.53333536783856 672.4000244140625,291 C670.2666931152344,296.46666463216144 668.1333312988281,303.1333262125651 666,309.3999938964844 C663.8666687011719,315.6666615804036 662.1333719889323,321.6666717529297 659.6000366210938,328.6000061035156 C657.0667012532552,335.53334045410156 652.9333292643229,345.1333312988281 650.7999877929688,351 C648.6666463216146,356.8666687011719 647.9999796549479,359.933349609375 646.7999877929688,363.8000183105469 C645.5999959309896,367.66668701171875 644.5333658854166,370.4666798909505 643.6000366210938,374.20001220703125 C642.6667073567709,377.933344523112 641.8666788736979,383.53334554036456 641.2000122070312,386.20001220703125 C640.5333455403646,388.86667887369794 640.0000406901041,388.7333475748698 639.6000366210938,390.20001220703125 C639.2000325520834,391.6666768391927 639.1999918619791,393.1333363850911 638.7999877929688,395 C638.3999837239584,396.8666636149089 637.4666748046875,399.6666615804036 637.2000122070312,401.3999938964844 C636.933349609375,403.1333262125651 637.6000162760416,403.3999938964844 637.2000122070312,405.3999938964844 C636.8000081380209,407.3999938964844 635.1999918619791,410.7333272298177 634.7999877929688,413.3999938964844 C634.3999837239584,416.06666056315106 634.9333190917969,418.8666585286458 634.7999877929688,421.3999938964844 C634.6666564941406,423.93332926432294 634.1333312988281,426.06666056315106 634,428.6000061035156 C633.8666687011719,431.1333516438802 633.7333272298177,433.2667236328125 634,436.6000671386719 C634.2666727701823,439.93341064453125 635.2000325520834,445.4000752766927 635.6000366210938,448.6000671386719 C636.0000406901041,451.80005900065106 635.86669921875,453.1333516438802 636.4000244140625,455.8000183105469 C636.933349609375,458.46668497721356 637.4666544596354,460.0667368570964 638.7999877929688,464.6000671386719 C640.1333211263021,469.1333974202474 642.8000183105469,477.53334554036456 644.4000244140625,483 C646.0000305175781,488.46665445963544 647.0666910807291,492.46665445963544 648.4000244140625,497.3999938964844 C649.7333577473959,502.3333333333333 650.8000284830729,506.3333689371745 652.4000244140625,512.6000366210938 C654.0000203450521,518.8667043050131 656.7999979654948,529.8000081380209 658,535 C659.2000020345052,540.1999918619791 659.2000325520834,541.5333150227865 659.6000366210938,543.7999877929688 C660.0000406901041,546.066660563151 660.2666931152344,547.5333658854166 660.4000244140625,548.6000366210938 C660.5333557128906,549.6667073567709 660.2666931152344,549.933349609375 660.4000244140625,550.2000122070312 C660.5333557128906,550.4666748046875 660.933349609375,550.2000122070312 661.2000122070312,550.2000122070312 C661.4666748046875,550.2000122070312 661.7333374023438,550.2000122070312 662,550.2000122070312 C662.2666625976562,550.2000122070312 662.3999837239584,550.2000122070312 662.7999877929688,550.2000122070312 C663.1999918619791,550.2000122070312 664.0000203450521,550.2000122070312 664.4000244140625,550.2000122070312 C664.8000284830729,550.2000122070312 665.0666809082031,550.3333435058594 665.2000122070312,550.2000122070312 C665.3333435058594,550.0666809082031 662.4000142415365,550.0666910807291 665.2000122070312,549.4000244140625 C668.000010172526,548.7333577473959 677.2000020345052,546.8666788736979 682,546.2000122070312 C686.7999979654948,545.5333455403646 690.1333312988281,545.6666870117188 694,545.4000244140625 C697.8666687011719,545.1333618164062 701.7333475748698,544.866709391276 705.2000122070312,544.6000366210938 C708.6666768391927,544.3333638509115 712.9333190917969,543.9333292643229 714.7999877929688,543.7999877929688 C716.6666564941406,543.6666463216146 716.0000203450521,543.9333190917969 716.4000244140625,543.7999877929688 C716.8000284830729,543.6666564941406 716.933349609375,543.1333312988281 717.2000122070312,543 C717.4666748046875,542.8666687011719 717.8666687011719,543.1333312988281 718,543 Q718.1333312988281,542.8666687011719 718,542.2000122070312" stroke-linejoin="round" stroke-linecap="round" stroke-width="3" stroke="#000000" fill="none"></path><path d="M19.599998474121094,87 C19.73333231608073,85.66666666666667 19.600001017252605,83.53333346048991 20.400001525878906,79 C21.200002034505207,74.46666653951009 22.80000178019206,65.79999923706055 24.400001525878906,59.79999923706055 C26.000001271565754,53.79999923706055 28.266666412353516,47.66666603088379 30,43 C31.733333587646484,38.33333396911621 33.333335876464844,34.86666997273763 34.80000305175781,31.800003051757812 C36.26667022705078,28.733336130777996 37.60000356038412,26.333332061767578 38.80000305175781,24.599998474121094 C40.00000254313151,22.86666488647461 40.40000025431315,22.46666717529297 42,21.400001525878906 C43.59999974568685,20.333335876464844 44.666666666666664,19.53333791097005 48.400001525878906,18.20000457763672 C52.13333638509115,16.866671244303387 59.60000991821289,14.73333485921224 64.40000915527344,13.400001525878906 C69.20000839233398,12.066668192545572 73.19999694824219,10.73333740234375 77.19999694824219,10.200004577636719 C81.19999694824219,9.666671752929688 84.6666742960612,10.066672007242838 88.40000915527344,10.200004577636719 C92.13334401448567,10.3333371480306 96.93333943684895,10.600001017252604 99.60000610351562,11 C102.2666727701823,11.399998982747396 103.20000966389973,11.933331807454428 104.40000915527344,12.599998474121094 C105.60000864664714,13.26666514078776 105.46666971842448,13.533332824707031 106.80000305175781,15 C108.13333638509114,16.46666717529297 110.80000813802083,19.133334795633953 112.40000915527344,21.400001525878906 C114.00001017252605,23.66666825612386 115.46667734781902,25.93333371480306 116.40000915527344,28.600000381469727 C117.33334096272786,31.266667048136394 117.73333485921223,34.46666685740153 118,37.400001525878906 C118.26666514078777,40.333336194356285 118,44.20000712076823 118,46.200008392333984 C118,48.20000966389974 118,48.3333428700765 118,49.40000915527344 C118,50.466675440470375 118,51.93333880106608 118,52.600006103515625 C118,53.26667340596517 118.39999898274739,53.13334719340006 118,53.4000129699707 C117.60000101725261,53.66667874654134 116.2666727701823,54.06666946411133 115.60000610351562,54.20000076293945 C114.93333943684895,54.33333206176758 114.53333282470703,54.20000076293945 114,54.20000076293945 C113.46666717529297,54.20000076293945 112.93334197998047,54.20000076293945 112.40000915527344,54.20000076293945 C111.8666763305664,54.20000076293945 111.20000457763672,54.33333206176758 110.80000305175781,54.20000076293945 C110.4000015258789,54.06666946411133 110.53333282470703,54.60001309712728 110,53.4000129699707 C109.46666717529297,52.200012842814125 108.00000508626302,48.466668446858726 107.60000610351562,47 C107.20000712076823,45.533331553141274 107.46667226155598,45.53333536783854 107.60000610351562,44.60000228881836 C107.73333994547527,43.66666920979818 107.8666763305664,42.600001653035484 108.40000915527344,41.400001525878906 C108.93334197998047,40.20000139872233 110.13333638509114,38.466668446858726 110.80000305175781,37.400001525878906 C111.46666971842448,36.333334604899086 111.60000864664714,35.533332188924156 112.40000915527344,35 C113.20000966389973,34.466667811075844 113.0666732788086,34.4666748046875 115.60000610351562,34.200008392333984 C118.13333892822266,33.93334197998047 123.60000610351562,33.266669591267906 127.60000610351562,33.400001525878906 C131.60000610351562,33.53333346048991 135.466672261556,33.533332188924156 139.60000610351562,35 C143.73333994547525,36.466667811075844 146.53334299723306,38.60000737508138 152.40000915527344,42.200008392333984 C158.2666753133138,45.800009409586586 168.6666692097982,51.66667366027832 174.8000030517578,56.600006103515625 C180.93333689371744,61.53333854675293 185.20000966389975,66.86666997273763 189.20001220703125,71.80000305175781 C193.20001475016275,76.733336130778 196.0000203450521,80.60000228881836 198.80001831054688,86.20000457763672 C201.60001627604166,91.80000686645508 204.4000040690104,100.7333501180013 206,105.40001678466797 C207.5999959309896,110.06668345133464 207.99999491373697,111.80000686645508 208.39999389648438,114.20000457763672 C208.79999287923178,116.60000228881836 208.5333251953125,118.46666971842448 208.39999389648438,119.80000305175781 C208.26666259765625,121.13333638509114 208.13333638509116,121.80000432332356 207.60000610351562,122.20000457763672 C207.0666758219401,122.60000483194987 206.1333465576172,122.20000457763672 205.20001220703125,122.20000457763672 C204.2666778564453,122.20000457763672 207.6000010172526,122.86667124430339 202,122.20000457763672 C196.3999989827474,121.53333791097005 181.33333841959634,120.46667226155598 171.60000610351562,118.20000457763672 C161.8666737874349,115.93333689371745 152.00000762939453,112.06666310628255 143.60000610351562,108.5999984741211 C135.20000457763672,105.13333384195964 128.26666514078775,102.33334986368816 121.19999694824219,97.40001678466797 C114.13332875569661,92.46668370564778 105.06666310628255,84.60000292460124 101.19999694824219,79 C97.33333079020183,73.39999707539876 98.39999898274739,68.86666488647461 98,63.79999923706055 C97.60000101725261,58.733333587646484 95.46666971842448,55.66667238871256 98.80000305175781,48.600006103515625 C102.13333638509114,41.53333981831869 111.1999994913737,29.00000254313151 118,21.400001525878906 Q124.8000005086263,13.800000508626301 139.60000610351562,3" stroke-linejoin="round" stroke-linecap="round" stroke-width="3" stroke="#000000" fill="none"></path></svg>