<svg xmlns="http://www.w3.org/2000/svg" version="1.1" xmlns:xlink="http://www.w3.org/1999/xlink" xmlns:svgjs="http://svgjs.com/svgjs" width="100%" height="100%" id="drawing-svg"><path d="M124.80000305175781,225.40000915527344 C124.80000305175781,224.60000864664713 124.80000305175781,222.4666748046875 124.80000305175781,220.60000610351562 C124.80000305175781,218.73333740234375 124.80000305175781,216.1999969482422 124.80000305175781,214.1999969482422 C124.80000305175781,212.1999969482422 124.80000305175781,212.33333841959634 124.80000305175781,208.60000610351562 C124.80000305175781,204.8666737874349 124.26667022705078,196.46666971842447 124.80000305175781,191.8000030517578 C125.33333587646484,187.13333638509116 126.93333435058594,183.93333943684897 128,180.60000610351562 C129.06666564941406,177.26667277018228 128.9333292643229,175.93333689371744 131.1999969482422,171.8000030517578 C133.46666463216147,167.6666692097982 137.60000610351562,159.8000030517578 141.60000610351562,155.8000030517578 C145.60000610351562,151.8000030517578 151.06666310628256,149.8000030517578 155.1999969482422,147.8000030517578 C159.3333307902018,145.8000030517578 162.53334045410156,144.60000356038412 166.40000915527344,143.8000030517578 C170.2666778564453,143.0000025431315 175.33334350585938,143 178.40000915527344,143 C181.4666748046875,143 182.6666692097982,143.13333638509116 184.8000030517578,143.8000030517578 C186.93333689371744,144.46666971842447 188.40001169840494,144.6000010172526 191.20001220703125,147 C194.00001271565756,149.3999989827474 198.53334045410156,154.5999959309896 201.60000610351562,158.1999969482422 C204.6666717529297,161.79999796549478 207.33333841959634,165.26667277018228 209.60000610351562,168.60000610351562 C211.8666737874349,171.93333943684897 212.80001322428384,174.46666463216147 215.20001220703125,178.1999969482422 C217.60001118977866,181.9333292643229 221.46666971842447,187.66666666666666 224,191 C226.53333028157553,194.33333333333334 227.3333282470703,195.53333028157553 230.39999389648438,198.1999969482422 C233.46665954589844,200.86666361490884 236.66665649414062,204.46666463216147 242.39999389648438,207 C248.13333129882812,209.53333536783853 257.86668395996094,211.40000915527344 264.8000183105469,213.40000915527344 C271.7333526611328,215.40000915527344 277.3333333333333,217.53333536783853 284,219 C290.6666666666667,220.46666463216147 298.1333516438802,220.9999974568685 304.8000183105469,222.1999969482422 C311.46668497721356,223.39999643961588 319.4666697184245,225.13332875569662 324,226.1999969482422 C328.5333302815755,227.26666514078775 330.26666768391925,227.93333943684897 332,228.60000610351562 C333.73333231608075,229.26667277018228 333.1999918619792,229.39999643961588 334.3999938964844,230.1999969482422 C335.59999593098956,230.9999974568685 337.20001220703125,231.13334147135416 339.20001220703125,233.40000915527344 C341.20001220703125,235.66667683919272 344.3999938964844,239.6666692097982 346.3999938964844,243.8000030517578 C348.3999938964844,247.93333689371744 348.933344523112,252.20000966389975 351.20001220703125,258.20001220703125 C353.4666798909505,264.2000147501628 357.4666697184245,273.8000183105469 360,279.8000183105469 C362.5333302815755,285.8000183105469 364.3999938964844,289.2666829427083 366.3999938964844,294.20001220703125 C368.3999938964844,299.1333414713542 369.8666636149089,304.59999593098956 372,309.3999938964844 C374.1333363850911,314.1999918619792 377.6000111897786,319.5333302815755 379.20001220703125,323 Q380.8000132242839,326.4666697184245 381.6000061035156,330.20001220703125" stroke-linejoin="round" stroke-linecap="round" stroke-width="3" stroke="#000000" fill="none"></path><path d="M140,279.8000183105469 C140.53333282470703,279.933349609375 140.66666412353516,279.1333414713542 143.1999969482422,280.6000061035156 C145.73332977294922,282.06667073567706 149.99999491373697,285.93333943684894 155.1999969482422,288.6000061035156 C160.3999989827474,291.2666727701823 167.466672261556,293.8000081380208 174.40000915527344,296.6000061035156 C181.33334604899088,299.40000406901044 187.86668650309244,302.3333282470703 196.80001831054688,305.3999938964844 C205.7333501180013,308.46665954589844 218.66666666666666,312.59999593098956 228,315 C237.33333333333334,317.40000406901044 244.00001525878906,318.7333526611328 252.80001831054688,319.8000183105469 C261.6000213623047,320.86668395996094 269.86668904622394,320.999994913737 280.8000183105469,321.3999938964844 C291.7333475748698,321.79999287923175 308.93332926432294,322.3333435058594 318.3999938964844,322.20001220703125 C327.8666585286458,322.0666809082031 332.1333363850911,320.8666737874349 337.6000061035156,320.6000061035156 C343.0666758219401,320.3333384195964 347.6000111897786,320.6000061035156 351.20001220703125,320.6000061035156 C354.8000132242839,320.6000061035156 357.3333485921224,320.6000061035156 359.20001220703125,320.6000061035156 C361.0666758219401,320.6000061035156 361.46665954589844,320.3333384195964 362.3999938964844,320.6000061035156 C363.3333282470703,320.8666737874349 363.7333475748698,321.00001017252606 364.8000183105469,322.20001220703125 C365.86668904622394,323.40001424153644 367.7333526611328,325.4000193277995 368.8000183105469,327.8000183105469 C369.86668395996094,330.20001729329425 370.40001424153644,333.40000915527344 371.20001220703125,336.6000061035156 C372.00001017252606,339.8000030517578 373.0666758219401,344.73333231608075 373.6000061035156,347 C374.1333363850911,349.26666768391925 374.1333262125651,349.00001017252606 374.3999938964844,350.20001220703125 C374.6666615804036,351.40001424153644 374.8000081380208,353.40001424153644 375.20001220703125,354.20001220703125 C375.6000162760417,355.00001017252606 376.5333506266276,354.73333231608075 376.8000183105469,355 C377.0666859944661,355.26666768391925 376.8000183105469,355.5333506266276 376.8000183105469,355.8000183105469 C376.8000183105469,356.0666859944661 376.8000183105469,355.8000081380208 376.8000183105469,356.6000061035156 C376.8000183105469,357.40000406901044 376.5333557128906,357.2666727701823 376.8000183105469,360.6000061035156 C377.0666809082031,363.93333943684894 378.1333312988281,372.4666748046875 378.3999938964844,376.6000061035156 C378.6666564941406,380.73333740234375 378.3999938964844,383.26666259765625 378.3999938964844,385.3999938964844 C378.3999938964844,387.5333251953125 378.5333251953125,386.99998982747394 378.3999938964844,389.3999938964844 C378.26666259765625,391.7999979654948 377.73333740234375,397.8000183105469 377.6000061035156,399.8000183105469 Q377.4666748046875,401.8000183105469 377.6000061035156,401.3999938964844" stroke-linejoin="round" stroke-linecap="round" stroke-width="3" stroke="#000000" fill="none"></path><path d="M167.1999969482422,247 C167.86666361490884,246.33333333333334 169.5999959309896,244.46666717529297 171.1999969482422,243 C172.79999796549478,241.53333282470703 175.06666819254556,239.66666412353516 176.8000030517578,238.1999969482422 C178.53333791097006,236.73332977294922 180.13333892822266,235.26666259765625 181.60000610351562,234.1999969482422 C183.0666732788086,233.13333129882812 184.80000813802084,232.6000010172526 185.60000610351562,231.8000030517578 C186.4000040690104,231.00000508626303 186.1333262125651,229.80000813802084 186.39999389648438,229.40000915527344 C186.66666158040366,229.00001017252603 187.0666758219401,229.53334299723306 187.20001220703125,229.40000915527344 C187.3333485921224,229.2666753133138 187.20001220703125,228.8666737874349 187.20001220703125,228.60000610351562 Q187.20001220703125,228.33333841959634 187.20001220703125,227.8000030517578" stroke-linejoin="round" stroke-linecap="round" stroke-width="3" stroke="#000000" fill="none"></path><path d="M25.599998474121094,54.20000076293945 C25.999998728434246,53.66666730244955 26.933333079020183,52.333333333333336 28,51 C29.066666920979817,49.666666666666664 29.733333587646484,48.73333422342936 32,46.20000076293945 C34.266666412353516,43.66666730244955 38.666665395100914,39.13333257039388 41.599998474121094,35.79999923706055 C44.533331553141274,32.46666590372721 46.666665395100914,29.40000057220459 49.599998474121094,26.200000762939453 C52.533331553141274,23.000000953674316 55.8666623433431,19.133333841959637 59.19999694824219,16.600000381469727 C62.533331553141274,14.066666920979818 64.93333943684895,12.199999968210856 69.60000610351562,11 C74.2666727701823,9.800000031789144 82.53333028157552,9.666667143503824 87.19999694824219,9.40000057220459 C91.86666361490886,9.133334000905355 94.66667175292969,9.266667366027832 97.60000610351562,9.40000057220459 C100.53334045410156,9.533333778381348 102.53333791097005,9.799999872843424 104.80000305175781,10.199999809265137 C107.06666819254558,10.59999974568685 108.7999979654948,10.600000222524008 111.19999694824219,11.800000190734863 C113.59999593098958,13.000000158945719 117.19999694824219,15.933332920074463 119.19999694824219,17.399999618530273 C121.19999694824219,18.866666316986084 121.73332977294922,19.133333524068195 123.19999694824219,20.600000381469727 C124.66666412353516,22.066667238871258 126.66666666666667,25.00000063578288 128,26.200000762939453 C129.33333333333334,27.400000890096027 130.39999643961588,27.000001271565754 131.1999969482422,27.80000114440918 C131.9999974568685,28.600001017252605 131.6000010172526,30.06666660308838 132.8000030517578,31 C134.00000508626303,31.93333339691162 136.66667683919272,32.333334604899086 138.40000915527344,33.400001525878906 C140.13334147135416,34.466668446858726 141.5999984741211,36.20000139872233 143.1999969482422,37.400001525878906 C144.79999542236328,38.600001653035484 145.86666615804037,39.66666920979818 148,40.60000228881836 C150.13333384195963,41.53333536783854 152.3999989827474,41.666666666666664 156,43 C159.6000010172526,44.333333333333336 165.20000457763672,46.73333549499512 169.60000610351562,48.60000228881836 C174.00000762939453,50.4666690826416 178.2666778564453,52.466667811075844 182.40000915527344,54.20000076293945 C186.53334045410156,55.93333371480306 188.79999542236328,56.60000038146973 194.39999389648438,59 C199.99999237060547,61.39999961853027 210.53333028157553,66.33333206176758 216,68.5999984741211 C221.46666971842447,70.86666488647461 223.8666788736979,71.53333155314128 227.20001220703125,72.5999984741211 C230.5333455403646,73.6666653951009 232.93333435058594,74.33333333333333 236,75 C239.06666564941406,75.66666666666667 242.4000040690104,76.33333206176758 245.60000610351562,76.5999984741211 C248.80000813802084,76.86666488647461 251.46667989095053,77.26666514078777 255.20001220703125,76.5999984741211 C258.933344523112,75.93333180745442 263.4666697184245,74.19999821980794 268,72.5999984741211 C272.5333302815755,70.99999872843425 278.6666615804036,68.59999974568684 282.3999938964844,67 C286.1333262125651,65.40000025431316 287.7333272298177,64.33333333333333 290.3999938964844,63 C293.06666056315106,61.666666666666664 295.59999084472656,60.46666653951009 298.3999938964844,59 C301.1999969482422,57.53333346048991 305.0666758219401,55.26666704813639 307.20001220703125,54.20000076293945 Q309.3333485921224,53.133334477742515 311.20001220703125,52.60000228881836" stroke-linejoin="round" stroke-linecap="round" stroke-width="3" stroke="#000000" fill="none"></path><path d="M393.20001220703125,119 C394.6666768391927,119 398.53333536783856,119 402,119 C405.46666463216144,119 406.3999938964844,118.59999974568684 414,119 C421.6000061035156,119.40000025431316 436.80003865559894,120.86666742960612 447.60003662109375,121.4000015258789 C458.40003458658856,121.93333562215169 464.3999938964844,121.00000381469727 478.79998779296875,122.20000457763672 C493.1999816894531,123.40000534057617 519.8666585286459,126.33333969116211 534,128.60000610351562 C548.1333414713541,130.86667251586914 554.5333658854166,133.26667022705078 563.6000366210938,135.8000030517578 C572.6667073567709,138.33333587646484 580.933359781901,140.60000356038412 588.4000244140625,143.8000030517578 C595.866689046224,147.0000025431315 603.866689046224,152.33333333333334 608.4000244140625,155 C612.933359781901,157.66666666666666 613.4667053222656,157.8000030517578 615.6000366210938,159.8000030517578 C617.7333679199219,161.8000030517578 619.7333475748698,163 621.2000122070312,167 C622.6666768391927,171 623.866689046224,177.6666692097982 624.4000244140625,183.8000030517578 C624.933359781901,189.93333689371744 624.5333557128906,196.86666870117188 624.4000244140625,203.8000030517578 C624.2666931152344,210.73333740234375 624.1333719889323,215.40000661214194 623.6000366210938,225.40000915527344 C623.0667012532552,235.40001169840494 621.6000162760416,253.66668446858725 621.2000122070312,263.8000183105469 C620.8000081380209,273.93335215250653 620.933349609375,278.20001220703125 621.2000122070312,286.20001220703125 C621.4666748046875,294.20001220703125 621.066650390625,302.7333526611328 622.7999877929688,311.8000183105469 C624.5333251953125,320.86668395996094 628.9333699544271,332.3333435058594 631.6000366210938,340.6000061035156 C634.2667032877604,348.8666687011719 636.1333211263021,354.7333272298177 638.7999877929688,361.3999938964844 C641.4666544596354,368.06666056315106 644.0000305175781,373.53333536783856 647.6000366210938,380.6000061035156 C651.2000427246094,387.6666768391927 657.0666910807291,397.5333506266276 660.4000244140625,403.8000183105469 C663.7333577473959,410.0666859944661 666.0000406901041,414.4666798909505 667.6000366210938,418.20001220703125 C669.2000325520834,421.933344523112 669.3333333333334,424.0666809082031 670,426.20001220703125 C670.6666666666666,428.3333435058594 671.86669921875,429.93333435058594 671.6000366210938,431 C671.3333740234375,432.06666564941406 669.86669921875,431.2666727701823 668.4000244140625,432.6000061035156 C666.933349609375,433.93333943684894 665.4666544596354,436.06666564941406 662.7999877929688,439 C660.1333211263021,441.93333435058594 656.0000203450521,446.73334248860675 652.4000244140625,450.20001220703125 C648.8000284830729,453.66668192545575 644.000010172526,456.86668395996094 641.2000122070312,459.8000183105469 C638.4000142415365,462.7333526611328 637.4667053222656,465.4000193277995 635.6000366210938,467.8000183105469 C633.7333679199219,470.20001729329425 631.6000061035156,472.4666798909505 630,474.20001220703125 C628.3999938964844,475.933344523112 627.066660563151,476.7333475748698 626,478.20001220703125 C624.933339436849,479.6666768391927 624.0000305175781,481.6666666666667 623.6000366210938,483 C623.2000427246094,484.3333333333333 623.7333780924479,485.40000915527344 623.6000366210938,486.20001220703125 C623.4666951497396,487.00001525878906 623.8666585286459,486.86668395996094 622.7999877929688,487.8000183105469 C621.7333170572916,488.7333526611328 618.4000040690104,490.86668904622394 617.2000122070312,491.8000183105469 Q616.0000203450521,492.7333475748698 615.6000366210938,493.3999938964844" stroke-linejoin="round" stroke-linecap="round" stroke-width="3" stroke="#000000" fill="none"></path></svg>