<svg xmlns="http://www.w3.org/2000/svg" version="1.1" xmlns:xlink="http://www.w3.org/1999/xlink" xmlns:svgjs="http://svgjs.com/svgjs" width="100%" height="100%" id="drawing-svg"><path d="M156.8000030517578,243.8000030517578 C162.0000025431315,236.46666971842447 179.73333485921225,211.13333638509116 188,199.8000030517578 C196.26666514078775,188.46666971842447 202.26665751139322,181.6666692097982 206.39999389648438,175.8000030517578 C210.53333028157553,169.93333689371744 211.20001729329428,167.26667277018228 212.80001831054688,164.60000610351562 C214.40001932779947,161.93333943684897 215.46666971842447,160.73333740234375 216,159.8000030517578 C216.53333028157553,158.86666870117188 217.46666463216147,159.26666768391928 216,159 C214.53333536783853,158.73333231608072 212.66667938232422,156.86666361490884 207.20001220703125,158.1999969482422 C201.73334503173828,159.53333028157553 190.26666514078775,163.66666666666666 183.1999969482422,167 C176.13332875569662,170.33333333333334 171.46666971842447,174.46666208902994 164.8000030517578,178.1999969482422 C158.13333638509116,181.93333180745444 147.5999959309896,187.2666753133138 143.1999969482422,189.40000915527344 C138.79999796549478,191.53334299723306 139.4666748046875,190.6000010172526 138.40000915527344,191 C137.33334350585938,191.3999989827474 136.93333689371744,191.93333689371744 136.8000030517578,191.8000030517578 C136.6666692097982,191.6666692097982 136.13333892822266,192.5999959309896 137.60000610351562,190.1999969482422 C139.0666732788086,187.79999796549478 142.00000762939453,182.4666748046875 145.60000610351562,177.40000915527344 C149.20000457763672,172.33334350585938 155.3333307902018,164.73333740234375 159.1999969482422,159.8000030517578 C163.06666310628256,154.86666870117188 166.13333638509116,151.4000040690104 168.8000030517578,147.8000030517578 C171.46666971842447,144.20000203450522 173.86666361490884,140.06666310628256 175.1999969482422,138.1999969482422 C176.53333028157553,136.3333307902018 176.53333536783853,137.00000508626303 176.8000030517578,136.60000610351562 C177.0666707356771,136.20000712076822 176.6666692097982,135.4000040690104 176.8000030517578,135.8000030517578 C176.93333689371744,136.20000203450522 177.33333841959634,136.6000010172526 177.60000610351562,139 C177.8666737874349,141.3999989827474 176.93334452311197,144.86666361490884 178.40000915527344,150.1999969482422 C179.8666737874349,155.53333028157553 183.3333257039388,165.26666514078775 186.39999389648438,171 C189.46666208902994,176.73333485921225 193.06668090820312,180.466672261556 196.80001831054688,184.60000610351562 C200.53335571289062,188.73333994547525 204.53335571289062,192.20000457763672 208.80001831054688,195.8000030517578 C213.06668090820312,199.4000015258789 217.86666361490884,202.73332977294922 222.39999389648438,206.1999969482422 C226.9333241780599,209.66666412353516 233.06666564941406,214.0666707356771 236,216.60000610351562 C238.93333435058594,219.13334147135416 238.66666666666666,219.66667683919272 240,221.40000915527344 C241.33333333333334,223.13334147135416 242.93333435058594,224.73333485921225 244,227 C245.06666564941406,229.26666514078775 245.73332722981772,231.93333180745444 246.39999389648438,235 C247.06666056315103,238.06666819254556 246.9333292643229,241.93334197998047 248,245.40000915527344 C249.0666707356771,248.8666763305664 249.60001627604166,251.26667022705078 252.80001831054688,255.8000030517578 C256.00002034505206,260.33333587646484 262.8000132242839,268.0666732788086 267.20001220703125,272.6000061035156 C271.6000111897786,277.13333892822266 273.86667887369794,278.8666687011719 279.20001220703125,283 C284.53334554036456,287.1333312988281 293.86667887369794,293.5333251953125 299.20001220703125,297.3999938964844 C304.53334554036456,301.26666259765625 307.6000111897786,303.2666778564453 311.20001220703125,306.20001220703125 C314.8000132242839,309.1333465576172 317.86668395996094,312.2000020345052 320.8000183105469,315 C323.7333526611328,317.7999979654948 326.5333557128906,320.6000010172526 328.8000183105469,323 C331.0666809082031,325.3999989827474 333.1999969482422,327.26665751139325 334.3999938964844,329.3999938964844 C335.59999084472656,331.5333302815755 336,333.8000183105469 336,335.8000183105469 C336,337.8000183105469 336.9333241780599,337.5333302815755 334.3999938964844,341.3999938964844 C331.8666636149089,345.26665751139325 325.6000162760417,353.7999979654948 320.8000183105469,359 C316.00002034505206,364.2000020345052 310.53334045410156,368.20000712076825 305.6000061035156,372.6000061035156 C300.6666717529297,377.000005086263 296.6666768391927,380.999994913737 291.20001220703125,385.3999938964844 C285.7333475748698,389.79999287923175 276.933354695638,396.1999969482422 272.8000183105469,399 C268.66668192545575,401.8000030517578 268.7999979654948,402.20001220703125 266.3999938964844,402.20001220703125 C263.99998982747394,402.20001220703125 261.1999918619792,403 258.3999938964844,399 C255.5999959309896,395 251.33333841959634,386.3333435058594 249.60000610351562,378.20001220703125 C247.8666737874349,370.0666809082031 248.26666768391928,360.3333485921224 248,350.20001220703125 C247.73333231608072,340.0666758219401 246.13333129882812,333.3999964396159 248,317.3999938964844 C249.86666870117188,301.39999135335285 255.60001118977866,269.7999954223633 259.20001220703125,254.1999969482422 C262.8000132242839,238.5999984741211 265.20000712076825,235.4000015258789 269.6000061035156,223.8000030517578 C274.000005086263,212.20000457763672 280.93333943684894,194.20000712076822 285.6000061035156,184.60000610351562 C290.2666727701823,175.00000508626303 293.73333740234375,172.06666310628256 297.6000061035156,166.1999969482422 C301.4666748046875,160.3333307902018 305.6000162760417,154.4666748046875 308.8000183105469,149.40000915527344 C312.00002034505206,144.33334350585938 314.933354695638,140.20000457763672 316.8000183105469,135.8000030517578 C318.66668192545575,131.4000015258789 319.6000010172526,126.20000076293945 320,123 C320.3999989827474,119.79999923706055 320.6666768391927,118.73333104451497 319.20001220703125,116.5999984741211 C317.7333475748698,114.46666590372722 315.86667887369794,112.46667098999023 311.20001220703125,110.20000457763672 C306.53334554036456,107.9333381652832 297.0666809082031,104.46666717529297 291.20001220703125,103 C285.3333435058594,101.53333282470703 283.06666564941406,101.80000178019206 276,101.4000015258789 C268.93333435058594,101.00000127156575 255.46668497721353,100.73333231608073 248.80001831054688,100.5999984741211 C242.13335164388022,100.46666463216145 241.0666707356771,100.46666463216145 236,100.5999984741211 C230.9333292643229,100.73333231608073 223.86665852864584,100.86666742960612 218.39999389648438,101.4000015258789 C212.9333292643229,101.93333562215169 208.93334452311197,102.86666997273763 203.20001220703125,103.80000305175781 C197.46667989095053,104.733336130778 188.8000005086263,105.93333307902019 184,107 C179.1999994913737,108.06666692097981 177.0666758219401,109.26667149861653 174.40000915527344,110.20000457763672 C171.73334248860678,111.1333376566569 170,111.93333180745442 168,112.5999984741211 C166,113.26666514078777 163.4666748046875,113.93333689371745 162.40000915527344,114.20000457763672 C161.33334350585938,114.46667226155598 162.00000762939453,114.20000457763672 161.60000610351562,114.20000457763672 C161.20000457763672,114.20000457763672 160.66666666666666,115.53333791097005 160,114.20000457763672 C159.33333333333334,112.86667124430339 157.20000457763672,109.53333791097005 157.60000610351562,106.20000457763672 C158.00000762939453,102.86667124430339 160.53334299723306,98.60000483194987 162.40000915527344,94.20000457763672 C164.2666753133138,89.80000432332356 166.53333791097006,84.3333371480306 168.8000030517578,79.80000305175781 C171.06666819254556,75.26666895548503 174.53333282470703,69.66666730244954 176,67 C177.46666717529297,64.33333269755046 179.0666732788086,61.53333282470703 177.60000610351562,63.79999923706055 C176.13333892822266,66.06666564941406 171.86666361490884,73.93333117167155 167.1999969482422,80.5999984741211 C162.53333028157553,87.26666577657063 158.4000040690104,92.3333346048991 149.60000610351562,103.80000305175781 C140.80000813802084,115.26667149861653 123.20000966389973,138.0666758219401 114.40000915527344,149.40000915527344 C105.60000864664714,160.73334248860678 101.46666971842448,165.6666717529297 96.80000305175781,171.8000030517578 C92.13333638509114,177.93333435058594 89.06667582194011,182.5999959309896 86.40000915527344,186.1999969482422 C83.73334248860677,189.79999796549478 81.73333740234375,191.93334197998047 80.80000305175781,193.40000915527344 C79.86666870117188,194.8666763305664 80.80000305175781,194.6000010172526 80.80000305175781,195 C80.80000305175781,195.3999989827474 79.33333587646484,195.0000025431315 80.80000305175781,195.8000030517578 C82.26667022705078,196.60000356038412 86.93333943684895,198.46666971842447 89.60000610351562,199.8000030517578 C92.2666727701823,201.13333638509116 94.00000254313152,202.46666971842447 96.80000305175781,203.8000030517578 C99.60000356038411,205.13333638509116 102.93334197998047,204.33333587646484 106.40000915527344,207.8000030517578 C109.8666763305664,211.26667022705078 115.20000712076823,219.6666717529297 117.60000610351562,224.60000610351562 C120.00000508626302,229.53334045410156 120.00000254313152,233.40000915527344 120.80000305175781,237.40000915527344 C121.60000356038411,241.40000915527344 122.13334147135417,245.00000762939453 122.40000915527344,248.60000610351562 C122.6666768391927,252.20000457763672 122.6666768391927,256.6000010172526 122.40000915527344,259 C122.13334147135417,261.3999989827474 121.20000457763672,262.1999969482422 120.80000305175781,263 C120.4000015258789,263.8000030517578 120.13333384195964,263.5333506266276 120,263.8000183105469 C119.86666615804036,264.0666859944661 120.13333384195964,264.0666758219401 120,264.6000061035156 C119.86666615804036,265.1333363850911 119.46666208902995,266.2000020345052 119.19999694824219,267 Q118.93333180745442,267.7999979654948 118.40000915527344,269.3999938964844" stroke-linejoin="round" stroke-linecap="round" stroke-width="3" stroke="#000000" fill="none"></path></svg>