<svg xmlns="http://www.w3.org/2000/svg" version="1.1" xmlns:xlink="http://www.w3.org/1999/xlink" xmlns:svgjs="http://svgjs.com/svgjs" width="100%" height="100%" id="drawing-svg"><path d="M11.599998474121094,62.20000076293945 C12.26666514078776,61.53333409627279 12.133331298828125,60.86666615804037 15.599998474121094,58.20000076293945 C19.066665649414062,55.53333536783854 27.066668192545574,49.53334045410156 32.400001525878906,46.200008392333984 C37.73333485921224,42.866676330566406 42.79999923706055,40.600009282430015 47.599998474121094,38.200008392333984 C52.39999771118164,35.80000750223795 53.999996185302734,33.00000445048014 61.19999694824219,31.800003051757812 C68.39999771118164,30.60000165303548 82.80000305175781,30.200000127156574 90.80000305175781,31 C98.80000305175781,31.799999872843426 103.73332977294922,34.066667556762695 109.19999694824219,36.60000228881836 C114.66666412353516,39.13333702087402 117.60000610351562,40.73333930969238 123.60000610351562,46.200008392333984 C129.60000610351562,51.666677474975586 139.5999984741211,62.33335049947103 145.1999969482422,69.40001678466797 C150.79999542236328,76.46668306986491 153.3333282470703,81.80000813802083 157.1999969482422,88.60000610351562 C161.06666564941406,95.40000406901042 165.33334096272787,103.9333381652832 168.40000915527344,110.20000457763672 C171.466677347819,116.46667098999023 172.93333943684897,120.60000483194987 175.60000610351562,126.20000457763672 C178.26667277018228,131.80000432332358 181.73334248860678,139.26666895548502 184.40000915527344,143.8000030517578 C187.0666758219401,148.3333371480306 187.73333994547525,149.93334197998047 191.60000610351562,153.40000915527344 C195.466672261556,156.8666763305664 203.20000712076822,161.80000813802084 207.60000610351562,164.60000610351562 C212.00000508626303,167.4000040690104 214.79999796549478,168.86666361490884 218,170.1999969482422 C221.20000203450522,171.53333028157553 222.66668192545572,171.4000040690104 226.80001831054688,172.60000610351562 C230.93335469563803,173.80000813802084 238.13335164388022,175.66667683919272 242.80001831054688,177.40000915527344 C247.46668497721353,179.13334147135416 251.20002237955728,181.53333282470703 254.80001831054688,183 C258.40001424153644,184.46666717529297 261.46666463216144,184.8666788736979 264.3999938964844,186.20001220703125 C267.3333231608073,187.5333455403646 268.26665751139325,188.86666870117188 272.3999938964844,191 C276.5333302815755,193.13333129882812 284.6666768391927,196.86666107177734 289.20001220703125,199 C293.7333475748698,201.13333892822266 296.2666727701823,202.0666987101237 299.6000061035156,203.80003356933594 C302.93333943684894,205.5333684285482 305.6000111897786,207.66668192545572 309.20001220703125,209.40000915527344 C312.8000132242839,211.13333638509116 317.7333475748698,212.73333231608072 321.20001220703125,214.1999969482422 C324.6666768391927,215.66666158040366 326.1333363850911,216.99999491373697 330,218.1999969482422 C333.8666636149089,219.3999989827474 338.6666615804036,220.46666971842447 344.3999938964844,221.40000915527344 C350.1333262125651,222.3333485921224 358.79999287923175,223.13336690266928 364.3999938964844,223.80003356933594 C369.999994913737,224.4667002360026 372,224.3333485921224 378,225.40000915527344 C384,226.46666971842447 394.3999938964844,229.1333262125651 400.3999938964844,230.1999969482422 C406.3999938964844,231.26666768391928 410.1333312988281,231.00003306070963 414,231.80003356933594 C417.8666687011719,232.60003407796225 420.40000406901044,233.93333943684897 423.6000061035156,235 C426.8000081380208,236.06666056315103 431.0666809082031,237.53333028157553 433.20001220703125,238.1999969482422 C435.3333435058594,238.86666361490884 435.1999969482422,238.73332722981772 436.3999938964844,239 C437.59999084472656,239.26667277018228 439.3333282470703,239.53336588541666 440.3999938964844,239.80003356933594 C441.46665954589844,240.06670125325522 441.4666493733724,240.33334350585938 442.79998779296875,240.60000610351562 C444.1333262125651,240.86666870117188 446.8000183105469,241.1333440144857 448.4000244140625,241.40000915527344 C450.0000305175781,241.6666742960612 451.0666910807292,241.93333180745444 452.4000244140625,242.1999969482422 C453.7333577473958,242.46666208902994 454.5333557128906,242.46666463216147 456.4000244140625,243 C458.2666931152344,243.53333536783853 461.4667053222656,244.8666763305664 463.60003662109375,245.40000915527344 C465.7333679199219,245.93334197998047 467.7333475748698,245.79999287923178 469.20001220703125,246.1999969482422 C470.6666768391927,246.6000010172526 470.5333557128906,247.2666982014974 472.4000244140625,247.80003356933594 C474.2666931152344,248.33336893717447 478.13336181640625,248.86668141682944 480.4000244140625,249.40000915527344 C482.66668701171875,249.93333689371744 483.8666687011719,250.06666819254556 486,251 C488.1333312988281,251.93333180745444 490.53334554036456,253.93333435058594 493.20001220703125,255 C495.86667887369794,256.06666564941406 499.46666463216144,256.59999084472656 502,257.3999938964844 C504.53333536783856,258.1999969482422 506.4000244140625,259.00001525878906 508.4000244140625,259.8000183105469 C510.4000244140625,260.6000213623047 511.73333740234375,261.1333465576172 514,262.20001220703125 C516.2666625976562,263.2666778564453 519.8666687011719,265.00001525878906 522,266.20001220703125 C524.1333312988281,267.40000915527344 525.1999816894531,267.6666615804036 526.7999877929688,269.3999938964844 C528.3999938964844,271.1333262125651 529.7333679199219,274.06667073567706 531.6000366210938,276.6000061035156 C533.4667053222656,279.1333414713542 536.6666666666666,282.6000061035156 538,284.6000061035156 C539.3333333333334,286.6000061035156 539.2000325520834,287.2666727701823 539.6000366210938,288.6000061035156 C540.0000406901041,289.93333943684894 540.0000305175781,291.000005086263 540.4000244140625,292.6000061035156 C540.8000183105469,294.20000712076825 540.5333353678385,295.933344523112 542,298.20001220703125 C543.4666646321615,300.4666798909505 547.6000061035156,304.20001220703125 549.2000122070312,306.20001220703125 C550.8000183105469,308.20001220703125 550.5333658854166,308.3333485921224 551.6000366210938,310.20001220703125 C552.6667073567709,312.0666758219401 554.800038655599,315.93332926432294 555.6000366210938,317.3999938964844 C556.4000345865885,318.8666585286458 554.5333658854166,317.3999989827474 556.4000244140625,319 C558.2666829427084,320.6000010172526 563.3333231608073,324.46666463216144 566.7999877929688,327 C570.2666524251302,329.53333536783856 574.933339436849,332.3333435058594 577.2000122070312,334.20001220703125 C579.4666849772135,336.0666809082031 579.6000264485677,337.00001525878906 580.4000244140625,338.20001220703125 C581.2000223795573,339.40000915527344 580.7999979654948,339.93332926432294 582,341.3999938964844 C583.2000020345052,342.8666585286458 585.7333679199219,345.3999989827474 587.6000366210938,347 C589.4667053222656,348.6000010172526 591.6000162760416,349.93333435058594 593.2000122070312,351 C594.8000081380209,352.06666564941406 593.6000162760416,352.1999918619792 597.2000122070312,353.3999938964844 C600.8000081380209,354.59999593098956 609.7333170572916,356.4666748046875 614.7999877929688,358.20001220703125 C619.8666585286459,359.933349609375 624.2667032877604,362.33335367838544 627.6000366210938,363.8000183105469 C630.9333699544271,365.2666829427083 629.999989827474,365.40000406901044 634.7999877929688,367 C639.5999857584635,368.59999593098956 650.6666870117188,371.6666615804036 656.4000244140625,373.3999938964844 C662.1333618164062,375.1333262125651 666.000010172526,376.06666056315106 669.2000122070312,377.3999938964844 C672.4000142415365,378.7333272298177 674.0000406901041,380.1999918619792 675.6000366210938,381.3999938964844 C677.2000325520834,382.59999593098956 676.2666625976562,383.40000406901044 678.7999877929688,384.6000061035156 C681.3333129882812,385.8000081380208 687.066650390625,387.2666727701823 690.7999877929688,388.6000061035156 C694.5333251953125,389.93333943684894 698.2666727701823,391.1333414713542 701.2000122070312,392.6000061035156 C704.1333516438802,394.06667073567706 706.933359781901,396.3333282470703 708.4000244140625,397.3999938964844 C709.866689046224,398.46665954589844 709.7333374023438,398.3333333333333 710,399 C710.2666625976562,399.6666666666667 709.8666687011719,400.3333282470703 710,401.3999938964844 C710.1333312988281,402.46665954589844 710.6666564941406,404.3333231608073 710.7999877929688,405.3999938964844 C710.9333190917969,406.46666463216144 710.6666463216146,407.00001525878906 710.7999877929688,407.8000183105469 C710.9333292643229,408.6000213623047 711.4666951497396,409.2666829427083 711.6000366210938,410.20001220703125 C711.7333780924479,411.1333414713542 711.6000366210938,412.3333282470703 711.6000366210938,413.3999938964844 C711.6000366210938,414.46665954589844 711.6000366210938,415.8000030517578 711.6000366210938,416.6000061035156 C711.6000366210938,417.40000915527344 711.6000366210938,417.8000132242839 711.6000366210938,418.20001220703125 Q711.6000366210938,418.6000111897786 711.6000366210938,419" stroke-linejoin="round" stroke-linecap="round" stroke-width="3" stroke="#000000" fill="none"></path><path d="M780.4000244140625,419 C780.933359781901,418.4666697184245 781.6000366210938,417.5333506266276 783.6000366210938,415.8000183105469 C785.6000366210938,414.0666859944661 789.7333577473959,411.1333414713542 792.4000244140625,408.6000061035156 C795.0666910807291,406.06667073567706 796.9333699544271,403.53334045410156 799.6000366210938,400.6000061035156 C802.2667032877604,397.6666717529297 806.1333618164062,393.93333435058594 808.4000244140625,391 C810.6666870117188,388.06666564941406 811.4666849772135,385.3999989827474 813.2000122070312,383 C814.933339436849,380.6000010172526 817.3333231608073,378.6000061035156 818.7999877929688,376.6000061035156 C820.2666524251302,374.6000061035156 821.3333333333334,372.2000020345052 822,371 C822.6666666666666,369.7999979654948 822.3999837239584,369.79999287923175 822.7999877929688,369.3999938964844 C823.1999918619791,368.999994913737 824.1333516438802,368.8666687011719 824.4000244140625,368.6000061035156 Q824.6666971842448,368.3333435058594 824.4000244140625,367.8000183105469" stroke-linejoin="round" stroke-linecap="round" stroke-width="3" stroke="#000000" fill="none"></path><path d="M311.6000061035156,298.20001220703125 C309.8666737874349,298.20001220703125 308.1333465576172,297.8000132242839 301.20001220703125,298.20001220703125 C294.2666778564453,298.6000111897786 280.1333363850911,300.20000712076825 270,300.6000061035156 C259.8666636149089,301.000005086263 249.3333282470703,300.3333384195964 240.39999389648438,300.6000061035156 C231.46665954589844,300.8666737874349 223.86665852864584,301.933344523112 216.39999389648438,302.20001220703125 C208.9333292643229,302.4666798909505 200.26667277018228,302.20001220703125 195.60000610351562,302.20001220703125 C190.93333943684897,302.20001220703125 190.26666005452475,302.20001220703125 188.39999389648438,302.20001220703125 C186.533327738444,302.20001220703125 185.20000712076822,302.20001220703125 184.40000915527344,302.20001220703125 C183.60001118977866,302.20001220703125 183.8666737874349,302.4666798909505 183.60000610351562,302.20001220703125 C183.33333841959634,301.933344523112 183.20000457763672,301.53334045410156 182.8000030517578,300.6000061035156 C182.4000015258789,299.6666717529297 181.46666463216147,300.20000712076825 181.1999969482422,296.6000061035156 C180.9333292643229,293.000005086263 180.9333292643229,285 181.1999969482422,279 C181.46666463216147,273 182.13333638509116,267.53333791097003 182.8000030517578,260.6000061035156 C183.46666971842447,253.6666742960612 183.46666208902994,246.86667124430338 185.1999969482422,237.40000915527344 C186.93333180745444,227.9333470662435 191.06667836507162,212.60003407796225 193.20001220703125,203.80003356933594 C195.33334604899088,195.00003306070963 196.13333638509116,190.60001118977866 198,184.60000610351562 C199.86666361490884,178.6000010172526 201.99999491373697,173.4000040690104 204.39999389648438,167.8000030517578 C206.79999287923178,162.20000203450522 208.26665751139322,158.20000076293945 212.39999389648438,151 C216.53333028157553,143.79999923706055 224.5333455403646,131.26666514078775 229.20001220703125,124.5999984741211 C233.8666788736979,117.93333180745442 234.79999287923178,116.06666564941406 240.39999389648438,111 C245.99999491373697,105.93333435058594 256.2666829427083,98.3333371480306 262.8000183105469,94.20000457763672 C269.33335367838544,90.06667200724284 273.6000061035156,88.46667098999023 279.6000061035156,86.20000457763672 C285.6000061035156,83.9333381652832 292.66668701171875,81.80000686645508 298.8000183105469,80.60000610351562 C304.933349609375,79.40000534057617 308.6666615804036,79.26666768391927 316.3999938964844,79 C324.1333262125651,78.73333231608073 337.3333435058594,78.46666590372722 345.20001220703125,79 C353.0666809082031,79.53333409627278 355.0666758219401,80.20000457763672 363.6000061035156,82.20000457763672 C372.1333363850911,84.20000457763672 387.7333272298177,88.73333358764648 396.3999938964844,91 C405.06666056315106,93.26666641235352 409.06667073567706,93.5333366394043 415.6000061035156,95.80000305175781 C422.1333414713542,98.06666946411133 428.6666717529297,101.79999923706055 435.6000061035156,104.5999984741211 C442.53334045410156,107.39999771118164 448.2666778564453,109.13332875569661 457.20001220703125,112.5999984741211 C466.1333465576172,116.06666819254558 480.2666829427083,121.53334935506184 489.20001220703125,125.40001678466797 C498.1333414713542,129.26668421427408 503.8666585286458,132.60000483194986 510.79998779296875,135.8000030517578 C517.7333170572916,139.00000127156576 521.9999796549479,140.60000610351562 530.7999877929688,144.60000610351562 C539.5999959309896,148.60000610351562 555.0667012532552,155.4000040690104 563.6000366210938,159.8000030517578 C572.1333719889323,164.20000203450522 574.5333353678385,166.06666564941406 582,171 C589.4666646321615,175.93333435058594 600.933359781901,184.60000356038412 608.4000244140625,189.40000915527344 C615.866689046224,194.20001475016275 621.066660563151,196.0666961669922 626.7999877929688,199.80003356933594 C632.5333150227865,203.5333709716797 637.4666544596354,207.6667048136393 642.7999877929688,211.80003356933594 C648.1333211263021,215.93336232503256 651.5999857584635,219.26667277018228 658.7999877929688,224.60000610351562 C665.999989827474,229.93333943684897 678.9333292643229,238.60002899169922 686,243.80003356933594 C693.0666707356771,249.00003814697266 695.2000122070312,250.60003916422525 701.2000122070312,255.80003356933594 C707.2000122070312,261.0000279744466 716,269.53333791097003 722,275 C728,280.46666208902997 732.4000142415365,284.4666697184245 737.2000122070312,288.6000061035156 C742.000010172526,292.73334248860675 745.7333170572916,295.4000193277995 750.7999877929688,299.8000183105469 C755.8666585286459,304.20001729329425 762.6666971842448,309.93333435058594 767.6000366210938,315 C772.5333760579427,320.06666564941406 775.7333577473959,325.40000915527344 780.4000244140625,330.20001220703125 C785.0666910807291,335.00001525878906 790.5333760579427,338.7333526611328 795.6000366210938,343.8000183105469 C800.6666971842448,348.86668395996094 806.5333251953125,356.20000712076825 810.7999877929688,360.6000061035156 C815.066650390625,365.000005086263 817.3333435058594,366.4666798909505 821.2000122070312,370.20001220703125 C825.0666809082031,373.933344523112 828.4000040690104,378.3333333333333 834,383 C839.5999959309896,387.6666666666667 849.3333231608073,394.3333435058594 854.7999877929688,398.20001220703125 C860.2666524251302,402.0666809082031 863.1999816894531,403.53334554036456 866.7999877929688,406.20001220703125 C870.3999938964844,408.86667887369794 872.8000183105469,412.0666809082031 876.4000244140625,414.20001220703125 C880.0000305175781,416.3333435058594 883.866689046224,416.6000010172526 888.4000244140625,419 C892.933359781901,421.3999989827474 899.7333679199219,425.93333943684894 903.6000366210938,428.6000061035156 C907.4667053222656,431.2666727701823 908.800038655599,432.73333231608075 911.6000366210938,435 C914.4000345865885,437.26666768391925 918.0000305175781,440.0666758219401 920.4000244140625,442.20001220703125 C922.8000183105469,444.3333485921224 923.7333374023438,445.8000183105469 926,447.8000183105469 C928.2666625976562,449.8000183105469 931.4666646321615,452.3333485921224 934,454.20001220703125 C936.5333353678385,456.0666758219401 938.5333455403646,457.3999989827474 941.2000122070312,459 C943.8666788736979,460.6000010172526 948,462.6000162760417 950,463.8000183105469 C952,465.00002034505206 952.2666829427084,465.66668192545575 953.2000122070312,466.20001220703125 C954.1333414713541,466.73334248860675 955.066640218099,466.8666687011719 955.5999755859375,467 C956.133310953776,467.1333312988281 956.2666829427084,466.8666636149089 956.4000244140625,467 C956.5333658854166,467.1333363850911 956.2666829427084,467.66668192545575 956.4000244140625,467.8000183105469 Q956.5333658854166,467.933354695638 957.2000732421875,467.8000183105469" stroke-linejoin="round" stroke-linecap="round" stroke-width="3" stroke="#000000" fill="none"></path></svg>