<svg xmlns="http://www.w3.org/2000/svg" version="1.1" xmlns:xlink="http://www.w3.org/1999/xlink" xmlns:svgjs="http://svgjs.com/svgjs" width="100%" height="100%" id="drawing-svg"><path d="M72.80000305175781,286.20001220703125 C72.53333536783855,285.933344523112 71.73332977294922,285.2666727701823 71.19999694824219,284.6000061035156 C70.66666412353516,283.93333943684894 70.93333943684895,283.40001424153644 69.60000610351562,282.20001220703125 C68.2666727701823,281.00001017252606 65.33333079020183,279.79999287923175 63.19999694824219,277.3999938964844 C61.066663106282554,274.999994913737 58.53333536783854,272.46668243408203 56.80000305175781,267.8000183105469 C55.066670735677086,263.1333541870117 53.46666971842448,255.1333440144857 52.80000305175781,249.40000915527344 C52.13333638509115,243.6666742960612 51.866668701171875,238.33334350585938 52.80000305175781,233.40000915527344 C53.73333740234375,228.4666748046875 55.866676330566406,225.53333791097006 58.40000915527344,219.8000030517578 C60.93334197998047,214.06666819254556 65.2000020345052,204.06666564941406 68,199 C70.7999979654948,193.93333435058594 73.06666310628255,191.93334197998047 75.19999694824219,189.40000915527344 C77.33333079020183,186.8666763305664 77.73333485921223,185.8000030517578 80.80000305175781,183.8000030517578 C83.86667124430339,181.8000030517578 90.13333892822266,178.4666748046875 93.60000610351562,177.40000915527344 C97.0666732788086,176.33334350585938 98.53334045410156,177.00001017252603 101.60000610351562,177.40000915527344 C104.66667175292969,177.80000813802084 108,178.33333841959634 112,179.8000030517578 C116,181.26666768391928 122.00000508626302,183.66666412353516 125.60000610351562,186.1999969482422 C129.20000712076822,188.73332977294922 130.40000661214194,191.66666666666666 133.60000610351562,195 C136.8000055948893,198.33333333333334 140.0000025431315,201.66666412353516 144.8000030517578,206.1999969482422 C149.60000356038412,210.73332977294922 157.0666758219401,218.5999959309896 162.40000915527344,222.1999969482422 C167.73334248860678,225.79999796549478 171.73333485921225,226.46666971842447 176.8000030517578,227.8000030517578 C181.86667124430338,229.13333638509116 185.06668345133463,230.46666463216147 192.80001831054688,230.1999969482422 C200.53335316975912,229.9333292643229 215.3333485921224,227.9333292643229 223.20001220703125,226.1999969482422 C231.0666758219401,224.46666463216147 234.66666666666666,222.06666819254556 240,219.8000030517578 C245.33333333333334,217.53333791097006 250.2666778564453,215.26667277018228 255.20001220703125,212.60000610351562 C260.1333465576172,209.93333943684897 266.40000915527344,205.8000030517578 269.6000061035156,203.8000030517578 C272.8000030517578,201.8000030517578 273.06666056315106,201.6666717529297 274.3999938964844,200.60000610351562 C275.7333272298177,199.53334045410156 276.000005086263,199.40000915527344 277.6000061035156,197.40000915527344 C279.20000712076825,195.40000915527344 282.3999989827474,192.0666732788086 284,188.60000610351562 C285.6000010172526,185.13333892822266 286.1333465576172,180.8666737874349 287.20001220703125,176.60000610351562 C288.2666778564453,172.33333841959634 290.5333302815755,169.4000015258789 290.3999938964844,163 C290.26665751139325,156.5999984741211 287.46665954589844,144.4666633605957 286.3999938964844,138.1999969482422 C285.3333282470703,131.93333053588867 285.3333333333333,129.26666768391928 284,125.4000015258789 C282.6666666666667,121.53333536783855 281.06666056315106,118.59999974568684 278.3999938964844,115 C275.7333272298177,111.40000025431316 270.7999979654948,106.46666971842448 268,103.80000305175781 C265.2000020345052,101.13333638509114 264.1333363850911,100.20000076293945 261.6000061035156,99 C259.0666758219401,97.79999923706055 254.66668701171875,96.99999872843425 252.80001831054688,96.5999984741211 C250.933349609375,96.19999821980794 251.5999959309896,96.33333079020183 250.39999389648438,96.5999984741211 C249.19999186197916,96.86666615804036 247.33333841959634,97.1333376566569 245.60000610351562,98.20000457763672 C243.8666737874349,99.26667149861653 244.13333129882812,99.26666768391927 240,103 C235.86666870117188,106.73333231608073 226.5333506266276,114.99999745686848 220.80001831054688,120.5999984741211 C215.06668599446616,126.1999994913737 211.4666748046875,129.26667149861655 205.60000610351562,136.60000610351562 C199.73333740234375,143.9333407084147 190.26667277018228,157.40000661214194 185.60000610351562,164.60000610351562 C180.93333943684897,171.8000055948893 179.73333994547525,175.53333791097006 177.60000610351562,179.8000030517578 C175.466672261556,184.06666819254556 173.60000356038412,187.26666259765625 172.8000030517578,190.1999969482422 C172.0000025431315,193.13333129882812 171.46666971842447,193.93334197998047 172.8000030517578,197.40000915527344 C174.13333638509116,200.8666763305664 177.60000356038412,206.86666870117188 180.8000030517578,211 C184.0000025431315,215.13333129882812 187.46666717529297,218.1999969482422 192,222.1999969482422 C196.53333282470703,226.1999969482422 201.1999969482422,229.26666514078775 208,235 C214.8000030517578,240.73333485921225 226.00001525878906,249.6666717529297 232.80001831054688,256.6000061035156 C239.6000213623047,263.53334045410156 243.20002237955728,269.93333943684894 248.80001831054688,276.6000061035156 C254.40001424153647,283.2666727701823 259.8666636149089,288.73333740234375 266.3999938964844,296.6000061035156 C272.9333241780599,304.4666748046875 282.3999989827474,316.6000162760417 288,323.8000183105469 C293.6000010172526,331.00002034505206 296.26666768391925,335.1333516438802 300,339.8000183105469 C303.73333231608075,344.46668497721356 306.9333241780599,347.4000193277995 310.3999938964844,351.8000183105469 C313.8666636149089,356.20001729329425 318.5333506266276,363.00001525878906 320.8000183105469,366.20001220703125 C323.0666859944661,369.40000915527344 323.3333333333333,369.26666768391925 324,371 C324.6666666666667,372.73333231608075 325.0666859944661,374.8666737874349 324.8000183105469,376.6000061035156 C324.5333506266276,378.3333384195964 323.7333272298177,379.5333251953125 322.3999938964844,381.3999938964844 C321.06666056315106,383.26666259765625 319.46668497721356,385.2666829427083 316.8000183105469,387.8000183105469 C314.1333516438802,390.33335367838544 312.5333302815755,391.8000081380208 306.3999938964844,396.6000061035156 C300.26665751139325,401.40000406901044 286.7999979654948,411.53334045410156 280,416.6000061035156 C273.2000020345052,421.6666717529297 269.8666737874349,424.2000020345052 265.6000061035156,427 C261.3333384195964,429.7999979654948 257.59999593098956,431.3999938964844 254.39999389648438,433.3999938964844 C251.19999186197916,435.3999938964844 247.99998982747397,438.06666564941406 246.39999389648438,439 C244.79999796549478,439.93333435058594 245.20001729329428,439 244.80001831054688,439 C244.40001932779947,439 243.46666971842447,439.1333312988281 244,439 C244.53333028157553,438.8666687011719 246.13333129882812,439.1333465576172 248,438.20001220703125 C249.86666870117188,437.2666778564453 251.0666758219401,434.8666636149089 255.20001220703125,433.3999938964844 C259.3333485921224,431.9333241780599 266.00002034505206,430.59999084472656 272.8000183105469,429.3999938964844 C279.6000162760417,428.1999969482422 288,426.86667887369794 296,426.20001220703125 C304,425.53334554036456 312.933349609375,425.93332926432294 320.8000183105469,425.3999938964844 C328.66668701171875,424.8666585286458 335.6000162760417,423.7999979654948 343.20001220703125,423 C350.8000081380208,422.2000020345052 360.79999287923175,421.40000406901044 366.3999938964844,420.6000061035156 C371.999994913737,419.8000081380208 373.7333475748698,419.53334554036456 376.8000183105469,418.20001220703125 C379.86668904622394,416.86667887369794 381.6000213623047,415.93333943684894 384.8000183105469,412.6000061035156 C388.00001525878906,409.2666727701823 392.8000030517578,403.40001424153644 396,398.20001220703125 C399.1999969482422,393.00001017252606 401.6000010172526,388.46665954589844 404,381.3999938964844 C406.3999989827474,374.3333282470703 408.5333251953125,366.86668395996094 410.3999938964844,355.8000183105469 C412.26666259765625,344.7333526611328 414.2666778564453,325.8000030517578 415.20001220703125,315 C416.1333465576172,304.1999969482422 415.73333231608075,297.7999979654948 416,291 C416.26666768391925,284.2000020345052 416.66668192545575,280.46667734781903 416.8000183105469,274.20001220703125 C416.933354695638,267.93334706624347 416.5333557128906,259.13334401448566 416.8000183105469,253.40000915527344 C417.0666809082031,247.6666742960612 418.1333312988281,244.0666707356771 418.3999938964844,239.8000030517578 C418.6666564941406,235.53333536783853 418.5333251953125,233.13333638509116 418.3999938964844,227.8000030517578 C418.26666259765625,222.46666971842447 417.73333740234375,213.6666692097982 417.6000061035156,207.8000030517578 C417.4666748046875,201.93333689371744 417.8666737874349,197.00000508626303 417.6000061035156,192.60000610351562 C417.3333384195964,188.20000712076822 416.53333536783856,185.80001068115234 416,181.40000915527344 C415.46666463216144,177.00000762939453 415.06666056315106,170.5999984741211 414.3999938964844,166.1999969482422 C413.7333272298177,161.79999542236328 412.7999979654948,158.5999984741211 412,155 C411.2000020345052,151.4000015258789 410.2666727701823,148.466672261556 409.6000061035156,144.60000610351562 C408.93333943684894,140.73333994547525 408.53333536783856,135.5333366394043 408,131.8000030517578 C407.46666463216144,128.06666946411133 407.1999918619792,125.26667149861653 406.3999938964844,122.20000457763672 C405.59999593098956,119.1333376566569 404.53334554036456,116.60000228881836 403.20001220703125,113.4000015258789 C401.86667887369794,110.20000076293945 399.7333272298177,105.66666666666667 398.3999938964844,103 C397.06666056315106,100.33333333333333 396.1333414713542,98.73333485921223 395.20001220703125,97.4000015258789 C394.2666829427083,96.06666819254558 393.46668497721356,95.8000005086263 392.8000183105469,95 C392.1333516438802,94.1999994913737 391.6000162760417,92.99999872843425 391.20001220703125,92.5999984741211 C390.8000081380208,92.19999821980794 390.5333302815755,92.73333104451497 390.3999938964844,92.5999984741211 C390.26665751139325,92.46666590372722 390.5333251953125,91.93333562215169 390.3999938964844,91.80000305175781 C390.26666259765625,91.66667048136394 390.1333363850911,91.93333689371745 389.6000061035156,91.80000305175781 C389.0666758219401,91.66666920979817 388.53334554036456,91.13333384195964 387.20001220703125,91 C385.86667887369794,90.86666615804036 384.6666717529297,91 381.6000061035156,91 C378.53334045410156,91 375.0666859944661,90.59999974568684 368.8000183105469,91 C362.5333506266276,91.40000025431316 349.8666687011719,93.00000127156575 344,93.4000015258789 C338.1333312988281,93.80000178019206 336.8000030517578,93.26666768391927 333.6000061035156,93.4000015258789 C330.40000915527344,93.53333536783855 327.7333526611328,94.06667073567708 324.8000183105469,94.20000457763672 C321.86668395996094,94.33333841959636 318.26666768391925,94.20000457763672 316,94.20000457763672 C313.73333231608075,94.20000457763672 312.53334554036456,94.20000457763672 311.20001220703125,94.20000457763672 C309.86667887369794,94.20000457763672 308.6666666666667,94.20000457763672 308,94.20000457763672 C307.3333333333333,94.20000457763672 307.3333435058594,94.33333841959636 307.20001220703125,94.20000457763672 C307.0666809082031,94.06667073567708 307.20001220703125,93.66666920979817 307.20001220703125,93.4000015258789 C307.20001220703125,93.13333384195964 307.0666809082031,93.13333129882812 307.20001220703125,92.5999984741211 C307.3333435058594,92.06666564941406 306.6666666666667,91.66667048136394 308,90.20000457763672 C309.3333333333333,88.7333386739095 312.6666768391927,85.93333689371745 315.20001220703125,83.80000305175781 C317.7333475748698,81.66666920979817 319.86667887369794,80.06666819254558 323.20001220703125,77.4000015258789 C326.53334554036456,74.73333485921223 331.7333475748698,70.06667009989421 335.20001220703125,67.80000305175781 C338.6666768391927,65.53333600362141 341.3333333333333,65.13333320617676 344,63.79999923706055 C346.6666666666667,62.466665267944336 348.1333465576172,60.99999872843424 351.20001220703125,59.79999923706055 C354.2666778564453,58.59999974568685 359.46665954589844,57.53333536783854 362.3999938964844,56.60000228881836 C365.3333282470703,55.66666920979818 366.8000183105469,55.00000127156576 368.8000183105469,54.20000076293945 C370.8000183105469,53.40000025431315 372.3999938964844,52.33333269755045 374.3999938964844,51.79999923706055 C376.3999938964844,51.26666577657064 379.3333485921224,51.266666412353516 380.8000183105469,51 C382.2666880289714,50.733333587646484 382.40001424153644,50.33333396911621 383.20001220703125,50.20000076293945 C384.00001017252606,50.066667556762695 384.8000081380208,50.33333396911621 385.6000061035156,50.20000076293945 C386.40000406901044,50.066667556762695 387.46666463216144,49.533334732055664 388,49.400001525878906 C388.53333536783856,49.26666831970215 388.4000193277995,49.400001525878906 388.8000183105469,49.400001525878906 C389.20001729329425,49.400001525878906 389.999994913737,49.400001525878906 390.3999938964844,49.400001525878906 C390.79999287923175,49.400001525878906 390.933344523112,49.400001525878906 391.20001220703125,49.400001525878906 C391.4666798909505,49.400001525878906 391.73333231608075,49.400001525878906 392,49.400001525878906 C392.26666768391925,49.400001525878906 392.5333506266276,49.400001525878906 392.8000183105469,49.400001525878906 C393.0666859944661,49.400001525878906 393.3333435058594,49.26666831970215 393.6000061035156,49.400001525878906 Q393.8666687011719,49.533334732055664 394.3999938964844,50.20000076293945" stroke-linejoin="round" stroke-linecap="round" stroke-width="3" stroke="#000000" fill="none"></path></svg>