<svg xmlns="http://www.w3.org/2000/svg" version="1.1" xmlns:xlink="http://www.w3.org/1999/xlink" xmlns:svgjs="http://svgjs.com/svgjs" width="100%" height="100%" id="drawing-svg"><path d="M61.79999923706055,110.20001220703125 C62.20000012715658,110.46667989095052 63.4000047047933,111.26668802897136 64.20000457763672,111.80001831054688 C65.00000445048015,112.33334859212239 64.5999984741211,112.06666056315105 66.5999984741211,113.39999389648438 C68.5999984741211,114.7333272298177 73.26667022705078,117.933349609375 76.20000457763672,119.80001831054688 C79.13333892822266,121.66668701171875 81.66667175292969,122.86667378743489 84.20000457763672,124.60000610351562 C86.73333740234375,126.33333841959636 87.66666920979817,127.26667785644531 91.4000015258789,130.20001220703125 C95.13333384195964,133.1333465576172 101.7999979654948,139.00001525878906 106.5999984741211,142.20001220703125 C111.39999898274739,145.40000915527344 115.80000432332356,147.1333262125651 120.20000457763672,149.39999389648438 C124.60000483194987,151.66666158040366 128.20000076293945,152.86668395996094 133,155.80001831054688 C137.79999923706055,158.7333526611328 144.46666717529297,163.8000030517578 149,167 C153.53333282470703,170.1999969482422 156.86666361490884,172.73333231608072 160.1999969482422,175 C163.53333028157553,177.26666768391928 165.66666666666666,179.13333638509116 169,180.60000610351562 C172.33333333333334,182.0666758219401 177.66666412353516,183.13335164388022 180.1999969482422,183.80001831054688 C182.73332977294922,184.46668497721353 183.26666259765625,184.4666748046875 184.1999969482422,184.60000610351562 C185.13333129882812,184.73333740234375 183.6666692097982,185.26667277018228 185.8000030517578,184.60000610351562 C187.93333689371744,183.93333943684897 192.06666564941406,182.73333740234375 197,180.60000610351562 C201.93333435058594,178.4666748046875 208.4666748046875,175.26668294270834 215.40000915527344,171.80001831054688 C222.33334350585938,168.3333536783854 232.60000610351562,162.86668904622397 238.60000610351562,159.80001831054688 C244.60000610351562,156.73334757486978 247.53334045410156,154.99999491373697 251.40000915527344,153.39999389648438 C255.2666778564453,151.79999287923178 258.7333501180013,151.00001017252603 261.8000183105469,150.20001220703125 C264.86668650309247,149.40001424153647 268.0666859944661,149.00000508626303 269.8000183105469,148.60000610351562 C271.5333506266276,148.20000712076822 271.66668192545575,147.933349609375 272.20001220703125,147.80001831054688 C272.73334248860675,147.66668701171875 272.73333231608075,147.80001831054688 273,147.80001831054688 C273.26666768391925,147.80001831054688 272.3333485921224,148.20002237955728 273.8000183105469,147.80001831054688 C275.2666880289714,147.40001424153647 279.2666880289714,146.1999969482422 281.8000183105469,145.39999389648438 C284.3333485921224,144.59999084472656 285.6666666666667,144.1999969482422 289,143 C292.3333333333333,141.8000030517578 298.6000162760417,139.40000915527344 301.8000183105469,138.20001220703125 C305.00002034505206,137.00001525878906 306.20001220703125,136.7333526611328 308.20001220703125,135.80001831054688 C310.20001220703125,134.86668395996094 311.66668701171875,134.0666758219401 313.8000183105469,132.60000610351562 C315.933349609375,131.13333638509116 319.40000406901044,128.33333333333334 321,127 C322.59999593098956,125.66666666666667 322.3333282470703,125.66667175292969 323.3999938964844,124.60000610351562 C324.46665954589844,123.53334045410156 326.1999918619792,121.80000813802083 327.3999938964844,120.60000610351562 C328.59999593098956,119.40000406901042 329.40000406901044,118.59999593098958 330.6000061035156,117.39999389648438 C331.8000081380208,116.19999186197917 333.2666727701823,114.86665852864583 334.6000061035156,113.39999389648438 C335.93333943684894,111.93332926432292 336.73333740234375,110.33333841959636 338.6000061035156,108.60000610351562 C340.4666748046875,106.86667378743489 343.66668701171875,104.73333231608073 345.8000183105469,103 C347.933349609375,101.26666768391927 349.7999979654948,99.53334554036458 351.3999938964844,98.20001220703125 C352.99998982747394,96.86667887369792 353.6666564941406,96.06666564941406 355.3999938964844,95 C357.1333312988281,93.93333435058594 360.6000162760417,92.46668497721355 361.8000183105469,91.80001831054688 C363.00002034505206,91.1333516438802 362.20000712076825,91.26666768391927 362.6000061035156,91 C363.000005086263,90.73333231608073 363.53334554036456,90.33334350585938 364.20001220703125,90.20001220703125 C364.86667887369794,90.06668090820312 365.1333414713542,90.20001220703125 366.6000061035156,90.20001220703125 C368.06667073567706,90.20001220703125 370.6000010172526,90.33334859212239 373,90.20001220703125 C375.3999989827474,90.06667582194011 377.5333302815755,89.66666158040364 381,89.39999389648438 C384.4666697184245,89.13332621256511 390.46668497721356,88.86666870117188 393.8000183105469,88.60000610351562 C397.1333516438802,88.33334350585938 399,87.933349609375 401,87.80001831054688 C403,87.66668701171875 403.8000183105469,87.80001831054688 405.8000183105469,87.80001831054688 C407.8000183105469,87.80001831054688 410.8666687011719,87.66668701171875 413,87.80001831054688 C415.1333312988281,87.933349609375 417.1333363850911,88.4666748046875 418.6000061035156,88.60000610351562 C420.0666758219401,88.73333740234375 420.33335367838544,88.4666748046875 421.8000183105469,88.60000610351562 C423.2666829427083,88.73333740234375 426.1999969482422,89.26666259765625 427.3999938964844,89.39999389648438 C428.59999084472656,89.5333251953125 428.59999593098956,89.39999389648438 429,89.39999389648438 C429.40000406901044,89.39999389648438 429.5333506266276,89.39999389648438 429.8000183105469,89.39999389648438 C430.0666859944661,89.39999389648438 430.20000712076825,89.39999389648438 430.6000061035156,89.39999389648438 C431.000005086263,89.39999389648438 431.2666778564453,89.66665649414062 432.20001220703125,89.39999389648438 C433.1333465576172,89.13333129882812 434.7333475748698,88.20001729329427 436.20001220703125,87.80001831054688 C437.6666768391927,87.40001932779948 439,87.13333638509114 441,87 C443,86.86666361490886 445.2666778564453,87 448.20001220703125,87 C451.1333465576172,87 455.93333943684894,86.86666361490886 458.6000061035156,87 C461.2666727701823,87.13333638509114 462.6000111897786,87.53335062662761 464.20001220703125,87.80001831054688 C465.8000132242839,88.06668599446614 467.1333465576172,88.33334350585938 468.20001220703125,88.60000610351562 Q469.2666778564453,88.86666870117188 470.6000061035156,89.39999389648438" stroke-linejoin="round" stroke-linecap="round" stroke-width="3" stroke="#000000" fill="none"></path></svg>