<svg xmlns="http://www.w3.org/2000/svg" version="1.1" xmlns:xlink="http://www.w3.org/1999/xlink" xmlns:svgjs="http://svgjs.com/svgjs" width="100%" height="100%" id="drawing-svg"><path d="M61.79999923706055,110.20001220703125 C62.20000012715658,110.46667989095052 63.4000047047933,111.26668802897136 64.20000457763672,111.80001831054688 C65.00000445048015,112.33334859212239 64.5999984741211,112.06666056315105 66.5999984741211,113.39999389648438 C68.5999984741211,114.7333272298177 73.26667022705078,117.933349609375 76.20000457763672,119.80001831054688 C79.13333892822266,121.66668701171875 81.66667175292969,122.86667378743489 84.20000457763672,124.60000610351562 C86.73333740234375,126.33333841959636 87.66666920979817,127.26667785644531 91.4000015258789,130.20001220703125 C95.13333384195964,133.1333465576172 101.7999979654948,139.00001525878906 106.5999984741211,142.20001220703125 C111.39999898274739,145.40000915527344 115.80000432332356,147.1333262125651 120.20000457763672,149.39999389648438 C124.60000483194987,151.66666158040366 128.20000076293945,152.86668395996094 133,155.80001831054688 C137.79999923706055,158.7333526611328 144.46666717529297,163.8000030517578 149,167 C153.53333282470703,170.1999969482422 156.86666361490884,172.73333231608072 160.1999969482422,175 C163.53333028157553,177.26666768391928 165.66666666666666,179.13333638509116 169,180.60000610351562 C172.33333333333334,182.0666758219401 177.66666412353516,183.13335164388022 180.1999969482422,183.80001831054688 C182.73332977294922,184.46668497721353 183.26666259765625,184.4666748046875 184.1999969482422,184.60000610351562 C185.13333129882812,184.73333740234375 183.6666692097982,185.26667277018228 185.8000030517578,184.60000610351562 C187.93333689371744,183.93333943684897 192.06666564941406,182.73333740234375 197,180.60000610351562 C201.93333435058594,178.4666748046875 208.4666748046875,175.26668294270834 215.40000915527344,171.80001831054688 C222.33334350585938,168.3333536783854 232.60000610351562,162.86668904622397 238.60000610351562,159.80001831054688 C244.60000610351562,156.73334757486978 247.53334045410156,154.99999491373697 251.40000915527344,153.39999389648438 C255.2666778564453,151.79999287923178 258.7333501180013,151.00001017252603 261.8000183105469,150.20001220703125 C264.86668650309247,149.40001424153647 268.0666859944661,149.00000508626303 269.8000183105469,148.60000610351562 C271.5333506266276,148.20000712076822 271.66668192545575,147.933349609375 272.20001220703125,147.80001831054688 C272.73334248860675,147.66668701171875 272.73333231608075,147.80001831054688 273,147.80001831054688 C273.26666768391925,147.80001831054688 272.3333485921224,148.20002237955728 273.8000183105469,147.80001831054688 C275.2666880289714,147.40001424153647 279.2666880289714,146.1999969482422 281.8000183105469,145.39999389648438 C284.3333485921224,144.59999084472656 285.6666666666667,144.1999969482422 289,143 C292.3333333333333,141.8000030517578 298.6000162760417,139.40000915527344 301.8000183105469,138.20001220703125 C305.00002034505206,137.00001525878906 306.20001220703125,136.7333526611328 308.20001220703125,135.80001831054688 C310.20001220703125,134.86668395996094 311.66668701171875,134.0666758219401 313.8000183105469,132.60000610351562 C315.933349609375,131.13333638509116 319.40000406901044,128.33333333333334 321,127 C322.59999593098956,125.66666666666667 322.3333282470703,125.66667175292969 323.3999938964844,124.60000610351562 C324.46665954589844,123.53334045410156 326.1999918619792,121.80000813802083 327.3999938964844,120.60000610351562 C328.59999593098956,119.40000406901042 329.40000406901044,118.59999593098958 330.6000061035156,117.39999389648438 C331.8000081380208,116.19999186197917 333.2666727701823,114.86665852864583 334.6000061035156,113.39999389648438 C335.93333943684894,111.93332926432292 336.73333740234375,110.33333841959636 338.6000061035156,108.60000610351562 C340.4666748046875,106.86667378743489 343.66668701171875,104.73333231608073 345.8000183105469,103 C347.933349609375,101.26666768391927 349.7999979654948,99.53334554036458 351.3999938964844,98.20001220703125 C352.99998982747394,96.86667887369792 353.6666564941406,96.06666564941406 355.3999938964844,95 C357.1333312988281,93.93333435058594 360.6000162760417,92.46668497721355 361.8000183105469,91.80001831054688 C363.00002034505206,91.1333516438802 362.20000712076825,91.26666768391927 362.6000061035156,91 C363.000005086263,90.73333231608073 363.53334554036456,90.33334350585938 364.20001220703125,90.20001220703125 C364.86667887369794,90.06668090820312 365.1333414713542,90.20001220703125 366.6000061035156,90.20001220703125 C368.06667073567706,90.20001220703125 370.6000010172526,90.33334859212239 373,90.20001220703125 C375.3999989827474,90.06667582194011 377.5333302815755,89.66666158040364 381,89.39999389648438 C384.4666697184245,89.13332621256511 390.46668497721356,88.86666870117188 393.8000183105469,88.60000610351562 C397.1333516438802,88.33334350585938 399,87.933349609375 401,87.80001831054688 C403,87.66668701171875 403.8000183105469,87.80001831054688 405.8000183105469,87.80001831054688 C407.8000183105469,87.80001831054688 410.8666687011719,87.66668701171875 413,87.80001831054688 C415.1333312988281,87.933349609375 417.1333363850911,88.4666748046875 418.6000061035156,88.60000610351562 C420.0666758219401,88.73333740234375 420.33335367838544,88.4666748046875 421.8000183105469,88.60000610351562 C423.2666829427083,88.73333740234375 426.1999969482422,89.26666259765625 427.3999938964844,89.39999389648438 C428.59999084472656,89.5333251953125 428.59999593098956,89.39999389648438 429,89.39999389648438 C429.40000406901044,89.39999389648438 429.5333506266276,89.39999389648438 429.8000183105469,89.39999389648438 C430.0666859944661,89.39999389648438 430.20000712076825,89.39999389648438 430.6000061035156,89.39999389648438 C431.000005086263,89.39999389648438 431.2666778564453,89.66665649414062 432.20001220703125,89.39999389648438 C433.1333465576172,89.13333129882812 434.7333475748698,88.20001729329427 436.20001220703125,87.80001831054688 C437.6666768391927,87.40001932779948 439,87.13333638509114 441,87 C443,86.86666361490886 445.2666778564453,87 448.20001220703125,87 C451.1333465576172,87 455.93333943684894,86.86666361490886 458.6000061035156,87 C461.2666727701823,87.13333638509114 462.6000111897786,87.53335062662761 464.20001220703125,87.80001831054688 C465.8000132242839,88.06668599446614 467.1333465576172,88.33334350585938 468.20001220703125,88.60000610351562 Q469.2666778564453,88.86666870117188 470.6000061035156,89.39999389648438" stroke-linejoin="round" stroke-linecap="round" stroke-width="3" stroke="#000000" fill="none"></path><path d="M306.20001220703125,151 C306.6000162760417,152.73333485921225 307.80003865559894,157.53334299723306 308.60003662109375,161.40000915527344 C309.40003458658856,165.2666753133138 309.53333536783856,168.06666564941406 311,174.1999969482422 C312.46666463216144,180.3333282470703 315.2666931152344,189.66666158040366 317.4000244140625,198.1999969482422 C319.5333557128906,206.73333231608072 320.8666585286458,215.13333892822266 323.79998779296875,225.40000915527344 C326.7333170572917,235.66667938232422 331.6666666666667,251.13335418701172 335,259.8000183105469 C338.3333333333333,268.46668243408203 340.59998575846356,272.3333282470703 343.79998779296875,277.3999938964844 C346.99998982747394,282.46665954589844 349.40000406901044,285.933344523112 354.20001220703125,290.20001220703125 C359.00002034505206,294.4666798909505 368.3333740234375,299.93333435058594 372.60003662109375,303 C376.86669921875,306.06666564941406 375.13332112630206,306.4666697184245 379.79998779296875,308.6000061035156 C384.46665445963544,310.73334248860675 391.0000305175781,313.1333516438802 400.60003662109375,315.8000183105469 C410.2000427246094,318.46668497721356 429.4000244140625,322.8666737874349 437.4000244140625,324.6000061035156 C445.4000244140625,326.3333384195964 446.4667053222656,325.933344523112 448.60003662109375,326.20001220703125 C450.7333679199219,326.4666798909505 449.66668701171875,326.20001220703125 450.20001220703125,326.20001220703125 C450.73333740234375,326.20001220703125 451.5333251953125,326.0666809082031 451.79998779296875,326.20001220703125 C452.066650390625,326.3333435058594 451.66664632161456,326.6000010172526 451.79998779296875,327 C451.93332926432294,327.3999989827474 451.93336995442706,328.3333384195964 452.60003662109375,328.6000061035156 C453.26670328776044,328.8666737874349 453.93332926432294,328.3333384195964 455.79998779296875,328.6000061035156 C457.66664632161456,328.8666737874349 460.59998575846356,329.6666768391927 463.79998779296875,330.20001220703125 C466.99998982747394,330.7333475748698 471.93332926432294,331.5333506266276 475,331.8000183105469 C478.06667073567706,332.0666859944661 480.20001220703125,331.66668701171875 482.20001220703125,331.8000183105469 C484.20001220703125,331.933349609375 486.06667073567706,332.3333435058594 487,332.6000061035156 Q487.93332926432294,332.8666687011719 487.79998779296875,333.3999938964844" stroke-linejoin="round" stroke-linecap="round" stroke-width="3" stroke="#000000" fill="none"></path><path d="M158.20001220703125,199.8000030517578 C159.66667683919272,199.53333536783853 163.26666768391928,198.73332977294922 167,198.1999969482422 C170.73333231608072,197.66666412353516 173.80000813802084,196.86667124430338 180.60000610351562,196.60000610351562 C187.4000040690104,196.33334096272787 196.7333221435547,196.0666732788086 207.79998779296875,196.60000610351562 C218.8666534423828,197.13333892822266 231.26666259765625,197.53333791097006 247,199.8000030517578 C262.73333740234375,202.06666819254556 289.1333414713542,206.9999974568685 302.20001220703125,210.1999969482422 C315.2666829427083,213.39999643961588 318.46669514973956,216.06666564941406 325.4000244140625,219 C332.33335367838544,221.93333435058594 338.06666056315106,224.46666971842447 343.79998779296875,227.8000030517578 C349.53331502278644,231.13333638509116 356.066650390625,235.8000005086263 359.79998779296875,239 C363.5333251953125,242.1999994913737 364.06667073567706,243.66666666666666 366.20001220703125,247 C368.33335367838544,250.33333333333334 370.0667012532552,253.3999989827474 372.60003662109375,259 C375.1333719889323,264.6000010172526 379.13336181640625,274.73333740234375 381.4000244140625,280.6000061035156 C383.66668701171875,286.4666748046875 384.3333435058594,289.1333465576172 386.20001220703125,294.20001220703125 C388.0666809082031,299.2666778564453 390.3333740234375,304.6000010172526 392.60003662109375,311 C394.86669921875,317.3999989827474 397.79998779296875,326.8666737874349 399.79998779296875,332.6000061035156 C401.79998779296875,338.3333384195964 402.7333679199219,341.5333251953125 404.60003662109375,345.3999938964844 C406.4667053222656,349.26666259765625 408.4666748046875,351.66668192545575 411,355.8000183105469 C413.5333251953125,359.933354695638 417.6666564941406,366.7333475748698 419.79998779296875,370.20001220703125 C421.9333190917969,373.6666768391927 422.066650390625,374.6000061035156 423.79998779296875,376.6000061035156 C425.5333251953125,378.6000061035156 428.20001220703125,380.3333435058594 430.20001220703125,382.20001220703125 C432.20001220703125,384.0666809082031 434.46665445963544,386.7333526611328 435.79998779296875,387.8000183105469 C437.13332112630206,388.86668395996094 436.4666748046875,387.53334045410156 438.20001220703125,388.6000061035156 C439.933349609375,389.6666717529297 443.933349609375,392.6000111897786 446.20001220703125,394.20001220703125 C448.4666748046875,395.8000132242839 450.46665445963544,396.86667887369794 451.79998779296875,398.20001220703125 C453.13332112630206,399.53334554036456 453.6666768391927,401.2666778564453 454.20001220703125,402.20001220703125 Q454.7333475748698,403.1333465576172 455,403.8000183105469" stroke-linejoin="round" stroke-linecap="round" stroke-width="3" stroke="#000000" fill="none"></path><path d="M69.39999389648438,45.400001525878906 C69.13333129882812,45.26666831970215 68.33334859212239,44.73333549499512 67.80001831054688,44.60000228881836 C67.26668802897136,44.4666690826416 66.7333475748698,44.86666933695475 66.20001220703125,44.60000228881836 C65.6666768391927,44.33333524068197 65.13334147135417,43.26666704813639 64.60000610351562,43 C64.06667073567708,42.73333295186361 63.53333536783854,43 63,43 C62.46666463216146,43 61.79999287923177,43 61.399993896484375,43 C60.99999491373698,43 60.73333740234375,43.13333320617676 60.600006103515625,43 C60.4666748046875,42.86666679382324 60.600006103515625,42.60000038146973 60.600006103515625,42.20000076293945 C60.600006103515625,41.80000114440918 60.33333841959635,41.266668955485024 60.600006103515625,40.60000228881836 C60.8666737874349,39.933335622151695 61.80001322428385,39.00000127156576 62.20001220703125,38.20000076293945 C62.60001118977865,37.40000025431315 62.6000010172526,36.59999910990397 63,35.79999923706055 C63.3999989827474,34.999999364217125 64.33333841959636,34.20000139872233 64.60000610351562,33.400001525878906 C64.86667378743489,32.600001653035484 65.00000508626302,31.800000190734863 64.60000610351562,31 C64.20000712076823,30.199999809265137 63.66667683919271,29.533333778381348 62.20001220703125,28.600000381469727 C60.73334757486979,27.666666984558105 58.333353678385414,26.06666628519694 55.800018310546875,25.399999618530273 C53.266682942708336,24.733332951863606 50.20000203450521,24.733333587646484 47,24.600000381469727 C43.79999796549479,24.46666717529297 39.13333638509115,24.333333651224773 36.600006103515625,24.600000381469727 C34.0666758219401,24.86666711171468 33.000020345052086,25.800000826517742 31.800018310546875,26.200000762939453 C30.600016276041668,26.600000699361164 29.799997965494793,26.733333269755047 29.399993896484375,27 C28.999989827473957,27.266666730244953 29.5333251953125,27.666667620340984 29.399993896484375,27.80000114440918 C29.26666259765625,27.933334668477375 28.73333740234375,27.533334732055664 28.600006103515625,27.80000114440918 C28.4666748046875,28.066667556762695 28.600006103515625,28.866666475931805 28.600006103515625,29.399999618530273 C28.600006103515625,29.933332761128742 28.333338419596355,29.666666348775227 28.600006103515625,31 C28.866673787434895,32.33333365122477 29.266677856445312,35.00000127156576 30.20001220703125,37.400001525878906 C31.133346557617188,39.800001780192055 32.73334757486979,41.6666685740153 34.20001220703125,45.400001525878906 C35.66667683919271,49.133334477742515 37.80000305175781,55.666665395100914 39,59.79999923706055 C40.19999694824219,63.93333307902018 40.73332722981771,67.26667086283366 41.399993896484375,70.20000457763672 C42.06666056315104,73.13333829243977 42.86666361490885,75.00000254313152 43,77.4000015258789 C43.13333638509115,79.8000005086263 42.333343505859375,83.13333129882812 42.20001220703125,84.5999984741211 C42.066680908203125,86.06666564941406 42.20001220703125,85.80000432332356 42.20001220703125,86.20000457763672 C42.20001220703125,86.60000483194987 42.20001220703125,86.73333358764648 42.20001220703125,87 C42.20001220703125,87.26666641235352 42.20001220703125,87.5333366394043 42.20001220703125,87.80000305175781 C42.20001220703125,88.06666946411133 42.20001220703125,87.93333180745442 42.20001220703125,88.5999984741211 C42.20001220703125,89.26666514078777 42.20001220703125,88.33333587646484 42.20001220703125,91.80000305175781 C42.20001220703125,95.26667022705078 42.3333485921224,104.2000020345052 42.20001220703125,109.4000015258789 C42.0666758219401,114.60000101725261 41.933329264322914,118.59999974568684 41.399993896484375,123 C40.866658528645836,127.40000025431316 39.933329264322914,131.6666692097982 39,135.8000030517578 C38.066670735677086,139.93333689371744 36.73335266113281,145.4000040690104 35.800018310546875,147.8000030517578 C34.86668395996094,150.20000203450522 33.933329264322914,149.53333028157553 33.399993896484375,150.1999969482422 C32.866658528645836,150.86666361490884 33.00000508626302,151.4000015258789 32.600006103515625,151.8000030517578 C32.20000712076823,152.20000457763672 31.533335367838543,152.466672261556 31,152.60000610351562 C30.466664632161457,152.73333994547525 30.199991861979168,152.60000610351562 29.399993896484375,152.60000610351562 C28.599995930989582,152.60000610351562 27.133341471354168,152.8666737874349 26.20001220703125,152.60000610351562 C25.266682942708332,152.33333841959634 25.133351643880207,152.33333333333334 23.800018310546875,151 C22.466684977213543,149.66666666666666 19.66668192545573,146.466672261556 18.20001220703125,144.60000610351562 C16.73334248860677,142.73333994547525 16.066665649414062,142.73333740234375 15,139.8000030517578 C13.933334350585938,136.86666870117188 12.200017293294271,130.59999974568686 11.800018310546875,127 C11.400019327799479,123.40000025431316 11.666676839192709,121.40000406901042 12.600006103515625,118.20000457763672 C13.533335367838541,115.00000508626302 15.399993896484375,111.26667022705078 17.399993896484375,107.80000305175781 C19.399993896484375,104.33333587646484 21.666671752929688,102.3333346048991 24.600006103515625,97.4000015258789 C27.533340454101562,92.46666844685872 32.20000203450521,83.40000406901042 35,78.20000457763672 C37.79999796549479,73.00000508626302 38.99999491373698,70.06667200724284 41.399993896484375,66.20000457763672 C43.79999287923177,62.3333371480306 46.73332722981771,59.13333384195963 49.399993896484375,55 C52.06666056315104,50.86666615804037 54.99998982747396,44.866668065389 57.399993896484375,41.400001525878906 C59.79999796549479,37.93333498636881 62.066680908203125,36.33333428700765 63.800018310546875,34.20000076293945 C65.53335571289062,32.066667238871254 65.93335469563802,30.46666717529297 67.80001831054688,28.600000381469727 C69.66668192545573,26.733333587646484 72.86666870117188,24.200000127156574 75,23 C77.13333129882812,21.799999872843426 78.33333841959636,21.53333282470703 80.60000610351562,21.399999618530273 C82.86667378743489,21.266666412353516 85.66667175292969,21.00000063578288 88.60000610351562,22.200000762939453 C91.53334045410156,23.400000890096027 94.86667887369792,26.200000127156574 98.20001220703125,28.600000381469727 C101.53334554036458,31.00000063578288 105.00000508626302,33.800002098083496 108.60000610351562,36.60000228881836 C112.20000712076823,39.40000247955322 114.46668497721355,41.00000190734863 119.80001831054688,45.400001525878906 C125.1333516438802,49.80000114440918 135.13334147135416,58.46666717529297 140.60000610351562,63 C146.0666707356771,67.53333282470703 149.00000508626303,70.06666437784831 152.60000610351562,72.5999984741211 C156.20000712076822,75.13333257039388 159.1333465576172,77.00000381469727 162.20001220703125,78.20000457763672 C165.2666778564453,79.40000534057617 169,79.80000305175781 171,79.80000305175781 C173,79.80000305175781 172.8666788736979,80.33333841959636 174.20001220703125,78.20000457763672 C175.5333455403646,76.06667073567708 178.20000203450522,70.33333396911621 179,67 C179.79999796549478,63.66666603088379 179.13333129882812,60.60000038146973 179,58.20000076293945 C178.86666870117188,55.80000114440918 179.00001017252603,54.60000228881836 178.20001220703125,52.60000228881836 C177.40001424153647,50.60000228881836 175.80001322428384,48.066667556762695 174.20001220703125,46.20000076293945 C172.60001118977866,44.33333396911621 171.26667277018228,42.466668446858726 168.60000610351562,41.400001525878906 C165.93333943684897,40.333334604899086 161.80001322428384,40.06666628519694 158.20001220703125,39.79999923706055 C154.60001118977866,39.533332188924156 152.33333333333334,38.46666590372721 147,39.79999923706055 C141.66666666666666,41.13333257039388 132.73334248860678,45.666665395100914 126.20001220703125,47.79999923706055 C119.66668192545573,49.93333307902018 112.73335266113281,50.73333549499512 107.80001831054688,52.60000228881836 C102.86668395996094,54.4666690826416 100.33334350585938,56.86666679382324 96.60000610351562,59 C92.86666870117188,61.13333320617676 87.66666158040364,63.93333435058594 85.39999389648438,65.4000015258789 C83.13332621256511,66.86666870117188 83.66666666666667,66.60000356038411 83,67.80000305175781 Q82.33333333333333,69.00000254313152 81.39999389648438,72.5999984741211" stroke-linejoin="round" stroke-linecap="round" stroke-width="3" stroke="#000000" fill="none"></path></svg>