<svg xmlns="http://www.w3.org/2000/svg" version="1.1" xmlns:xlink="http://www.w3.org/1999/xlink" xmlns:svgjs="http://svgjs.com/svgjs" width="100%" height="100%" id="drawing-svg"><path d="M95.19999694824219,177.40000915527344 C96.26666514078777,176.60000864664713 97.46667226155598,175.26667277018228 101.60000610351562,172.60000610351562 C105.73333994547527,169.93333943684897 113.1999994913737,165.2666753133138 120,161.40000915527344 C126.8000005086263,157.53334299723306 136.40000915527344,152.466677347819 142.40000915527344,149.40000915527344 C148.40000915527344,146.33334096272787 152.26666768391928,144.20000203450522 156,143 C159.73333231608072,141.79999796549478 161.73333485921225,141.79999542236328 164.8000030517578,142.1999969482422 C167.86667124430338,142.5999984741211 171.60000864664713,144.0666758219401 174.40000915527344,145.40000915527344 C177.20000966389975,146.73334248860678 179.0666732788086,146.3333307902018 181.60000610351562,150.1999969482422 C184.13333892822266,154.06666310628256 186.53334045410156,161.6666717529297 189.60000610351562,168.60000610351562 C192.6666717529297,175.53334045410156 195.06666564941406,179.4000040690104 200,191.8000030517578 C204.93333435058594,204.20000203450522 214.2666778564453,230.46666717529297 219.20001220703125,243 C224.1333465576172,255.53333282470703 226.53334045410156,259.93333435058594 229.60000610351562,267 C232.6666717529297,274.06666564941406 235.60000610351562,281.5333251953125 237.60000610351562,285.3999938964844 C239.60000610351562,289.26666259765625 239.20000712076822,288.73334248860675 241.60000610351562,290.20001220703125 C244.00000508626303,291.66668192545575 246.66666666666666,293.40001424153644 252,294.20001220703125 C257.3333333333333,295.00001017252606 267.3333384195964,295.1333363850911 273.6000061035156,295 C279.8666737874349,294.8666636149089 283.4666748046875,294.46665954589844 289.6000061035156,293.3999938964844 C295.73333740234375,292.3333282470703 302.93332926432294,289.8000030517578 310.3999938964844,288.6000061035156 C317.8666585286458,287.40000915527344 328.1333262125651,287.00001017252606 334.3999938964844,286.20001220703125 C340.6666615804036,285.40001424153644 343.46666463216144,284.33335367838544 348,283.8000183105469 C352.53333536783856,283.2666829427083 357.20000712076825,283 361.6000061035156,283 C366.000005086263,283 371.46665954589844,283.5333506266276 374.3999938964844,283.8000183105469 C377.3333282470703,284.0666859944661 378.1333414713542,284.3333435058594 379.20001220703125,284.6000061035156 Q380.2666829427083,284.8666687011719 380.8000183105469,285.3999938964844" stroke-linejoin="round" stroke-linecap="round" stroke-width="3" stroke="#4d90fe" fill="none"></path><path d="M250.39999389648438,87.80000305175781 C250.9333292643229,88.86666997273763 251.73333740234375,90.06667200724284 253.60000610351562,94.20000457763672 C255.4666748046875,98.3333371480306 258.1333414713542,105.39999771118164 261.6000061035156,112.5999984741211 C265.06667073567706,119.79999923706055 270.79999287923175,129.26667404174805 274.3999938964844,137.40000915527344 C277.999994913737,145.53334426879883 280.6666768391927,154.466677347819 283.20001220703125,161.40000915527344 C285.7333475748698,168.33334096272787 287.0666758219401,173.53333536783853 289.6000061035156,179 C292.1333363850911,184.46666463216147 296.79999287923175,191.26666259765625 298.3999938964844,194.1999969482422 C299.999994913737,197.13333129882812 298.6666768391927,195.93333943684897 299.20001220703125,196.60000610351562 C299.7333475748698,197.26667277018228 299.8666737874349,197.39999643961588 301.6000061035156,198.1999969482422 C303.3333384195964,198.9999974568685 306.40000406901044,201.00000762939453 309.6000061035156,201.40000915527344 C312.8000081380208,201.80001068115234 316.66668701171875,201.13334147135416 320.8000183105469,200.60000610351562 C324.933349609375,200.0666707356771 329.06666056315106,198.86666361490884 334.3999938964844,198.1999969482422 C339.7333272298177,197.53333028157553 348.00001525878906,196.86667124430338 352.8000183105469,196.60000610351562 C357.6000213623047,196.33334096272787 359.6000162760417,196.60000610351562 363.20001220703125,196.60000610351562 C366.8000081380208,196.60000610351562 370.26666259765625,195.6666742960612 374.3999938964844,196.60000610351562 C378.5333251953125,197.53333791097006 384.26666259765625,199.66666412353516 388,202.1999969482422 C391.73333740234375,204.73332977294922 393.86668395996094,207.53333536783853 396.8000183105469,211.8000030517578 C399.7333526611328,216.0666707356771 401.8666737874349,219.26667022705078 405.6000061035156,227.8000030517578 C409.3333384195964,236.33333587646484 415.4666798909505,253.66666412353516 419.20001220703125,263 C422.933344523112,272.33333587646484 425.8666687011719,278.3333485921224 428,283.8000183105469 C430.1333312988281,289.2666880289714 430.7999979654948,292.7333526611328 432,295.8000183105469 C433.2000020345052,298.86668395996094 434.6666768391927,301.00001525878906 435.20001220703125,302.20001220703125 C435.7333475748698,303.40000915527344 435.0666809082031,302.8666687011719 435.20001220703125,303 Q435.3333435058594,303.1333312988281 436,303" stroke-linejoin="round" stroke-linecap="round" stroke-width="3" stroke="#4d90fe" fill="none"></path><path d="M53.599998474121094,214.1999969482422 C53.99999872843424,214.9999974568685 53.33333206176758,214.33333333333334 56,219 C58.66666793823242,223.66666666666666 65.86667124430339,235.13333129882812 69.60000610351562,242.1999969482422 C73.33334096272786,249.26666259765625 75.06667582194011,254.3333257039388 78.40000915527344,261.3999938964844 C81.73334248860677,268.46666208902997 86.40000661214192,278.2000020345052 89.60000610351562,284.6000061035156 C92.80000559488933,291.00001017252606 94.53334045410156,295.4000193277995 97.60000610351562,299.8000183105469 C100.66667175292969,304.20001729329425 104.26666768391927,307.26666768391925 108,311 C111.73333231608073,314.73333231608075 116.53333282470703,319.2666778564453 120,322.20001220703125 C123.46666717529297,325.1333465576172 125.33333587646484,327.2666727701823 128.8000030517578,328.6000061035156 C132.26667022705078,329.93333943684894 134.93333689371744,329.6666768391927 140.8000030517578,330.20001220703125 C146.6666692097982,330.7333475748698 158.13333384195963,331.8000183105469 164,331.8000183105469 C169.86666615804037,331.8000183105469 171.86666615804037,330.4666798909505 176,330.20001220703125 C180.13333384195963,329.933344523112 183.33333333333334,330.20001220703125 188.8000030517578,330.20001220703125 C194.26667277018228,330.20001220703125 203.86668650309244,329.933344523112 208.80001831054688,330.20001220703125 C213.7333501180013,330.4666798909505 215.3333282470703,331.2666880289714 218.39999389648438,331.8000183105469 C221.46665954589844,332.3333485921224 223.33334350585938,331.93332926432294 227.20001220703125,333.3999938964844 C231.06668090820312,334.8666585286458 237.20000712076822,337.93333943684894 241.60000610351562,340.6000061035156 C246.00000508626303,343.2666727701823 249.4666748046875,345.6666615804036 253.60000610351562,349.3999938964844 C257.73333740234375,353.1333262125651 261.59999593098956,357.3999989827474 266.3999938964844,363 C271.1999918619792,368.6000010172526 277.7333272298177,377.3999989827474 282.3999938964844,383 C287.06666056315106,388.6000010172526 290.5333251953125,392.20000712076825 294.3999938964844,396.6000061035156 C298.26666259765625,401.000005086263 301.73333740234375,405.26666259765625 305.6000061035156,409.3999938964844 C309.4666748046875,413.5333251953125 314.40000406901044,418.59999084472656 317.6000061035156,421.3999938964844 C320.8000081380208,424.1999969482422 322.933349609375,425.00001017252606 324.8000183105469,426.20001220703125 C326.66668701171875,427.40001424153644 327.6000213623047,427.2666727701823 328.8000183105469,428.6000061035156 C330.00001525878906,429.93333943684894 331.4666697184245,432.7333475748698 332,434.20001220703125 C332.5333302815755,435.6666768391927 331.8666636149089,436.46665954589844 332,437.3999938964844 C332.1333363850911,438.3333282470703 332.66668192545575,438.7333475748698 332.8000183105469,439.8000183105469 C332.933354695638,440.86668904622394 332.66668701171875,442.7333526611328 332.8000183105469,443.8000183105469 C332.933349609375,444.86668395996094 333.4666748046875,445.53334554036456 333.6000061035156,446.20001220703125 C333.73333740234375,446.86667887369794 333.4666748046875,446.86668395996094 333.6000061035156,447.8000183105469 C333.73333740234375,448.7333526611328 334.26666259765625,450.7333526611328 334.3999938964844,451.8000183105469 C334.5333251953125,452.86668395996094 334.3999938964844,453.53334554036456 334.3999938964844,454.20001220703125 C334.3999938964844,454.86667887369794 334.3999938964844,454.86668395996094 334.3999938964844,455.8000183105469 C334.3999938964844,456.7333526611328 334.3999938964844,458.7333526611328 334.3999938964844,459.8000183105469 C334.3999938964844,460.86668395996094 334.3999938964844,461.40001424153644 334.3999938964844,462.20001220703125 C334.3999938964844,463.00001017252606 334.3999938964844,463.6666717529297 334.3999938964844,464.6000061035156 C334.3999938964844,465.53334045410156 334.3999938964844,466.86668395996094 334.3999938964844,467.8000183105469 C334.3999938964844,468.7333526611328 334.3999938964844,469.53334554036456 334.3999938964844,470.20001220703125 Q334.3999938964844,470.86667887369794 334.3999938964844,471.8000183105469" stroke-linejoin="round" stroke-linecap="round" stroke-width="3" stroke="#4d90fe" fill="none"></path><path d="M343.20001220703125,377.3999938964844 C343.86667887369794,377.26666259765625 344.933344523112,377.1333363850911 347.20001220703125,376.6000061035156 C349.4666798909505,376.0666758219401 353.33335367838544,375.1333465576172 356.8000183105469,374.20001220703125 C360.2666829427083,373.2666778564453 363.8666687011719,372.2000020345052 368,371 C372.1333312988281,369.7999979654948 376.8000030517578,367.93333435058594 381.6000061035156,367 C386.40000915527344,366.06666564941406 392.8000183105469,365.79999287923175 396.8000183105469,365.3999938964844 C400.8000183105469,364.999994913737 402.2666727701823,364.73333740234375 405.6000061035156,364.6000061035156 C408.93333943684894,364.4666748046875 412.5333506266276,364.6000061035156 416.8000183105469,364.6000061035156 C421.0666859944661,364.6000061035156 427.3333485921224,364.6000061035156 431.20001220703125,364.6000061035156 C435.0666758219401,364.6000061035156 437.6000010172526,364.6000061035156 440,364.6000061035156 C442.3999989827474,364.6000061035156 443.3333333333333,364.3333384195964 445.6000061035156,364.6000061035156 C447.86667887369794,364.8666737874349 451.3333689371745,365.933344523112 453.60003662109375,366.20001220703125 C455.866704305013,366.4666798909505 457.0666809082031,366.0666809082031 459.20001220703125,366.20001220703125 C461.3333435058594,366.3333435058594 464.13336181640625,366.4666697184245 466.4000244140625,367 C468.66668701171875,367.5333302815755 470.5333251953125,368.999994913737 472.79998779296875,369.3999938964844 C475.066650390625,369.79999287923175 478.1333312988281,369.3999938964844 480,369.3999938964844 C481.8666687011719,369.3999938964844 482.93332926432294,369.3999938964844 484,369.3999938964844 C485.06667073567706,369.3999938964844 485.86668904622394,369.3999938964844 486.4000244140625,369.3999938964844 C486.93335978190106,369.3999938964844 486.933349609375,369.3999938964844 487.20001220703125,369.3999938964844 Q487.4666748046875,369.3999938964844 488,369.3999938964844" stroke-linejoin="round" stroke-linecap="round" stroke-width="3" stroke="#4d90fe" fill="none"></path><path d="M392,83.80000305175781 C385.2000020345052,86.733336130778 362.1333465576172,96.60000228881836 351.20001220703125,101.4000015258789 C340.2666778564453,106.20000076293945 335.46665954589844,109.13333129882812 326.3999938964844,112.5999984741211 C317.3333282470703,116.06666564941406 306.933349609375,119.26667149861653 296.8000183105469,122.20000457763672 C286.66668701171875,125.1333376566569 272.93333943684894,128.73333104451498 265.6000061035156,130.1999969482422 C258.2666727701823,131.6666628519694 256.2666829427083,130.86666615804037 252.80001831054688,131 C249.3333536783854,131.13333384195963 247.46668497721353,132.06666692097983 244.80001831054688,131 C242.13335164388022,129.93333307902017 239.06668599446616,128.19999821980795 236.80001831054688,124.5999984741211 C234.5333506266276,120.99999872843425 232.66668192545572,115.13333384195964 231.20001220703125,109.4000015258789 C229.73334248860678,103.66666920979817 227.33333333333334,102.73333803812663 228,90.20000457763672 C228.66666666666666,77.6666711171468 233.60001118977866,46.86666822433472 235.20001220703125,34.20000076293945 Q236.80001322428384,21.53333330154419 237.60000610351562,14.199999809265137" stroke-linejoin="round" stroke-linecap="round" stroke-width="3" stroke="#4d90fe" fill="none"></path><path d="M104.80000305175781,94.20000457763672 C105.46666971842448,94.20000457763672 106.66666920979817,94.46667226155598 108.80000305175781,94.20000457763672 C110.93333689371745,93.93333689371745 113.86667378743489,92.86666615804036 117.60000610351562,92.5999984741211 C121.33333841959636,92.33333079020183 127.06666310628255,92.46666463216145 131.1999969482422,92.5999984741211 C135.3333307902018,92.73333231608073 138.80000813802084,92.60000101725261 142.40000915527344,93.4000015258789 C146.00001017252603,94.2000020345052 148.26667022705078,95.13333511352539 152.8000030517578,97.4000015258789 C157.33333587646484,99.66666793823242 164.8000055948893,103.93333307902019 169.60000610351562,107 C174.40000661214194,110.06666692097981 177.60000610351562,112.733336130778 181.60000610351562,115.80000305175781 C185.60000610351562,118.86666997273763 188.53334045410156,120.06666819254558 193.60000610351562,125.4000015258789 C198.6666717529297,130.73333485921225 206.79999796549478,141.66667048136392 212,147.8000030517578 C217.20000203450522,153.9333356221517 220.13335164388022,157.39999643961588 224.80001831054688,162.1999969482422 C229.46668497721353,166.9999974568685 233.86666870117188,170.0666707356771 240,176.60000610351562 C246.13333129882812,183.13334147135416 255.0666707356771,194.73334248860678 261.6000061035156,201.40000915527344 C268.1333414713542,208.0666758219401 273.0666809082031,212.0666732788086 279.20001220703125,216.60000610351562 C285.3333435058594,221.13333892822266 290.93332926432294,224.466672261556 298.3999938964844,228.60000610351562 C305.8666585286458,232.73333994547525 316.3999989827474,237.80001068115234 324,241.40000915527344 C331.6000010172526,245.00000762939453 337.8666636149089,247.39999643961588 344,250.1999969482422 C350.1333363850911,252.9999974568685 354.00001525878906,254.8666763305664 360.8000183105469,258.20001220703125 C367.6000213623047,261.5333480834961 378.4000193277995,266.86667887369794 384.8000183105469,270.20001220703125 C391.20001729329425,273.53334554036456 394.66668192545575,276.0666809082031 399.20001220703125,278.20001220703125 C403.73334248860675,280.3333435058594 407.2000020345052,280.73333231608075 412,283 C416.7999979654948,285.26666768391925 424.3999989827474,289.8000183105469 428,291.8000183105469 C431.6000010172526,293.8000183105469 432.40000406901044,294.2000020345052 433.6000061035156,295 C434.8000081380208,295.7999979654948 434.8000132242839,296.20000712076825 435.20001220703125,296.6000061035156 C435.6000111897786,297.000005086263 435.73333231608075,297.26666259765625 436,297.3999938964844 Q436.26666768391925,297.5333251953125 436.8000183105469,297.3999938964844" stroke-linejoin="round" stroke-linecap="round" stroke-width="3" stroke="#4d90fe" fill="none"></path><path d="M319.20001220703125,335 C320.1333465576172,335 320.5333506266276,335.26666768391925 324.8000183105469,335 C329.0666859944661,334.73333231608075 338.8000183105469,333.6666615804036 344.8000183105469,333.3999938964844 C350.8000183105469,333.1333262125651 353.86668904622394,333.1333262125651 360.8000183105469,333.3999938964844 C367.7333475748698,333.6666615804036 378.93332926432294,334.06666564941406 386.3999938964844,335 C393.8666585286458,335.93333435058594 399.73333740234375,337.26666768391925 405.6000061035156,339 C411.4666748046875,340.73333231608075 414.40000406901044,342.46665954589844 421.6000061035156,345.3999938964844 C428.8000081380208,348.3333282470703 441.4666798909505,353.8000030517578 448.8000183105469,356.6000061035156 C456.13335673014325,359.40000915527344 458.40003967285156,359.2666778564453 465.60003662109375,362.20001220703125 C472.80003356933594,365.1333465576172 482.8000081380208,369.53334554036456 492,374.20001220703125 C501.1999918619792,378.86667887369794 513.1999816894531,385.66668192545575 520.7999877929688,390.20001220703125 C528.3999938964844,394.73334248860675 531.3333638509115,397.1333262125651 537.6000366210938,401.3999938964844 C543.866709391276,405.6666615804036 553.2000325520834,412.6000162760417 558.4000244140625,415.8000183105469 Q563.6000162760416,419.00002034505206 568.7999877929688,420.6000061035156" stroke-linejoin="round" stroke-linecap="round" stroke-width="3" stroke="#4d90fe" fill="none"></path><path d="M380.8000183105469,466.20001220703125 C384.66668192545575,467.1333465576172 397.8666687011719,470.0666859944661 404,471.8000183105469 C410.1333312988281,473.5333506266276 413.20000712076825,475.1333414713542 417.6000061035156,476.6000061035156 C422.000005086263,478.06667073567706 425.8666585286458,478.73333740234375 430.3999938964844,480.6000061035156 C434.93332926432294,482.4666748046875 440.2666778564453,485.5333506266276 444.8000183105469,487.8000183105469 C449.33335876464844,490.0666859944661 453.06670633951825,491.8000132242839 457.60003662109375,494.20001220703125 C462.13336690266925,496.6000111897786 466.2666727701823,498.7333475748698 472,502.20001220703125 C477.7333272298177,505.6666768391927 486,510.73333740234375 492,515 C498,519.2666625976562 503.06666056315106,524.066650390625 508,527.7999877929688 C512.933339436849,531.5333251953125 516.5333658854166,533.8000183105469 521.6000366210938,537.4000244140625 C526.6667073567709,541.0000305175781 534.5333658854166,546.6000264485677 538.4000244140625,549.4000244140625 C542.2666829427084,552.2000223795573 543.1999918619791,552.7333475748698 544.7999877929688,554.2000122070312 C546.3999837239584,555.6666768391927 547.3333333333334,556.7333475748698 548,558.2000122070312 C548.6666666666666,559.6666768391927 548.5333150227865,561.9333292643229 548.7999877929688,563 C549.066660563151,564.0666707356771 549.4666951497396,563.9333699544271 549.6000366210938,564.6000366210938 C549.7333780924479,565.2667032877604 549.6000366210938,566.3333333333334 549.6000366210938,567 Q549.6000366210938,567.6666666666666 549.6000366210938,568.6000366210938" stroke-linejoin="round" stroke-linecap="round" stroke-width="3" stroke="#4d90fe" fill="none"></path><path d="M25.599998474121094,90.20000457763672 C25.599998474121094,90.20000457763672 25.333330790201824,92.33333841959636 25.599998474121094,90.20000457763672 C25.866666158040363,88.06667073567708 26.800004323323567,80.73333485921223 27.20000457763672,77.4000015258789 C27.60000483194987,74.06666819254558 27.86666742960612,72.33333841959636 28,70.20000457763672 C28.13333257039388,68.06667073567708 28,65.9333324432373 28,64.5999984741211 C28,63.26666450500488 28,62.733333587646484 28,62.20000076293945 C28,61.66666793823242 28,61.800001780192055 28,61.400001525878906 C28,61.00000127156576 28,60.199999491373696 28,59.79999923706055 C28,59.3999989827474 28,59.266666412353516 28,59 C28,58.733333587646484 28,58.46666717529297 28,58.20000076293945 C28,57.93333435058594 27.866666158040363,60.06666819254557 28,57.400001525878906 C28.133333841959637,54.73333485921224 28.666669209798176,48.73333422342936 28.800003051757812,42.20000076293945 C28.93333689371745,35.66666730244955 28.800003051757812,24.46666757265727 28.800003051757812,18.200000762939453 C28.800003051757812,11.933333953221638 28.800003051757812,7.533333361148834 28.800003051757812,4.599999904632568 Q28.800003051757812,1.6666664481163025 28.800003051757812,0.6000000238418579" stroke-linejoin="round" stroke-linecap="round" stroke-width="3" stroke="#4d90fe" fill="none"></path><path d="M44.80000305175781,34.20000076293945 C45.86666997273763,34.20000076293945 47.60000483194987,33.93333435058594 51.20000457763672,34.20000076293945 C54.80000432332357,34.46666717529297 60.400002797444664,34.86666615804037 66.4000015258789,35.79999923706055 C72.40000025431316,36.73333231608073 81.19999567667644,38.46666590372721 87.19999694824219,39.79999923706055 C93.19999821980794,41.13333257039388 97.4666748046875,42.59999910990397 102.40000915527344,43.79999923706055 C107.33334350585938,44.999999364217125 112.53333791097005,45.79999987284342 116.80000305175781,47 C121.06666819254558,48.20000012715658 122.66666666666667,48.46666653951009 128,51 C133.33333333333334,53.53333346048991 143.20000203450522,59 148.8000030517578,62.20000076293945 C154.4000040690104,65.4000015258789 157.0666732788086,67.26667086283366 161.60000610351562,70.20000457763672 C166.13333892822266,73.13333829243977 172.93333435058594,77.80000305175781 176,79.80000305175781 C179.06666564941406,81.80000305175781 179.1999994913737,81.53333791097005 180,82.20000457763672 C180.8000005086263,82.86667124430339 180.4000015258789,83.40000406901042 180.8000030517578,83.80000305175781 Q181.20000457763672,84.2000020345052 182.40000915527344,84.5999984741211" stroke-linejoin="round" stroke-linecap="round" stroke-width="3" stroke="#4d90fe" fill="none"></path></svg>