<svg xmlns="http://www.w3.org/2000/svg" version="1.1" xmlns:xlink="http://www.w3.org/1999/xlink" xmlns:svgjs="http://svgjs.com/svgjs" width="100%" height="100%" id="drawing-svg"><path d="M154.60000610351562,113.40000915527344 C155.40000661214194,113.2666753133138 157.40000915527344,113.2666727701823 159.40000915527344,112.60000610351562 C161.40000915527344,111.93333943684895 162.73333994547525,111.00001017252605 166.60000610351562,109.40000915527344 C170.466672261556,107.80000813802083 177.6666742960612,104.60000101725261 182.60000610351562,103 C187.53333791097006,101.39999898274739 190.5999984741211,101.00000254313152 196.1999969482422,99.80000305175781 C201.79999542236328,98.60000356038411 210.73332977294922,96.46666971842448 216.1999969482422,95.80000305175781 C221.66666412353516,95.13333638509114 225,95.53333536783855 229,95.80000305175781 C233,96.06667073567708 235.79999542236328,96.20000966389973 240.1999969482422,97.40000915527344 C244.5999984741211,98.60000864664714 251.2666753133138,100.86666870117188 255.40000915527344,103 C259.5333429972331,105.13333129882812 261.8000005086263,107.66666412353516 265,110.19999694824219 C268.1999994913737,112.73332977294922 270.6000061035156,114.99999491373698 274.6000061035156,118.19999694824219 C278.6000061035156,121.39999898274739 285.3999989827474,126.60000864664714 289,129.40000915527344 C292.6000010172526,132.20000966389975 294.20001220703125,133.66666666666666 296.20001220703125,135 C298.20001220703125,136.33333333333334 298.4666697184245,135.93334197998047 301,137.40000915527344 C303.5333302815755,138.8666763305664 308.1999918619792,142.33333841959634 311.3999938964844,143.8000030517578 C314.59999593098956,145.26666768391928 317.00001017252606,145.26666259765625 320.20001220703125,146.1999969482422 C323.40001424153644,147.13333129882812 326.73334248860675,148.4666748046875 330.6000061035156,149.40000915527344 C334.4666697184245,150.33334350585938 340.1999918619792,151.13333638509116 343.3999938964844,151.8000030517578 C346.59999593098956,152.46666971842447 347.8000183105469,153.00001017252603 349.8000183105469,153.40000915527344 C351.8000183105469,153.80000813802084 352.999994913737,153.79999796549478 355.3999938964844,154.1999969482422 C357.79999287923175,154.5999959309896 362.20001220703125,155.4000015258789 364.20001220703125,155.8000030517578 C366.20001220703125,156.20000457763672 366.59999593098956,156.33333841959634 367.3999938964844,156.60000610351562 Q368.1999918619792,156.8666737874349 369,157.40000915527344" stroke-linejoin="round" stroke-linecap="round" stroke-width="3" stroke="#000000" fill="none"></path><path d="M277.8000183105469,136.60000610351562 C278.6000162760417,136.86667124430338 280.4666748046875,137.79999796549478 282.6000061035156,138.1999969482422 C284.73333740234375,138.5999959309896 286.20000712076825,138.1999994913737 290.6000061035156,139 C295.000005086263,139.8000005086263 303.7999979654948,141.8000005086263 309,143 C314.2000020345052,144.1999994913737 317.1333516438802,145.13332875569662 321.8000183105469,146.1999969482422 C326.46668497721356,147.26666514078775 331.8000030517578,148.20000712076822 337,149.40000915527344 C342.1999969482422,150.60001118977866 348.46666463216144,151.93334452311197 353,153.40000915527344 C357.53333536783856,154.8666737874349 360.6000111897786,156.9999974568685 364.20001220703125,158.1999969482422 C367.8000132242839,159.39999643961588 369.8000081380208,159.00000508626303 374.6000061035156,160.60000610351562 C379.40000406901044,162.20000712076822 388.2000020345052,166.20000457763672 393,167.8000030517578 C397.7999979654948,169.4000015258789 400.06666056315106,169.39999643961588 403.3999938964844,170.1999969482422 C406.7333272298177,170.9999974568685 407.93332926432294,171.93333943684897 413,172.60000610351562 C418.06667073567706,173.26667277018228 428.0666859944661,173.93333180745444 433.8000183105469,174.1999969482422 C439.5333506266276,174.46666208902994 443.5333302815755,174.1999969482422 447.3999938964844,174.1999969482422 C451.26665751139325,174.1999969482422 453.7999979654948,174.3333282470703 457,174.1999969482422 C460.2000020345052,174.06666564941406 463.1333363850911,173.80000813802084 466.6000061035156,173.40000915527344 C470.0666758219401,173.00001017252603 474.86668395996094,172.0666707356771 477.8000183105469,171.8000030517578 C480.7333526611328,171.53333536783853 482.6000162760417,171.93333689371744 484.20001220703125,171.8000030517578 C485.8000081380208,171.6666692097982 485.79999287923175,171.13333384195963 487.3999938964844,171 C488.999994913737,170.86666615804037 492.20001729329425,171 493.8000183105469,171 C495.4000193277995,171 495.93333435058594,171 497,171 Q498.06666564941406,171 500.20001220703125,171" stroke-linejoin="round" stroke-linecap="round" stroke-width="3" stroke="#000000" fill="none"></path><path d="M384.20001220703125,93.40000915527344 C386.73334248860675,93.53334045410156 393.5333302815755,94.06666564941406 399.3999938964844,94.19999694824219 C405.26665751139325,94.33332824707031 411.5333251953125,94.06666310628255 419.3999938964844,94.19999694824219 C427.26666259765625,94.33333079020183 439.6666717529297,94.5999984741211 446.6000061035156,95 C453.53334045410156,95.4000015258789 455.3999989827474,95.93333943684895 461,96.60000610351562 C466.6000010172526,97.2666727701823 473.1333465576172,97.66666666666667 480.20001220703125,99 C487.2666778564453,100.33333333333333 496.46666463216144,103.00000508626302 503.3999938964844,104.60000610351562 C510.3333231608073,106.20000712076823 515.7999827067057,107.00000762939453 521.7999877929688,108.60000610351562 C527.7999928792318,110.20000457763672 533.6666870117188,112.46666463216145 539.4000244140625,114.19999694824219 C545.1333618164062,115.93332926432292 551.8000183105469,117.7999979654948 556.2000122070312,119 C560.6000061035156,120.2000020345052 562.999989827474,120.4666748046875 565.7999877929688,121.40000915527344 C568.5999857584635,122.33334350585938 571,123.93333943684895 573,124.60000610351562 Q575,125.2666727701823 577.7999877929688,125.40000915527344" stroke-linejoin="round" stroke-linecap="round" stroke-width="3" stroke="#000000" fill="none"></path></svg>