<svg xmlns="http://www.w3.org/2000/svg" version="1.1" xmlns:xlink="http://www.w3.org/1999/xlink" xmlns:svgjs="http://svgjs.com/svgjs" width="100%" height="100%" id="drawing-svg" style="cursor: crosshair;"><path d="M28.800003051757812,145.40000915527344 C29.46666971842448,144.8666737874349 31.066669464111328,143.13333129882812 32.80000305175781,142.1999969482422 C34.5333366394043,141.26666259765625 34.80000432332357,141.53333536783853 39.20000457763672,139.8000030517578 C43.60000483194987,138.0666707356771 54.26667149861654,133.6666692097982 59.20000457763672,131.8000030517578 C64.1333376566569,129.93333689371744 64.1333376566569,129.40000661214194 68.80000305175781,128.60000610351562 C73.46666844685872,127.80000559488933 82.26666259765625,127.13333384195964 87.19999694824219,127 C92.13333129882812,126.86666615804036 95.06667582194011,127.00000254313152 98.40000915527344,127.80000305175781 C101.73334248860677,128.60000356038412 103.5999984741211,129.0000025431315 107.19999694824219,131.8000030517578 C110.79999542236328,134.60000356038412 116.13333129882812,140.20000712076822 120,144.60000610351562 C123.86666870117188,149.00000508626303 126.80000813802083,153.26666514078775 130.40000915527344,158.1999969482422 C134.00001017252603,163.13332875569662 136.80000813802084,166.99999491373697 141.60000610351562,174.1999969482422 C146.4000040690104,181.3999989827474 155.06666310628256,194.60000864664713 159.1999969482422,201.40000915527344 C163.3333307902018,208.20000966389975 164.13334147135416,211.4000015258789 166.40000915527344,215 C168.66667683919272,218.5999984741211 169.46666971842447,219.93333180745444 172.8000030517578,223 C176.13333638509116,226.06666819254556 181.8666763305664,231.00000762939453 186.40000915527344,233.40000915527344 C190.93334197998047,235.80001068115234 195.46666717529297,236.60001118977866 200,237.40000915527344 C204.53333282470703,238.20000712076822 206.13333638509116,238.06666564941406 213.60000610351562,238.1999969482422 C221.0666758219401,238.3333282470703 236.5333506266276,238.3333282470703 244.80001831054688,238.1999969482422 C253.06668599446616,238.06666564941406 257.20001220703125,237.93334197998047 263.20001220703125,237.40000915527344 C269.20001220703125,236.8666763305664 274.1333516438802,235.4000015258789 280.8000183105469,235 C287.46668497721356,234.5999984741211 297.20001220703125,235 303.20001220703125,235 C309.20001220703125,235 313.0666859944661,234.73333231608072 316.8000183105469,235 C320.5333506266276,235.26666768391928 322.00001017252606,235.40000661214194 325.6000061035156,236.60000610351562 C329.2000020345052,237.8000055948893 335.3333282470703,240.73332977294922 338.3999938964844,242.1999969482422 C341.46665954589844,243.66666412353516 342.6666666666667,244.33334096272787 344,245.40000915527344 C345.3333333333333,246.466677347819 345.7333272298177,248.0666732788086 346.3999938964844,248.60000610351562 Q347.06666056315106,249.13333892822266 348,248.60000610351562" stroke-linejoin="round" stroke-linecap="round" stroke-width="3" stroke="#4d90fe" fill="none"></path><path d="M225.60000610351562,131 C225.8666737874349,131.53333282470703 226.2666778564453,132.5999959309896 227.20001220703125,134.1999969482422 C228.1333465576172,135.79999796549478 229.3333485921224,138.33333841959634 231.20001220703125,140.60000610351562 C233.0666758219401,142.8666737874349 235.73332722981772,145.0000025431315 238.39999389648438,147.8000030517578 C241.06666056315103,150.60000356038412 243.60001118977866,153.53334299723306 247.20001220703125,157.40000915527344 C250.80001322428384,161.2666753133138 256.6666666666667,167.53333536783853 260,171 C263.3333333333333,174.46666463216147 264.2666778564453,176.06666310628256 267.20001220703125,178.1999969482422 C270.1333465576172,180.3333307902018 272.53334045410156,181.6666692097982 277.6000061035156,183.8000030517578 C282.6666717529297,185.93333689371744 292.40000406901044,189.53333282470703 297.6000061035156,191 C302.8000081380208,192.46666717529297 304.933349609375,192.0666732788086 308.8000183105469,192.60000610351562 C312.66668701171875,193.13333892822266 315.6000213623047,193.66666412353516 320.8000183105469,194.1999969482422 C326.00001525878906,194.73332977294922 334.6666666666667,195.0000025431315 340,195.8000030517578 C345.3333333333333,196.60000356038412 349.20001729329425,198.33333333333334 352.8000183105469,199 C356.4000193277995,199.66666666666666 358.53334045410156,199.0000025431315 361.6000061035156,199.8000030517578 C364.6666717529297,200.60000356038412 368.2666778564453,201.93333689371744 371.20001220703125,203.8000030517578 C374.1333465576172,205.6666692097982 376.1333465576172,208.06666564941406 379.20001220703125,211 C382.2666778564453,213.93333435058594 385.73334248860675,216.73334248860678 389.6000061035156,221.40000915527344 C393.4666697184245,226.0666758219401 398.6666615804036,233.8000005086263 402.3999938964844,239 C406.1333262125651,244.1999994913737 409.1999969482422,248.20000712076822 412,252.60000610351562 C414.8000030517578,257.000005086263 417.20001220703125,261.1333262125651 419.20001220703125,265.3999938964844 C421.20001220703125,269.6666615804036 422.93333435058594,275.8000081380208 424,278.20001220703125 C425.06666564941406,280.6000162760417 425.20000712076825,279.4000193277995 425.6000061035156,279.8000183105469 C426.000005086263,280.20001729329425 426.26666259765625,280.3333435058594 426.3999938964844,280.6000061035156 Q426.5333251953125,280.8666687011719 426.3999938964844,281.3999938964844" stroke-linejoin="round" stroke-linecap="round" stroke-width="3" stroke="#4d90fe" fill="none"></path><path d="M249.60000610351562,378.20001220703125 C249.73333740234375,378.0666758219401 249.99999491373697,377.6666615804036 250.39999389648438,377.3999938964844 C250.79999287923178,377.1333262125651 250.66666666666666,377.40000406901044 252,376.6000061035156 C253.33333333333334,375.8000081380208 255.46665954589844,374.20000712076825 258.3999938964844,372.6000061035156 C261.3333282470703,371.000005086263 265.73333740234375,369.3999989827474 269.6000061035156,367 C273.4666748046875,364.6000010172526 276.53334045410156,361.8000132242839 281.6000061035156,358.20001220703125 C286.6666717529297,354.6000111897786 294.93333435058594,349.1333262125651 300,345.3999938964844 C305.06666564941406,341.6666615804036 308,338.3333485921224 312,335.8000183105469 C316,333.2666880289714 319.06666564941406,332.4666798909505 324,330.20001220703125 C328.93333435058594,327.933344523112 337.20000712076825,324.20001220703125 341.6000061035156,322.20001220703125 C346.000005086263,320.20001220703125 347.46665954589844,319.1333465576172 350.3999938964844,318.20001220703125 C353.3333282470703,317.2666778564453 355.6000111897786,317.1333414713542 359.20001220703125,316.6000061035156 C362.8000132242839,316.06667073567706 368.1333363850911,315.26666768391925 372,315 C375.8666636149089,314.73333231608075 379.59999084472656,315 382.3999938964844,315 C385.1999969482422,315 386.2666829427083,314.8666636149089 388.8000183105469,315 C391.33335367838544,315.1333363850911 394.6666768391927,315.1333516438802 397.6000061035156,315.8000183105469 C400.53333536783856,316.46668497721356 403.1999918619792,317.8000030517578 406.3999938964844,319 C409.59999593098956,320.1999969482422 412.40001424153644,320.8666636149089 416.8000183105469,323 C421.2000223795573,325.1333363850911 428.66668701171875,329.1333516438802 432.8000183105469,331.8000183105469 C436.933349609375,334.46668497721356 438.8000081380208,336.8666687011719 441.6000061035156,339 C444.40000406901044,341.1333312988281 445.8666737874349,342.06667073567706 449.6000061035156,344.6000061035156 C453.3333384195964,347.1333414713542 459.8666636149089,351.6666768391927 464,354.20001220703125 C468.1333363850911,356.7333475748698 471.46668497721356,358.6000213623047 474.4000244140625,359.8000183105469 C477.33336385091144,361.00001525878906 478.26670328776044,360.8666636149089 481.60003662109375,361.3999938964844 C484.93336995442706,361.9333241780599 490.4000244140625,362.73333231608075 494.4000244140625,363 C498.4000244140625,363.26666768391925 500.6667073567708,363.3999989827474 505.60003662109375,363 C510.5333658854167,362.6000010172526 519.8666687011719,361.40000406901044 524,360.6000061035156 C528.1333312988281,359.8000081380208 528.5333557128906,359.00001017252606 530.4000244140625,358.20001220703125 C532.2666931152344,357.40001424153644 534.4000142415365,356.33335367838544 535.2000122070312,355.8000183105469 C536.000010172526,355.2666829427083 534.933349609375,355.26666768391925 535.2000122070312,355 C535.4666748046875,354.73333231608075 536.3999837239584,354.4666798909505 536.7999877929688,354.20001220703125 Q537.1999918619791,353.933344523112 537.6000366210938,353.3999938964844" stroke-linejoin="round" stroke-linecap="round" stroke-width="3" stroke="#4d90fe" fill="none"></path><path d="M273.6000061035156,274.20001220703125 C270.40000406901044,275.6666768391927 265.06666056315106,278.73333231608075 254.39999389648438,283 C243.73332722981772,287.26666768391925 223.466672261556,294.20001729329425 209.60000610351562,299.8000183105469 C195.73333994547525,305.4000193277995 181.73332977294922,312.4666748046875 171.1999969482422,316.6000061035156 C160.66666412353516,320.73333740234375 153.20000712076822,322.06667073567706 146.40000915527344,324.6000061035156 C139.60001118977866,327.1333414713542 134.00001017252603,330.20001729329425 130.40000915527344,331.8000183105469 C126.80000813802083,333.4000193277995 126.00000508626302,333.8000132242839 124.80000305175781,334.20001220703125 C123.60000101725261,334.6000111897786 123.46666463216145,334.0666809082031 123.19999694824219,334.20001220703125 C122.93332926432292,334.3333435058594 123.19999694824219,334.73333231608075 123.19999694824219,335 C123.19999694824219,335.26666768391925 123.06666310628255,335.4000193277995 123.19999694824219,335.8000183105469 C123.33333079020183,336.20001729329425 123.73333231608073,336.999994913737 124,337.3999938964844 C124.26666768391927,337.79999287923175 124.66666920979817,337.933344523112 124.80000305175781,338.20001220703125 C124.93333689371745,338.4666798909505 124.80000305175781,338.73333231608075 124.80000305175781,339 C124.80000305175781,339.26666768391925 124.80000305175781,339.5333506266276 124.80000305175781,339.8000183105469 C124.80000305175781,340.0666859944661 124.66666920979817,340.3333435058594 124.80000305175781,340.6000061035156 C124.93333689371745,340.8666687011719 125.46667226155598,340.999994913737 125.60000610351562,341.3999938964844 C125.73333994547527,341.79999287923175 125.46667226155598,342.59999593098956 125.60000610351562,343 C125.73333994547527,343.40000406901044 126.2666753133138,343.5333506266276 126.40000915527344,343.8000183105469 C126.53334299723308,344.0666859944661 126.40000915527344,344.20000712076825 126.40000915527344,344.6000061035156 C126.40000915527344,345.000005086263 126.53334299723308,344.7333475748698 126.40000915527344,346.20001220703125 C126.2666753133138,347.6666768391927 126.00000762939453,349.5333302815755 125.60000610351562,353.3999938964844 C125.20000457763672,357.26665751139325 124.26666768391927,364.7333272298177 124,369.3999938964844 C123.73333231608073,374.06666056315106 123.86666615804036,378.7333272298177 124,381.3999938964844 C124.13333384195964,384.06666056315106 124.26667022705078,384.3333231608073 124.80000305175781,385.3999938964844 C125.33333587646484,386.46666463216144 125.59999593098958,386.46668497721356 127.19999694824219,387.8000183105469 C128.79999796549478,389.1333516438802 132.53334045410156,391.93332926432294 134.40000915527344,393.3999938964844 C136.2666778564453,394.8666585286458 137.20000966389975,395.53333536783856 138.40000915527344,396.6000061035156 C139.60000864664713,397.6666768391927 140.13334147135416,398.20001729329425 141.60000610351562,399.8000183105469 C143.0666707356771,401.4000193277995 145.1999969482422,403.40001424153644 147.1999969482422,406.20001220703125 C149.1999969482422,409.00001017252606 151.73333740234375,413.8000081380208 153.60000610351562,416.6000061035156 C155.4666748046875,419.40000406901044 156.66667683919272,420.8666687011719 158.40000915527344,423 C160.13334147135416,425.1333312988281 162.93333435058594,428.1999918619792 164,429.3999938964844 C165.06666564941406,430.59999593098956 164.53333536783853,429.933344523112 164.8000030517578,430.20001220703125 C165.0666707356771,430.4666798909505 165.466672261556,430.73333231608075 165.60000610351562,431 C165.73333994547525,431.26666768391925 165.466672261556,431.66668192545575 165.60000610351562,431.8000183105469 Q165.73333994547525,431.933354695638 166.40000915527344,431.8000183105469" stroke-linejoin="round" stroke-linecap="round" stroke-width="3" stroke="#4d90fe" fill="none"></path></svg>