<svg xmlns="http://www.w3.org/2000/svg" version="1.1" xmlns:xlink="http://www.w3.org/1999/xlink" xmlns:svgjs="http://svgjs.com/svgjs" width="100%" height="100%" id="drawing-svg"><path d="M143.1999969482422,299 C143.1999969482422,297.8000030517578 143.1999969482422,294.7333526611328 143.1999969482422,291.8000183105469 C143.1999969482422,288.86668395996094 143.06666310628256,285.6666615804036 143.1999969482422,281.3999938964844 C143.3333307902018,277.1333262125651 143.73333231608072,270.6000111897786 144,266.20001220703125 C144.26666768391928,261.8000132242839 144.13333638509116,258.46666717529297 144.8000030517578,255 C145.46666971842447,251.53333282470703 147.1999994913737,247.6666742960612 148,245.40000915527344 C148.8000005086263,243.1333440144857 148.8000055948893,242.466677347819 149.60000610351562,241.40000915527344 C150.40000661214194,240.33334096272787 150.4000040690104,239.93333435058594 152.8000030517578,239 C155.20000203450522,238.06666564941406 160.8000005086263,236.06666819254556 164,235.8000030517578 C167.1999994913737,235.53333791097006 168.93333180745444,236.60000864664713 172,237.40000915527344 C175.06666819254556,238.20000966389975 178.80000813802084,238.4666748046875 182.40000915527344,240.60000610351562 C186.00001017252603,242.73333740234375 190.00000762939453,246.5999959309896 193.60000610351562,250.1999969482422 C197.20000457763672,253.79999796549478 200.3999989827474,257.2666753133138 204,262.20001220703125 C207.6000010172526,267.1333491007487 211.8666788736979,274.7333526611328 215.20001220703125,279.8000183105469 C218.5333455403646,284.86668395996094 220.53333536783853,288.0666758219401 224,292.6000061035156 C227.46666463216147,297.1333363850911 233.1999969482422,303.53333536783856 236,307 C238.8000030517578,310.46666463216144 238.933349609375,310.999994913737 240.80001831054688,313.3999938964844 C242.66668701171875,315.79999287923175 244.933349609375,319.1333262125651 247.20001220703125,321.3999938964844 C249.4666748046875,323.6666615804036 251.5999959309896,324.8666636149089 254.39999389648438,327 C257.1999918619792,329.1333363850911 260.26666259765625,332.3333435058594 264,334.20001220703125 C267.73333740234375,336.0666809082031 271.46668497721356,336.86667887369794 276.8000183105469,338.20001220703125 C282.1333516438802,339.53334554036456 290.6666666666667,341.00001525878906 296,342.20001220703125 C301.3333333333333,343.40000915527344 304.933349609375,344.7333272298177 308.8000183105469,345.3999938964844 C312.66668701171875,346.06666056315106 315.4666798909505,346.0666758219401 319.20001220703125,346.20001220703125 C322.933344523112,346.3333485921224 328.66668192545575,346.20001220703125 331.20001220703125,346.20001220703125 C333.73334248860675,346.20001220703125 333.7333272298177,346.20001220703125 334.3999938964844,346.20001220703125 C335.06666056315106,346.20001220703125 334.8000081380208,346.20001220703125 335.20001220703125,346.20001220703125 Q335.6000162760417,346.20001220703125 336.8000183105469,346.20001220703125" stroke-linejoin="round" stroke-linecap="round" stroke-width="3" stroke="#4d90fe" fill="none"></path><path d="M241.60000610351562,172.60000610351562 C242.53334045410156,172.466672261556 244.40001424153647,172.20000457763672 247.20001220703125,171.8000030517578 C250.00001017252603,171.4000015258789 255.3333282470703,170.73332977294922 258.3999938964844,170.1999969482422 C261.46665954589844,169.66666412353516 263.3333384195964,168.86667124430338 265.6000061035156,168.60000610351562 C267.8666737874349,168.33334096272787 270.1333312988281,168.60000610351562 272,168.60000610351562 C273.8666687011719,168.60000610351562 275.46668497721356,168.466672261556 276.8000183105469,168.60000610351562 C278.1333516438802,168.73333994547525 278.1333363850911,168.20000966389975 280,169.40000915527344 C281.8666636149089,170.60000864664713 284.7999979654948,171.8000030517578 288,175.8000030517578 C291.2000020345052,179.8000030517578 296.00001017252606,188.0666758219401 299.20001220703125,193.40000915527344 C302.40001424153644,198.73334248860678 304.53334554036456,202.0666707356771 307.20001220703125,207.8000030517578 C309.86667887369794,213.53333536783853 313.4666798909505,223.0000025431315 315.20001220703125,227.8000030517578 C316.933344523112,232.60000356038412 316.8000081380208,234.0666732788086 317.6000061035156,236.60000610351562 C318.40000406901044,239.13333892822266 318.6666666666667,241 320,243 C321.3333333333333,245 323.20000712076825,246.86667124430338 325.6000061035156,248.60000610351562 C328.000005086263,250.33334096272787 331.1999918619792,252.20000966389975 334.3999938964844,253.40000915527344 C337.59999593098956,254.60000864664713 340.5333506266276,255.13333892822266 344.8000183105469,255.8000030517578 C349.0666859944661,256.46666717529297 356.1333363850911,257.1333287556966 360,257.3999938964844 C363.8666636149089,257.66665903727215 365.1999969482422,257.1333262125651 368,257.3999938964844 C370.8000030517578,257.6666615804036 373.3333485921224,258.3333333333333 376.8000183105469,259 C380.2666880289714,259.6666666666667 385.6000213623047,260.7333272298177 388.8000183105469,261.3999938964844 C392.00001525878906,262.06666056315106 393.8666687011719,262.06666564941406 396,263 C398.1333312988281,263.93333435058594 399.20000712076825,264.8666636149089 401.6000061035156,267 C404.000005086263,269.1333363850911 408.1333262125651,273.2666829427083 410.3999938964844,275.8000183105469 C412.6666615804036,278.33335367838544 413.3333435058594,279.66668192545575 415.20001220703125,282.20001220703125 C417.0666809082031,284.73334248860675 419.0666758219401,287.93333435058594 421.6000061035156,291 C424.1333363850911,294.06666564941406 428.3999938964844,298.4666697184245 430.3999938964844,300.6000061035156 C432.3999938964844,302.73334248860675 432.6666717529297,303.00002034505206 433.6000061035156,303.8000183105469 C434.53334045410156,304.6000162760417 435.46666463216144,304.999994913737 436,305.3999938964844 Q436.53333536783856,305.79999287923175 436.8000183105469,306.20001220703125" stroke-linejoin="round" stroke-linecap="round" stroke-width="3" stroke="#4d90fe" fill="none"></path><path d="M212.80001831054688,220.60000610351562 C213.46668497721353,220.73333994547525 214.93335469563803,220.73334248860678 216.80001831054688,221.40000915527344 C218.66668192545572,222.0666758219401 221.46666971842447,223.53334045410156 224,224.60000610351562 C226.53333028157553,225.6666717529297 228.3999989827474,225.93333689371744 232,227.8000030517578 C235.6000010172526,229.6666692097982 239.73333740234375,232.20000203450522 245.60000610351562,235.8000030517578 C251.4666748046875,239.4000040690104 260.53334554036456,244.73333994547525 267.20001220703125,249.40000915527344 C273.86667887369794,254.06667836507162 279.73334248860675,258.86668650309247 285.6000061035156,263.8000183105469 C291.4666697184245,268.7333501180013 296.26666259765625,273.40000406901044 302.3999938964844,279 C308.5333251953125,284.59999593098956 316.6666564941406,292.59999084472656 322.3999938964844,297.3999938964844 C328.1333312988281,302.1999969482422 331.3333485921224,303.66668192545575 336.8000183105469,307.8000183105469 C342.2666880289714,311.933354695638 350.53334554036456,318.4666798909505 355.20001220703125,322.20001220703125 C359.86667887369794,325.933344523112 362.00002034505206,328.0666809082031 364.8000183105469,330.20001220703125 C367.6000162760417,332.3333435058594 369.8666687011719,333.3999989827474 372,335 C374.1333312988281,336.6000010172526 376.53334045410156,338.86668395996094 377.6000061035156,339.8000183105469 Q378.6666717529297,340.7333526611328 378.3999938964844,340.6000061035156" stroke-linejoin="round" stroke-linecap="round" stroke-width="3" stroke="#4d90fe" fill="none"></path></svg>