<svg xmlns="http://www.w3.org/2000/svg" version="1.1" xmlns:xlink="http://www.w3.org/1999/xlink" xmlns:svgjs="http://svgjs.com/svgjs" width="100%" height="100%" id="drawing-svg"><path d="M92.80000305175781,203.8000030517578 C92.93333689371745,203.6666692097982 93.33333841959636,203.13333384195963 93.60000610351562,203 C93.86667378743489,202.86666615804037 93.33334350585938,203 94.40000915527344,203 C95.4666748046875,203 98.26666768391927,203.13333384195963 100,203 C101.73333231608073,202.86666615804037 102.80000305175781,202.5999959309896 104.80000305175781,202.1999969482422 C106.80000305175781,201.79999796549478 109.33333333333333,201.13333892822266 112,200.60000610351562 C114.66666666666667,200.0666732788086 118.4000015258789,199.4000015258789 120.80000305175781,199 C123.20000457763672,198.5999984741211 123.33334350585938,198.3333307902018 126.40000915527344,198.1999969482422 C129.4666748046875,198.06666310628256 136.13333129882812,198.1999969482422 139.1999969482422,198.1999969482422 C142.26666259765625,198.1999969482422 142.8000030517578,198.06666310628256 144.8000030517578,198.1999969482422 C146.8000030517578,198.3333307902018 148.66666412353516,198.33333333333334 151.1999969482422,199 C153.73332977294922,199.66666666666666 157.46666463216147,201.13332875569662 160,202.1999969482422 C162.53333536783853,203.26666514078775 164.13334147135416,203.80000813802084 166.40000915527344,205.40000915527344 C168.66667683919272,207.00001017252603 170.93333943684897,209.6666717529297 173.60000610351562,211.8000030517578 C176.26667277018228,213.93333435058594 179.4666748046875,215.66666412353516 182.40000915527344,218.1999969482422 C185.33334350585938,220.73332977294922 189.06667836507162,224.86666615804037 191.20001220703125,227 C193.33334604899088,229.13333384195963 193.8666788736979,229.93333180745444 195.20001220703125,231 C196.5333455403646,232.06666819254556 198.2666778564453,233.00000762939453 199.20001220703125,233.40000915527344 C200.1333465576172,233.80001068115234 199.3333536783854,233.2666778564453 200.80001831054688,233.40000915527344 C202.26668294270834,233.53334045410156 204.93333435058594,234.3333307902018 208,234.1999969482422 C211.06666564941406,234.06666310628256 214.1333465576172,234.33333841959634 219.20001220703125,232.60000610351562 C224.2666778564453,230.8666737874349 233.3333282470703,226.46666971842447 238.39999389648438,223.8000030517578 C243.46665954589844,221.13333638509116 244.93333943684897,219.13333892822266 249.60000610351562,216.60000610351562 C254.26667277018228,214.0666732788086 262.5333251953125,210.60000610351562 266.3999938964844,208.60000610351562 C270.26666259765625,206.60000610351562 270.933349609375,205.6666742960612 272.8000183105469,204.60000610351562 C274.66668701171875,203.53333791097006 275.73334248860675,202.9999974568685 277.6000061035156,202.1999969482422 C279.4666697184245,201.39999643961588 282.1333312988281,200.6000010172526 284,199.8000030517578 C285.8666687011719,199.00000508626303 287.6000162760417,198.0666758219401 288.8000183105469,197.40000915527344 C290.00002034505206,196.73334248860678 289.86667887369794,196.46666971842447 291.20001220703125,195.8000030517578 C292.53334554036456,195.13333638509116 295.6000213623047,194.0666758219401 296.8000183105469,193.40000915527344 C298.00001525878906,192.73334248860678 297.59999593098956,192.33333841959634 298.3999938964844,191.8000030517578 C299.1999918619792,191.26666768391928 299.73333740234375,190.9999974568685 301.6000061035156,190.1999969482422 C303.4666748046875,189.39999643961588 307.4666748046875,187.79999796549478 309.6000061035156,187 C311.73333740234375,186.20000203450522 312.93332926432294,185.80000813802084 314.3999938964844,185.40000915527344 C315.8666585286458,185.00001017252603 317.46665954589844,184.8666737874349 318.3999938964844,184.60000610351562 C319.3333282470703,184.33333841959634 319.59999593098956,183.93333689371744 320,183.8000030517578 C320.40000406901044,183.6666692097982 320.66668192545575,184.0666707356771 320.8000183105469,183.8000030517578 C320.933354695638,183.53333536783853 320.8000183105469,182.86666361490884 320.8000183105469,182.1999969482422 C320.8000183105469,181.53333028157553 320.8000183105469,180.46666971842447 320.8000183105469,179.8000030517578 C320.8000183105469,179.13333638509116 321.46668497721356,180.06666310628256 320.8000183105469,178.1999969482422 C320.1333516438802,176.3333307902018 318.2666880289714,172.0666707356771 316.8000183105469,168.60000610351562 C315.3333485921224,165.13334147135416 313.4666697184245,161.40000915527344 312,157.40000915527344 C310.5333302815755,153.40000915527344 310.3999989827474,149.9333407084147 308,144.60000610351562 C305.6000010172526,139.26667149861655 301.20000712076825,131.26666895548502 297.6000061035156,125.4000015258789 C294.000005086263,119.53333409627278 292.1333262125651,115.80000178019206 286.3999938964844,109.4000015258789 C280.6666615804036,103.00000127156575 272.53334554036456,94.73333358764648 263.20001220703125,87 C253.8666788736979,79.26666641235352 237.99999491373697,68.33333333333333 230.39999389648438,63 C222.79999287923178,57.666666666666664 220.93333943684897,57 217.60000610351562,55 C214.26667277018228,53 212.1333262125651,51.79999987284342 210.39999389648438,51 C208.66666158040366,50.20000012715658 207.73334248860678,50.20000076293945 207.20001220703125,50.20000076293945 C206.66668192545572,50.20000076293945 207.3333485921224,50.333333333333336 207.20001220703125,51 C207.0666758219401,51.666666666666664 207.3333282470703,52.86666742960612 206.39999389648438,54.20000076293945 C205.46665954589844,55.53333409627279 203.20000203450522,57.40000025431315 201.60000610351562,59 C200.00001017252603,60.59999974568685 198.80001831054688,61.26666514078776 196.80001831054688,63.79999923706055 C194.80001831054688,66.33333333333333 191.33334350585938,71.26667086283366 189.60000610351562,74.20000457763672 C187.86666870117188,77.13333829243977 187.06666056315103,79.13333511352539 186.39999389648438,81.4000015258789 C185.73332722981772,83.66666793823242 185.73333740234375,84.733336130778 185.60000610351562,87.80000305175781 C185.4666748046875,90.86666997273763 185.60000610351562,96.06666946411133 185.60000610351562,99.80000305175781 C185.60000610351562,103.5333366394043 185.4666748046875,106.86667124430339 185.60000610351562,110.20000457763672 C185.73333740234375,113.53333791097005 185.86665852864584,116.06666946411133 186.39999389648438,119.80000305175781 C186.9333292643229,123.5333366394043 187.60001627604166,129.13333892822266 188.80001831054688,132.60000610351562 C190.0000203450521,136.0666732788086 192.13334147135416,137.6666742960612 193.60000610351562,140.60000610351562 C195.0666707356771,143.53333791097006 195.33333841959634,146.73332977294922 197.60000610351562,150.1999969482422 C199.8666737874349,153.66666412353516 204.66667683919272,158.33334096272787 207.20001220703125,161.40000915527344 C209.73334757486978,164.466677347819 211.20001729329428,166.73333994547525 212.80001831054688,168.60000610351562 C214.40001932779947,170.466672261556 215.6000213623047,171.40000661214194 216.80001831054688,172.60000610351562 C218.00001525878906,173.8000055948893 219.33333333333334,175.26667022705078 220,175.8000030517578 C220.66666666666666,176.33333587646484 220.5333506266276,175.8000030517578 220.80001831054688,175.8000030517578 C221.06668599446616,175.8000030517578 221.33334350585938,175.8000030517578 221.60000610351562,175.8000030517578 C221.86666870117188,175.8000030517578 221.46665954589844,175.8000030517578 222.39999389648438,175.8000030517578 C223.3333282470703,175.8000030517578 225.0666758219401,175.8000030517578 227.20001220703125,175.8000030517578 C229.3333485921224,175.8000030517578 232.2666778564453,175.6666692097982 235.20001220703125,175.8000030517578 C238.1333465576172,175.93333689371744 241.06668599446616,176.33333841959634 244.80001831054688,176.60000610351562 C248.5333506266276,176.8666737874349 254.13334147135416,177.1333440144857 257.6000061035156,177.40000915527344 C261.06667073567706,177.6666742960612 263.20000712076825,177.93333180745444 265.6000061035156,178.1999969482422 C268.000005086263,178.46666208902994 269.46666463216144,178.5999984741211 272,179 C274.53333536783856,179.4000015258789 278.1333516438802,180.0666732788086 280.8000183105469,180.60000610351562 C283.46668497721356,181.13333892822266 285.6000010172526,181.79999796549478 288,182.1999969482422 C290.3999989827474,182.5999959309896 292.53334554036456,182.5999984741211 295.20001220703125,183 C297.86667887369794,183.4000015258789 301.8666687011719,184.0666732788086 304,184.60000610351562 C306.1333312988281,185.13333892822266 306.7999979654948,185.79999796549478 308,186.1999969482422 C309.2000020345052,186.5999959309896 310.1333465576172,186.46666463216147 311.20001220703125,187 C312.2666778564453,187.53333536783853 313.7333272298177,188.8666763305664 314.3999938964844,189.40000915527344 C315.06666056315106,189.93334197998047 315.0666758219401,189.93333180745444 315.20001220703125,190.1999969482422 C315.3333485921224,190.46666208902994 315.20001220703125,190.73333231608072 315.20001220703125,191 C315.20001220703125,191.26666768391928 315.20001220703125,191.4000015258789 315.20001220703125,191.8000030517578 C315.20001220703125,192.20000457763672 315.20001220703125,192.0666758219401 315.20001220703125,193.40000915527344 C315.20001220703125,194.73334248860678 315.20001220703125,196.20000457763672 315.20001220703125,199.8000030517578 C315.20001220703125,203.4000015258789 315.3333485921224,211.53333282470703 315.20001220703125,215 C315.0666758219401,218.46666717529297 314.6666615804036,218.466672261556 314.3999938964844,220.60000610351562 C314.1333262125651,222.73333994547525 313.73333740234375,225.26667022705078 313.6000061035156,227.8000030517578 C313.4666748046875,230.33333587646484 313.6000061035156,233.6666692097982 313.6000061035156,235.8000030517578 C313.6000061035156,237.93333689371744 313.6000061035156,239.6666717529297 313.6000061035156,240.60000610351562 C313.6000061035156,241.53334045410156 313.6000061035156,241.1333440144857 313.6000061035156,241.40000915527344 C313.6000061035156,241.6666742960612 313.6000061035156,241.93333180745444 313.6000061035156,242.1999969482422 C313.6000061035156,242.46666208902994 313.6000061035156,243 313.6000061035156,243 C313.6000061035156,243 313.6000061035156,242.46666208902994 313.6000061035156,242.1999969482422 Q313.6000061035156,241.93333180745444 313.6000061035156,241.40000915527344" stroke-linejoin="round" stroke-linecap="round" stroke-width="3" stroke="#000000" fill="none"></path><path d="M216.80001831054688,269.3999938964844 C217.3333485921224,269.26666259765625 217.73333740234375,269.2666727701823 220,268.6000061035156 C222.26666259765625,267.93333943684894 227.3333282470703,266.3333282470703 230.39999389648438,265.3999938964844 C233.46665954589844,264.46665954589844 235.59999084472656,264.06666564941406 238.39999389648438,263 C241.1999969482422,261.93333435058594 245.20001220703125,259.7999979654948 247.20001220703125,259 C249.20001220703125,258.2000020345052 249.5999959309896,258.4666798909505 250.39999389648438,258.20001220703125 C251.19999186197916,257.933344523112 251.46666463216147,257.3999938964844 252,257.3999938964844 C252.53333536783853,257.3999938964844 252.13333638509116,256.6000111897786 253.60000610351562,258.20001220703125 C255.0666758219401,259.8000132242839 258.4000193277995,262.8666687011719 260.8000183105469,267 C263.20001729329425,271.1333312988281 265.3333333333333,277.6666666666667 268,283 C270.6666666666667,288.3333333333333 274.5333506266276,294.06666564941406 276.8000183105469,299 C279.0666859944661,303.93333435058594 279.73334248860675,308.4666697184245 281.6000061035156,312.6000061035156 C283.4666697184245,316.73334248860675 286.7999979654948,321.4000193277995 288,323.8000183105469 C289.2000020345052,326.20001729329425 288.66668192545575,326.3333333333333 288.8000183105469,327 C288.933354695638,327.6666666666667 288.8000183105469,327.5333506266276 288.8000183105469,327.8000183105469 C288.8000183105469,328.0666859944661 288.66668701171875,328.4666748046875 288.8000183105469,328.6000061035156 C288.933349609375,328.73333740234375 288.53334045410156,328.8666737874349 289.6000061035156,328.6000061035156 C290.6666717529297,328.3333384195964 293.0666809082031,327.6666666666667 295.20001220703125,327 C297.3333435058594,326.3333333333333 300.1333262125651,325.40000406901044 302.3999938964844,324.6000061035156 C304.6666615804036,323.8000081380208 306.00001525878906,322.86667887369794 308.8000183105469,322.20001220703125 C311.6000213623047,321.53334554036456 316.8000132242839,321.1333414713542 319.20001220703125,320.6000061035156 C321.6000111897786,320.06667073567706 322.00001525878906,319.3999989827474 323.20001220703125,319 C324.40000915527344,318.6000010172526 324.79999287923175,318.6000111897786 326.3999938964844,318.20001220703125 C327.999994913737,317.8000132242839 330.8000183105469,317.000005086263 332.8000183105469,316.6000061035156 C334.8000183105469,316.20000712076825 336.26666259765625,316.20001729329425 338.3999938964844,315.8000183105469 C340.5333251953125,315.4000193277995 342.53333536783856,315.53334554036456 345.6000061035156,314.20001220703125 C348.6666768391927,312.86667887369794 353.86668395996094,309.4000193277995 356.8000183105469,307.8000183105469 C359.7333526611328,306.20001729329425 361.3333485921224,305.93333943684894 363.20001220703125,304.6000061035156 C365.0666758219401,303.2666727701823 366.3999989827474,301.2666829427083 368,299.8000183105469 Q369.6000010172526,298.33335367838544 372.8000183105469,295.8000183105469" stroke-linejoin="round" stroke-linecap="round" stroke-width="3" stroke="#000000" fill="none"></path></svg>