<svg xmlns="http://www.w3.org/2000/svg" version="1.1" xmlns:xlink="http://www.w3.org/1999/xlink" xmlns:svgjs="http://svgjs.com/svgjs" width="100%" height="100%" id="drawing-svg"><path d="M170.40000915527344,199 C170.40000915527344,198.73333485921225 170.2666778564453,198.20000966389975 170.40000915527344,197.40000915527344 C170.53334045410156,196.60000864664713 170.13333129882812,196.3333307902018 171.1999969482422,194.1999969482422 C172.26666259765625,192.06666310628256 171.46666717529297,190.20000457763672 176.8000030517578,184.60000610351562 C182.13333892822266,179.00000762939453 194.66667938232422,167.26667277018228 203.20001220703125,160.60000610351562 C211.73334503173828,153.93333943684897 220.3999989827474,148.60000610351562 228,144.60000610351562 C235.6000010172526,140.60000610351562 242.5333506266276,137.93333943684897 248.80001831054688,136.60000610351562 C255.06668599446616,135.26667277018228 261.8666737874349,135.26667277018228 265.6000061035156,136.60000610351562 C269.3333384195964,137.93333943684897 270.40001424153644,140.20000712076822 271.20001220703125,144.60000610351562 C272.00001017252606,149.00000508626303 271.999994913737,153.8000005086263 270.3999938964844,163 C268.79999287923175,172.1999994913737 263.73333740234375,189.6666692097982 261.6000061035156,199.8000030517578 C259.4666748046875,209.93333689371744 258.1333414713542,215.93333689371744 257.6000061035156,223.8000030517578 C257.06667073567706,231.6666692097982 256.26666259765625,239.13333384195963 258.3999938964844,247 C260.5333251953125,254.86666615804037 264.9333241780599,264.73333231608075 270.3999938964844,271 C275.8666636149089,277.26666768391925 283.3333435058594,281.1333363850911 291.20001220703125,284.6000061035156 C299.0666809082031,288.0666758219401 306.40000915527344,289.933349609375 317.6000061035156,291.8000183105469 C328.8000030517578,293.66668701171875 348.5333251953125,295.1333516438802 358.3999938964844,295.8000183105469 C368.26666259765625,296.46668497721356 372.2666829427083,295.8000183105469 376.8000183105469,295.8000183105469 C381.33335367838544,295.8000183105469 383.73334248860675,295.8000183105469 385.6000061035156,295.8000183105469 C387.4666697184245,295.8000183105469 387.46666463216144,294.7333526611328 388,295.8000183105469 C388.53333536783856,296.86668395996094 390.2666829427083,298.7333475748698 388.8000183105469,302.20001220703125 C387.33335367838544,305.6666768391927 383.6000162760417,310.4666748046875 379.20001220703125,316.6000061035156 C374.8000081380208,322.73333740234375 366.93332926432294,332.8666687011719 362.3999938964844,339 C357.8666585286458,345.1333312988281 355.06666564941406,349.1333262125651 352,353.3999938964844 C348.93333435058594,357.6666615804036 346.26666768391925,361.8000030517578 344,364.6000061035156 C341.73333231608075,367.40000915527344 339.46665954589844,369.00001017252606 338.3999938964844,370.20001220703125 C337.3333282470703,371.40001424153644 337.8666687011719,371.5333506266276 337.6000061035156,371.8000183105469 Q337.3333435058594,372.0666859944661 336.8000183105469,371.8000183105469" stroke-linejoin="round" stroke-linecap="round" stroke-width="3" stroke="#000000" fill="none"></path><path d="M160.8000030517578,300.6000061035156 C160.53333536783853,300.3333384195964 160.53333028157553,300.8666687011719 159.1999969482422,299 C157.86666361490884,297.1333312988281 154.13333638509116,292.8666585286458 152.8000030517578,289.3999938964844 C151.46666971842447,285.93332926432294 151.3333307902018,282.0666758219401 151.1999969482422,278.20001220703125 C151.06666310628256,274.3333485921224 150.79999796549478,271.8000132242839 152,266.20001220703125 C153.20000203450522,260.6000111897786 157.0666758219401,249.00000762939453 158.40000915527344,244.60000610351562 C159.73334248860678,240.20000457763672 159.6000010172526,241.0000025431315 160,239.8000030517578 C160.3999989827474,238.60000356038412 160.6666692097982,237.93334197998047 160.8000030517578,237.40000915527344 C160.93333689371744,236.8666763305664 160.4000040690104,235.40000661214194 160.8000030517578,236.60000610351562 C161.20000203450522,237.8000055948893 163.06666310628256,239.80000813802084 163.1999969482422,244.60000610351562 C163.3333307902018,249.4000040690104 162.26667277018228,254.99999491373697 161.60000610351562,265.3999938964844 C160.93333943684897,275.79999287923175 159.46666463216147,295.1333312988281 159.1999969482422,307 C158.9333292643229,318.8666687011719 158.93333180745444,327.1333363850911 160,336.6000061035156 C161.06666819254556,346.0666758219401 161.33333841959634,353.2666829427083 165.60000610351562,363.8000183105469 C169.8666737874349,374.33335367838544 178.53334045410156,390.33335367838544 185.60000610351562,399.8000183105469 C192.6666717529297,409.2666829427083 199.46666463216147,414.3333435058594 208,420.6000061035156 C216.53333536783853,426.8666687011719 225.20001729329428,432.06666056315106 236.80001831054688,437.3999938964844 C248.40001932779947,442.7333272298177 267.8666737874349,448.8666687011719 277.6000061035156,452.6000061035156 C287.3333384195964,456.3333435058594 290.933344523112,457.933349609375 295.20001220703125,459.8000183105469 C299.4666798909505,461.66668701171875 301.20001220703125,462.0666859944661 303.20001220703125,463.8000183105469 C305.20001220703125,465.5333506266276 306.53334554036456,467.66668192545575 307.20001220703125,470.20001220703125 C307.86667887369794,472.73334248860675 307.6000111897786,476.3333333333333 307.20001220703125,479 C306.8000132242839,481.6666666666667 305.86668395996094,483.00001017252606 304.8000183105469,486.20001220703125 C303.7333526611328,489.40001424153644 301.7333526611328,495.66668192545575 300.8000183105469,498.20001220703125 C299.86668395996094,500.73334248860675 299.4666798909505,500.7333272298177 299.20001220703125,501.3999938964844 C298.933344523112,502.06666056315106 298.8000132242839,502.0666758219401 299.20001220703125,502.20001220703125 C299.6000111897786,502.3333485921224 300.1333414713542,502.6000111897786 301.6000061035156,502.20001220703125 C303.06667073567706,501.8000132242839 306.1333312988281,501.1333516438802 308,499.8000183105469 Q309.8666687011719,498.46668497721356 312.8000183105469,494.20001220703125" stroke-linejoin="round" stroke-linecap="round" stroke-width="3" stroke="#000000" fill="none"></path><path d="M259.20001220703125,391.8000183105469 C258.8000132242839,391.00001525878906 259.20001729329425,390.2000020345052 256.8000183105469,387 C254.40001932779947,383.7999979654948 248.40001932779947,377.6666717529297 244.80001831054688,372.6000061035156 C241.20001729329428,367.53334045410156 238.26668294270834,363.2666727701823 235.20001220703125,356.6000061035156 C232.13334147135416,349.93333943684894 228.1333262125651,338.8666737874349 226.39999389648438,332.6000061035156 C224.66666158040366,326.3333384195964 225.06668090820312,322.8666687011719 224.80001831054688,319 C224.53335571289062,315.1333312988281 224.53335571289062,312.999994913737 224.80001831054688,309.3999938964844 C225.06668090820312,305.79999287923175 226.13333129882812,300.06666056315106 226.39999389648438,297.3999938964844 C226.66665649414062,294.7333272298177 226.39999389648438,294.59999084472656 226.39999389648438,293.3999938964844 C226.39999389648438,292.1999969482422 226.9333241780599,291.8000081380208 226.39999389648438,290.20001220703125 C225.86666361490884,288.6000162760417 224.66667683919272,285.5333506266276 223.20001220703125,283.8000183105469 C221.73334757486978,282.0666859944661 219.4666748046875,281.2666880289714 217.60000610351562,279.8000183105469 C215.73333740234375,278.3333485921224 214.26666768391928,276.8666687011719 212,275 C209.73333231608072,273.1333312988281 206.26666768391928,271.40000406901044 204,268.6000061035156 C201.73333231608072,265.8000081380208 200.1333262125651,262.0666783650716 198.39999389648438,258.20001220703125 C196.66666158040366,254.33334604899088 194.53333536783853,251.1333440144857 193.60000610351562,245.40000915527344 C192.66667683919272,239.6666742960612 192.26668294270834,230.20000457763672 192.80001831054688,223.8000030517578 C193.3333536783854,217.4000015258789 195.7333526611328,212.06666564941406 196.80001831054688,207 C197.86668395996094,201.93333435058594 198.40001424153647,197.93334197998047 199.20001220703125,193.40000915527344 C200.00001017252603,188.8666763305664 201.20000712076822,182.46666971842447 201.60000610351562,179.8000030517578 C202.00000508626303,177.13333638509116 201.73333740234375,178.0666758219401 201.60000610351562,177.40000915527344 C201.4666748046875,176.73334248860678 202.66668701171875,176.46666971842447 200.80001831054688,175.8000030517578 C198.933349609375,175.13333638509116 193.3333307902018,173.40000915527344 190.39999389648438,173.40000915527344 C187.46665700276694,173.40000915527344 185.46666208902994,175.13333638509116 183.1999969482422,175.8000030517578 C180.93333180745444,176.46666971842447 178.93333435058594,176.73334248860678 176.8000030517578,177.40000915527344 C174.6666717529297,178.0666758219401 171.8666763305664,179.13333638509116 170.40000915527344,179.8000030517578 C168.93334197998047,180.46666971842447 168.53333536783853,181.13334147135416 168,181.40000915527344 Q167.46666463216147,181.66667683919272 167.1999969482422,181.40000915527344" stroke-linejoin="round" stroke-linecap="round" stroke-width="3" stroke="#000000" fill="none"></path></svg>