<svg xmlns="http://www.w3.org/2000/svg" version="1.1" xmlns:xlink="http://www.w3.org/1999/xlink" xmlns:svgjs="http://svgjs.com/svgjs" width="100%" height="100%" id="drawing-svg"><path d="M162,111.80000305175781 C161.33333333333334,111.66666920979817 160.13333384195963,111.53333409627278 158,111 C155.86666615804037,110.46666590372722 153.5999959309896,110.46666463216145 149.1999969482422,108.5999984741211 C144.79999796549478,106.73333231608073 135.60000610351562,101.66666666666667 131.60000610351562,99.80000305175781 C127.60000610351562,97.93333943684895 126.66666412353516,98.33334986368816 125.19999694824219,97.40001678466797 C123.73332977294922,96.46668370564778 123.46666971842448,96.86667124430339 122.80000305175781,94.20000457763672 C122.13333638509114,91.53333791097005 120.13333129882812,85.2666842142741 121.19999694824219,81.40001678466797 C122.26666259765625,77.53334935506184 125.46666208902995,74.46666844685872 129.1999969482422,71 C132.93333180745444,67.53333155314128 136.8000055948893,63.00000508626302 143.60000610351562,60.600006103515625 C150.40000661214194,58.20000712076823 162.26666768391928,56.73334058125814 170,56.600006103515625 C177.73333231608072,56.46667162577311 184.13333129882812,57.13333257039388 190,59.79999923706055 C195.86666870117188,62.46666590372721 199.60001118977866,65.13333956400554 205.20001220703125,72.60000610351562 C210.80001322428384,80.06667264302571 219.33333841959634,95.39999898274739 223.60000610351562,104.5999984741211 C227.8666737874349,113.7999979654948 228.933349609375,119.80000178019206 230.80001831054688,127.80000305175781 C232.66668701171875,135.80000432332358 233.46668497721353,143.13333892822266 234.80001831054688,152.60000610351562 C236.13335164388022,162.0666732788086 236.40001932779947,176.20000712076822 238.80001831054688,184.60000610351562 C241.20001729329428,193.00000508626303 245.20001220703125,197.4000015258789 249.20001220703125,203 C253.20001220703125,208.5999984741211 252.66668701171875,211.13332875569662 262.8000183105469,218.1999969482422 C272.933349609375,225.26666514078775 294.40000406901044,237.2666753133138 310,245.40000915527344 C325.59999593098956,253.53334299723306 340.26665751139325,260.33333587646484 356.3999938964844,267 C372.5333302815755,273.66666412353516 386.1333465576172,276.999994913737 406.8000183105469,285.3999938964844 C427.46669006347656,293.79999287923175 461.0666961669922,309.3999938964844 480.4000244140625,317.3999938964844 C499.7333526611328,325.3999938964844 510.6666564941406,328.46665954589844 522.7999877929688,333.3999938964844 C534.9333190917969,338.3333282470703 542.5333455403646,342.06666564941406 553.2000122070312,347 C563.8666788736979,351.93333435058594 577.999989827474,359.1333312988281 586.7999877929688,363 C595.5999857584635,366.8666687011719 600.1333312988281,367.933344523112 606,370.20001220703125 C611.8666687011719,372.4666798909505 615.2000020345052,374.6000061035156 622,376.6000061035156 C628.7999979654948,378.6000061035156 639.999989827474,381.40001424153644 646.7999877929688,382.20001220703125 C653.5999857584635,383.00001017252606 657.3333129882812,382.1999969482422 662.7999877929688,381.3999938964844 C668.2666625976562,380.59999084472656 673.4666951497396,379.9333241780599 679.6000366210938,377.3999938964844 C685.7333780924479,374.8666636149089 694.4000447591146,370.0666758219401 699.6000366210938,366.20001220703125 C704.8000284830729,362.3333485921224 707.5999959309896,357.8000132242839 710.7999877929688,354.20001220703125 C713.9999796549479,350.6000111897786 716.7999877929688,347.2666727701823 718.7999877929688,344.6000061035156 C720.7999877929688,341.93333943684894 722.1333211263021,339.6666768391927 722.7999877929688,338.20001220703125 C723.4666544596354,336.7333475748698 722.6666463216146,336.33335367838544 722.7999877929688,335.8000183105469 C722.9333292643229,335.2666829427083 723.6000366210938,336.06667073567706 723.6000366210938,335 C723.6000366210938,333.93332926432294 723.999989827474,331.26665751139325 722.7999877929688,329.3999938964844 C721.5999857584635,327.5333302815755 718.933349609375,326.3333485921224 716.4000244140625,323.8000183105469 C713.86669921875,321.2666880289714 711.3333740234375,318.86667887369794 707.6000366210938,314.20001220703125 C703.86669921875,309.53334554036456 697.8666687011719,301.2666880289714 694,295.8000183105469 C690.1333312988281,290.3333485921224 687.0666910807291,286.1999969482422 684.4000244140625,281.3999938964844 C681.7333577473959,276.59999084472656 680.1333312988281,271.66666412353516 678,267 C675.8666687011719,262.33333587646484 673.3333638509115,256.8666763305664 671.6000366210938,253.40000915527344 C669.866709391276,249.93334197998047 669.0667114257812,248.3333307902018 667.6000366210938,246.1999969482422 C666.1333618164062,244.06666310628256 666.5333251953125,242.33333333333334 662.7999877929688,240.60000610351562 C659.066650390625,238.8666788736979 651.4666748046875,236.73336791992188 645.2000122070312,235.80003356933594 C638.933349609375,234.86669921875 631.8666788736979,234.73333740234375 625.2000122070312,235 C618.5333455403646,235.26666259765625 612.933349609375,235.26667022705078 605.2000122070312,237.40000915527344 C597.4666748046875,239.5333480834961 584.7999877929688,245.2667007446289 578.7999877929688,247.80003356933594 C572.7999877929688,250.33336639404297 571.4666748046875,251.5333455403646 569.2000122070312,252.60000610351562 C566.933349609375,253.66666666666666 564.933349609375,253.26666259765625 565.2000122070312,254.1999969482422 C565.4666748046875,255.13333129882812 565.4666544596354,256.7333450317383 570.7999877929688,258.20001220703125 C576.1333211263021,259.6666793823242 586.4000040690104,261.8000030517578 597.2000122070312,263 C608.0000203450521,264.1999969482422 621.0667012532552,264.1999918619792 635.6000366210938,265.3999938964844 C650.1333719889323,266.59999593098956 666.933359781901,268.20001220703125 684.4000244140625,270.20001220703125 C701.866689046224,272.20001220703125 727.2000223795573,275.6666615804036 740.4000244140625,277.3999938964844 C753.6000264485677,279.1333262125651 757.2000427246094,279.53333536783856 763.6000366210938,280.6000061035156 C770.0000305175781,281.6666768391927 775.8666585286459,283.2666829427083 778.7999877929688,283.8000183105469 C781.7333170572916,284.33335367838544 780.6666768391927,283.5333557128906 781.2000122070312,283.8000183105469 C781.7333475748698,284.0666809082031 781.8666687011719,284.999994913737 782,285.3999938964844 C782.1333312988281,285.79999287923175 781.7333272298177,285.53334554036456 782,286.20001220703125 C782.2666727701823,286.86667887369794 783.2000325520834,288.59999593098956 783.6000366210938,289.3999938964844 C784.0000406901041,290.1999918619792 783.3333638509115,290.1999969482422 784.4000244140625,291 C785.4666849772135,291.8000030517578 785.2000020345052,291.00001017252606 790,294.20001220703125 C794.7999979654948,297.40001424153644 806.933339436849,305.53334554036456 813.2000122070312,310.20001220703125 C819.4666849772135,314.86667887369794 823.3333740234375,318.20001220703125 827.6000366210938,322.20001220703125 C831.86669921875,326.20001220703125 835.066660563151,329.1333465576172 838.7999877929688,334.20001220703125 C842.5333150227865,339.2666778564453 847.8666585286459,348.0666758219401 850,352.6000061035156 C852.1333414713541,357.1333363850911 851.3333638509115,358.3333282470703 851.6000366210938,361.3999938964844 C851.866709391276,364.46665954589844 852.5333760579427,368.06666564941406 851.6000366210938,371 C850.6666971842448,373.93333435058594 847.8666687011719,376.46666463216144 846,379 C844.1333312988281,381.53333536783856 842.8000183105469,384.0666758219401 840.4000244140625,386.20001220703125 C838.0000305175781,388.3333485921224 835.2000427246094,389.66668701171875 831.6000366210938,391.8000183105469 C828.0000305175781,393.933349609375 821.5999959309896,397.40000406901044 818.7999877929688,399 C815.9999796549479,400.59999593098956 816.1333211263021,400.7333272298177 814.7999877929688,401.3999938964844 C813.4666544596354,402.06666056315106 811.5999857584635,402.73333231608075 810.7999877929688,403 C809.999989827474,403.26666768391925 810.1333312988281,402.73333231608075 810,403 C809.8666687011719,403.26666768391925 810,404.20000712076825 810,404.6000061035156 C810,405.000005086263 810,405.1333262125651 810,405.3999938964844 C810,405.6666615804036 809.066660563151,405.00001017252606 810,406.20001220703125 C810.933339436849,407.40001424153644 813.4667053222656,409.6666717529297 815.6000366210938,412.6000061035156 C817.7333679199219,415.53334045410156 818.6666564941406,417.66668701171875 822.7999877929688,423.8000183105469 C826.9333190917969,429.933349609375 835.6000162760416,442.7333272298177 840.4000244140625,449.3999938964844 C845.2000325520834,456.06666056315106 848.6667073567709,458.86668395996094 851.6000366210938,463.8000183105469 C854.5333658854166,468.7333526611328 856.933339436849,475.93333435058594 858,479 C859.066660563151,482.06666564941406 858.2666625976562,481.26666768391925 858,482.20001220703125 Q857.7333374023438,483.13335673014325 856.4000244140625,484.6000671386719" stroke-linejoin="round" stroke-linecap="round" stroke-width="3" stroke="#000000" fill="none"></path><path d="M52.400001525878906,106.20000457763672 C52.66666793823242,105.40000661214192 53.06666692097982,103.2666842142741 54,101.40001678466797 C54.93333307902018,99.53334935506184 56.666666666666664,97.26666895548503 58,95 C59.333333333333336,92.73333104451497 60.93333180745443,89.13333638509114 62,87.80000305175781 C63.06666819254557,86.46666971842448 63.4666748046875,87.53333282470703 64.40000915527344,87 C65.33334350585938,86.46666717529297 66.6666742960612,85.00000508626302 67.60000610351562,84.60000610351562 C68.53333791097005,84.20000712076823 69.33333333333333,84.60000610351562 70,84.60000610351562 C70.66666666666667,84.60000610351562 71.20000457763672,84.60000610351562 71.60000610351562,84.60000610351562 C72.00000762939453,84.60000610351562 72.00001017252605,84.60000610351562 72.40000915527344,84.60000610351562 C72.80000813802083,84.60000610351562 73.60000101725261,84.20000712076823 74,84.60000610351562 C74.39999898274739,85.00000508626302 74.66666920979817,86.19999821980794 74.80000305175781,87 C74.93333689371745,87.80000178019206 75.73333740234375,88.06668345133464 74.80000305175781,89.40001678466797 C73.86666870117188,90.7333501180013 71.86666361490886,93.40000279744466 69.19999694824219,95 C66.53333028157552,96.59999720255534 63.06666946411133,98.33333333333333 58.80000305175781,99 C54.5333366394043,99.66666666666667 49.86666488647461,100.86666615804036 43.599998474121094,99 C37.33333206176758,97.13333384195964 26.93333689371745,92.06666692097981 21.20000457763672,87.80000305175781 C15.466672261555988,83.53333918253581 12.533337910970053,78.60001627604167 9.200004577636719,73.40001678466797 Q5.866671244303385,68.20001729329427 1.2000045776367188,56.600006103515625" stroke-linejoin="round" stroke-linecap="round" stroke-width="3" stroke="#000000" fill="none"></path></svg>