<svg xmlns="http://www.w3.org/2000/svg" width="1536" height="735" viewBox="0 0 1536 735"><path d="M 493,376.75 L 495,372.25 L 497,368.25 L 499,364.75 L 504,357.75 L 512,347.25 L 521.5,336.25 L 532.5,324.75 L 546.25,312 L 562.75,298 L 585.5,282.25 L 614.5,264.75 L 636,253 L 650,247 L 665.5,242.5 L 682.5,239.5 L 700,239.25 L 718,241.75 L 733,246 L 745,252 L 756.25,259.25 L 766.75,267.75 L 781.5,282.75 L 800.5,304.25 L 817.5,322 L 832.5,336 L 850,351 L 870,367 L 898.75,384 L 936.25,402 L 969.75,414.5 L 999.25,421.5 L 1039.75,426.5 L 1091.25,429.5 L 1133.75,429.25 L 1167.25,425.75 L 1199.5,420.75 L 1230.5,414.25 L 1262.25,404.75 L 1294.75,392.25 L 1316.5,383 L 1327.5,377 L 1336.25,371.25 L 1342.75,365.75 L 1348.75,360 L 1354.25,354 L 1357.75,348.75 L 1359.25,344.25 L 1360,339.75 L 1360,335.25 L 1360,330.25 L 1360,324.75 L 1360,321.25 L 1360,319.75 L 1360,318.75 L 1360,318.25 L 1360,317.75 L 1360,317.25 L 1360,316.75 L 1360,316.25 " stroke="black" fill="none" stroke-width="2"/><path d="M 442.75,519.75 L 442.25,519.25 L 441.25,518.25 L 439.75,516.75 L 438,514.75 L 436,512.25 L 434.5,510.25 L 433.5,508.75 L 432.5,506.75 L 431.5,504.25 L 430.25,502 L 428.75,500 L 427.75,497 L 427.25,493 L 427,485.25 L 427,473.75 L 428.25,464.75 L 430.75,458.25 L 432.75,450 L 434.25,440 L 437,428.5 L 441,415.5 L 444,405.25 L 446,397.75 L 447.25,390.25 L 447.75,382.75 L 448.5,376 L 449.5,370 L 450.25,365 L 450.75,361 L 451.5,355 L 452.5,347 L 455,338.25 L 459,328.75 L 463.5,319.75 L 468.5,311.25 L 476.75,298.25 L 488.25,280.75 L 499,266.5 L 509,255.5 L 519.75,245 L 531.25,235 L 546.75,224.25 L 566.25,212.75 L 580.75,205.5 L 590.25,202.5 L 599.25,200.25 L 607.75,198.75 L 619.75,199.5 L 635.25,202.5 L 650,207.5 L 664,214.5 L 677.25,220.75 L 689.75,226.25 L 705.75,234.5 L 725.25,245.5 L 744.25,254.75 L 762.75,262.25 L 781.5,268.25 L 800.5,272.75 L 822.75,276.25 L 848.25,278.75 L 870.25,278.75 L 888.75,276.25 L 904,273 L 916,269 L 930.5,262.5 L 947.5,253.5 L 959,247 L 965,243 L 969.75,239.75 L 973.25,237.25 L 975.25,235.75 L 975.75,235.25 L 976,234.75 L 976,234.25 L 977,233.25 L 979,231.75 L 982.5,230 L 987.5,228 L 994.75,226 L 1004.25,224 L 1018,222 L 1036,220 L 1050.75,218.25 L 1062.25,216.75 L 1071.75,215.25 L 1079.25,213.75 L 1087,212.5 L 1095,211.5 L 1100.5,210.75 L 1103.5,210.25 L 1106,209.75 L 1108,209.25 L 1111,209 L 1115,209 L 1118.75,209.5 L 1122.25,210.5 L 1126,212.5 L 1130,215.5 L 1138,221.25 L 1150,229.75 L 1161,238.75 L 1171,248.25 L 1181,259 L 1191,271 L 1206.25,294.5 L 1226.75,329.5 L 1241.25,356 L 1249.75,374 L 1258,394 L 1266,416 L 1271,432.75 L 1273,444.25 L 1274.25,453.25 L 1274.75,459.75 " stroke="black" fill="none" stroke-width="2"/><path d="M 477.25,633.5 L 479.75,630.5 L 485,624.5 L 493,615.5 L 503.75,606.5 L 517.25,597.5 L 531.25,587.5 L 545.75,576.5 L 568.75,562.5 L 600.25,545.5 L 628,532.75 L 652,524.25 L 676,516.75 L 700,510.25 L 731,504 L 769,498 L 800,494.5 L 824,493.5 L 844.25,493 L 860.75,493 L 880.5,494.75 L 903.5,498.25 L 921.5,501.5 L 934.5,504.5 L 946.75,508.25 L 958.25,512.75 L 971.5,518.5 L 986.5,525.5 L 999.5,531.25 L 1010.5,535.75 L 1020,539 L 1028,541 L 1038.75,542.25 L 1052.25,542.75 L 1063.25,541.5 L 1071.75,538.5 L 1081.25,534.5 L 1091.75,529.5 L 1107.75,520.5 L 1129.25,507.5 L 1147.75,495.25 L 1163.25,483.75 L 1181.25,469.25 L 1201.75,451.75 L 1216,438.75 L 1224,430.25 L 1230.5,423 L 1235.5,417 L 1238.75,412.25 L 1240.25,408.75 L 1241,407 L 1241,407 L 1241,406.75 L 1241,406.25 L 1240.5,406 L 1239.5,406 L 1238.25,406 L 1236.75,406 L 1235.25,406 L 1233.75,406 L 1232.75,406 L 1232.25,406 " stroke="black" fill="none" stroke-width="2"/></svg>