<svg xmlns="http://www.w3.org/2000/svg" version="1.1" xmlns:xlink="http://www.w3.org/1999/xlink" xmlns:svgjs="http://svgjs.com/svgjs" width="100%" height="100%" id="drawing-svg"><path d="M81.60000610351562,223 C81.20000457763672,222.6000010172526 79.86666361490886,221.26667277018228 79.19999694824219,220.60000610351562 C78.53333028157552,219.93333943684897 78.80000559488933,220.1999994913737 77.60000610351562,219 C76.40000661214192,217.8000005086263 73.33333333333333,215.2666753133138 72,213.40000915527344 C70.66666666666667,211.53334299723306 70.13333892822266,209.93333689371744 69.60000610351562,207.8000030517578 C69.0666732788086,205.6666692097982 66.40000406901042,205.8000055948893 68.80000305175781,200.60000610351562 C71.2000020345052,195.40000661214194 78.93333435058594,183.40000661214194 84,176.60000610351562 C89.06666564941406,169.8000055948893 93.06666310628255,165.53333791097006 99.19999694824219,159.8000030517578 C105.33333079020183,154.06666819254556 112.80000305175781,147.66666412353516 120.80000305175781,142.1999969482422 C128.8000030517578,136.73332977294922 139.9999974568685,129.93333307902017 147.1999969482422,127 C154.39999643961588,124.06666692097981 159.1999994913737,124.5999984741211 164,124.5999984741211 C168.8000005086263,124.5999984741211 171.06666564941406,124.46666590372722 176,127 C180.93333435058594,129.5333340962728 189.0666707356771,134.73333485921225 193.60000610351562,139.8000030517578 C198.13334147135416,144.86667124430338 200.80001322428384,151.2666753133138 203.20001220703125,157.40000915527344 C205.60001118977866,163.53334299723306 205.86666870117188,168.8666737874349 208,176.60000610351562 C210.13333129882812,184.33333841959634 213.46666463216147,196.60000356038412 216,203.8000030517578 C218.53333536783853,211.0000025431315 220.40000915527344,215.4000040690104 223.20001220703125,219.8000030517578 C226.00001525878906,224.20000203450522 226.66668701171875,226.06666310628256 232.80001831054688,230.1999969482422 C238.933349609375,234.3333307902018 250.93333435058594,241.00000508626303 260,244.60000610351562 C269.06666564941406,248.20000712076822 279.4666798909505,250.0666707356771 287.20001220703125,251.8000030517578 C294.933344523112,253.53333536783853 299.999994913737,253.8000005086263 306.3999938964844,255 C312.79999287923175,256.1999994913737 321.3333384195964,257.93333435058594 325.6000061035156,259 C329.8666737874349,260.06666564941406 330.1333312988281,260.7333272298177 332,261.3999938964844 C333.8666687011719,262.06666056315106 335.7333526611328,262.3333333333333 336.8000183105469,263 C337.86668395996094,263.6666666666667 337.999994913737,264.06666056315106 338.3999938964844,265.3999938964844 C338.79999287923175,266.7333272298177 339.20001220703125,268.1999969482422 339.20001220703125,271 C339.20001220703125,273.8000030517578 340.1333262125651,275.53334554036456 338.3999938964844,282.20001220703125 C336.6666615804036,288.86667887369794 331.20001729329425,302.3333333333333 328.8000183105469,311 C326.4000193277995,319.6666666666667 324.93333435058594,326.73334248860675 324,334.20001220703125 C323.06666564941406,341.66668192545575 322.6666768391927,348.46668497721356 323.20001220703125,355.8000183105469 C323.7333475748698,363.1333516438802 325.6000111897786,373.1333465576172 327.20001220703125,378.20001220703125 C328.8000132242839,383.2666778564453 330.5333506266276,384.20001220703125 332.8000183105469,386.20001220703125 C335.0666859944661,388.20001220703125 337.46668497721356,388.7333475748698 340.8000183105469,390.20001220703125 C344.1333516438802,391.6666768391927 349.2000223795573,394.2000020345052 352.8000183105469,395 C356.40001424153644,395.7999979654948 359.59999593098956,395 362.3999938964844,395 C365.1999918619792,395 366.93333943684894,395 369.6000061035156,395 C372.2666727701823,395 376.26666259765625,395 378.3999938964844,395 C380.5333251953125,395 381.7333272298177,395.1333312988281 382.3999938964844,395 Q383.06666056315106,394.8666687011719 382.3999938964844,394.20001220703125" stroke-linejoin="round" stroke-linecap="round" stroke-width="3" stroke="#000000" fill="none"></path><path d="M160,272.6000061035156 C159.73333485921225,273.000005086263 158.93334197998047,274.06666564941406 158.40000915527344,275 C157.8666763305664,275.93333435058594 157.46666971842447,276.4666798909505 156.8000030517578,278.20001220703125 C156.13333638509116,279.933344523112 154.80000813802084,282.8666636149089 154.40000915527344,285.3999938964844 C154.00001017252603,287.9333241780599 153.20000966389975,289.6666564941406 154.40000915527344,293.3999938964844 C155.60000864664713,297.1333312988281 158.00000762939453,303.40001424153644 161.60000610351562,307.8000183105469 C165.20000457763672,312.2000223795573 170,315.5333557128906 176,319.8000183105469 C182,324.0666809082031 189.73333740234375,328.999994913737 197.60000610351562,333.3999938964844 C205.4666748046875,337.79999287923175 213.20001220703125,340.86667887369794 223.20001220703125,346.20001220703125 C233.20001220703125,351.53334554036456 249.20000712076822,360.46665954589844 257.6000061035156,365.3999938964844 C266.000005086263,370.3333282470703 269.3333384195964,372.6000162760417 273.6000061035156,375.8000183105469 C277.8666737874349,379.00002034505206 280.2666778564453,380.6000061035156 283.20001220703125,384.6000061035156 C286.1333465576172,388.6000061035156 289.86667887369794,395.5333506266276 291.20001220703125,399.8000183105469 C292.53334554036456,404.0666859944661 291.6000111897786,405.00001525878906 291.20001220703125,410.20001220703125 C290.8000132242839,415.40000915527344 289.33335367838544,425 288.8000183105469,431 C288.2666829427083,437 288.26666768391925,441.8000132242839 288,446.20001220703125 C287.73333231608075,450.6000111897786 287.20001220703125,454.1999969482422 287.20001220703125,457.3999938964844 C287.20001220703125,460.59999084472656 286.3999989827474,462.1999918619792 288,465.3999938964844 C289.6000010172526,468.59999593098956 292.5333506266276,473.8000030517578 296.8000183105469,476.6000061035156 C301.0666859944661,479.40000915527344 305.6000061035156,480.86667887369794 313.6000061035156,482.20001220703125 C321.6000061035156,483.53334554036456 335.86668395996094,484.0666758219401 344.8000183105469,484.6000061035156 C353.7333526611328,485.1333363850911 360.40001424153644,485.26666259765625 367.20001220703125,485.3999938964844 C374.00001017252606,485.5333251953125 379.6000061035156,485.3999938964844 385.6000061035156,485.3999938964844 C391.6000061035156,485.3999938964844 399.6000111897786,485.5333251953125 403.20001220703125,485.3999938964844 C406.8000132242839,485.26666259765625 406.40001424153644,484.73333740234375 407.20001220703125,484.6000061035156 C408.00001017252606,484.4666748046875 407.73333231608075,484.6000061035156 408,484.6000061035156 C408.26666768391925,484.6000061035156 408.66668192545575,484.4666748046875 408.8000183105469,484.6000061035156 C408.933354695638,484.73333740234375 408.8000183105469,484.999994913737 408.8000183105469,485.3999938964844 C408.8000183105469,485.79999287923175 408.933354695638,486.46666463216144 408.8000183105469,487 Q408.66668192545575,487.53333536783856 408,488.6000061035156" stroke-linejoin="round" stroke-linecap="round" stroke-width="3" stroke="#000000" fill="none"></path><path d="M231.20001220703125,248.60000610351562 C231.73334248860678,249.13333892822266 232.1333262125651,249.4000040690104 234.39999389648438,251.8000030517578 C236.66666158040366,254.20000203450522 241.60001627604166,259.2666651407878 244.80001831054688,263 C248.0000203450521,266.7333348592122 251.0666758219401,270.6000111897786 253.60000610351562,274.20001220703125 C256.1333363850911,277.8000132242839 258,280.73334248860675 260,284.6000061035156 C262,288.4666697184245 264.40000406901044,294.7333272298177 265.6000061035156,297.3999938964844 C266.8000081380208,300.06666056315106 266.53334554036456,299.40000406901044 267.20001220703125,300.6000061035156 C267.86667887369794,301.8000081380208 268.8000081380208,303.40000406901044 269.6000061035156,304.6000061035156 C270.40000406901044,305.8000081380208 270.7999979654948,307.00002034505206 272,307.8000183105469 C273.2000020345052,308.6000162760417 275.20001729329425,308.7333272298177 276.8000183105469,309.3999938964844 C278.4000193277995,310.06666056315106 279.3333435058594,311.2666829427083 281.6000061035156,311.8000183105469 C283.8666687011719,312.33335367838544 288.26666259765625,312.4666748046875 290.3999938964844,312.6000061035156 C292.5333251953125,312.73333740234375 293.1999918619792,312.6000061035156 294.3999938964844,312.6000061035156 C295.59999593098956,312.6000061035156 296.93333943684894,312.6000061035156 297.6000061035156,312.6000061035156 C298.2666727701823,312.6000061035156 298.26666259765625,312.4666748046875 298.3999938964844,312.6000061035156 C298.5333251953125,312.73333740234375 298.3999938964844,312.999994913737 298.3999938964844,313.3999938964844 C298.3999938964844,313.79999287923175 298.9333241780599,313.5333302815755 298.3999938964844,315 C297.8666636149089,316.4666697184245 296.1333414713542,319.53334554036456 295.20001220703125,322.20001220703125 C294.2666829427083,324.86667887369794 293.46668497721356,328.73333231608075 292.8000183105469,331 C292.1333516438802,333.26666768391925 291.7333475748698,334.46668497721356 291.20001220703125,335.8000183105469 C290.6666768391927,337.1333516438802 289.8666737874349,338.3333333333333 289.6000061035156,339 C289.3333384195964,339.6666666666667 289.6000061035156,339.5333506266276 289.6000061035156,339.8000183105469 C289.6000061035156,340.0666859944661 289.4666748046875,340.0666758219401 289.6000061035156,340.6000061035156 C289.73333740234375,341.1333363850911 290.1333262125651,342.46666463216144 290.3999938964844,343 C290.6666615804036,343.53333536783856 290.933344523112,343.4000193277995 291.20001220703125,343.8000183105469 C291.4666798909505,344.20001729329425 291.73333231608075,344.8666636149089 292,345.3999938964844 C292.26666768391925,345.9333241780599 292.5333506266276,346.46666463216144 292.8000183105469,347 C293.0666859944661,347.53333536783856 293.4666748046875,348.20000712076825 293.6000061035156,348.6000061035156 C293.73333740234375,349.000005086263 293.6000061035156,349.1333262125651 293.6000061035156,349.3999938964844 C293.6000061035156,349.6666615804036 293.20000712076825,349.933344523112 293.6000061035156,350.20001220703125 C294.000005086263,350.4666798909505 295.3333333333333,350.8666687011719 296,351 C296.6666666666667,351.1333312988281 297.06667073567706,350.8666636149089 297.6000061035156,351 C298.1333414713542,351.1333363850911 298.40001424153644,351.5333506266276 299.20001220703125,351.8000183105469 C300.00001017252606,352.0666859944661 301.7333272298177,352.4666748046875 302.3999938964844,352.6000061035156 C303.06666056315106,352.73333740234375 302.933344523112,352.6000061035156 303.20001220703125,352.6000061035156 Q303.4666798909505,352.6000061035156 304,352.6000061035156" stroke-linejoin="round" stroke-linecap="round" stroke-width="3" stroke="#000000" fill="none"></path><path d="M96,91.80000305175781 C94,90.86666997273763 87.5999984741211,88.33333841959636 84,86.20000457763672 C80.4000015258789,84.06667073567708 77.4666748046875,81.40000025431316 74.40000915527344,79 C71.33334350585938,76.59999974568684 67.33334096272786,73.66666920979817 65.60000610351562,71.80000305175781 C63.86667124430338,69.93333689371745 64.4000015258789,69.66666984558105 64,67.80000305175781 C63.599998474121094,65.93333625793457 61.99999745686849,64.33333587646484 63.19999694824219,60.60000228881836 C64.39999643961589,56.866668701171875 68.26666259765625,49.400001525878906 71.19999694824219,45.400001525878906 C74.13333129882812,41.400001525878906 77.33333587646484,38.866669019063316 80.80000305175781,36.60000228881836 C84.26667022705078,34.3333355585734 88.39999898274739,33.00000158945719 92,31.80000114440918 C95.60000101725261,30.600000699361164 99.8666763305664,29.53333314259847 102.40000915527344,29.399999618530273 C104.93334197998047,29.266666094462078 105.46666463216145,29.53333314259847 107.19999694824219,31 C108.93332926432292,32.46666685740153 111.33333587646484,34.60000038146973 112.80000305175781,38.20000076293945 C114.26667022705078,41.80000114440918 115.46666717529297,48.60000228881836 116,52.60000228881836 C116.53333282470703,56.60000228881836 116.39999898274739,59.000000635782875 116,62.20000076293945 C115.60000101725261,65.40000089009602 115.20000457763672,68.06667009989421 113.60000610351562,71.80000305175781 C112.00000762939453,75.53333600362141 108.80001068115234,81.53333155314128 106.40000915527344,84.5999984741211 C104.00000762939453,87.6666653951009 101.33333079020183,88.86667124430339 99.19999694824219,90.20000457763672 C97.06666310628255,91.53333791097005 96.00000508626302,92.06666564941406 93.60000610351562,92.5999984741211 C91.20000712076823,93.13333129882812 86.66666920979817,93.4000015258789 84.80000305175781,93.4000015258789 C82.93333689371745,93.4000015258789 83.33334350585938,93.53333155314128 82.40000915527344,92.5999984741211 C81.4666748046875,91.6666653951009 79.06666564941406,91.40000279744466 79.19999694824219,87.80000305175781 C79.33332824707031,84.20000330607097 81.33332824707031,75.93333371480306 83.19999694824219,71 C85.06666564941406,66.06666628519694 88.00000762939453,61.93333371480306 90.40000915527344,58.20000076293945 C92.80001068115234,54.466667811075844 95.33334096272786,51.266668955485024 97.60000610351562,48.60000228881836 C99.86667124430339,45.933335622151695 102.53333282470703,43.40000089009603 104,42.20000076293945 C105.46666717529297,41.000000635782875 105.8666763305664,41.533334732055664 106.40000915527344,41.400001525878906 C106.93334197998047,41.26666831970215 106.7999979654948,40.466668446858726 107.19999694824219,41.400001525878906 C107.59999593098958,42.333334604899086 108.66666920979817,45.13333320617676 108.80000305175781,47 C108.93333689371745,48.86666679382324 108.66666666666667,51.00000190734863 108,52.60000228881836 Q107.33333333333333,54.200002670288086 104.80000305175781,56.60000228881836" stroke-linejoin="round" stroke-linecap="round" stroke-width="3" stroke="#000000" fill="none"></path></svg>