<svg xmlns="http://www.w3.org/2000/svg" width="1536" height="735" viewBox="0 0 1536 735"><path d="M 354,374 L 360,367 L 377,357 L 402,344 L 443,327 L 491,308 L 555,295 L 587,292 L 632,299 L 655,312 L 677,325 L 708,355 L 734,375 L 765,399 L 844,431 L 903,443 L 992,442 L 1054,427 L 1113,403 L 1169,380 L 1221,353 L 1240,343 L 1247,338 L 1248,338 " stroke="black" fill="none" stroke-width="2"/><path d="M 683,240 L 688,234 L 696,227 L 716,214 L 739,204 L 770,195 L 790,195 L 807,200 L 831,211 L 848,223 L 875,247 L 908,266 L 957,281 L 1039,287 L 1091,279 L 1134,267 L 1163,248 L 1171,243 L 1172,241 L 1174,240 L 1176,239 L 1190,233 L 1239,220 L 1277,207 L 1326,192 L 1340,188 L 1344,186 L 1345,186 L 1343,186 L 1341,187 L 1338,189 L 1336,189 L 1335,189 " stroke="black" fill="none" stroke-width="2"/><path d="M 396,271 L 393,270 L 391,269 L 390,268 L 387,266 L 386,263 L 392,253 L 400,241 L 410,227 L 424,212 L 432,204 L 434,203 L 435,202 L 436,202 L 432,204 L 424,213 L 396,239 L 366,269 L 345,297 L 332,314 L 324,327 L 324,330 L 324,331 L 328,335 L 329,343 L 330,354 L 320,375 L 308,395 L 296,422 L 287,443 L 280,463 L 275,486 L 275,495 L 279,502 L 310,511 L 340,511 L 368,512 L 395,520 L 408,536 L 415,561 L 415,603 L 414,629 L 416,647 L 430,668 L 456,678 L 490,680 L 585,671 L 658,664 L 746,661 L 786,663 L 813,667 L 841,678 L 854,684 L 864,688 L 882,695 L 901,698 L 943,698 L 1021,694 L 1084,682 L 1146,667 L 1221,640 L 1255,625 L 1278,612 " stroke="black" fill="none" stroke-width="2"/><path d="M 695,475 L 693,475 L 692,474 L 691,473 L 688,466 L 690,445 L 699,423 L 717,388 L 761,319 L 786,287 L 803,266 L 820,251 L 824,247 L 828,247 L 832,247 L 836,251 L 844,258 L 863,271 L 880,282 L 900,293 L 942,306 L 970,310 " stroke="black" fill="none" stroke-width="2"/></svg>