<svg xmlns="http://www.w3.org/2000/svg" version="1.1" xmlns:xlink="http://www.w3.org/1999/xlink" xmlns:svgjs="http://svgjs.com/svgjs" width="100%" height="100%" id="drawing-svg"><path d="M342.3999938964844,135 C338.3999938964844,135.66666666666666 324.79999287923175,137.8000005086263 318.3999938964844,139 C311.999994913737,140.1999994913737 308.3999989827474,140.86666361490884 304,142.1999969482422 C299.6000010172526,143.53333028157553 295.46666463216144,145.79999796549478 292,147 C288.53333536783856,148.20000203450522 286.2666778564453,148.20000966389975 283.20001220703125,149.40000915527344 C280.1333465576172,150.60000864664713 275.8666737874349,152.9999974568685 273.6000061035156,154.1999969482422 C271.3333384195964,155.39999643961588 271.6000061035156,155.26667277018228 269.6000061035156,156.60000610351562 C267.6000061035156,157.93333943684897 263.4666748046875,160.73332977294922 261.6000061035156,162.1999969482422 C259.73333740234375,163.66666412353516 259.46665954589844,163.6666742960612 258.3999938964844,165.40000915527344 C257.3333282470703,167.1333440144857 256.1333414713542,169.6666742960612 255.20001220703125,172.60000610351562 C254.26668294270834,175.53333791097006 253.46668497721353,180.1999994913737 252.80001831054688,183 C252.13335164388022,185.8000005086263 251.3333485921224,187.2666753133138 251.20001220703125,189.40000915527344 C251.0666758219401,191.53334299723306 251.86666870117188,194.20000457763672 252,195.8000030517578 C252.13333129882812,197.4000015258789 251.86666361490884,197.93333435058594 252,199 C252.13333638509116,200.06666564941406 252.66668192545572,201.53333028157553 252.80001831054688,202.1999969482422 C252.93335469563803,202.86666361490884 252.66668701171875,202.86666615804037 252.80001831054688,203 C252.933349609375,203.13333384195963 253.33334350585938,203 253.60000610351562,203 C253.86666870117188,203 254.1333262125651,203 254.39999389648438,203 C254.66666158040366,203 254.93334452311197,203 255.20001220703125,203 C255.46667989095053,203 255.20000203450522,201.8000005086263 256,203 C256.7999979654948,204.1999994913737 258.3999989827474,205.79999542236328 260,210.1999969482422 C261.6000010172526,214.5999984741211 264.000005086263,224.33334096272787 265.6000061035156,229.40000915527344 C267.20000712076825,234.466677347819 268.8000081380208,236.20000712076822 269.6000061035156,240.60000610351562 C270.40000406901044,245.00000508626303 271.3333282470703,249.13333638509116 270.3999938964844,255.8000030517578 C269.46665954589844,262.4666697184245 266.26666259765625,274.46667226155597 264,280.6000061035156 C261.73333740234375,286.7333399454753 259.46668497721356,289.2666727701823 256.8000183105469,292.6000061035156 C254.13335164388022,295.93333943684894 251.73333740234375,298.20000712076825 248,300.6000061035156 C244.26666259765625,303.000005086263 238.1333262125651,305.3999989827474 234.39999389648438,307 C230.66666158040366,308.6000010172526 232.93333943684897,309.40000915527344 225.60000610351562,310.20001220703125 C218.26667277018228,311.00001525878906 197.46666208902994,311.5333506266276 190.39999389648438,311.8000183105469 C183.3333257039388,312.0666859944661 187.1999944051107,312.6000213623047 183.1999969482422,311.8000183105469 C179.1999994913737,311.00001525878906 171.0666758219401,308.4666697184245 166.40000915527344,307 C161.73334248860678,305.5333302815755 157.73333231608072,304.1999969482422 155.1999969482422,303 C152.66666158040366,301.8000030517578 152.39999643961588,301.66668192545575 151.1999969482422,299.8000183105469 C149.9999974568685,297.933354695638 148.79999796549478,295.5333557128906 148,291.8000183105469 C147.20000203450522,288.0666809082031 146.53334299723306,281.7999979654948 146.40000915527344,277.3999938964844 C146.2666753133138,272.99998982747394 146.66666412353516,268.8666585286458 147.1999969482422,265.3999938964844 C147.73332977294922,261.93332926432294 148.26667277018228,260.73333740234375 149.60000610351562,256.6000061035156 C150.93333943684897,252.4666748046875 153.73332977294922,245.00000762939453 155.1999969482422,240.60000610351562 C156.66666412353516,236.20000457763672 156.93334197998047,233.53333028157553 158.40000915527344,230.1999969482422 C159.8666763305664,226.86666361490884 161.33333333333334,224.60000610351562 164,220.60000610351562 C166.66666666666666,216.60000610351562 171.4666748046875,209.93333180745444 174.40000915527344,206.1999969482422 C177.33334350585938,202.46666208902994 179.8666737874349,200.3333282470703 181.60000610351562,198.1999969482422 C183.33333841959634,196.06666564941406 183.73333740234375,194.8666737874349 184.8000030517578,193.40000915527344 C185.86666870117188,191.93334452311197 187.46666717529297,190.20000966389975 188,189.40000915527344 C188.53333282470703,188.60000864664713 188,189.13334147135416 188,188.60000610351562 C188,188.0666707356771 188.93333180745444,189.13333129882812 188,186.1999969482422 C187.06666819254556,183.26666259765625 184.6666742960612,176.06666564941406 182.40000915527344,171 C180.1333440144857,165.93333435058594 177.60001118977866,161.4000015258789 174.40000915527344,155.8000030517578 C171.20000712076822,150.20000457763672 166.93333180745444,142.3333422342936 163.1999969482422,137.40000915527344 C159.46666208902994,132.46667607625326 157.06666564941406,130.86667251586914 152,126.20000457763672 C146.93333435058594,121.5333366394043 137.86666870117188,113.13333511352539 132.8000030517578,109.4000015258789 C127.73333740234375,105.66666793823242 124.93333943684895,105.66666920979817 121.60000610351562,103.80000305175781 C118.2666727701823,101.93333689371745 115.73333740234375,99.9333381652832 112.80000305175781,98.20000457763672 C109.86666870117188,96.46667098999023 106,94.33333587646484 104,93.4000015258789 C102,92.46666717529297 101.60000356038411,92.86666488647461 100.80000305175781,92.5999984741211 C100.00000254313152,92.33333206176758 99.59999593098958,91.93333562215169 99.19999694824219,91.80000305175781 C98.7999979654948,91.66667048136394 98.40000915527344,91.13333638509114 98.40000915527344,91.80000305175781 C98.40000915527344,92.46666971842448 98.53333028157552,94.06666946411133 99.19999694824219,95.80000305175781 C99.86666361490886,97.5333366394043 101.60000864664714,97.9333381652832 102.40000915527344,102.20000457763672 C103.20000966389973,106.46667098999023 103.60000101725261,115.66666793823242 104,121.4000015258789 C104.39999898274739,127.13333511352539 104.4000015258789,130.73333867390951 104.80000305175781,136.60000610351562 C105.20000457763672,142.46667353312174 105.8666763305664,148.33334096272787 106.40000915527344,156.60000610351562 C106.93334197998047,164.86667124430338 106.93333435058594,178.1999969482422 108,186.1999969482422 C109.06666564941406,194.1999969482422 111.60000356038411,199.00000508626303 112.80000305175781,204.60000610351562 C114.00000254313152,210.20000712076822 113.86666361490886,214.46666971842447 115.19999694824219,219.8000030517578 C116.53333028157552,225.13333638509116 118.53333536783855,230.466672261556 120.80000305175781,236.60000610351562 C123.06667073567708,242.73333994547525 126.40000406901042,251.80000813802084 128.8000030517578,256.6000061035156 C131.20000203450522,261.40000406901044 133.06666310628256,262.59999593098956 135.1999969482422,265.3999938964844 C137.3333307902018,268.1999918619792 139.33333841959634,270.46665954589844 141.60000610351562,273.3999938964844 C143.8666737874349,276.3333282470703 146.8000030517578,280.59999593098956 148.8000030517578,283 C150.8000030517578,285.40000406901044 151.8666737874349,285.933349609375 153.60000610351562,287.8000183105469 C155.33333841959634,289.66668701171875 156.93333180745444,292.3333485921224 159.1999969482422,294.20001220703125 C161.46666208902994,296.0666758219401 165.1999969482422,297.53333536783856 167.1999969482422,299 C169.1999969482422,300.46666463216144 169.5999959309896,301.6666666666667 171.1999969482422,303 C172.79999796549478,304.3333333333333 175.33333587646484,305.93333435058594 176.8000030517578,307 C178.26667022705078,308.06666564941406 179.06666564941406,308.8666585286458 180,309.3999938964844 C180.93333435058594,309.93332926432294 181.4666748046875,309.6666768391927 182.40000915527344,310.20001220703125 Q183.33334350585938,310.7333475748698 185.60000610351562,312.6000061035156" stroke-linejoin="round" stroke-linecap="round" stroke-width="3" stroke="#000000" fill="none"></path><path d="M102.40000915527344,155 C102.93334197998047,154.86666615804037 103.60000610351562,154.5999959309896 105.60000610351562,154.1999969482422 C107.60000610351562,153.79999796549478 109.60000864664714,153.00000508626303 114.40000915527344,152.60000610351562 C119.20000966389973,152.20000712076822 127.06667582194011,152.0666707356771 134.40000915527344,151.8000030517578 C141.73334248860678,151.53333536783853 149.60000864664713,151.13333384195963 158.40000915527344,151 C167.20000966389975,150.86666615804037 176.66667938232422,151 187.20001220703125,151 C197.73334503173828,151 212.53334045410156,150.86666615804037 221.60000610351562,151 C230.6666717529297,151.13333384195963 235.4666748046875,151.13333638509116 241.60000610351562,151.8000030517578 C247.73333740234375,152.46666971842447 252.9333292643229,153.66666666666666 258.3999938964844,155 C263.8666585286458,156.33333333333334 270.6666564941406,158.20000203450522 274.3999938964844,159.8000030517578 C278.1333312988281,161.4000040690104 277.7333475748698,161.13333892822266 280.8000183105469,164.60000610351562 C283.86668904622394,168.0666732788086 289.86668904622394,176.20000712076822 292.8000183105469,180.60000610351562 C295.7333475748698,185.00000508626303 295.999994913737,186.86666615804037 298.3999938964844,191 C300.79999287923175,195.13333384195963 304.8000081380208,200.20000966389975 307.20001220703125,205.40000915527344 C309.6000162760417,210.60000864664713 310.8000183105469,215.26666514078775 312.8000183105469,222.1999969482422 C314.8000183105469,229.13332875569662 317.20001220703125,240.46666717529297 319.20001220703125,247 C321.20001220703125,253.53333282470703 323.20001729329425,255.9333241780599 324.8000183105469,261.3999938964844 C326.4000193277995,266.8666636149089 326.4000193277995,273.8000183105469 328.8000183105469,279.8000183105469 C331.20001729329425,285.8000183105469 334.933349609375,291.7999979654948 339.20001220703125,297.3999938964844 C343.4666748046875,302.99998982747394 348.3999938964844,306.7333272298177 354.3999938964844,313.3999938964844 C360.3999938964844,320.06666056315106 369.86667887369794,331.3999938964844 375.20001220703125,337.3999938964844 C380.53334554036456,343.3999938964844 382.5333302815755,344.8666585286458 386.3999938964844,349.3999938964844 C390.26665751139325,353.93332926432294 395.06666056315106,360.4666697184245 398.3999938964844,364.6000061035156 C401.7333272298177,368.73334248860675 403.7333272298177,371.00001017252606 406.3999938964844,374.20001220703125 C409.06666056315106,377.40001424153644 412.9333241780599,381.66668701171875 414.3999938964844,383.8000183105469 C415.8666636149089,385.933349609375 414.933344523112,385.93333435058594 415.20001220703125,387 C415.4666798909505,388.06666564941406 415.8666687011719,389.1333465576172 416,390.20001220703125 C416.1333312988281,391.2666778564453 416,392.46665954589844 416,393.3999938964844 C416,394.3333282470703 416,395.2666829427083 416,395.8000183105469 Q416,396.33335367838544 416,396.6000061035156" stroke-linejoin="round" stroke-linecap="round" stroke-width="3" stroke="#000000" fill="none"></path><path d="M33.599998474121094,39 C33.86666615804037,38.733333587646484 34.400004069010414,37.93333498636881 35.20000457763672,37.400001525878906 C36.00000508626302,36.866668065389 35.73333485921224,36.59999910990397 38.400001525878906,35.79999923706055 C41.06666819254557,34.999999364217125 45.60000483194987,33.933335304260254 51.20000457763672,32.60000228881836 C56.80000432332357,31.266669273376465 66.66666793823242,28.600001335144043 72,27.80000114440918 C77.33333206176758,27.000000953674316 79.73332977294922,27.80000114440918 83.19999694824219,27.80000114440918 C86.66666412353516,27.80000114440918 89.33333587646484,27.000000953674316 92.80000305175781,27.80000114440918 C96.26667022705078,28.600001335144043 101.06666564941406,31.266669273376465 104,32.60000228881836 C106.93333435058594,33.933335304260254 108.2666753133138,34.59999974568685 110.40000915527344,35.79999923706055 C112.53334299723308,36.99999872843424 114.40000406901042,37.666665395100914 116.80000305175781,39.79999923706055 C119.2000020345052,41.93333307902018 122.26667022705078,45.53333536783854 124.80000305175781,48.60000228881836 C127.33333587646484,51.66666920979818 129.46666717529297,54.73333422342936 132,58.20000076293945 C134.53333282470703,61.66666730244955 135.86666615804037,65.53333473205566 140,69.4000015258789 C144.13333384195963,73.26666831970215 152.8000030517578,79.00000127156575 156.8000030517578,81.4000015258789 C160.8000030517578,83.80000178019206 157.86666615804037,82.06666946411133 164,83.80000305175781 C170.13333384195963,85.5333366394043 183.33333841959634,90.06666946411133 193.60000610351562,91.80000305175781 C203.8666737874349,93.5333366394043 216.93333943684897,93.80000432332356 225.60000610351562,94.20000457763672 C234.26667277018228,94.60000483194987 238.93333943684897,94.46667226155598 245.60000610351562,94.20000457763672 C252.26667277018228,93.93333689371745 258.6666717529297,93.39999898274739 265.6000061035156,92.5999984741211 C272.53334045410156,91.7999979654948 281.86667887369794,90.20000076293945 287.20001220703125,89.4000015258789 C292.53334554036456,88.60000228881836 293.8666737874349,88.33333587646484 297.6000061035156,87.80000305175781 C301.3333384195964,87.26667022705078 304.93333943684894,86.86667124430339 309.6000061035156,86.20000457763672 C314.2666727701823,85.53333791097005 321.73333740234375,84.20000330607097 325.6000061035156,83.80000305175781 C329.4666748046875,83.40000279744466 330.4000193277995,83.80000305175781 332.8000183105469,83.80000305175781 C335.20001729329425,83.80000305175781 336.93333435058594,83.66667048136394 340,83.80000305175781 C343.06666564941406,83.93333562215169 347.6000111897786,84.19999821980794 351.20001220703125,84.5999984741211 C354.8000132242839,84.99999872843425 357.73334248860675,85.26667022705078 361.6000061035156,86.20000457763672 C365.4666697184245,87.13333892822266 370.1333262125651,88.7333386739095 374.3999938964844,90.20000457763672 C378.6666615804036,91.66667048136394 384.6666768391927,94.06666692097981 387.20001220703125,95 Q389.7333475748698,95.93333307902019 389.6000061035156,95.80000305175781" stroke-linejoin="round" stroke-linecap="round" stroke-width="3" stroke="#000000" fill="none"></path><path d="M112.80000305175781,3.799999952316284 C113.2000020345052,3.9333332777023315 113.59999593098958,4.3333332141240435 115.19999694824219,4.599999904632568 C116.7999979654948,4.866666595141093 120.13334147135417,5.1333333651224775 122.40000915527344,5.400000095367432 C124.6666768391927,5.666666825612386 121.46666971842448,4.46666693687439 128.8000030517578,6.200000286102295 C136.13333638509116,7.9333336353302 155.60000864664713,13.266666968663534 166.40000915527344,15.800000190734863 C177.20000966389975,18.333333412806194 184.93334197998047,19.133333047231037 193.60000610351562,21.399999618530273 C202.26667022705078,23.66666618982951 207.99999491373697,25.799999554951984 218.39999389648438,29.399999618530273 C228.79999287923178,32.99999968210856 246.3999989827474,39.399999936421715 256,43 C265.6000010172526,46.600000063578285 269.73333231608075,48.20000012715658 276,51 C282.26666768391925,53.79999987284342 286.40000406901044,56.199999491373696 293.6000061035156,59.79999923706055 C300.8000081380208,63.3999989827474 312.53334554036456,69.39999834696452 319.20001220703125,72.5999984741211 C325.86667887369794,75.79999860127766 328.40000915527344,76.86666615804036 333.6000061035156,79 C338.8000030517578,81.13333384195964 343.59999593098956,83.4000015258789 350.3999938964844,85.4000015258789 C357.1999918619792,87.4000015258789 367.8666585286458,89.13333384195964 374.3999938964844,91 C380.93332926432294,92.86666615804036 384.8000030517578,95.26666514078777 389.6000061035156,96.5999984741211 C394.40000915527344,97.93333180745442 396.53334554036456,97.26666641235352 403.20001220703125,99 C409.86667887369794,100.73333358764648 421.73333740234375,105.13333257039388 429.6000061035156,107 C437.4666748046875,108.86666742960612 443.2000274658203,109.00000381469727 450.4000244140625,110.20000457763672 C457.6000213623047,111.40000534057617 464.13332112630206,113.53333791097005 472.79998779296875,114.20000457763672 C481.46665445963544,114.86667124430339 494.5333557128906,114.06667200724284 502.4000244140625,114.20000457763672 C510.2666931152344,114.3333371480306 515.7333374023438,114.86666742960612 520,115 C524.2666625976562,115.13333257039388 525.8666687011719,115 528,115 C530.1333312988281,115 532.1333211263021,115 532.7999877929688,115 C533.4666544596354,115 533.4666646321615,114.33333333333333 532,115 C530.5333353678385,115.66666666666667 530.2666625976562,116.33333333333333 524,119 C517.7333374023438,121.66666666666667 508.2666880289714,124.86666615804036 494.4000244140625,131 C480.5333607991536,137.13333384195963 452.5333557128906,149.6666692097982 440.8000183105469,155.8000030517578 C429.0666809082031,161.93333689371744 428.1333363850911,165.0000025431315 424,167.8000030517578 C419.8666636149089,170.60000356038412 417.46666463216144,171.53334045410156 416,172.60000610351562 C414.53333536783856,173.6666717529297 413.3333435058594,173.53333028157553 415.20001220703125,174.1999969482422 C417.0666809082031,174.86666361490884 420.2666829427083,175.8000055948893 427.20001220703125,176.60000610351562 C434.1333414713542,177.40000661214194 449.8666585286458,177.8000005086263 456.79998779296875,179 C463.7333170572917,180.1999994913737 465.7333170572917,182.33333587646484 468.79998779296875,183.8000030517578 C471.8666585286458,185.26667022705078 473.4666748046875,184.73333740234375 475.20001220703125,187.8000030517578 C476.933349609375,190.86666870117188 478.933349609375,197.39999643961588 479.20001220703125,202.1999969482422 C479.4666748046875,206.9999974568685 477.7333170572917,212.33333841959634 476.79998779296875,216.60000610351562 C475.8666585286458,220.8666737874349 474.6666971842448,223.53333791097006 473.60003662109375,227.8000030517578 C472.5333760579427,232.06666819254556 470.6666971842448,238.1999969482422 470.4000244140625,242.1999969482422 C470.1333516438802,246.1999969482422 470.53333536783856,248.1999994913737 472,251.8000030517578 C473.46666463216144,255.40000661214194 474.1333414713542,257.80001576741535 479.20001220703125,263.8000183105469 C484.2666829427083,269.8000208536784 496.4000244140625,281.1333516438802 502.4000244140625,287.8000183105469 C508.4000244140625,294.46668497721356 512.1333516438802,299.66668701171875 515.2000122070312,303.8000183105469 C518.2666727701823,307.933349609375 518.3999837239584,303.6666768391927 520.7999877929688,312.6000061035156 C523.1999918619791,321.53333536783856 527.7333679199219,340.7333272298177 529.6000366210938,357.3999938964844 C531.4667053222656,374.06666056315106 532.1333414713541,397.000005086263 532,412.6000061035156 C531.8666585286459,428.20000712076825 530.5333150227865,437.7999979654948 528.7999877929688,451 C527.066660563151,464.2000020345052 523.6000366210938,482.0666859944661 521.6000366210938,491.8000183105469 C519.6000366210938,501.5333506266276 518.1333211263021,504.999994913737 516.7999877929688,509.3999938964844 C515.4666544596354,513.7999928792318 514.2667032877604,516.3333384195963 513.6000366210938,518.2000122070312 C512.9333699544271,520.0666859944662 512.9333292643229,520.0667012532552 512.7999877929688,520.6000366210938 C512.6666463216146,521.1333719889323 511.46665445963544,520.0666910807291 512.7999877929688,521.4000244140625 C514.1333211263021,522.7333577473959 518.6666463216146,527.1333719889323 520.7999877929688,528.6000366210938 C522.9333292643229,530.0667012532552 523.3333638509115,529.0000203450521 525.6000366210938,530.2000122070312 C527.866709391276,531.4000040690104 532.1333618164062,534.3333231608073 534.4000244140625,535.7999877929688 C536.6666870117188,537.2666524251302 537.7333475748698,536.8666585286459 539.2000122070312,539 C540.6666768391927,541.1333414713541 542.933349609375,545.5333658854166 543.2000122070312,548.6000366210938 C543.4666748046875,551.6667073567709 542.5333251953125,554.7333577473959 540.7999877929688,557.4000244140625 C539.066650390625,560.0666910807291 537.5999857584635,561.9333699544271 532.7999877929688,564.6000366210938 C527.999989827474,567.2667032877604 519.4666646321615,571.6666971842448 512,573.4000244140625 C504.53333536783856,575.1333516438802 497.06666056315106,574.6000061035156 488,575 C478.93333943684894,575.3999938964844 472.13336690266925,578.4666544596354 457.60003662109375,575.7999877929688 C443.06670633951825,573.1333211263021 418.0000254313151,566.4666646321615 400.8000183105469,559 C383.6000111897786,551.5333353678385 367.7333272298177,541.3999989827474 354.3999938964844,531 C341.06666056315106,520.6000010172526 332.5333506266276,512.8666737874349 320.8000183105469,496.6000061035156 C309.0666859944661,480.3333384195964 292.26666768391925,450.7333272298177 284,433.3999938964844 C275.73333231608075,416.06666056315106 274.2666778564453,405.8000030517578 271.20001220703125,392.6000061035156 C268.1333465576172,379.40000915527344 266.6666717529297,364.6000111897786 265.6000061035156,354.20001220703125 C264.53334045410156,343.8000132242839 265.20001729329425,337.66668192545575 264.8000183105469,330.20001220703125 C264.4000193277995,322.73334248860675 263.7333475748698,313.5333302815755 263.20001220703125,309.3999938964844 C262.6666768391927,305.26665751139325 263.4666748046875,306.8666585286458 261.6000061035156,305.3999938964844 C259.73333740234375,303.93332926432294 257.2000020345052,301.1333363850911 252,300.6000061035156 C246.79999796549478,300.0666758219401 237.06666056315103,300.86667887369794 230.39999389648438,302.20001220703125 C223.73332722981772,303.53334554036456 217.73333231608072,306.8666737874349 212,308.6000061035156 C206.26666768391928,310.3333384195964 200.8000005086263,311.40000406901044 196,312.6000061035156 C191.1999994913737,313.8000081380208 185.86666361490884,315.00002034505206 183.1999969482422,315.8000183105469 C180.53333028157553,316.6000162760417 180.66666666666666,317.1333312988281 180,317.3999938964844 C179.33333333333334,317.6666564941406 179.46666208902994,317.3999938964844 179.1999969482422,317.3999938964844 C178.93333180745444,317.3999938964844 179.60000864664713,317.79999287923175 178.40000915527344,317.3999938964844 C177.20000966389975,316.999994913737 175.20000203450522,316.06666564941406 172,315 C168.79999796549478,313.93333435058594 166.53333028157553,311.93333435058594 159.1999969482422,311 C151.86666361490884,310.06666564941406 137.1999994913737,308.999994913737 128,309.3999938964844 C118.8000005086263,309.79999287923175 113.73333231608073,310.8666585286458 104,313.3999938964844 C94.26666768391927,315.93332926432294 78.00000635782878,321.1333363850911 69.60000610351562,324.6000061035156 C61.200005849202476,328.0666758219401 57.99999872843424,331.6666768391927 53.599998474121094,334.20001220703125 C49.199998219807945,336.7333475748698 45.466670989990234,338.33335367838544 43.20000457763672,339.8000183105469 C40.9333381652832,341.2666829427083 40.666666666666664,342.4666697184245 40,343 C39.333333333333336,343.5333302815755 39.3333371480306,344.1999969482422 39.20000457763672,343 C39.066672007242836,341.8000030517578 38.80000559488932,342.0666859944661 39.20000457763672,335.8000183105469 C39.60000356038412,329.5333506266276 38.53333282470703,324.06666310628253 41.599998474121094,305.3999938964844 C44.666664123535156,286.7333246866862 53.599997202555336,246.46666717529297 57.599998474121094,223.8000030517578 C61.59999974568685,201.13333892822266 63.200005849202476,187.13334274291992 65.60000610351562,169.40000915527344 C68.00000635782878,151.66667556762695 70.8000005086263,127.93333562215169 72,117.4000015258789 C73.1999994913737,106.86666742960612 72.53333536783855,108.86667124430339 72.80000305175781,106.20000457763672 C73.06667073567708,103.53333791097005 73.46667226155598,102.33333587646484 73.60000610351562,101.4000015258789 C73.73333994547527,100.46666717529297 73.60000610351562,100.5999984741211 73.60000610351562,100.5999984741211 C73.60000610351562,100.5999984741211 74.13333892822266,100.3333346048991 73.60000610351562,101.4000015258789 C73.0666732788086,102.46666844685872 71.8666763305664,102.73333358764648 70.40000915527344,107 C68.93334197998047,111.26666641235352 67.20000457763672,117.13333384195964 64.80000305175781,127 C62.400001525878906,136.86666615804037 57.86666742960612,154.46666208902994 56,166.1999969482422 C54.13333257039388,177.93333180745444 53.86666488647461,187.80000813802084 53.599998474121094,197.40000915527344 C53.33333206176758,207.00001017252603 52.13333511352539,212.33333587646484 54.400001525878906,223.8000030517578 C56.66666793823242,235.26667022705078 62.13333002726237,254.33334604899088 67.19999694824219,266.20001220703125 C72.266663869222,278.0666783650716 78.13333638509114,286.06666564941406 84.80000305175781,295 C91.46666971842448,303.93333435058594 97.06666310628255,310.20001729329425 107.19999694824219,319.8000183105469 C117.33333079020183,329.4000193277995 136.26667277018228,344.8666737874349 145.60000610351562,352.6000061035156 C154.93333943684897,360.3333384195964 157.5999984741211,362.0666809082031 163.1999969482422,366.20001220703125 C168.79999542236328,370.3333435058594 174.79999542236328,374.8666636149089 179.1999969482422,377.3999938964844 C183.5999984741211,379.9333241780599 187.33333587646484,380.59999084472656 189.60000610351562,381.3999938964844 C191.8666763305664,382.1999969482422 191.86668395996094,382.0666758219401 192.80001831054688,382.20001220703125 C193.7333526611328,382.3333485921224 194.5333455403646,382.4666798909505 195.20001220703125,382.20001220703125 C195.8666788736979,381.933344523112 196.40001932779947,381.8000081380208 196.80001831054688,380.6000061035156 C197.20001729329428,379.40000406901044 197.33334350585938,377.26666768391925 197.60000610351562,375 C197.86666870117188,372.73333231608075 199.19999186197916,372.8666636149089 198.39999389648438,367 C197.5999959309896,361.1333363850911 194.933349609375,349.8000183105469 192.80001831054688,339.8000183105469 C190.66668701171875,329.8000183105469 188.80000813802084,320.2000020345052 185.60000610351562,307 C182.4000040690104,293.7999979654948 178.40000661214194,278.3333384195964 173.60000610351562,260.6000061035156 C168.8000055948893,242.8666737874349 161.46666971842447,214.73333994547525 156.8000030517578,200.60000610351562 C152.13333638509116,186.466672261556 149.0666732788086,182.60000356038412 145.60000610351562,175.8000030517578 C142.13333892822266,169.0000025431315 139.46666717529297,163.93333689371744 136,159.8000030517578 C132.53333282470703,155.6666692097982 127.73333485921223,152.6000010172526 124.80000305175781,151 C121.86667124430339,149.3999989827474 120.6666768391927,147.9333292643229 118.40000915527344,150.1999969482422 C116.13334147135417,152.46666463216147 112.13333129882812,160.20000457763672 111.19999694824219,164.60000610351562 C110.26666259765625,169.00000762939453 109.06666819254558,167.8000055948893 112.80000305175781,176.60000610351562 C116.53333791097005,185.40000661214194 112.80000559488933,194.0666758219401 133.60000610351562,217.40000915527344 C154.40000661214194,240.73334248860678 210.93333943684897,294.60000864664715 237.60000610351562,316.6000061035156 C264.2666727701823,338.6000035603841 281.06667073567706,342.06666056315106 293.6000061035156,349.3999938964844 C306.1333414713542,356.7333272298177 300.5333506266276,352.3333384195964 312.8000183105469,360.6000061035156 C325.0666859944661,368.8666737874349 354.933349609375,386.73333231608075 367.20001220703125,399 C379.4666748046875,411.26666768391925 382.79999287923175,424.4666798909505 386.3999938964844,434.20001220703125 C389.999994913737,443.933344523112 388.2666829427083,450.1999969482422 388.8000183105469,457.3999938964844 C389.33335367838544,464.59999084472656 389.4666748046875,471.79999287923175 389.6000061035156,477.3999938964844 C389.73333740234375,482.999994913737 389.6000061035156,488.46666463216144 389.6000061035156,491 C389.6000061035156,493.53333536783856 388.000005086263,492.6000061035156 389.6000061035156,492.6000061035156 C391.20000712076825,492.6000061035156 394.933344523112,493.6666666666667 399.20001220703125,491 C403.4666798909505,488.3333333333333 409.6000111897786,481.6666717529297 415.20001220703125,476.6000061035156 C420.8000132242839,471.53334045410156 424.5333557128906,467.6666717529297 432.8000183105469,460.6000061035156 C441.0666809082031,453.53334045410156 456.79999287923175,440.3333435058594 464.79998779296875,434.20001220703125 C472.79998270670575,428.0666809082031 477.1999816894531,426.33335367838544 480.79998779296875,423.8000183105469 C484.3999938964844,421.2666829427083 485.0666910807292,419.93333435058594 486.4000244140625,419 C487.7333577473958,418.06666564941406 489.59998575846356,417.933344523112 488.79998779296875,418.20001220703125 C487.99998982747394,418.4666798909505 486.13336181640625,417.2666727701823 481.60003662109375,420.6000061035156 C477.06671142578125,423.93333943684894 470.6667073567708,430.4666798909505 461.60003662109375,438.20001220703125 C452.5333658854167,445.933344523112 444.4000193277995,452.06667073567706 427.20001220703125,467 C410.000005086263,481.93332926432294 376.26666259765625,511.79998779296875 358.3999938964844,527.7999877929688 C340.5333251953125,543.7999877929688 328.93332926432294,555.2666625976562 320,563 Q311.06667073567706,570.7333374023438 304.8000183105469,574.2000122070312" stroke-linejoin="round" stroke-linecap="round" stroke-width="3" stroke="#000000" fill="none"></path><path d="M14.400001525878906,11.800000190734863 C14.13333511352539,11.800000190734863 13.466669718424479,11.800000190734863 12.800003051757812,11.800000190734863 C12.133336385091146,11.800000190734863 11.333334604899088,11.800000190734863 10.400001525878906,11.800000190734863 C9.466668446858725,11.800000190734863 7.866671244303386,11.800000190734863 7.200004577636719,11.800000190734863 C6.533337910970052,11.800000190734863 6.666669209798177,11.800000190734863 6.400001525878906,11.800000190734863 C6.133333841959636,11.800000190734863 5.7333323160807295,11.666666825612387 5.599998474121094,11.800000190734863 C5.466664632161458,11.93333355585734 5.333330790201823,12.333333651224772 5.599998474121094,12.600000381469727 C5.866666158040364,12.866667111714682 6.933336893717448,13.133334000905355 7.200004577636719,13.40000057220459 C7.466672261555989,13.666667143503824 6.933338165283203,13.933333237965902 7.200004577636719,14.199999809265137 C7.466670989990234,14.466666380564371 8.400004069010416,14.866666634877523 8.800003051757812,15 C9.200002034505209,15.133333365122477 9.199998219807943,15.266666571299234 9.599998474121094,15 C9.999998728434244,14.733333428700766 10.800004323323568,14.066667238871256 11.200004577636719,13.40000057220459 C11.60000483194987,12.733333905537924 11.86666742960612,11.933333396911621 12,11 C12.13333257039388,10.066666603088379 12.13333257039388,8.600000143051147 12,7.800000190734863 C11.86666742960612,7.000000238418579 11.866671244303385,6.866666992505391 11.200004577636719,6.200000286102295 C10.533337910970053,5.533333579699199 8.933334350585938,4.333333333333333 8,3.799999952316284 C7.0666656494140625,3.266666571299235 6.799997965494792,3.1333333253860474 5.599998474121094,3 Q4.3999989827473955,2.8666666746139526 0.8000030517578125,3" stroke-linejoin="round" stroke-linecap="round" stroke-width="3" stroke="#000000" fill="none"></path><path d="M38.400001525878906,43 C37.6000010172526,42.86666679382324 35.06666564941406,42.33333396911621 33.599998474121094,42.20000076293945 C32.133331298828125,42.066667556762695 30.39999771118164,42.20000076293945 29.599998474121094,42.20000076293945 C28.799999237060547,42.20000076293945 29.200002034505207,42.20000076293945 28.800003051757812,42.20000076293945 C28.400004069010418,42.20000076293945 27.06667200724284,42.73333422342936 27.20000457763672,42.20000076293945 C27.333337148030598,41.66666730244955 27.73333231608073,41 29.599998474121094,39 C31.466664632161457,37 35.73333485921224,33.133334159851074 38.400001525878906,30.200000762939453 C41.06666819254557,27.266667366027832 43.199998219807945,23.799999713897705 45.599998474121094,21.399999618530273 C47.99999872843424,18.999999523162842 51.333335876464844,17.00000015894572 52.80000305175781,15.800000190734863 C54.26667022705078,14.600000222524008 54.13333511352539,14.59999974568685 54.400001525878906,14.199999809265137 C54.66666793823242,13.799999872843424 55.06666819254557,13.800000508626303 54.400001525878906,13.40000057220459 C53.73333485921224,13.000000635782877 51.73333485921224,12.066666920979818 50.400001525878906,11.800000190734863 C49.06666819254557,11.533333460489908 49.333334604899086,11.800000190734863 46.400001525878906,11.800000190734863 C43.466668446858726,11.800000190734863 36.26667022705078,11.800000190734863 32.80000305175781,11.800000190734863 C29.333335876464844,11.800000190734863 27.599998474121094,11.666666825612387 25.599998474121094,11.800000190734863 C23.599998474121094,11.93333355585734 22.133336385091145,12.333333651224772 20.800003051757812,12.600000381469727 C19.46666971842448,12.866667111714682 18.533331553141277,13.266667207082113 17.599998474121094,13.40000057220459 C16.66666539510091,13.533333937327066 15.73333740234375,13.266667366027832 15.200004577636719,13.40000057220459 C14.666671752929688,13.533333778381348 14.533335367838541,13.933333237965902 14.400001525878906,14.199999809265137 C14.266667683919271,14.466666380564371 14.266667683919271,14.733333269755045 14.400001525878906,15 C14.533335367838541,15.266666730244955 14.800004323323568,15.533333460489908 15.200004577636719,15.800000190734863 C15.60000483194987,16.066666920979817 16.26667022705078,16.466667016347248 16.800003051757812,16.600000381469727 C17.333335876464844,16.733333746592205 17.866668701171875,16.600000381469727 18.400001525878906,16.600000381469727 C18.933334350585938,16.600000381469727 19.599999745686848,16.600000381469727 20,16.600000381469727 C20.400000254313152,16.600000381469727 20.666669209798176,16.733333746592205 20.800003051757812,16.600000381469727 C20.93333689371745,16.466667016347248 20.93333689371745,15.93333355585734 20.800003051757812,15.800000190734863 C20.666669209798176,15.666666825612387 20.666666666666668,15.800000190734863 20,15.800000190734863 C19.333333333333332,15.800000190734863 18.93333562215169,15.000000158945719 16.800003051757812,15.800000190734863 Q14.666670481363932,16.600000222524006 7.200004577636719,20.600000381469727" stroke-linejoin="round" stroke-linecap="round" stroke-width="3" stroke="#000000" fill="none"></path><path d="M20.800003051757812,41.400001525878906 C20.93333562215169,40.20000139872233 21.466665903727215,37.133334159851074 21.599998474121094,34.20000076293945 C21.733331044514973,31.266667366027832 21.333330790201824,28.20000123977661 21.599998474121094,23.80000114440918 C21.866666158040363,19.400001049041748 22.93333689371745,11.40000037352244 23.20000457763672,7.800000190734863 Q23.46667226155599,4.200000007947287 23.20000457763672,2.200000047683716" stroke-linejoin="round" stroke-linecap="round" stroke-width="3" stroke="#000000" fill="none"></path><path d="M32.80000305175781,26.200000762939453 C32.5333366394043,26.200000762939453 31.733338673909504,26.200000762939453 31.20000457763672,26.200000762939453 C30.666670481363933,26.200000762939453 30.53333282470703,26.200000762939453 29.599998474121094,26.200000762939453 C28.666664123535156,26.200000762939453 27.06666437784831,25.666667620340984 25.599998474121094,26.200000762939453 C24.13333257039388,26.733333905537922 22.133336385091145,28.599999745686848 20.800003051757812,29.399999618530273 C19.46666971842448,30.1999994913737 18.26666514078776,30.199999809265137 17.599998474121094,31 C16.933331807454426,31.800000190734863 16.93333562215169,33.000000635782875 16.800003051757812,34.20000076293945 C16.666670481363933,35.40000089009603 15.86666997273763,36.86666742960612 16.800003051757812,38.20000076293945 C17.733336130777996,39.53333409627279 20.400001525878906,41.13333384195963 22.400001525878906,42.20000076293945 C24.400001525878906,43.26666768391927 26.666669209798176,43.933335622151695 28.800003051757812,44.60000228881836 C30.93333689371745,45.266668955485024 33.466670989990234,46.066667556762695 35.20000457763672,46.20000076293945 C36.9333381652832,46.33333396911621 37.73333867390951,45.93333498636881 39.20000457763672,45.400001525878906 C40.66667048136393,44.866668065389 42.40000025431315,44.46666653951009 44,43 C45.59999974568685,41.53333346048991 47.86666997273763,38.73333549499512 48.80000305175781,36.60000228881836 C49.73333613077799,34.4666690826416 49.73333231608073,32.06666787465414 49.599998474121094,30.200000762939453 C49.46666463216146,28.333333651224773 49.333333333333336,27.266666412353516 48,25.399999618530273 C46.666666666666664,23.53333282470703 43.99999872843424,20.86666663487752 41.599998474121094,19 C39.199998219807945,17.13333336512248 36.533331553141274,14.999999841054281 33.599998474121094,14.199999809265137 C30.66666539510091,13.399999777475992 27.466665903727215,13.399999777475992 24,14.199999809265137 C20.533334096272785,14.999999841054281 15.60000228881836,17.53333330154419 12.800003051757812,19 C10.000003814697266,20.46666669845581 8.666671752929688,21.53333314259847 7.200004577636719,23 C5.73333740234375,24.46666685740153 4.800000508626302,25.533334096272785 4,27.80000114440918 C3.1999994913736978,30.066668192545574 2.4000015258789062,34.06666914621989 2.4000015258789062,36.60000228881836 C2.4000015258789062,39.13333543141683 3.066666920979818,41.26666704813639 4,43 C4.933333079020183,44.73333295186361 5.733333587646484,45.39999961853027 8,47 C10.266666412353516,48.60000038146973 15.199998219807943,51.53333536783854 17.599998474121094,52.60000228881836 C19.999998728434246,53.66666920979818 20.933334350585938,53.26666831970215 22.400001525878906,53.400001525878906 C23.866668701171875,53.533334732055664 25.466668446858723,53.6666685740153 26.400001525878906,53.400001525878906 C27.33333460489909,53.133334477742515 27.599999745686848,52.59999910990397 28,51.79999923706055 C28.400000254313152,50.999999364217125 28.93333562215169,49.933335622151695 28.800003051757812,48.60000228881836 C28.666670481363933,47.266668955485024 28.800004323323567,45.66666603088379 27.20000457763672,43.79999923706055 C25.60000483194987,41.933332443237305 21.46667226155599,38.6000010172526 19.20000457763672,37.400001525878906 C16.93333689371745,36.20000203450521 15.199999491373697,36.73333549499512 13.599998474121094,36.60000228881836 C11.99999745686849,36.4666690826416 10.799997965494791,36.333335876464844 9.599998474121094,36.60000228881836 C8.399998982747396,36.866668701171875 7.066668192545573,37.26666768391927 6.400001525878906,38.20000076293945 C5.733334859212239,39.13333384195963 5.7333323160807295,40.6000010172526 5.599998474121094,42.20000076293945 C5.466664632161458,43.800000508626304 3.8666648864746094,45.26666577657064 5.599998474121094,47.79999923706055 C7.333332061767578,50.33333269755045 12.266666412353516,54.73333485921224 16,57.400001525878906 C19.733333587646484,60.06666819254557 24.933333079020183,62.73333295186361 28,63.79999923706055 C31.066666920979817,64.86666552225749 31.600001017252605,64.73333231608073 34.400001525878906,63.79999923706055 C37.20000203450521,62.86666615804037 42.00000254313151,60.33333396911621 44.80000305175781,58.20000076293945 C47.60000356038412,56.066667556762695 49.73333867390951,53.266666412353516 51.20000457763672,51 C52.66667048136393,48.733333587646484 53.33333206176758,47.53333536783854 53.599998474121094,44.60000228881836 C53.86666488647461,41.66666920979818 53.46666971842448,35.800001780192055 52.80000305175781,33.400001525878906 C52.13333638509115,31.000001271565754 50.666665395100914,31.000000953674316 49.599998474121094,30.200000762939453 C48.533331553141274,29.40000057220459 48.400001525878906,28.46666717529297 46.400001525878906,28.600000381469727 C44.400001525878906,28.733333587646484 39.86666488647461,29.666666348775227 37.599998474121094,31 C35.33333206176758,32.33333365122477 34.400002797444664,33.40000216166178 32.80000305175781,36.60000228881836 C31.200003306070965,39.80000241597494 28.400000254313152,44.33333396911621 28,50.20000076293945 C27.599999745686848,56.066667556762695 29.200000762939453,66.4666690826416 30.400001525878906,71.80000305175781 C31.60000228881836,77.13333702087402 33.73333740234375,79.26667149861653 35.20000457763672,82.20000457763672 C36.66667175292969,85.1333376566569 37.20000457763672,87.53333536783855 39.20000457763672,89.4000015258789 C41.20000457763672,91.26666768391927 45.066672007242836,92.73333485921223 47.20000457763672,93.4000015258789 C49.3333371480306,94.06666819254558 50.53333409627279,93.93333435058594 52,93.4000015258789 C53.46666590372721,92.86666870117188 54.26666514078776,93.66667175292969 56,90.20000457763672 C57.73333485921224,86.73333740234375 61.33334096272787,77.13333257039388 62.40000915527344,72.5999984741211 C63.46667734781901,68.06666437784831 63.333343505859375,66.1999994913737 62.40000915527344,63 C61.4666748046875,59.800000508626304 59.20000457763672,56.20000139872233 56.80000305175781,53.400001525878906 C54.400001525878906,50.600001653035484 50.53333409627279,47.66666730244955 48,46.20000076293945 C45.46666590372721,44.73333422342936 43.199998219807945,44.866668701171875 41.599998474121094,44.60000228881836 C39.99999872843424,44.333335876464844 39.46666717529297,43.66666920979818 38.400001525878906,44.60000228881836 C37.333335876464844,45.53333536783854 35.73333740234375,47.93333435058594 35.20000457763672,50.20000076293945 C34.66667175292969,52.46666717529297 34.40000534057617,54.86666679382324 35.20000457763672,58.20000076293945 C36.000003814697266,61.533334732055664 36.26666768391927,65.40000470479329 40,70.20000457763672 C43.73333231608073,75.00000445048015 51.73333231608073,83.40000025431316 57.599998474121094,87 C63.46666463216146,90.59999974568684 68.79999669392903,91.00000254313152 75.19999694824219,91.80000305175781 C81.59999720255534,92.60000356038411 87.46666463216145,94.3333371480306 96,91.80000305175781 C104.53333536783855,89.26666895548503 118.80000813802083,82.06666564941406 126.40000915527344,76.5999984741211 C134.00001017252603,71.13333129882812 137.20000712076822,65.66666603088379 141.60000610351562,59 C146.00000508626303,52.33333396911621 150.53333791097006,44.86666886011759 152.8000030517578,36.60000228881836 C155.06666819254556,28.333335717519127 155.1999969482422,15.133334279060364 155.1999969482422,9.40000057220459 Q155.1999969482422,3.666666865348816 152.8000030517578,2.200000047683716" stroke-linejoin="round" stroke-linecap="round" stroke-width="3" stroke="#000000" fill="none"></path><path d="M146.40000915527344,116.5999984741211 C145.20000712076822,116.33333206176758 141.9999974568685,115.93333307902019 139.1999969482422,115 C136.39999643961588,114.06666692097981 132.6666717529297,112.59999974568684 129.60000610351562,111 C126.53334045410156,109.40000025431316 125.20000457763672,109.13333511352539 120.80000305175781,105.4000015258789 C116.4000015258789,101.66666793823242 106.66666412353516,94.06666564941406 103.19999694824219,88.5999984741211 C99.73332977294922,83.13333129882812 99.73333231608073,78.3333314259847 100,72.5999984741211 C100.26666768391927,66.86666552225749 100.53333536783855,61.800000508626304 104.80000305175781,54.20000076293945 C109.06667073567708,46.6000010172526 118.2666727701823,33.800000031789146 125.60000610351562,27 C132.93333943684897,20.199999968210857 141.0666707356771,16.600000540415447 148.8000030517578,13.40000057220459 C156.53333536783853,10.200000603993734 163.1999994913737,7.00000015894572 172,7.800000190734863 C180.8000005086263,8.600000222524008 194.4000040690104,14.066667079925537 201.60000610351562,18.200000762939453 C208.80000813802084,22.33333444595337 211.8666788736979,27.400002161661785 215.20001220703125,32.60000228881836 C218.5333455403646,37.80000241597494 220.80000813802084,42.600001653035484 221.60000610351562,49.400001525878906 C222.4000040690104,56.20000139872233 221.86666870117188,66.86666870117188 220,73.4000015258789 C218.13333129882812,79.93333435058594 214.39999389648438,83.93333180745442 210.39999389648438,88.5999984741211 C206.39999389648438,93.26666514078777 203.46666463216147,97.00000127156575 196,101.4000015258789 C188.53333536783853,105.80000178019206 173.466672261556,112.1999994913737 165.60000610351562,115 C157.73333994547525,117.8000005086263 153.60000356038412,117.80000432332356 148.8000030517578,118.20000457763672 C144.0000025431315,118.60000483194987 141.20000203450522,118.46666844685872 136.8000030517578,117.4000015258789 C132.4000040690104,116.3333346048991 125.33334350585938,114.46666971842448 122.40000915527344,111.80000305175781 C119.4666748046875,109.13333638509114 119.19999694824219,105.93333562215169 119.19999694824219,101.4000015258789 C119.19999694824219,96.86666742960612 118.93334197998047,91.26666514078777 122.40000915527344,84.5999984741211 C125.8666763305664,77.93333180745442 134.53333536783853,67.00000127156575 140,61.400001525878906 C145.46666463216147,55.800001780192055 150.39999643961588,53.40000025431315 155.1999969482422,51 C159.9999974568685,48.59999974568685 165.20000203450522,47.53333346048991 168.8000030517578,47 C172.4000040690104,46.46666653951009 174.26667022705078,45.13333257039388 176.8000030517578,47.79999923706055 C179.33333587646484,50.46666590372721 183.06666564941406,58.20000012715658 184,63 C184.93333435058594,67.79999987284343 185.4666748046875,70.46666463216145 182.40000915527344,76.5999984741211 C179.33334350585938,82.73333231608073 170.93333943684897,93.80000305175781 165.60000610351562,99.80000305175781 C160.26667277018228,105.80000305175781 155.8666763305664,109.26666514078777 150.40000915527344,112.5999984741211 C144.93334197998047,115.93333180745442 140.13333638509116,117.66666920979817 132.8000030517578,119.80000305175781 C125.46666971842448,121.93333689371745 111.73334248860677,124.60000228881836 106.40000915527344,125.4000015258789 C101.06667582194011,126.20000076293945 103.86667124430339,127.26666514078777 100.80000305175781,124.5999984741211 C97.73333485921223,121.93333180745442 88,117.8000005086263 88,109.4000015258789 C88,101.00000254313152 95.60000356038411,84.60000483194987 100.80000305175781,74.20000457763672 C106.00000254313152,63.80000432332357 112.93332926432292,54.46666749318441 119.19999694824219,47 C125.46666463216145,39.53333250681559 131.4666748046875,33.66666634877523 138.40000915527344,29.399999618530273 C145.33334350585938,25.13333288828532 155.46666971842447,21.53333282470703 160.8000030517578,21.399999618530273 C166.13333638509116,21.266666412353516 167.33334350585938,24.200000445048016 170.40000915527344,28.600000381469727 C173.4666748046875,33.00000031789144 178.26666514078775,39.39999930063883 179.1999969482422,47.79999923706055 C180.13332875569662,56.19999917348226 178.3999989827474,70.7333329518636 176,79 C173.6000010172526,87.2666670481364 168.8000030517578,91.80000178019206 164.8000030517578,97.4000015258789 C160.8000030517578,103.00000127156575 158.53333282470703,107.6666653951009 152,112.5999984741211 C145.46666717529297,117.53333155314128 132.8000055948893,123.79999923706055 125.60000610351562,127 C118.40000661214192,130.20000076293945 113.20000457763672,131.0000025431315 108.80000305175781,131.8000030517578 C104.4000015258789,132.60000356038412 102.26666259765625,134.46666971842447 99.19999694824219,131.8000030517578 C96.13333129882812,129.13333638509116 90.80000813802083,121.66667048136394 90.40000915527344,115.80000305175781 C90.00001017252605,109.93333562215169 93.20000457763672,103.26666514078777 96.80000305175781,96.5999984741211 C100.4000015258789,89.93333180745442 104.39999898274739,83.2666695912679 112,75.80000305175781 C119.60000101725261,68.33333651224773 133.73334248860678,56.33333269755045 142.40000915527344,51.79999923706055 C151.0666758219401,47.26666577657064 158.66666666666666,48.866668701171875 164,48.60000228881836 C169.33333333333334,48.333335876464844 166.00001017252603,43.26666704813639 174.40000915527344,50.20000076293945 C182.80000813802084,57.133334477742515 206.39999643961588,79.40000470479329 214.39999389648438,90.20000457763672 C222.39999135335287,101.00000445048015 220.9333241780599,107.13333257039388 222.39999389648438,115 C223.86666361490884,122.86666742960612 224.00001017252603,129.2666753133138 223.20001220703125,137.40000915527344 C222.40001424153647,145.53334299723306 219.20000712076822,157.93333689371744 217.60000610351562,163.8000030517578 C216.00000508626303,169.6666692097982 215.20000712076822,170.33333841959634 213.60000610351562,172.60000610351562 C212.00000508626303,174.8666737874349 210.26666768391928,176.20000966389975 208,177.40000915527344 C205.73333231608072,178.60000864664713 203.6000010172526,181.6666717529297 200,179.8000030517578 C196.3999989827474,177.93333435058594 189.46665954589844,171.39999643961588 186.39999389648438,166.1999969482422 C183.3333282470703,160.9999974568685 180.6666717529297,157.6666717529297 181.60000610351562,148.60000610351562 C182.53334045410156,139.53334045410156 188.13333129882812,121.26667022705078 192,111.80000305175781 C195.86666870117188,102.33333587646484 198.26668294270834,97.66667048136394 204.80001831054688,91.80000305175781 C211.3333536783854,85.93333562215169 220.80001322428384,78.73333231608073 231.20001220703125,76.5999984741211 C241.60001118977866,74.46666463216145 257.86667887369794,76.1999994913737 267.20001220703125,79 C276.53334554036456,81.8000005086263 281.20001220703125,87.26666768391927 287.20001220703125,93.4000015258789 C293.20001220703125,99.53333536783855 299.86667887369794,106.20000330607097 303.20001220703125,115.80000305175781 C306.53334554036456,125.40000279744466 307.6000111897786,141.93333435058594 307.20001220703125,151 C306.8000132242839,160.06666564941406 304.2666880289714,164.73332977294922 300.8000183105469,170.1999969482422 C297.3333485921224,175.66666412353516 293.999994913737,179.8000030517578 286.3999938964844,183.8000030517578 C278.79999287923175,187.8000030517578 263.73334248860675,192.9999974568685 255.20001220703125,194.1999969482422 C246.66668192545572,195.39999643961588 241.3333485921224,194.06666564941406 235.20001220703125,191 C229.0666758219401,187.93333435058594 222.9333292643229,185.13333638509116 218.39999389648438,175.8000030517578 C213.86665852864584,166.46666971842447 208.13333129882812,147.26666641235352 208,135 C207.86666870117188,122.73333358764648 212.13333638509116,112.86667124430339 217.60000610351562,102.20000457763672 C223.0666758219401,91.53333791097005 227.7333526611328,81.2666670481364 240.80001831054688,71 C253.86668395996094,60.73333295186361 281.2000020345052,46.60000228881836 296,40.60000228881836 C310.7999979654948,34.60000228881836 318.40000406901044,34.86666679382324 329.6000061035156,35 C340.8000081380208,35.13333320617676 353.0666809082031,37.133334477742515 363.20001220703125,41.400001525878906 C373.3333435058594,45.6666685740153 384.26666259765625,54.73333613077799 390.3999938964844,60.60000228881836 C396.5333251953125,66.46666844685872 398.3999989827474,71.39999834696452 400,76.5999984741211 C401.6000010172526,81.79999860127766 401.6000010172526,87.26666895548503 400,91.80000305175781 C398.3999989827474,96.3333371480306 396.5333251953125,99.26667022705078 390.3999938964844,103.80000305175781 C384.26666259765625,108.33333587646484 371.20001220703125,116.33333333333333 363.20001220703125,119 C355.20001220703125,121.66666666666667 349.8666636149089,121.00000254313152 342.3999938964844,119.80000305175781 C334.9333241780599,118.60000356038411 323.99998982747394,115.13333638509114 318.3999938964844,111.80000305175781 C312.7999979654948,108.46666971842448 310.8000183105469,104.20000330607097 308.8000183105469,99.80000305175781 C306.8000183105469,95.40000279744466 303.46666463216144,92.33333524068196 306.3999938964844,85.4000015258789 C309.3333231608073,78.46666781107585 318.3999938964844,65.40000089009602 326.3999938964844,58.20000076293945 C334.3999938964844,51.000000635782875 343.99998982747394,46.066667556762695 354.3999938964844,42.20000076293945 C364.7999979654948,38.33333396911621 376.1333516438802,35.13333320617676 388.8000183105469,35 C401.46668497721356,34.86666679382324 421.59999593098956,39.00000127156576 430.3999938964844,41.400001525878906 C439.1999918619792,43.800001780192055 435.73333231608075,43.26666768391927 441.6000061035156,49.400001525878906 C447.4666798909505,55.53333536783854 461.7333730061849,68.60000483194987 465.60003662109375,78.20000457763672 C469.4667002360026,87.80000432332356 466.93332926432294,99.8000005086263 464.79998779296875,107 C462.66664632161456,114.1999994913737 457.8666534423828,117 452.79998779296875,121.4000015258789 C447.7333221435547,125.80000305175781 443.59999084472656,130.46667607625326 434.3999938964844,133.40000915527344 C425.1999969482422,136.3333422342936 407.3333384195964,139.53333536783853 397.6000061035156,139 C387.8666737874349,138.46666463216147 382.1333312988281,133.93333053588867 376,130.1999969482422 C369.8666687011719,126.4666633605957 364.8000183105469,124.59999720255534 360.8000183105469,116.5999984741211 C356.8000183105469,108.59999974568684 351.6000010172526,91.40000406901042 352,82.20000457763672 C352.3999989827474,73.00000508626302 357.0666758219401,68.60000228881836 363.20001220703125,61.400001525878906 C369.3333485921224,54.20000076293945 374.66668701171875,45.26666673024496 388.8000183105469,39 C402.933349609375,32.73333326975504 434.93333435058594,26.33333428700765 448,23.80000114440918 C461.06666564941406,21.26666800181071 452.93333943684894,21.000000953674316 467.20001220703125,23.80000114440918 Q481.46668497721356,26.600001335144043 533.6000366210938,40.60000228881836" stroke-linejoin="round" stroke-linecap="round" stroke-width="3" stroke="#000000" fill="none"></path></svg>