<svg xmlns="http://www.w3.org/2000/svg" version="1.1" xmlns:xlink="http://www.w3.org/1999/xlink" xmlns:svgjs="http://svgjs.com/svgjs" width="100%" height="100%" id="drawing-svg"><path d="M342.3999938964844,135 C338.3999938964844,135.66666666666666 324.79999287923175,137.8000005086263 318.3999938964844,139 C311.999994913737,140.1999994913737 308.3999989827474,140.86666361490884 304,142.1999969482422 C299.6000010172526,143.53333028157553 295.46666463216144,145.79999796549478 292,147 C288.53333536783856,148.20000203450522 286.2666778564453,148.20000966389975 283.20001220703125,149.40000915527344 C280.1333465576172,150.60000864664713 275.8666737874349,152.9999974568685 273.6000061035156,154.1999969482422 C271.3333384195964,155.39999643961588 271.6000061035156,155.26667277018228 269.6000061035156,156.60000610351562 C267.6000061035156,157.93333943684897 263.4666748046875,160.73332977294922 261.6000061035156,162.1999969482422 C259.73333740234375,163.66666412353516 259.46665954589844,163.6666742960612 258.3999938964844,165.40000915527344 C257.3333282470703,167.1333440144857 256.1333414713542,169.6666742960612 255.20001220703125,172.60000610351562 C254.26668294270834,175.53333791097006 253.46668497721353,180.1999994913737 252.80001831054688,183 C252.13335164388022,185.8000005086263 251.3333485921224,187.2666753133138 251.20001220703125,189.40000915527344 C251.0666758219401,191.53334299723306 251.86666870117188,194.20000457763672 252,195.8000030517578 C252.13333129882812,197.4000015258789 251.86666361490884,197.93333435058594 252,199 C252.13333638509116,200.06666564941406 252.66668192545572,201.53333028157553 252.80001831054688,202.1999969482422 C252.93335469563803,202.86666361490884 252.66668701171875,202.86666615804037 252.80001831054688,203 C252.933349609375,203.13333384195963 253.33334350585938,203 253.60000610351562,203 C253.86666870117188,203 254.1333262125651,203 254.39999389648438,203 C254.66666158040366,203 254.93334452311197,203 255.20001220703125,203 C255.46667989095053,203 255.20000203450522,201.8000005086263 256,203 C256.7999979654948,204.1999994913737 258.3999989827474,205.79999542236328 260,210.1999969482422 C261.6000010172526,214.5999984741211 264.000005086263,224.33334096272787 265.6000061035156,229.40000915527344 C267.20000712076825,234.466677347819 268.8000081380208,236.20000712076822 269.6000061035156,240.60000610351562 C270.40000406901044,245.00000508626303 271.3333282470703,249.13333638509116 270.3999938964844,255.8000030517578 C269.46665954589844,262.4666697184245 266.26666259765625,274.46667226155597 264,280.6000061035156 C261.73333740234375,286.7333399454753 259.46668497721356,289.2666727701823 256.8000183105469,292.6000061035156 C254.13335164388022,295.93333943684894 251.73333740234375,298.20000712076825 248,300.6000061035156 C244.26666259765625,303.000005086263 238.1333262125651,305.3999989827474 234.39999389648438,307 C230.66666158040366,308.6000010172526 232.93333943684897,309.40000915527344 225.60000610351562,310.20001220703125 C218.26667277018228,311.00001525878906 197.46666208902994,311.5333506266276 190.39999389648438,311.8000183105469 C183.3333257039388,312.0666859944661 187.1999944051107,312.6000213623047 183.1999969482422,311.8000183105469 C179.1999994913737,311.00001525878906 171.0666758219401,308.4666697184245 166.40000915527344,307 C161.73334248860678,305.5333302815755 157.73333231608072,304.1999969482422 155.1999969482422,303 C152.66666158040366,301.8000030517578 152.39999643961588,301.66668192545575 151.1999969482422,299.8000183105469 C149.9999974568685,297.933354695638 148.79999796549478,295.5333557128906 148,291.8000183105469 C147.20000203450522,288.0666809082031 146.53334299723306,281.7999979654948 146.40000915527344,277.3999938964844 C146.2666753133138,272.99998982747394 146.66666412353516,268.8666585286458 147.1999969482422,265.3999938964844 C147.73332977294922,261.93332926432294 148.26667277018228,260.73333740234375 149.60000610351562,256.6000061035156 C150.93333943684897,252.4666748046875 153.73332977294922,245.00000762939453 155.1999969482422,240.60000610351562 C156.66666412353516,236.20000457763672 156.93334197998047,233.53333028157553 158.40000915527344,230.1999969482422 C159.8666763305664,226.86666361490884 161.33333333333334,224.60000610351562 164,220.60000610351562 C166.66666666666666,216.60000610351562 171.4666748046875,209.93333180745444 174.40000915527344,206.1999969482422 C177.33334350585938,202.46666208902994 179.8666737874349,200.3333282470703 181.60000610351562,198.1999969482422 C183.33333841959634,196.06666564941406 183.73333740234375,194.8666737874349 184.8000030517578,193.40000915527344 C185.86666870117188,191.93334452311197 187.46666717529297,190.20000966389975 188,189.40000915527344 C188.53333282470703,188.60000864664713 188,189.13334147135416 188,188.60000610351562 C188,188.0666707356771 188.93333180745444,189.13333129882812 188,186.1999969482422 C187.06666819254556,183.26666259765625 184.6666742960612,176.06666564941406 182.40000915527344,171 C180.1333440144857,165.93333435058594 177.60001118977866,161.4000015258789 174.40000915527344,155.8000030517578 C171.20000712076822,150.20000457763672 166.93333180745444,142.3333422342936 163.1999969482422,137.40000915527344 C159.46666208902994,132.46667607625326 157.06666564941406,130.86667251586914 152,126.20000457763672 C146.93333435058594,121.5333366394043 137.86666870117188,113.13333511352539 132.8000030517578,109.4000015258789 C127.73333740234375,105.66666793823242 124.93333943684895,105.66666920979817 121.60000610351562,103.80000305175781 C118.2666727701823,101.93333689371745 115.73333740234375,99.9333381652832 112.80000305175781,98.20000457763672 C109.86666870117188,96.46667098999023 106,94.33333587646484 104,93.4000015258789 C102,92.46666717529297 101.60000356038411,92.86666488647461 100.80000305175781,92.5999984741211 C100.00000254313152,92.33333206176758 99.59999593098958,91.93333562215169 99.19999694824219,91.80000305175781 C98.7999979654948,91.66667048136394 98.40000915527344,91.13333638509114 98.40000915527344,91.80000305175781 C98.40000915527344,92.46666971842448 98.53333028157552,94.06666946411133 99.19999694824219,95.80000305175781 C99.86666361490886,97.5333366394043 101.60000864664714,97.9333381652832 102.40000915527344,102.20000457763672 C103.20000966389973,106.46667098999023 103.60000101725261,115.66666793823242 104,121.4000015258789 C104.39999898274739,127.13333511352539 104.4000015258789,130.73333867390951 104.80000305175781,136.60000610351562 C105.20000457763672,142.46667353312174 105.8666763305664,148.33334096272787 106.40000915527344,156.60000610351562 C106.93334197998047,164.86667124430338 106.93333435058594,178.1999969482422 108,186.1999969482422 C109.06666564941406,194.1999969482422 111.60000356038411,199.00000508626303 112.80000305175781,204.60000610351562 C114.00000254313152,210.20000712076822 113.86666361490886,214.46666971842447 115.19999694824219,219.8000030517578 C116.53333028157552,225.13333638509116 118.53333536783855,230.466672261556 120.80000305175781,236.60000610351562 C123.06667073567708,242.73333994547525 126.40000406901042,251.80000813802084 128.8000030517578,256.6000061035156 C131.20000203450522,261.40000406901044 133.06666310628256,262.59999593098956 135.1999969482422,265.3999938964844 C137.3333307902018,268.1999918619792 139.33333841959634,270.46665954589844 141.60000610351562,273.3999938964844 C143.8666737874349,276.3333282470703 146.8000030517578,280.59999593098956 148.8000030517578,283 C150.8000030517578,285.40000406901044 151.8666737874349,285.933349609375 153.60000610351562,287.8000183105469 C155.33333841959634,289.66668701171875 156.93333180745444,292.3333485921224 159.1999969482422,294.20001220703125 C161.46666208902994,296.0666758219401 165.1999969482422,297.53333536783856 167.1999969482422,299 C169.1999969482422,300.46666463216144 169.5999959309896,301.6666666666667 171.1999969482422,303 C172.79999796549478,304.3333333333333 175.33333587646484,305.93333435058594 176.8000030517578,307 C178.26667022705078,308.06666564941406 179.06666564941406,308.8666585286458 180,309.3999938964844 C180.93333435058594,309.93332926432294 181.4666748046875,309.6666768391927 182.40000915527344,310.20001220703125 Q183.33334350585938,310.7333475748698 185.60000610351562,312.6000061035156" stroke-linejoin="round" stroke-linecap="round" stroke-width="3" stroke="#000000" fill="none"></path></svg>