<svg xmlns="http://www.w3.org/2000/svg" version="1.1" xmlns:xlink="http://www.w3.org/1999/xlink" xmlns:svgjs="http://svgjs.com/svgjs" width="100%" height="100%" id="drawing-svg"><path d="M138.40000915527344,252.60000610351562 C139.0666758219401,252.466672261556 140.93334452311197,252.46666971842447 142.40000915527344,251.8000030517578 C143.8666737874349,251.13333638509116 145.86666361490884,249.40000661214194 147.1999969482422,248.60000610351562 C148.53333028157553,247.8000055948893 147.33334096272787,248.73333485921225 150.40000915527344,247 C153.466677347819,245.26666514078775 161.60000610351562,240.3333307902018 165.60000610351562,238.1999969482422 C169.60000610351562,236.06666310628256 171.20000966389975,235.26666259765625 174.40000915527344,234.1999969482422 C177.60000864664713,233.13333129882812 182.13333892822266,232.33333587646484 184.8000030517578,231.8000030517578 C187.46666717529297,231.26667022705078 188.9333267211914,231 190.39999389648438,231 C191.86666107177734,231 192.13333638509116,231.0000025431315 193.60000610351562,231.8000030517578 C195.0666758219401,232.60000356038412 197.46667989095053,234.33333587646484 199.20001220703125,235.8000030517578 C200.93334452311197,237.26667022705078 201.73333231608072,238.0666732788086 204,240.60000610351562 C206.26666768391928,243.13333892822266 210.00001525878906,247.66666666666666 212.80001831054688,251 C215.6000213623047,254.33333333333334 217.7333526611328,257.40000406901044 220.80001831054688,260.6000061035156 C223.86668395996094,263.8000081380208 228.00001525878906,267.40001424153644 231.20001220703125,270.20001220703125 C234.40000915527344,273.00001017252606 237.06666564941406,275.6666615804036 240,277.3999938964844 C242.93333435058594,279.1333262125651 243.86668395996094,279.2666727701823 248.80001831054688,280.6000061035156 C253.7333526611328,281.93333943684894 263.8666737874349,284.46665954589844 269.6000061035156,285.3999938964844 C275.3333384195964,286.3333282470703 278.8000132242839,285.6666768391927 283.20001220703125,286.20001220703125 C287.6000111897786,286.7333475748698 292.8000030517578,287.53334045410156 296,288.6000061035156 C299.1999969482422,289.6666717529297 299.999994913737,291.1333414713542 302.3999938964844,292.6000061035156 C304.79999287923175,294.06667073567706 307.1999918619792,294.59999593098956 310.3999938964844,297.3999938964844 C313.59999593098956,300.1999918619792 317.06667073567706,303.3999938964844 321.6000061035156,309.3999938964844 C326.1333414713542,315.3999938964844 333.8666737874349,327.9333241780599 337.6000061035156,333.3999938964844 C341.3333384195964,338.8666636149089 342.53333536783856,340.0666758219401 344,342.20001220703125 C345.46666463216144,344.3333485921224 345.7333272298177,345.40001424153644 346.3999938964844,346.20001220703125 Q347.06666056315106,347.00001017252606 348,347" stroke-linejoin="round" stroke-linecap="round" stroke-width="3" stroke="#000000" fill="none"></path><path d="M129.60000610351562,119.80000305175781 C131.466672261556,119.5333366394043 137.73333740234375,118.7333386739095 140.8000030517578,118.20000457763672 C143.86666870117188,117.66667048136394 144.3999989827474,116.99999872843425 148,116.5999984741211 C151.6000010172526,116.19999821980794 156.40000915527344,116.06666946411133 162.40000915527344,115.80000305175781 C168.40000915527344,115.5333366394043 178.93333180745444,115.13333384195964 184,115 C189.06666819254556,114.86666615804036 190.13335164388022,115 192.80001831054688,115 C195.46668497721353,115 197.46666971842447,114.59999974568684 200,115 C202.53333028157553,115.40000025431316 205.73333231608072,116.60000101725261 208,117.4000015258789 C210.26666768391928,118.2000020345052 211.20000712076822,118.20000330607097 213.60000610351562,119.80000305175781 C216.00000508626303,121.40000279744466 219.3333282470703,124.73333231608073 222.39999389648438,127 C225.46665954589844,129.26666768391928 227.86666361490884,130.4666748046875 232,133.40000915527344 C236.13333638509116,136.33334350585938 242.1333465576172,141.13334147135416 247.20001220703125,144.60000610351562 C252.2666778564453,148.0666707356771 257.46665954589844,150.9999974568685 262.3999938964844,154.1999969482422 C267.3333282470703,157.39999643961588 270.5333506266276,159.8000030517578 276.8000183105469,163.8000030517578 C283.0666859944661,167.8000030517578 289.4666697184245,172.1999969482422 300,178.1999969482422 C310.5333302815755,184.1999969482422 329.6000010172526,194.33333587646484 340,199.8000030517578 Q350.3999989827474,205.26667022705078 362.3999938964844,211" stroke-linejoin="round" stroke-linecap="round" stroke-width="3" stroke="#000000" fill="none"></path><path d="M17.599998474121094,4.599999904632568 C17.999998728434246,5.266666650772095 18.799999237060547,6.200000365575155 20,8.600000381469727 C21.200000762939453,11.000000397364298 22.666669209798176,14.999999682108562 24.800003051757812,19 C26.93333689371745,23.000000317891438 29.200003306070965,27.400002161661785 32.80000305175781,32.60000228881836 C36.400002797444664,37.80000241597494 42.400001525878906,45.00000127156576 46.400001525878906,50.20000076293945 C50.400001525878906,55.40000025431315 53.3333371480306,59.133331934611 56.80000305175781,63.79999923706055 C60.266668955485024,68.46666653951009 63.86666361490885,73.93333752950032 67.19999694824219,78.20000457763672 C70.53333028157552,82.46667162577312 72.26666768391927,85.13333511352539 76.80000305175781,89.4000015258789 C81.33333841959636,93.66666793823242 89.8666763305664,99.5333366394043 94.40000915527344,103.80000305175781 C98.93334197998047,108.06666946411133 99.86666870117188,110.46666717529297 104,115 C108.13333129882812,119.53333282470703 115.06666310628255,126.86666615804036 119.19999694824219,131 C123.33333079020183,135.13333384195963 126.00000254313152,137.53333536783853 128.8000030517578,139.8000030517578 C131.60000356038412,142.0666707356771 134,143.40000661214194 136,144.60000610351562 C138,145.8000055948893 139.86666870117188,146.33333333333334 140.8000030517578,147 C141.73333740234375,147.66666666666666 141.33333841959634,148.33333841959634 141.60000610351562,148.60000610351562 C141.8666737874349,148.8666737874349 142.1333440144857,148.60000610351562 142.40000915527344,148.60000610351562 Q142.6666742960612,148.60000610351562 143.1999969482422,148.60000610351562" stroke-linejoin="round" stroke-linecap="round" stroke-width="3" stroke="#000000" fill="none"></path></svg>