<svg xmlns="http://www.w3.org/2000/svg" version="1.1" xmlns:xlink="http://www.w3.org/1999/xlink" xmlns:svgjs="http://svgjs.com/svgjs" width="100%" height="100%" id="drawing-svg"><path d="M229.60000610351562,192.60000610351562 C229.4666748046875,192.33333841959634 229.06668599446616,191.4000015258789 228.80001831054688,191 C228.5333506266276,190.5999984741211 228.13333638509116,190.46666208902994 228,190.1999969482422 C227.86666361490884,189.93333180745444 228.66666666666666,190.73334248860678 228,189.40000915527344 C227.33333333333334,188.0666758219401 225.73333231608072,184.86666361490884 224,182.1999969482422 C222.26666768391928,179.53333028157553 220.00000508626303,176.4666748046875 217.60000610351562,173.40000915527344 C215.20000712076822,170.33334350585938 212.26667277018228,167.53333791097006 209.60000610351562,163.8000030517578 C206.93333943684897,160.06666819254556 203.73333740234375,154.73333231608072 201.60000610351562,151 C199.4666748046875,147.26666768391928 198.26668294270834,144.4666748046875 196.80001831054688,141.40000915527344 C195.3333536783854,138.33334350585938 194.26668802897134,136.33334096272787 192.80001831054688,132.60000610351562 C191.3333485921224,128.86667124430338 189.33333587646484,122.20000076293945 188,119 C186.66666412353516,115.79999923706055 185.60000356038412,115.26666768391927 184.8000030517578,113.4000015258789 C184.0000025431315,111.53333536783855 183.73332977294922,109.5333366394043 183.1999969482422,107.80000305175781 C182.66666412353516,106.06666946411133 181.86667124430338,104.06666692097981 181.60000610351562,103 C181.33334096272787,101.93333307902019 181.60000610351562,101.80000178019206 181.60000610351562,101.4000015258789 C181.60000610351562,101.00000127156575 181.466672261556,101.13333129882812 181.60000610351562,100.5999984741211 C181.73333994547525,100.06666564941406 181.0666758219401,99.66667048136394 182.40000915527344,98.20000457763672 C183.73334248860678,96.7333386739095 185.0666732788086,94.73333740234375 189.60000610351562,91.80000305175781 C194.13333892822266,88.86666870117188 203.0666707356771,83.13333257039388 209.60000610351562,80.5999984741211 C216.13334147135416,78.06666437784831 223.3333536783854,77.39999771118164 228.80001831054688,76.5999984741211 C234.26668294270834,75.79999923706055 235.3333282470703,74.86666870117188 242.39999389648438,75.80000305175781 C249.46665954589844,76.73333740234375 264.00001017252606,80.06667200724284 271.20001220703125,82.20000457763672 C278.40001424153644,84.3333371480306 280.93333943684894,86.1999994913737 285.6000061035156,88.5999984741211 C290.2666727701823,90.99999745686848 294.2666778564453,92.19999821980794 299.20001220703125,96.5999984741211 C304.1333465576172,100.99999872843425 310.53334554036456,108.99999872843425 315.20001220703125,115 C319.86667887369794,121.00000127156575 323.3333485921224,126.73333994547527 327.20001220703125,132.60000610351562 C331.0666758219401,138.466672261556 334.1333262125651,141.53333028157553 338.3999938964844,150.1999969482422 C342.6666615804036,158.86666361490884 349.6000162760417,175.13333892822266 352.8000183105469,184.60000610351562 C356.00002034505206,194.0666732788086 355.8666737874349,199.13333384195963 357.6000061035156,207 C359.3333384195964,214.86666615804037 361.20001220703125,223.13333638509116 363.20001220703125,231.8000030517578 C365.20001220703125,240.46666971842447 367.73334248860675,252.46666717529297 369.6000061035156,259 C371.4666697184245,265.53333282470703 372.93332926432294,267.5333302815755 374.3999938964844,271 C375.8666585286458,274.4666697184245 376.9333241780599,276.86668395996094 378.3999938964844,279.8000183105469 C379.8666636149089,282.7333526611328 381.86667887369794,285.93333943684894 383.20001220703125,288.6000061035156 C384.53334554036456,291.2666727701823 385.06666056315106,293.8000183105469 386.3999938964844,295.8000183105469 C387.7333272298177,297.8000183105469 388.8000081380208,298.3333435058594 391.20001220703125,300.6000061035156 C393.6000162760417,302.8666687011719 398.2666880289714,307.3999938964844 400.8000183105469,309.3999938964844 C403.3333485921224,311.3999938964844 404.26666259765625,311.6666717529297 406.3999938964844,312.6000061035156 C408.5333251953125,313.53334045410156 409.8666687011719,313.93333435058594 413.6000061035156,315 C417.3333435058594,316.06666564941406 424.933349609375,317.93333435058594 428.8000183105469,319 C432.66668701171875,320.06666564941406 434.4000193277995,320.59999084472656 436.8000183105469,321.3999938964844 C439.20001729329425,322.1999969482422 441.20001729329425,321.933349609375 443.20001220703125,323.8000183105469 C445.20000712076825,325.66668701171875 447.066650390625,329.8000081380208 448.79998779296875,332.6000061035156 C450.5333251953125,335.40000406901044 452.5333658854167,337.8000081380208 453.60003662109375,340.6000061035156 C454.6667073567708,343.40000406901044 454.933349609375,346.3333282470703 455.20001220703125,349.3999938964844 C455.4666748046875,352.46665954589844 455.20001220703125,355.93332926432294 455.20001220703125,359 C455.20001220703125,362.06667073567706 456.1333414713542,363.66668192545575 455.20001220703125,367.8000183105469 C454.2666829427083,371.933354695638 451.3333740234375,379.4000193277995 449.60003662109375,383.8000183105469 C447.86669921875,388.20001729329425 446.79999287923175,391.2666829427083 444.79998779296875,394.20001220703125 C442.79998270670575,397.1333414713542 441.73333740234375,398.3333282470703 437.6000061035156,401.3999938964844 C433.4666748046875,404.46665954589844 425.6000010172526,409.8000030517578 420,412.6000061035156 C414.3999989827474,415.40000915527344 410,416.4666798909505 404,418.20001220703125 C398,419.933344523112 390.5333302815755,421.8000030517578 384,423 C377.4666697184245,424.1999969482422 371.3333485921224,424.999994913737 364.8000183105469,425.3999938964844 C358.2666880289714,425.79999287923175 350.2666880289714,425.3999938964844 344.8000183105469,425.3999938964844 C339.3333485921224,425.3999938964844 336.40000406901044,425.9333241780599 332,425.3999938964844 C327.59999593098956,424.8666636149089 322.9333241780599,423.933344523112 318.3999938964844,422.20001220703125 C313.8666636149089,420.4666798909505 308.8000183105469,418.06666564941406 304.8000183105469,415 C300.8000183105469,411.93333435058594 298.1333312988281,409.00001525878906 294.3999938964844,403.8000183105469 C290.6666564941406,398.6000213623047 287.59999084472656,394.2000223795573 282.3999938964844,383.8000183105469 C277.1999969482422,373.40001424153644 268.40000915527344,354.1999969482422 263.20001220703125,341.3999938964844 C258.00001525878906,328.59999084472656 254.40001424153647,318.06666564941406 251.20001220703125,307 C248.00001017252603,295.93333435058594 246.26666768391928,285.9333318074544 244,275 C241.73333231608072,264.0666681925456 239.0666707356771,249.93334197998047 237.60000610351562,241.40000915527344 C236.13334147135416,232.8666763305664 235.73334757486978,228.60000356038412 235.20001220703125,223.8000030517578 C234.66667683919272,219.0000025431315 234.66666158040366,217.00000508626303 234.39999389648438,212.60000610351562 C234.1333262125651,208.20000712076822 233.86666870117188,200.466677347819 233.60000610351562,197.40000915527344 C233.33334350585938,194.33334096272787 233.20001729329428,195.53333028157553 232.80001831054688,194.1999969482422 C232.40001932779947,192.86666361490884 231.73334757486978,190.73334248860678 231.20001220703125,189.40000915527344 C230.66667683919272,188.0666758219401 230.6666717529297,187.13333129882812 229.60000610351562,186.1999969482422 C228.53334045410156,185.26666259765625 226.5333506266276,184.86666870117188 224.80001831054688,183.8000030517578 C223.06668599446616,182.73333740234375 222.1333465576172,182.33333587646484 219.20001220703125,179.8000030517578 C216.2666778564453,177.26667022705078 210.40001424153647,172.0666732788086 207.20001220703125,168.60000610351562 C204.00001017252603,165.13333892822266 202.3999989827474,162.1999994913737 200,159 C197.6000010172526,155.8000005086263 194.80001831054688,151.40000915527344 192.80001831054688,149.40000915527344 C190.80001831054688,147.40000915527344 189.33333587646484,147.93333435058594 188,147 C186.66666412353516,146.06666564941406 186.4000015258789,144.73333485921225 184.8000030517578,143.8000030517578 C183.20000457763672,142.86667124430338 181.33334350585938,141.80000813802084 178.40000915527344,141.40000915527344 C175.4666748046875,141.00001017252603 170.3999989827474,141.40000915527344 167.1999969482422,141.40000915527344 C163.99999491373697,141.40000915527344 161.5999959309896,141.1333440144857 159.1999969482422,141.40000915527344 C156.79999796549478,141.6666742960612 154.93333435058594,142.73333485921225 152.8000030517578,143 C150.6666717529297,143.26666514078775 148.00001017252603,142.86666615804037 146.40000915527344,143 C144.80000813802084,143.13333384195963 144.3999989827474,143.6666692097982 143.1999969482422,143.8000030517578 C141.99999491373697,143.93333689371744 140.26666259765625,143.8000030517578 139.1999969482422,143.8000030517578 C138.13333129882812,143.8000030517578 137.73333485921225,143.8000030517578 136.8000030517578,143.8000030517578 C135.86667124430338,143.8000030517578 134.6666717529297,143.8000030517578 133.60000610351562,143.8000030517578 C132.53334045410156,143.8000030517578 131.60000864664713,143.8000030517578 130.40000915527344,143.8000030517578 C129.20000966389975,143.8000030517578 127.33334350585938,143.6666692097982 126.40000915527344,143.8000030517578 C125.4666748046875,143.93333689371744 125.73333740234375,144.466672261556 124.80000305175781,144.60000610351562 C123.86666870117188,144.73333994547525 121.86666870117188,144.466672261556 120.80000305175781,144.60000610351562 C119.73333740234375,144.73333994547525 119.06667582194011,145.2666753133138 118.40000915527344,145.40000915527344 C117.73334248860677,145.53334299723306 117.73333740234375,145.2666778564453 116.80000305175781,145.40000915527344 C115.86666870117188,145.53334045410156 113.86666870117188,146.06666564941406 112.80000305175781,146.1999969482422 C111.73333740234375,146.3333282470703 111.20000966389973,146.1999969482422 110.40000915527344,146.1999969482422 C109.60000864664714,146.1999969482422 108.66666666666667,146.1999969482422 108,146.1999969482422 C107.33333333333333,146.1999969482422 106.93334197998047,145.26666259765625 106.40000915527344,146.1999969482422 C105.8666763305664,147.13333129882812 105.60000356038411,149.0000025431315 104.80000305175781,151.8000030517578 C104.00000254313152,154.60000356038412 102.66667175292969,159.26666768391928 101.60000610351562,163 C100.53334045410156,166.73333231608072 99.20000966389973,169.66666412353516 98.40000915527344,174.1999969482422 C97.60000864664714,178.73332977294922 97.20000457763672,185.9333292643229 96.80000305175781,190.1999969482422 C96.4000015258789,194.46666463216147 95.73333231608073,196.33333587646484 96,199.8000030517578 C96.26666768391927,203.26667022705078 97.4666748046875,206.86666615804037 98.40000915527344,211 C99.33334350585938,215.13333384195963 100.53334045410156,221.40000661214194 101.60000610351562,224.60000610351562 C102.66667175292969,227.8000055948893 103.86667124430339,228.46666463216147 104.80000305175781,230.1999969482422 C105.73333485921223,231.9333292643229 105.86666361490886,232.86666615804037 107.19999694824219,235 C108.53333028157552,237.13333384195963 111.73333485921223,240.73333231608072 112.80000305175781,243 C113.86667124430339,245.26666768391928 112.80000559488933,246.60000610351562 113.60000610351562,248.60000610351562 C114.40000661214192,250.60000610351562 116.53334045410156,253.53333536783853 117.60000610351562,255 C118.66667175292969,256.46666463216144 119.33333333333333,256.46665954589844 120,257.3999938964844 C120.66666666666667,258.3333282470703 120.93333943684895,259.53333536783856 121.60000610351562,260.6000061035156 C122.2666727701823,261.6666768391927 123.46666717529297,263.00002034505206 124,263.8000183105469 C124.53333282470703,264.6000162760417 124.13333638509114,264.8666636149089 124.80000305175781,265.3999938964844 C125.46666971842448,265.9333241780599 127.1999994913737,266.1999969482422 128,267 C128.8000005086263,267.8000030517578 128.40000661214194,269.00001017252606 129.60000610351562,270.20001220703125 C130.8000055948893,271.40001424153644 133.73332977294922,273.00001525878906 135.1999969482422,274.20001220703125 C136.66666412353516,275.40000915527344 136.6666742960612,275.93332926432294 138.40000915527344,277.3999938964844 C140.1333440144857,278.8666585286458 143.4666748046875,280.8666636149089 145.60000610351562,283 C147.73333740234375,285.1333363850911 149.46666463216147,287.933344523112 151.1999969482422,290.20001220703125 C152.9333292643229,292.4666798909505 154.53333282470703,294.3333384195964 156,296.6000061035156 C157.46666717529297,298.8666737874349 158.3999989827474,300.86668395996094 160,303.8000183105469 C161.6000010172526,306.7333526611328 164.13333892822266,311.00001525878906 165.60000610351562,314.20001220703125 C167.0666732788086,317.40000915527344 167.73333740234375,318.73333231608075 168.8000030517578,323 C169.86666870117188,327.26666768391925 170.8000005086263,335.66668192545575 172,339.8000183105469 C173.1999994913737,343.933354695638 175.1999994913737,345.8000183105469 176,347.8000183105469 C176.8000005086263,349.8000183105469 176.53333536783853,350.0666859944661 176.8000030517578,351.8000183105469 C177.0666707356771,353.5333506266276 177.33333841959634,356.0666809082031 177.60000610351562,358.20001220703125 C177.8666737874349,360.3333435058594 178.2666753133138,362.8666737874349 178.40000915527344,364.6000061035156 C178.53334299723306,366.3333384195964 178.40000915527344,366.3333384195964 178.40000915527344,368.6000061035156 C178.40000915527344,370.8666737874349 178.40000915527344,376.0666809082031 178.40000915527344,378.20001220703125 C178.40000915527344,380.3333435058594 178.2666778564453,379.93332926432294 178.40000915527344,381.3999938964844 C178.53334045410156,382.8666585286458 178.93333180745444,384.59999593098956 179.1999969482422,387 C179.46666208902994,389.40000406901044 179.73333231608072,393.66668192545575 180,395.8000183105469 C180.26666768391928,397.933354695638 180.53333536783853,398.33335367838544 180.8000030517578,399.8000183105469 C181.0666707356771,401.2666829427083 181.466672261556,403.1333414713542 181.60000610351562,404.6000061035156 C181.73333994547525,406.06667073567706 181.466672261556,407.40000406901044 181.60000610351562,408.6000061035156 C181.73333994547525,409.8000081380208 182.2666753133138,410.86668395996094 182.40000915527344,411.8000183105469 C182.53334299723306,412.7333526611328 182.2666778564453,413.00001525878906 182.40000915527344,414.20001220703125 C182.53334045410156,415.40000915527344 183.06666564941406,417.8000030517578 183.1999969482422,419 C183.3333282470703,420.1999969482422 183.1999969482422,420.59999084472656 183.1999969482422,421.3999938964844 C183.1999969482422,422.1999969482422 183.06666310628256,422.6000162760417 183.1999969482422,423.8000183105469 C183.3333307902018,425.00002034505206 183.3333307902018,427.2666727701823 184,428.6000061035156 C184.6666692097982,429.93333943684894 185.60001118977866,430.86668395996094 187.20001220703125,431.8000183105469 C188.80001322428384,432.7333526611328 191.33333841959634,433.00001525878906 193.60000610351562,434.20001220703125 C195.8666737874349,435.40000915527344 198.80001831054688,437.6666666666667 200.80001831054688,439 C202.80001831054688,440.3333333333333 204.00001017252603,441.2666778564453 205.60000610351562,442.20001220703125 C207.20000203450522,443.1333465576172 208.79999287923178,443.53334045410156 210.39999389648438,444.6000061035156 C211.99999491373697,445.6666717529297 214.13334147135416,447.53334045410156 215.20001220703125,448.6000061035156 C216.26668294270834,449.6666717529297 216.40001932779947,450.2000020345052 216.80001831054688,451 C217.20001729329428,451.7999979654948 217.4666748046875,452.59999084472656 217.60000610351562,453.3999938964844 C217.73333740234375,454.1999969482422 217.60000610351562,454.7333475748698 217.60000610351562,455.8000183105469 C217.60000610351562,456.86668904622394 217.60000610351562,458.86668904622394 217.60000610351562,459.8000183105469 C217.60000610351562,460.7333475748698 217.4666748046875,460.7333272298177 217.60000610351562,461.3999938964844 C217.73333740234375,462.06666056315106 218.26666259765625,462.7333475748698 218.39999389648438,463.8000183105469 C218.5333251953125,464.86668904622394 218.39999389648438,466.86668904622394 218.39999389648438,467.8000183105469 C218.39999389648438,468.7333475748698 218.39999389648438,468.46666463216144 218.39999389648438,469.3999938964844 C218.39999389648438,470.3333231608073 218.39999389648438,472.3333231608073 218.39999389648438,473.3999938964844 C218.39999389648438,474.46666463216144 218.39999389648438,475.00001525878906 218.39999389648438,475.8000183105469 C218.39999389648438,476.6000213623047 218.39999389648438,477.2666829427083 218.39999389648438,478.20001220703125 C218.39999389648438,479.1333414713542 218.39999389648438,480.59999593098956 218.39999389648438,481.3999938964844 Q218.39999389648438,482.1999918619792 218.39999389648438,483" stroke-linejoin="round" stroke-linecap="round" stroke-width="3" stroke="#000000" fill="none"></path><path d="M23.20000457763672,21.399999618530273 C23.20000457763672,21.399999618530273 23.60000483194987,20.59999942779541 23.20000457763672,21.399999618530273 C22.800004323323567,22.199999809265137 21.46666971842448,25.133333841959637 20.800003051757812,26.200000762939453 C20.133336385091145,27.26666768391927 20.133337656656902,26.200001398722332 19.20000457763672,27.80000114440918 C18.266671498616535,29.400000890096027 16.00000508626302,33.66666571299235 15.200004577636719,35.79999923706055 C14.400004069010416,37.933332761128746 14.533335367838541,39.40000216166178 14.400001525878906,40.60000228881836 C14.266667683919271,41.80000241597494 14.000001271565756,41.666666666666664 14.400001525878906,43 C14.800001780192057,44.333333333333336 15.600003560384115,47.00000190734863 16.800003051757812,48.60000228881836 C18.00000254313151,50.200002670288086 19.466665903727215,51.53333600362142 21.599998474121094,52.60000228881836 C23.733331044514973,53.6666685740153 25.99999745686849,54.333333333333336 29.599998474121094,55 C33.199999491373696,55.666666666666664 39.066670735677086,56.60000228881836 43.20000457763672,56.60000228881836 C47.33333841959635,56.60000228881836 50.00000127156576,55.53333346048991 54.400001525878906,55 C58.800001780192055,54.46666653951009 63.46667353312174,53.80000114440918 69.60000610351562,53.400001525878906 C75.7333386739095,53.00000190734863 85.86666361490886,52.73333549499512 91.19999694824219,52.60000228881836 C96.53333028157552,52.4666690826416 97.73333740234375,52.4666690826416 101.60000610351562,52.60000228881836 C105.4666748046875,52.73333549499512 109.20000966389973,51.93333498636881 114.40000915527344,53.400001525878906 C119.60000864664714,54.866668065389 128.4000040690104,59.13333511352539 132.8000030517578,61.400001525878906 C137.20000203450522,63.66666793823242 138.0000025431315,64.86666615804036 140.8000030517578,67 C143.60000356038412,69.13333384195964 145.73333994547525,71.00000381469727 149.60000610351562,74.20000457763672 C153.466672261556,77.40000534057617 160.26666768391928,82.86667124430339 164,86.20000457763672 C167.73333231608072,89.53333791097005 169.33333333333334,91.66667175292969 172,94.20000457763672 C174.66666666666666,96.73333740234375 177.06666564941406,98.86666870117188 180,101.4000015258789 C182.93333435058594,103.93333435058594 187.20000712076822,107.66666793823242 189.60000610351562,109.4000015258789 C192.00000508626303,111.13333511352539 193.06666056315103,111.13333638509114 194.39999389648438,111.80000305175781 C195.73332722981772,112.46666971842448 195.46666971842447,112.46666844685872 197.60000610351562,113.4000015258789 C199.73334248860678,114.3333346048991 204.5333455403646,116.46666844685872 207.20001220703125,117.4000015258789 C209.8666788736979,118.3333346048991 210.53334045410156,117.93333307902019 213.60000610351562,119 C216.6666717529297,120.06666692097981 222.80000813802084,122.46666971842448 225.60000610351562,123.80000305175781 C228.4000040690104,125.13333638509114 229.19999186197916,126.33333333333333 230.39999389648438,127 C231.5999959309896,127.66666666666667 232.26668294270834,127.53333536783855 232.80001831054688,127.80000305175781 Q233.3333536783854,128.0666707356771 233.60000610351562,128.60000610351562" stroke-linejoin="round" stroke-linecap="round" stroke-width="3" stroke="#000000" fill="none"></path></svg>