<svg xmlns="http://www.w3.org/2000/svg" version="1.1" xmlns:xlink="http://www.w3.org/1999/xlink" xmlns:svgjs="http://svgjs.com/svgjs" width="100%" height="100%" id="drawing-svg"><path d="M148,151.8000030517578 C149.6000010172526,153.13333638509116 154.8000055948893,157.4000040690104 157.60000610351562,159.8000030517578 C160.40000661214194,162.20000203450522 161.73333740234375,163.9333292643229 164.8000030517578,166.1999969482422 C167.86666870117188,168.46666463216147 171.9999974568685,171.53334045410156 176,173.40000915527344 C180.0000025431315,175.2666778564453 182.00001525878906,175.53334299723306 188.80001831054688,177.40000915527344 C195.6000213623047,179.2666753133138 206.0000203450521,182.8666737874349 216.80001831054688,184.60000610351562 C227.60001627604166,186.33333841959634 244.13334147135416,187.0000025431315 253.60000610351562,187.8000030517578 C263.06667073567706,188.60000356038412 268.1333414713542,189.13334147135416 273.6000061035156,189.40000915527344 C279.06667073567706,189.66667683919272 283.1999918619792,189.1333440144857 286.3999938964844,189.40000915527344 C289.59999593098956,189.6666742960612 291.6000162760417,190.73333485921225 292.8000183105469,191 C294.00002034505206,191.26666514078775 293.4666748046875,190.73333231608072 293.6000061035156,191 C293.73333740234375,191.26666768391928 293.4666748046875,191.53333791097006 293.6000061035156,192.60000610351562 C293.73333740234375,193.6666742960612 294.5333251953125,194.33334350585938 294.3999938964844,197.40000915527344 C294.26666259765625,200.4666748046875 293.46668497721356,205.8000005086263 292.8000183105469,211 C292.1333516438802,216.1999994913737 291.06666056315106,221.93333943684897 290.3999938964844,228.60000610351562 C289.7333272298177,235.26667277018228 289.0666809082031,246.33333333333334 288.8000183105469,251 C288.5333557128906,255.66666666666666 288.8000183105469,255.26667277018228 288.8000183105469,256.6000061035156 C288.8000183105469,257.93333943684894 288.8000183105469,258.46666463216144 288.8000183105469,259 C288.8000183105469,259.53333536783856 288.8000183105469,259.5333506266276 288.8000183105469,259.8000183105469 C288.8000183105469,260.0666859944661 287.6000213623047,258.73334248860675 288.8000183105469,260.6000061035156 C290.00001525878906,262.4666697184245 293.2000020345052,266.46666463216144 296,271 C298.7999979654948,275.53333536783856 301.73333740234375,281.4000193277995 305.6000061035156,287.8000183105469 C309.4666748046875,294.20001729329425 315.6000111897786,303.3999938964844 319.20001220703125,309.3999938964844 C322.8000132242839,315.3999938964844 325.0666809082031,319.00001525878906 327.20001220703125,323.8000183105469 C329.3333435058594,328.6000213623047 330.1333363850911,332.7333475748698 332,338.20001220703125 C333.8666636149089,343.6666768391927 337.06666056315106,352.0666758219401 338.3999938964844,356.6000061035156 C339.7333272298177,361.1333363850911 339.59999593098956,363.1333262125651 340,365.3999938964844 C340.40000406901044,367.6666615804036 340.66668192545575,369.00001017252606 340.8000183105469,370.20001220703125 Q340.933354695638,371.40001424153644 340.8000183105469,372.6000061035156" stroke-linejoin="round" stroke-linecap="round" stroke-width="3" stroke="#000000" fill="none"></path><path d="M132,259 C132.66666666666666,259.6666666666667 134.26666514078775,261.26666768391925 136,263 C137.73333485921225,264.73333231608075 140.00000762939453,265.9333241780599 142.40000915527344,269.3999938964844 C144.80001068115234,272.8666636149089 147.33334350585938,278.20001729329425 150.40000915527344,283.8000183105469 C153.4666748046875,289.4000193277995 157.46666971842447,296.3333333333333 160.8000030517578,303 C164.13333638509116,309.6666666666667 166.53334299723306,315.8000183105469 170.40000915527344,323.8000183105469 C174.2666753133138,331.8000183105469 180.0000025431315,344.06667073567706 184,351 C187.9999974568685,357.93332926432294 189.46665954589844,359.26665751139325 194.39999389648438,365.3999938964844 C199.3333282470703,371.5333302815755 202.93333943684897,378.7333475748698 213.60000610351562,387.8000183105469 C224.26667277018228,396.86668904622394 247.46665954589844,412.6000213623047 258.3999938964844,419.8000183105469 C269.3333282470703,427.00001525878906 272.2666778564453,427.6666666666667 279.20001220703125,431 C286.1333465576172,434.3333333333333 293.3333333333333,437.1333516438802 300,439.8000183105469 C306.6666666666667,442.46668497721356 315.0666758219401,445.26666768391925 319.20001220703125,447 C323.3333485921224,448.73333231608075 323.46668497721356,449.2666778564453 324.8000183105469,450.20001220703125 C326.1333516438802,451.1333465576172 325.7333475748698,450.8666737874349 327.20001220703125,452.6000061035156 C328.6666768391927,454.3333384195964 332.000005086263,458.20000712076825 333.6000061035156,460.6000061035156 C335.20000712076825,463.000005086263 335.33335367838544,465.1333312988281 336.8000183105469,467 C338.2666829427083,468.8666687011719 339.46666463216144,469.66668192545575 342.3999938964844,471.8000183105469 C345.3333231608073,473.933354695638 351.1999918619792,477.8000183105469 354.3999938964844,479.8000183105469 C357.59999593098956,481.8000183105469 359.6000061035156,482.7333526611328 361.6000061035156,483.8000183105469 C363.6000061035156,484.86668395996094 365.3333282470703,485.66668192545575 366.3999938964844,486.20001220703125 C367.46665954589844,486.73334248860675 367.73333231608075,486.73333231608075 368,487 Q368.26666768391925,487.26666768391925 368,487.8000183105469" stroke-linejoin="round" stroke-linecap="round" stroke-width="3" stroke="#000000" fill="none"></path></svg>