<svg xmlns="http://www.w3.org/2000/svg" version="1.1" xmlns:xlink="http://www.w3.org/1999/xlink" xmlns:svgjs="http://svgjs.com/svgjs" width="100%" height="100%" id="drawing-svg"><path d="M283.6000061035156,171 C283.8666737874349,170.86666615804037 284.6666768391927,170.73332977294922 285.20001220703125,170.1999969482422 C285.7333475748698,169.66666412353516 285.46668497721356,169.13333638509116 286.8000183105469,167.8000030517578 C288.1333516438802,166.46666971842447 288.53334554036456,164.3333307902018 293.20001220703125,162.1999969482422 C297.86667887369794,160.06666310628256 308.66668701171875,155.79999796549478 314.8000183105469,155 C320.933349609375,154.20000203450522 325.2000020345052,156.0666758219401 330,157.40000915527344 C334.7999979654948,158.73334248860678 338.53334045410156,159.53333282470703 343.6000061035156,163 C348.6666717529297,166.46666717529297 353.59999593098956,168.73333994547525 360.3999938964844,178.20001220703125 C367.1999918619792,187.66668446858725 377.99998982747394,207.40003458658853 384.3999938964844,219.80003356933594 C390.7999979654948,232.20003255208334 392.8000183105469,242.60000864664713 398.8000183105469,252.60000610351562 C404.8000183105469,262.6000035603841 413.06666564941406,273.2666829427083 420.3999938964844,279.8000183105469 C427.7333221435547,286.33335367838544 433.33331807454425,288.46668497721356 442.79998779296875,291.8000183105469 C452.26665751139325,295.1333516438802 465.3333435058594,298.0666859944661 477.20001220703125,299.8000183105469 C489.0666809082031,301.5333506266276 498.6666666666667,301.8000132242839 514,302.20001220703125 C529.3333333333334,302.6000111897786 555.0666809082031,302.0666809082031 569.2000122070312,302.20001220703125 C583.3333435058594,302.3333435058594 591.999989827474,302.6000010172526 598.7999877929688,303 C605.5999857584635,303.3999989827474 600.6666666666666,299.53334045410156 610,304.6000061035156 C619.3333333333334,309.6666717529297 644.9333190917969,324.1999918619792 654.7999877929688,333.3999938964844 C664.6666564941406,342.59999593098956 664.933339436849,351.2666829427083 669.2000122070312,359.8000183105469 C673.4666849772135,368.33335367838544 675.3333536783854,373.2666727701823 680.4000244140625,384.6000061035156 C685.4666951497396,395.93333943684894 694.0000406901041,417.00002034505206 699.6000366210938,427.8000183105469 C705.2000325520834,438.6000162760417 708.1333414713541,443.9333190917969 714,449.3999938964844 C719.8666585286459,454.8666687011719 729.4666544596354,458.73338826497394 734.7999877929688,460.6000671386719 C740.1333211263021,462.4667460123698 742.5333251953125,462.0667419433594 746,460.6000671386719 C749.4666748046875,459.1333923339844 752.4000345865885,456.2000274658203 755.6000366210938,451.8000183105469 C758.800038655599,447.40000915527344 763.0666809082031,441.40001424153644 765.2000122070312,434.20001220703125 C767.3333435058594,427.00001017252606 768.1333618164062,414.73334248860675 768.4000244140625,408.6000061035156 Q768.6666870117188,402.4666697184245 766.7999877929688,397.3999938964844" stroke-linejoin="round" stroke-linecap="round" stroke-width="3" stroke="#000000" fill="none"></path><path d="M493.20001220703125,127.80000305175781 C490.933349609375,127.5333366394043 484.0000406901042,126.7333386739095 479.60003662109375,126.20000457763672 C475.2000325520833,125.66667048136394 476.6666615804036,125.6666653951009 466.79998779296875,124.5999984741211 C456.9333140055339,123.53333155314128 431.7333221435547,120.60000228881836 420.3999938964844,119.80000305175781 C409.06666564941406,119.00000381469727 404.2666829427083,119.80000305175781 398.8000183105469,119.80000305175781 C393.33335367838544,119.80000305175781 390.1333414713542,119.66667048136394 387.6000061035156,119.80000305175781 C385.06667073567706,119.93333562215169 384.2666727701823,120.33332951863606 383.6000061035156,120.5999984741211 C382.93333943684894,120.86666742960612 383.6000061035156,121.1333491007487 383.6000061035156,121.40001678466797 C383.6000061035156,121.66668446858723 383.06667073567706,121.40000661214192 383.6000061035156,122.20000457763672 C384.1333414713542,123.00000254313152 385.7333526611328,124.7333386739095 386.8000183105469,126.20000457763672 C387.86668395996094,127.66667048136394 387.3333333333333,127.00000127156575 390,131 C392.6666666666667,134.99999872843424 396.933349609375,140.3333282470703 402.8000183105469,150.1999969482422 C408.66668701171875,160.06666564941406 418.933349609375,177.66667683919272 425.20001220703125,190.20001220703125 C431.4666748046875,202.73334757486978 436.1333312988281,214.0666758219401 440.3999938964844,225.40000915527344 C444.6666564941406,236.73334248860678 447.33331807454425,245.80001068115234 450.79998779296875,258.20001220703125 C454.26665751139325,270.60001373291016 459.20001220703125,289.5333506266276 461.20001220703125,299.8000183105469 C463.20001220703125,310.0666859944661 462.13332112630206,314.2000223795573 462.79998779296875,319.8000183105469 C463.46665445963544,325.40001424153644 464.8000081380208,328.1999969482422 465.20001220703125,333.3999938964844 C465.6000162760417,338.59999084472656 465.20001220703125,347 465.20001220703125,351 C465.20001220703125,355 465.4666748046875,355.6666615804036 465.20001220703125,357.3999938964844 C464.933349609375,359.1333262125651 465.86669921875,358.99998982747394 463.60003662109375,361.3999938964844 C461.3333740234375,363.7999979654948 457.3333740234375,368.20001729329425 451.60003662109375,371.8000183105469 C445.86669921875,375.4000193277995 438.8000183105469,378.8666687011719 429.20001220703125,383 C419.6000061035156,387.1333312988281 410.3999989827474,389.53334045410156 394,396.6000061035156 C377.6000010172526,403.6666717529297 348.66668192545575,417.1333262125651 330.8000183105469,425.3999938964844 C312.933354695638,433.6666615804036 299.46668497721356,439.40000915527344 286.8000183105469,446.20001220703125 C274.1333516438802,453.00001525878906 265.2000223795573,459.2666778564453 254.80001831054688,466.20001220703125 C244.40001424153647,473.1333465576172 231.46666463216147,482.86668395996094 224.39999389648438,487.8000183105469 C217.33332316080728,492.7333526611328 215.19999186197916,493.933354695638 212.39999389648438,495.8000183105469 C209.5999959309896,497.66668192545575 208.6666717529297,498.3333333333333 207.60000610351562,499 C206.53334045410156,499.6666666666667 206.26666768391928,499.8000183105469 206,499.8000183105469 C205.73333231608072,499.8000183105469 206.13333129882812,503 206,499 C205.86666870117188,495 204.00001017252603,491.1333516438802 205.20001220703125,475.8000183105469 C206.40001424153647,460.46668497721356 210.1333465576172,428.4666697184245 213.20001220703125,407 C216.2666778564453,385.5333302815755 220.40000915527344,366.1999969482422 223.60000610351562,347 C226.8000030517578,327.8000030517578 229.86665852864584,309.26668548583984 232.39999389648438,291.8000183105469 C234.9333292643229,274.3333511352539 237.3333485921224,253.13333384195963 238.80001831054688,242.1999969482422 C240.26668802897134,231.26666005452475 240.80001322428384,229.9333241780599 241.20001220703125,226.1999969482422 C241.60001118977866,222.46666971842447 241.20001220703125,221.13336690266928 241.20001220703125,219.80003356933594 C241.20001220703125,218.4667002360026 241.46667989095053,218.46666971842447 241.20001220703125,218.1999969482422 C240.93334452311197,217.9333241780599 241.33333841959634,217.53333028157553 239.60000610351562,218.1999969482422 C237.8666737874349,218.86666361490884 234.80001831054688,218.99999491373697 230.80001831054688,222.1999969482422 C226.80001831054688,225.3999989827474 218.66667683919272,234.46666971842447 215.60000610351562,237.40000915527344 C212.53333536783853,240.3333485921224 213.06666056315103,239.13336690266928 212.39999389648438,239.80003356933594 C211.73332722981772,240.4667002360026 211.86666870117188,241.1333465576172 211.60000610351562,241.40000915527344 C211.33334350585938,241.6666717529297 210.5333506266276,243.2666778564453 210.80001831054688,241.40000915527344 C211.06668599446616,239.53334045410156 211.3333485921224,235.79999287923178 213.20001220703125,230.1999969482422 C215.0666758219401,224.6000010172526 218.93333435058594,216.60003153483072 222,207.80003356933594 C225.06666564941406,199.00003560384116 229.73333740234375,184.06668090820312 231.60000610351562,177.40000915527344 C233.4666748046875,170.73333740234375 232.93334452311197,169.93333689371744 233.20001220703125,167.8000030517578 C233.46667989095053,165.6666692097982 236.40001424153647,165.40000661214194 233.20001220703125,164.60000610351562 C230.00001017252603,163.8000055948893 222.53333536783853,160.86666615804037 214,163 C205.46666463216147,165.13333384195963 192.26666514078775,171.93333689371744 182,177.40000915527344 C171.73333485921225,182.86668141682944 161.33334096272787,190.8667017618815 152.40000915527344,195.80003356933594 C143.466677347819,200.73336537679037 135.73334248860678,203.8000055948893 128.40000915527344,207 C121.06667582194011,210.1999944051107 112.26667785644531,213.66666666666666 108.40000915527344,215 C104.53334045410156,216.33333333333334 106.13333129882812,218.06666564941406 105.19999694824219,215 C104.26666259765625,211.93333435058594 101.73333485921223,203.40000661214194 102.80000305175781,196.60000610351562 C103.86667124430339,189.8000055948893 108.13333892822266,181.39999643961588 111.60000610351562,174.1999969482422 C115.0666732788086,166.9999974568685 118.80000559488933,160.33334096272787 123.60000610351562,153.40000915527344 C128.40000661214194,146.466677347819 134.80001068115234,137.00000762939453 140.40000915527344,132.60000610351562 C146.00000762939453,128.20000457763672 150.93333180745444,127.26666768391927 157.1999969482422,127 C163.46666208902994,126.73333231608073 167.86666615804037,125.53333282470703 178,131 C188.13333384195963,136.46666717529297 204.66666666666666,147.93333435058594 218,159.8000030517578 C231.33333333333334,171.6666717529297 243.86666361490884,187.66667938232422 258,202.20001220703125 C272.1333363850911,216.73334503173828 281.46668497721356,226.86666870117188 302.8000183105469,247 C324.1333516438802,267.1333312988281 360.8000030517578,303 386,323 C411.1999969482422,343 430.26666259765625,352.8666636149089 454,367 C477.73333740234375,381.1333363850911 497.0666910807292,393.00001525878906 528.4000244140625,407.8000183105469 C559.7333577473959,422.6000213623047 612.4000040690104,443.8000183105469 642,455.8000183105469 C671.5999959309896,467.8000183105469 686,472.6000213623047 706,479.8000183105469 C726,487.00001525878906 743.2000020345052,492.06666564941406 762,499 C780.7999979654948,505.93333435058594 807.4666544596354,516.7333577473959 818.7999877929688,521.4000244140625 C830.1333211263021,526.0666910807291 823.4666646321615,522.4666646321615 830,527 C836.5333353678385,531.5333353678385 851.066660563151,541.800038655599 858,548.6000366210938 C864.933339436849,555.4000345865885 868.9333699544271,562.5999959309896 871.6000366210938,567.7999877929688 C874.2667032877604,572.9999796549479 873.0666707356771,576.7333170572916 874,579.7999877929688 C874.9333292643229,582.8666585286459 875.7333475748698,584.4666748046875 877.2000122070312,586.2000122070312 C878.6666768391927,587.933349609375 880.5333251953125,589.4000142415365 882.7999877929688,590.2000122070312 C885.066650390625,591.000010172526 887.3333129882812,592.3333333333334 890.7999877929688,591 C894.2666625976562,589.6666666666666 897.0667012532552,588.0666809082031 903.6000366210938,582.2000122070312 C910.1333719889323,576.3333435058594 922.933339436849,564.1999918619791 930,555.7999877929688 C937.066660563151,547.3999837239584 940.6666666666666,542.4666493733724 946,531.7999877929688 C951.3333333333334,521.1333262125651 957.4666544596354,507.2666829427083 962,491.8000183105469 C966.5333455403646,476.33335367838544 971.3333943684896,453 973.2000732421875,439 C975.0667521158854,425 975.6000773111979,418.46668497721356 973.2000732421875,407.8000183105469 C970.8000691731771,397.1333516438802 968.800059000651,387.93333435058594 958.800048828125,375 C948.800038655599,362.06666564941406 928.4000142415365,340.73334248860675 913.2000122070312,330.20001220703125 C898.000010172526,319.66668192545575 883.3333740234375,315.933354695638 867.6000366210938,311.8000183105469 C851.86669921875,307.66668192545575 839.8666585286459,304.7333272298177 818.7999877929688,305.3999938964844 C797.7333170572916,306.06666056315106 762.933339436849,311.1333516438802 741.2000122070312,315.8000183105469 C719.4666849772135,320.46668497721356 704.2666931152344,327.7999979654948 688.4000244140625,333.3999938964844 C672.5333557128906,338.99998982747394 658.4000040690104,345.1333262125651 646,349.3999938964844 C633.5999959309896,353.6666615804036 620.6666666666666,357.26666259765625 614,359 C607.3333333333334,360.73333740234375 607.7333272298177,359.66668192545575 606,359.8000183105469 C604.2666727701823,359.933354695638 603.4667053222656,364.33335367838544 603.6000366210938,359.8000183105469 C603.7333679199219,355.2666829427083 604.1333211263021,342.8666737874349 606.7999877929688,332.6000061035156 C609.4666544596354,322.3333384195964 615.0667012532552,311.00000762939453 619.6000366210938,298.20001220703125 C624.1333719889323,285.40001678466797 627.3333333333334,273.6667022705078 634,255.80003356933594 C640.6666666666666,237.93336486816406 654.0000305175781,206.86667124430338 659.6000366210938,191 C665.2000427246094,175.13332875569662 666.1333719889323,168.33333841959634 667.6000366210938,160.60000610351562 C669.0667012532552,152.8666737874349 672.1333618164062,150.6000073750814 668.4000244140625,144.60000610351562 C664.6666870117188,138.60000483194986 654.8000183105469,128.1999994913737 645.2000122070312,124.5999984741211 C635.6000061035156,120.99999745686848 624.3999837239584,123.26666641235352 610.7999877929688,123 C597.1999918619791,122.73333358764648 577.4666951497396,122.1999994913737 563.6000366210938,123 C549.7333780924479,123.8000005086263 534.800038655599,126.86666870117188 527.6000366210938,127.80000305175781 C520.4000345865885,128.73333740234375 521.7333577473959,128.466672261556 520.4000244140625,128.60000610351562 C519.0666910807291,128.73333994547525 519.2000427246094,128.8666737874349 519.6000366210938,128.60000610351562 C520.0000305175781,128.33333841959634 518.9333292643229,129.13333384195963 522.7999877929688,127 C526.6666463216146,124.86666615804036 534.5333150227865,119.93333562215169 542.7999877929688,115.80000305175781 C551.066660563151,111.66667048136394 558.5333557128906,106.60000228881836 572.4000244140625,102.20000457763672 C586.2666931152344,97.80000686645508 610.933339436849,91.2666842142741 626,89.40001678466797 C641.066660563151,87.53334935506184 650.2666524251302,87.66666666666667 662.7999877929688,91 C675.3333231608073,94.33333333333333 688.5333455403646,99.66668192545573 701.2000122070312,109.40001678466797 C713.8666788736979,119.1333516438802 725.7333170572916,128.06667709350586 738.7999877929688,149.40000915527344 C751.8666585286459,170.73334121704102 769.7333679199219,212.33334096272787 779.6000366210938,237.40000915527344 C789.4667053222656,262.46667734781903 791.4666748046875,275.8000208536784 798,299.8000183105469 C804.5333251953125,323.80001576741535 814.2666524251302,361.7999979654948 818.7999877929688,381.3999938964844 C823.3333231608073,400.99998982747394 823.7333374023438,407.53331502278644 825.2000122070312,417.3999938964844 Q826.6666870117188,427.2666727701823 827.6000366210938,440.6000671386719" stroke-linejoin="round" stroke-linecap="round" stroke-width="3" stroke="#000000" fill="none"></path></svg>