<svg xmlns="http://www.w3.org/2000/svg" version="1.1" xmlns:xlink="http://www.w3.org/1999/xlink" xmlns:svgjs="http://svgjs.com/svgjs" width="100%" height="100%" id="drawing-svg"><path d="M176,186.1999969482422 C175.06666819254556,187.26666514078775 172.2666753133138,190.466672261556 170.40000915527344,192.60000610351562 C168.53334299723306,194.73333994547525 167.20000457763672,195.66666666666666 164.8000030517578,199 C162.4000015258789,202.33333333333334 157.6000010172526,209.53333791097006 156,212.60000610351562 C154.3999989827474,215.6666742960612 154.13332875569662,215.80001068115234 155.1999969482422,217.40000915527344 C156.26666514078775,219.00000762939453 156.53334299723306,220.86666361490884 162.40000915527344,222.1999969482422 C168.2666753133138,223.53333028157553 181.06666310628256,224.8666737874349 190.39999389648438,225.40000915527344 C199.7333246866862,225.93334452311197 209.99998982747397,225.2666778564453 218.39999389648438,225.40000915527344 C226.79999796549478,225.53334045410156 233.60001627604166,225.3999989827474 240.80001831054688,226.1999969482422 C248.0000203450521,226.99999491373697 257.3333435058594,228.99999491373697 261.6000061035156,230.1999969482422 C265.8666687011719,231.3999989827474 264.93332926432294,231.6666742960612 266.3999938964844,233.40000915527344 C267.8666585286458,235.1333440144857 270.26665751139325,236.466672261556 270.3999938964844,240.60000610351562 C270.5333302815755,244.73333994547525 268.53334554036456,252.46667989095053 267.20001220703125,258.20001220703125 C265.86667887369794,263.933344523112 263.59999593098956,269.93333435058594 262.3999938964844,275 C261.1999918619792,280.06666564941406 260,283.2666727701823 260,288.6000061035156 C260,293.93333943684894 260.6666615804036,302.3333333333333 262.3999938964844,307 C264.1333262125651,311.6666666666667 267.06666056315106,313.40000406901044 270.3999938964844,316.6000061035156 C273.7333272298177,319.8000081380208 277.1999918619792,322.6000111897786 282.3999938964844,326.20001220703125 C287.59999593098956,329.8000132242839 297.06667073567706,335.00001525878906 301.6000061035156,338.20001220703125 C306.1333414713542,341.40000915527344 307.4666748046875,342.999994913737 309.6000061035156,345.3999938964844 C311.73333740234375,347.79999287923175 313.3333282470703,349.8000030517578 314.3999938964844,352.6000061035156 C315.46665954589844,355.40000915527344 315.73333231608075,359.6666768391927 316,362.20001220703125 C316.26666768391925,364.7333475748698 316.3999989827474,366.20001729329425 316,367.8000183105469 C315.6000010172526,369.4000193277995 314.2666727701823,370.33335367838544 313.6000061035156,371.8000183105469 C312.93333943684894,373.2666829427083 312.26666768391925,375.6666768391927 312,376.6000061035156 Q311.73333231608075,377.53333536783856 312,377.3999938964844" stroke-linejoin="round" stroke-linecap="round" stroke-width="3" stroke="#000000" fill="none"></path><path d="M76,127.80000305175781 C76,127.40000279744466 75.33333333333333,126.3333346048991 76,125.4000015258789 C76.66666666666667,124.46666844685872 78.39999898274739,123.53333791097005 80,122.20000457763672 C81.60000101725261,120.86667124430339 83.86667124430339,118.73333485921223 85.60000610351562,117.4000015258789 C87.33334096272786,116.06666819254558 89.33334350585938,115.1333376566569 90.40000915527344,114.20000457763672 C91.4666748046875,113.26667149861653 91.46666717529297,112.3333371480306 92,111.80000305175781 C92.53333282470703,111.26666895548503 92.66667175292969,111.26666641235352 93.60000610351562,111 C94.53334045410156,110.73333358764648 95.60000610351562,110.3333371480306 97.60000610351562,110.20000457763672 C99.60000610351562,110.06667200724284 102.40000661214192,109.26667149861653 105.60000610351562,110.20000457763672 C108.80000559488933,111.1333376566569 111.86667124430339,112.733336130778 116.80000305175781,115.80000305175781 C121.73333485921223,118.86666997273763 129.5999959309896,124.20000712076823 135.1999969482422,128.60000610351562 C140.79999796549478,133.00000508626303 144.80000813802084,136.73332977294922 150.40000915527344,142.1999969482422 C156.00001017252603,147.66666412353516 162.93333689371744,154.60000864664713 168.8000030517578,161.40000915527344 C174.6666692097982,168.20000966389975 178.53333791097006,173.53333536783853 185.60000610351562,183 C192.6666742960612,192.46666463216147 203.60001118977866,208.06666310628256 211.20001220703125,218.1999969482422 C218.80001322428384,228.3333307902018 225.3333485921224,236.60000356038412 231.20001220703125,243.8000030517578 C237.0666758219401,251.0000025431315 239.46665954589844,254.1999944051107 246.39999389648438,261.3999938964844 C253.3333282470703,268.5999933878581 266.00001525878906,280.73333231608075 272.8000183105469,287 C279.6000213623047,293.26666768391925 282.1333465576172,295.6666666666667 287.20001220703125,299 C292.2666778564453,302.3333333333333 297.86667887369794,304.73333231608075 303.20001220703125,307 C308.53334554036456,309.26666768391925 314.933344523112,311.40000406901044 319.20001220703125,312.6000061035156 C323.4666798909505,313.8000081380208 325.7333526611328,313.53334554036456 328.8000183105469,314.20001220703125 C331.86668395996094,314.86667887369794 334.8000081380208,315.93333943684894 337.6000061035156,316.6000061035156 C340.40000406901044,317.2666727701823 343.73333740234375,317.933344523112 345.6000061035156,318.20001220703125 C347.4666748046875,318.4666798909505 348.00002034505206,317.933344523112 348.8000183105469,318.20001220703125 C349.6000162760417,318.4666798909505 349.59999593098956,319.1333516438802 350.3999938964844,319.8000183105469 C351.1999918619792,320.46668497721356 352.6666717529297,320.86667887369794 353.6000061035156,322.20001220703125 C354.53334045410156,323.53334554036456 355.2000020345052,325.66668701171875 356,327.8000183105469 C356.7999979654948,329.933349609375 357.46665954589844,330.73333740234375 358.3999938964844,335 C359.3333282470703,339.26666259765625 360.6666717529297,348.06666056315106 361.6000061035156,353.3999938964844 C362.53334045410156,358.7333272298177 363.6000010172526,361.1333312988281 364,367 C364.3999989827474,372.8666687011719 364,382.73333740234375 364,388.6000061035156 C364,394.4666748046875 364.6666666666667,397.1333465576172 364,402.20001220703125 C363.3333333333333,407.2666778564453 361.06666564941406,414.8666687011719 360,419 C358.93333435058594,423.1333312988281 358.2666727701823,424.8666636149089 357.6000061035156,427 C356.93333943684894,429.1333363850911 356.3999989827474,430.7333526611328 356,431.8000183105469 C355.6000010172526,432.86668395996094 355.86667887369794,432.999994913737 355.20001220703125,433.3999938964844 C354.53334554036456,433.79999287923175 354.1333363850911,433.53334554036456 352,434.20001220703125 C349.8666636149089,434.86667887369794 345.8666585286458,436.59999593098956 342.3999938964844,437.3999938964844 C338.93332926432294,438.1999918619792 334.6666768391927,438.46666463216144 331.20001220703125,439 C327.7333475748698,439.53333536783856 326.2666727701823,439.40000406901044 321.6000061035156,440.6000061035156 C316.93333943684894,441.8000081380208 308.53334554036456,445.00001017252606 303.20001220703125,446.20001220703125 C297.86667887369794,447.40001424153644 294.000005086263,447.2666880289714 289.6000061035156,447.8000183105469 C285.20000712076825,448.3333485921224 282.5333506266276,448.999994913737 276.8000183105469,449.3999938964844 C271.0666859944661,449.79999287923175 261.4666798909505,450.3333435058594 255.20001220703125,450.20001220703125 C248.93334452311197,450.0666809082031 244.00001525878906,449.2666727701823 239.20001220703125,448.6000061035156 C234.40000915527344,447.93333943684894 230.66666158040366,447.53334554036456 226.39999389648438,446.20001220703125 C222.1333262125651,444.86667887369794 216.53333536783853,441.93333943684894 213.60000610351562,440.6000061035156 C210.66667683919272,439.2666727701823 210.13335164388022,439.40001424153644 208.80001831054688,438.20001220703125 C207.46668497721353,437.00001017252606 207.4666748046875,436.06666056315106 205.60000610351562,433.3999938964844 C203.73333740234375,430.7333272298177 199.73333740234375,426.0666758219401 197.60000610351562,422.20001220703125 C195.4666748046875,418.3333485921224 194.0000203450521,415.1333465576172 192.80001831054688,410.20001220703125 C191.60001627604166,405.2666778564453 190.13333129882812,401.93333943684894 190.39999389648438,392.6000061035156 C190.66665649414062,383.2666727701823 191.73332722981772,366.6000111897786 194.39999389648438,354.20001220703125 C197.06666056315103,341.8000132242839 202.1333262125651,329.933344523112 206.39999389648438,318.20001220703125 C210.66666158040366,306.4666798909505 215.5999959309896,295.4000193277995 220,283.8000183105469 C224.4000040690104,272.20001729329425 230.00001525878906,256.0666758219401 232.80001831054688,248.60000610351562 C235.6000213623047,241.13333638509116 235.86668904622397,241.26666768391928 236.80001831054688,239 C237.73334757486978,236.73333231608072 238.13333129882812,235.8000005086263 238.39999389648438,235 C238.66665649414062,234.1999994913737 238.5333251953125,234.46666208902994 238.39999389648438,234.1999969482422 C238.26666259765625,233.93333180745444 238.4000040690104,233.80000813802084 237.60000610351562,233.40000915527344 C236.80000813802084,233.00001017252603 235.0666707356771,232.60000356038412 233.60000610351562,231.8000030517578 C232.13334147135416,231.0000025431315 230.40001932779947,230.33333841959634 228.80001831054688,228.60000610351562 C227.20001729329428,226.8666737874349 225.20000203450522,225.1333440144857 224,221.40000915527344 C222.79999796549478,217.6666742960612 221.20000712076822,214.46666463216147 221.60000610351562,206.1999969482422 C222.00000508626303,197.9333292643229 224.26666259765625,182.20000203450522 226.39999389648438,171.8000030517578 C228.5333251953125,161.4000040690104 231.59999084472656,152.46666971842447 234.39999389648438,143.8000030517578 C237.1999969482422,135.13333638509116 240.66667683919272,127.13333638509114 243.20001220703125,119.80000305175781 C245.73334757486978,112.46666971842448 248.40000915527344,104.3333371480306 249.60000610351562,99.80000305175781 C250.8000030517578,95.26666895548503 250.26666259765625,94.33333206176758 250.39999389648438,92.5999984741211 C250.5333251953125,90.86666488647461 251.06666056315103,90.46666717529297 250.39999389648438,89.4000015258789 C249.73332722981772,88.33333587646484 248.5333251953125,86.86667124430339 246.39999389648438,86.20000457763672 C244.26666259765625,85.53333791097005 242.00000508626303,84.86666870117188 237.60000610351562,85.4000015258789 C233.20000712076822,85.93333435058594 226.93333435058594,87.00000127156575 220,89.4000015258789 C213.06666564941406,91.80000178019206 201.73333231608072,97.26667022705078 196,99.80000305175781 C190.26666768391928,102.33333587646484 188.13333892822266,103.13333257039388 185.60000610351562,104.5999984741211 C183.0666732788086,106.06666437784831 181.73333740234375,107.66666412353516 180.8000030517578,108.5999984741211 C179.86666870117188,109.53333282470703 180.13333384195963,109.80000432332356 180,110.20000457763672 C179.86666615804037,110.60000483194987 179.86666615804037,110.86666742960612 180,111 C180.13333384195963,111.13333257039388 179.86666870117188,110.73333358764648 180.8000030517578,111 C181.73333740234375,111.26666641235352 184.53333791097006,112.19999821980794 185.60000610351562,112.5999984741211 C186.6666742960612,112.99999872843425 186.66667683919272,113.26666768391927 187.20001220703125,113.4000015258789 C187.73334757486978,113.53333536783855 188.26668802897134,113.26666768391927 188.80001831054688,113.4000015258789 C189.3333485921224,113.53333536783855 189.86666361490884,113.66667175292969 190.39999389648438,114.20000457763672 C190.9333241780599,114.73333740234375 191.33333333333334,115.53333282470703 192,116.5999984741211 C192.66666666666666,117.66666412353516 192.79999287923178,118.86666488647461 194.39999389648438,120.5999984741211 C195.99999491373697,122.33333206176758 199.20000203450522,124.73333358764648 201.60000610351562,127 C204.00001017252603,129.26666641235352 206.0000203450521,131.53333028157553 208.80001831054688,134.1999969482422 C211.60001627604166,136.86666361490884 213.06666056315103,137.93333180745444 218.39999389648438,143 C223.73332722981772,148.06666819254556 234.13335164388022,158.20000457763672 240.80001831054688,164.60000610351562 C247.46668497721353,171.00000762939453 253.5999959309896,176.60000864664713 258.3999938964844,181.40000915527344 C263.1999918619792,186.20000966389975 265.73333740234375,189.00001017252603 269.6000061035156,193.40000915527344 C273.4666748046875,197.80000813802084 279.06667073567706,204.33333841959634 281.6000061035156,207.8000030517578 C284.1333414713542,211.26666768391928 283.7333526611328,212.5999959309896 284.8000183105469,214.1999969482422 C285.86668395996094,215.79999796549478 287.3333333333333,216.4666748046875 288,217.40000915527344 Q288.6666666666667,218.33334350585938 288.8000183105469,219.8000030517578" stroke-linejoin="round" stroke-linecap="round" stroke-width="3" stroke="#000000" fill="none"></path></svg>