<svg xmlns="http://www.w3.org/2000/svg" version="1.1" xmlns:xlink="http://www.w3.org/1999/xlink" xmlns:svgjs="http://svgjs.com/svgjs" width="100%" height="100%" id="drawing-svg"><path d="M194.80001831054688,115 C193.86668395996094,114.733336130778 192.66668192545572,114.60001627604167 189.20001220703125,113.40001678466797 C185.73334248860678,112.20001729329427 179.20000203450522,109.80000305175781 174,107.80000305175781 C168.79999796549478,105.80000305175781 163.5999984741211,103.80001449584961 158,101.40001678466797 C152.4000015258789,99.00001907348633 147.60000864664713,96.86668523152669 140.40000915527344,93.40001678466797 C133.20000966389975,89.93334833780925 121.46666971842448,83.80000813802083 114.80000305175781,80.60000610351562 C108.13333638509114,77.40000406901042 104.40000915527344,76.20000457763672 100.40000915527344,74.20000457763672 C96.40000915527344,72.20000457763672 93.06667073567708,70.33334032694499 90.80000305175781,68.60000610351562 C88.53333536783855,66.86667188008626 88.00000254313152,65.13333257039388 86.80000305175781,63.79999923706055 C85.60000356038411,62.46666590372721 84.2666727701823,61.533339182535805 83.60000610351562,60.600006103515625 C82.93333943684895,59.666673024495445 82.53333791097005,59.39999961853027 82.80000305175781,58.20000076293945 C83.06666819254558,57.00000190734863 84.53333028157552,54.86667823791504 85.19999694824219,53.4000129699707 C85.86666361490886,51.93334770202637 85.86666870117188,50.60000991821289 86.80000305175781,49.40000915527344 C87.73333740234375,48.200008392333984 88.26667022705078,47.000009536743164 90.80000305175781,46.200008392333984 C93.33333587646484,45.400007247924805 98.39999898274739,44.06666882832845 102,44.60000228881836 C105.60000101725261,45.133335749308266 108.80000813802083,47.000009536743164 112.40000915527344,49.40000915527344 C116.00001017252605,51.80000877380371 119.60000610351562,54.33333206176758 123.60000610351562,59 C127.60000610351562,63.66666793823242 130.00001017252603,67.66668065388997 136.40000915527344,77.40001678466797 C142.80000813802084,87.13335291544597 154.26666768391928,105.00001907348633 162,117.40001678466797 C169.73333231608072,129.8000144958496 176.26666768391928,141.1333376566569 182.8000030517578,151.8000030517578 C189.33333841959634,162.46666844685873 192.40001169840494,168.8666763305664 201.20001220703125,181.40000915527344 C210.00001271565756,193.93334197998047 225.4666748046875,214.06666819254556 235.60000610351562,227 C245.73333740234375,239.93333180745444 250.79999796549478,247.3999989827474 262,259 C273.2000020345052,270.6000010172526 290.2666829427083,285.8000030517578 302.8000183105469,296.6000061035156 C315.33335367838544,307.40000915527344 326.00001525878906,315.66668701171875 337.20001220703125,323.8000183105469 C348.40000915527344,331.933349609375 357.8666687011719,337.93332926432294 370,345.3999938964844 C382.1333312988281,352.8666585286458 399.6000010172526,362.8666687011719 410,368.6000061035156 C420.3999989827474,374.3333435058594 425.7333272298177,376.86668395996094 432.3999938964844,379.8000183105469 C439.06666056315106,382.7333526611328 443.999994913737,384.3333485921224 450,386.20001220703125 C456.000005086263,388.0666758219401 460.66668701171875,390.06666564941406 468.4000244140625,391 C476.13336181640625,391.93333435058594 488.4000244140625,392.46668497721356 496.4000244140625,391.8000183105469 C504.4000244140625,391.1333516438802 508.6666971842448,389.40000406901044 516.4000244140625,387 C524.1333516438802,384.59999593098956 535.4666544596354,380.3333282470703 542.7999877929688,377.3999938964844 C550.1333211263021,374.46665954589844 555.4666849772135,372.46665954589844 560.4000244140625,369.3999938964844 C565.3333638509115,366.3333282470703 568.0000305175781,363.5333302815755 572.4000244140625,359 C576.8000183105469,354.4666697184245 583.8666585286459,346.6000111897786 586.7999877929688,342.20001220703125 C589.7333170572916,337.8000132242839 589.4666646321615,335.53334045410156 590,332.6000061035156 C590.5333353678385,329.6666717529297 591.5999959309896,328.06667073567706 590,324.6000061035156 C588.4000040690104,321.1333414713542 584.0000203450521,316.20001729329425 580.4000244140625,311.8000183105469 C576.8000284830729,307.4000193277995 573.6000264485677,302.86667887369794 568.4000244140625,298.20001220703125 C563.2000223795573,293.53334554036456 556.5333455403646,290.20001729329425 549.2000122070312,283.8000183105469 C541.8666788736979,277.4000193277995 531.7333577473959,267.00002034505206 524.4000244140625,259.8000183105469 C517.0666910807291,252.60001627604166 510.933349609375,246.73334248860678 505.20001220703125,240.60000610351562 C499.4666748046875,234.46666971842447 495.8666687011719,229.3999989827474 490,223 C484.1333312988281,216.6000010172526 476,207.2666778564453 470,202.20001220703125 C464,197.1333465576172 459.8666636149089,194.73333994547525 454,192.60000610351562 C448.1333363850911,190.466672261556 444.4000193277995,189.00001017252603 434.8000183105469,189.40000915527344 C425.20001729329425,189.80000813802084 407.3333282470703,191.13333384195963 396.3999938964844,195 C385.46665954589844,198.86666615804037 378.00001017252606,206.0666732788086 369.20001220703125,212.60000610351562 C360.40001424153644,219.13333892822266 351.3333384195964,227.26666514078775 343.6000061035156,234.1999969482422 C335.8666737874349,241.13332875569662 328.2666829427083,245.533327738444 322.8000183105469,254.1999969482422 C317.33335367838544,262.86666615804035 312.8000183105469,278.46667734781903 310.8000183105469,286.20001220703125 C308.8000183105469,293.93334706624347 309.2000223795573,295.53334045410156 310.8000183105469,300.6000061035156 C312.40001424153644,305.6666717529297 315.1999969482422,310.73333740234375 320.3999938964844,316.6000061035156 C325.59999084472656,322.4666748046875 335.3333333333333,330.46668497721356 342,335.8000183105469 C348.6666666666667,341.1333516438802 355.1999918619792,345.40000915527344 360.3999938964844,348.6000061035156 C365.59999593098956,351.8000030517578 369.73334248860675,353.1333312988281 373.20001220703125,355 C376.66668192545575,356.8666687011719 379.4666798909505,358.7333526611328 381.20001220703125,359.8000183105469 C382.933344523112,360.86668395996094 383.3333384195964,360.1999969482422 383.6000061035156,361.3999938964844 C383.8666737874349,362.59999084472656 385.86668395996094,363.7999979654948 382.8000183105469,367 C379.7333526611328,370.2000020345052 370.933349609375,376.8666737874349 365.20001220703125,380.6000061035156 C359.4666748046875,384.3333384195964 357.3333282470703,386.46665954589844 348.3999938964844,389.3999938964844 C339.46665954589844,392.3333282470703 320.53333536783856,396.73334248860675 311.6000061035156,398.20001220703125 C302.6666768391927,399.66668192545575 300.00002034505206,398.20001220703125 294.8000183105469,398.20001220703125 C289.6000162760417,398.20001220703125 283.59999593098956,398.7333475748698 280.3999938964844,398.20001220703125 C277.1999918619792,397.6666768391927 276.40000406901044,395.93333435058594 275.6000061035156,395 C274.8000081380208,394.06666564941406 275.3333384195964,394.06667073567706 275.6000061035156,392.6000061035156 C275.8666737874349,391.1333414713542 273.4666798909505,389.2666778564453 277.20001220703125,386.20001220703125 C280.933344523112,383.1333465576172 286,377.66668192545575 298,374.20001220703125 C310,370.73334248860675 332.6666768391927,366.1999969482422 349.20001220703125,365.3999938964844 C365.7333475748698,364.59999084472656 380.6666768391927,366.7333272298177 397.20001220703125,369.3999938964844 C413.7333475748698,372.06666056315106 427.0666910807292,372.06666056315106 448.4000244140625,381.3999938964844 C469.7333577473958,390.7333272298177 508.00001017252606,413.3999938964844 525.2000122070312,425.3999938964844 C542.4000142415365,437.3999938964844 543.6000366210938,444.3333231608073 551.6000366210938,453.3999938964844 C559.6000366210938,462.46666463216144 565.4666849772135,469.4000193277995 573.2000122070312,479.8000183105469 C580.933339436849,490.20001729329425 591.7333374023438,507.3999888102214 598,515.7999877929688 C604.2666625976562,524.1999867757162 605.5999857584635,525.4000040690104 610.7999877929688,530.2000122070312 C615.999989827474,535.0000203450521 623.3333435058594,541.1333719889323 629.2000122070312,544.6000366210938 C635.0666809082031,548.0667012532552 640.7999979654948,549.933339436849 646,551 C651.2000020345052,552.066660563151 654.4000244140625,552.066660563151 660.4000244140625,551 C666.4000244140625,549.933339436849 676,547.4000345865885 682,544.6000366210938 C688,541.800038655599 692.0000203450521,538.6000162760416 696.4000244140625,534.2000122070312 C700.8000284830729,529.8000081380209 705.3333638509115,525.1333363850912 708.4000244140625,518.2000122070312 C711.4666849772135,511.2666880289714 714.5333251953125,506.8667246500651 714.7999877929688,492.6000671386719 C715.066650390625,478.3334096272786 712.9333292643229,451.93341064453125 710,432.6000671386719 C707.0666707356771,413.2667236328125 702.5333455403646,394.3333485921224 697.2000122070312,376.6000061035156 C691.8666788736979,358.8666636149089 688.7999979654948,347.53334554036456 678,326.20001220703125 C667.2000020345052,304.86667887369794 644.933359781901,267.66666920979816 632.4000244140625,248.60000610351562 C619.866689046224,229.53334299723306 612.7999877929688,223.53336588541666 602.7999877929688,211.80003356933594 C592.7999877929688,200.06670125325522 583.7333577473959,187.933349609375 572.4000244140625,178.20001220703125 C561.0666910807291,168.4666748046875 545.3333231608073,158.20000966389975 534.7999877929688,153.40000915527344 C524.2666524251302,148.60000864664713 517.7333374023438,149.80001068115234 509.20001220703125,149.40000915527344 C500.66668701171875,149.00000762939453 494.6667073567708,148.20000203450522 483.60003662109375,151 C472.5333658854167,153.79999796549478 454.1333262125651,160.86666361490884 442.79998779296875,166.1999969482422 C431.4666493733724,171.53333028157553 423.8666687011719,177.93333180745444 415.6000061035156,183 C407.3333435058594,188.06666819254556 401.20001220703125,191.00000508626303 393.20001220703125,196.60000610351562 C385.20001220703125,202.20000712076822 374.1333414713542,211.53334045410156 367.6000061035156,216.60000610351562 C361.06667073567706,221.6666717529297 358.1333312988281,223.66666666666666 354,227 C349.8666687011719,230.33333333333334 346.66668192545575,234.0666732788086 342.8000183105469,236.60000610351562 C338.933354695638,239.13333892822266 334.00002034505206,240.73332977294922 330.8000183105469,242.1999969482422 C327.6000162760417,243.66666412353516 326.00001017252606,244.73334248860678 323.6000061035156,245.40000915527344 C321.2000020345052,246.0666758219401 320.79999287923175,246.9999974568685 316.3999938964844,246.1999969482422 C311.999994913737,245.39999643961588 302.8000081380208,242.60000610351562 297.20001220703125,240.60000610351562 C291.6000162760417,238.60000610351562 287.33335367838544,236.99999237060547 282.8000183105469,234.1999969482422 C278.2666829427083,231.4000015258789 274.40000406901044,227.6666997273763 270,223.80003356933594 C265.59999593098956,219.93336741129556 259.999994913737,214.73333740234375 256.3999938964844,211 C252.79999287923178,207.26666259765625 251.06666056315103,204.8666737874349 248.39999389648438,201.40000915527344 C245.73332722981772,197.93334452311197 243.06666056315103,194.20001220703125 240.39999389648438,190.20001220703125 C237.73332722981772,186.20001220703125 234.5333251953125,180.8666763305664 232.39999389648438,177.40000915527344 C230.26666259765625,173.93334197998047 229.20000203450522,171.53334299723306 227.60000610351562,169.40000915527344 C226.00001017252603,167.2666753133138 225.7333526611328,166.0666732788086 222.80001831054688,164.60000610351562 C219.86668395996094,163.13333892822266 214.93333435058594,161.26667277018228 210,160.60000610351562 C205.06666564941406,159.93333943684897 198.2666778564453,159.93333943684897 193.20001220703125,160.60000610351562 C188.1333465576172,161.26667277018228 186.2666753133138,162.06666819254556 179.60000610351562,164.60000610351562 C172.93333689371744,167.1333440144857 159.86666361490884,172.4667002360026 153.1999969482422,175.80003356933594 C146.53333028157553,179.13336690266928 143.86667124430338,182.20000966389975 139.60000610351562,184.60000610351562 C135.33334096272787,187.0000025431315 130.8000055948893,188.60001118977866 127.60000610351562,190.20001220703125 C124.40000661214192,191.80001322428384 121.73334248860677,193.5333455403646 120.40000915527344,194.20001220703125 C119.06667582194011,194.8666788736979 119.33334096272786,194.73334757486978 119.60000610351562,194.20001220703125 C119.86667124430339,193.66667683919272 120.26666768391927,192.86666870117188 122,191 C123.73333231608073,189.13333129882812 127.06666564941406,185.3999989827474 130,183 C132.93333435058594,180.6000010172526 134.6666717529297,179.26667277018228 139.60000610351562,176.60000610351562 C144.53334045410156,173.93333943684897 149.73333740234375,169.53333282470703 159.60000610351562,167 C169.4666748046875,164.46666717529297 187.60001627604166,160.73334248860678 198.80001831054688,161.40000915527344 C210.0000203450521,162.0666758219401 216.53335571289062,166.1999994913737 226.80001831054688,171 C237.06668090820312,175.8000005086263 248.66666158040366,179.93334452311197 260.3999938964844,190.20001220703125 C272.1333262125651,200.46667989095053 287.4666748046875,219.40000915527344 297.20001220703125,232.60000610351562 C306.933349609375,245.8000030517578 312.66668701171875,256.999994913737 318.8000183105469,269.3999938964844 C324.933349609375,281.79999287923175 329.6000010172526,294.1999969482422 334,307 C338.3999989827474,319.8000030517578 343.3333435058594,336.3333435058594 345.20001220703125,346.20001220703125 C347.0666809082031,356.0666809082031 345.4666798909505,360.6000111897786 345.20001220703125,366.20001220703125 C344.933344523112,371.8000132242839 344.000005086263,376.6000213623047 343.6000061035156,379.8000183105469 Q343.20000712076825,383.00001525878906 342.8000183105469,385.3999938964844" stroke-linejoin="round" stroke-linecap="round" stroke-width="3" stroke="#000000" fill="none"></path></svg>