<svg xmlns="http://www.w3.org/2000/svg" version="1.1" xmlns:xlink="http://www.w3.org/1999/xlink" xmlns:svgjs="http://svgjs.com/svgjs" width="100%" height="100%" id="drawing-svg" style="cursor: url(&quot;data:image/svg+xml;utf8,<svg xmlns=\&quot;http://www.w3.org/2000/svg\&quot; width=\&quot;24\&quot; height=\&quot;24\&quot; viewBox=\&quot;0 0 24 24\&quot; fill=\&quot;none\&quot; stroke=\&quot;black\&quot; stroke-width=\&quot;2\&quot;><circle cx=\&quot;12\&quot; cy=\&quot;12\&quot; r=\&quot;10\&quot; fill=\&quot;rgba(255,0,0,0.2)\&quot;/></svg>&quot;) 12 12, auto;"><path d="M349.8000183105469,39.80000305175781 C350.7333475748698,39.933335622151695 353.26666259765625,40.46666590372721 355.3999938964844,40.599998474121094 C357.5333251953125,40.733331044514976 360.06667073567706,40.46666463216146 362.6000061035156,40.599998474121094 C365.1333414713542,40.73333231608073 367.40000406901044,41.26666768391927 370.6000061035156,41.400001525878906 C373.8000081380208,41.53333536783854 377.00002034505206,40.866668701171875 381.8000183105469,41.400001525878906 C386.6000162760417,41.93333435058594 394.06666056315106,43.26666514078776 399.3999938964844,44.599998474121094 C404.7333272298177,45.93333180745443 408.3333485921224,47.66666793823242 413.8000183105469,49.400001525878906 C419.2666880289714,51.13333511352539 427.1333465576172,52.86666615804037 432.20001220703125,55 C437.2666778564453,57.13333384195963 439.40001424153644,59.66667175292969 444.20001220703125,62.20000457763672 C449.00001017252606,64.73333740234375 455.8000030517578,67.93333053588867 461,70.19999694824219 C466.1999969482422,72.4666633605957 469.6666615804036,73.93333435058594 475.3999938964844,75.80000305175781 C481.1333262125651,77.66667175292969 489.5333251953125,80.33334350585938 495.3999938964844,81.40000915527344 C501.26666259765625,82.4666748046875 505.000005086263,81.7999979654948 510.6000061035156,82.19999694824219 C516.2000071207682,82.59999593098958 524.4666697184244,83.53333536783855 529,83.80000305175781 C533.5333302815756,84.06667073567708 535.3999837239584,83.80000305175781 537.7999877929688,83.80000305175781 C540.1999918619791,83.80000305175781 541.8000183105469,83.80000305175781 543.4000244140625,83.80000305175781 C545.0000305175781,83.80000305175781 545.5333557128906,83.80000305175781 547.4000244140625,83.80000305175781 C549.2666931152344,83.80000305175781 553.1333719889323,83.66666920979817 554.6000366210938,83.80000305175781 C556.0667012532552,83.93333689371745 555.8000183105469,84.46667226155598 556.2000122070312,84.60000610351562 Q556.6000061035156,84.73333994547527 557,84.60000610351562" stroke-linejoin="round" stroke-linecap="round" stroke-width="3" stroke="#4d90fe" fill="none"></path><path d="M325,127 C325.6666666666667,127 327.26666768391925,127 329,127 C330.73333231608075,127 332.46665954589844,127 335.3999938964844,127 C338.3333282470703,127 341.53333536783856,126.46666717529297 346.6000061035156,127 C351.6666768391927,127.53333282470703 359.8000183105469,128.73332977294922 365.8000183105469,130.1999969482422 C371.8000183105469,131.66666412353516 377.8000081380208,133.53333536783853 382.6000061035156,135.8000030517578 C387.40000406901044,138.0666707356771 390.4666748046875,141.0000025431315 394.6000061035156,143.8000030517578 C398.73333740234375,146.60000356038412 404.3333282470703,150.33333841959634 407.3999938964844,152.60000610351562 C410.46665954589844,154.8666737874349 411.3999989827474,156.20000966389975 413,157.40000915527344 C414.6000010172526,158.60000864664713 414.6000010172526,159.00000508626303 417,159.8000030517578 C419.3999989827474,160.6000010172526 424.3333282470703,161.66666412353516 427.3999938964844,162.1999969482422 C430.46665954589844,162.73332977294922 432.59999084472656,162.86666615804037 435.3999938964844,163 C438.1999969482422,163.13333384195963 439.53334554036456,163.13333384195963 444.20001220703125,163 C448.86667887369794,162.86666615804037 457.93332926432294,162.46666208902994 463.3999938964844,162.1999969482422 C468.8666585286458,161.93333180745444 472.46666463216144,161.53334045410156 477,161.40000915527344 C481.53333536783856,161.2666778564453 486.8666737874349,161.40000915527344 490.6000061035156,161.40000915527344 C494.3333384195964,161.40000915527344 497.1333262125651,161.2666778564453 499.3999938964844,161.40000915527344 C501.6666615804036,161.53334045410156 502.3333435058594,161.93333180745444 504.20001220703125,162.1999969482422 C506.0666809082031,162.46666208902994 508.6000061035156,162.5999984741211 510.6000061035156,163 C512.6000061035156,163.4000015258789 515.1333465576172,164.33333841959634 516.2000122070312,164.60000610351562 Q517.2666778564453,164.8666737874349 517,164.60000610351562" stroke-linejoin="round" stroke-linecap="round" stroke-width="3" stroke="#4d90fe" fill="none"></path><path d="M222.60000610351562,131.8000030517578 C223.8000055948893,130.86666870117188 227.4000040690104,128.5999959309896 229.8000030517578,126.19999694824219 C232.20000203450522,123.7999979654948 232.3333307902018,122.60000864664714 237,117.40000915527344 C241.6666692097982,112.20000966389973 252.06668599446616,100.60000101725261 257.8000183105469,95 C263.5333506266276,89.39999898274739 266.8666636149089,86.73333485921223 271.3999938964844,83.80000305175781 C275.9333241780599,80.86667124430339 282.06666564941406,78.60000864664714 285,77.40000915527344 C287.93333435058594,76.20000966389973 287.93333435058594,76.73333994547527 289,76.60000610351562 C290.06666564941406,76.46667226155598 290.59999084472656,76.46667226155598 291.3999938964844,76.60000610351562 C292.1999969482422,76.73333994547527 292.86668395996094,76.20000966389973 293.8000183105469,77.40000915527344 C294.7333526611328,78.60000864664714 295.93333435058594,81.80000305175781 297,83.80000305175781 C298.06666564941406,85.80000305175781 299.2666778564453,87.80000813802083 300.20001220703125,89.40000915527344 C301.1333465576172,91.00001017252605 300.8666737874349,91.53334299723308 302.6000061035156,93.40000915527344 C304.3333384195964,95.2666753133138 307.53334045410156,98.60000610351562 310.6000061035156,100.60000610351562 C313.6666717529297,102.60000610351562 317.1333312988281,104.33334350585938 321,105.40000915527344 C324.8666687011719,106.4666748046875 327.66668192545575,106.60000101725261 333.8000183105469,107 C339.933354695638,107.39999898274739 350.7333526611328,107.4000015258789 357.8000183105469,107.80000305175781 C364.86668395996094,108.20000457763672 370.6000162760417,109.13334147135417 376.20001220703125,109.40000915527344 C381.8000081380208,109.6666768391927 384.999994913737,109.26667785644531 391.3999938964844,109.40000915527344 C397.79999287923175,109.53334045410156 408.06667073567706,109.93333180745442 414.6000061035156,110.19999694824219 C421.1333414713542,110.46666208902995 426.3333384195964,110.33333333333333 430.6000061035156,111 C434.8666737874349,111.66666666666667 436.3333435058594,113.26666259765625 440.20001220703125,114.19999694824219 C444.0666809082031,115.13333129882812 450.7333526611328,115.80000559488933 453.8000183105469,116.60000610351562 C456.86668395996094,117.40000661214192 456.4666748046875,118.1999994913737 458.6000061035156,119 C460.73333740234375,119.8000005086263 464.6000061035156,120.8666763305664 466.6000061035156,121.40000915527344 C468.6000061035156,121.93334197998047 469.8000081380208,122.06666564941406 470.6000061035156,122.19999694824219 C471.40000406901044,122.33332824707031 471.1333262125651,122.19999694824219 471.3999938964844,122.19999694824219 Q471.6666615804036,122.19999694824219 472.20001220703125,122.19999694824219" stroke-linejoin="round" stroke-linecap="round" stroke-width="3" stroke="#4d90fe" fill="none"></path></svg>