<svg xmlns="http://www.w3.org/2000/svg" version="1.1" xmlns:xlink="http://www.w3.org/1999/xlink" xmlns:svgjs="http://svgjs.com/svgjs" width="100%" height="100%" id="drawing-svg"><path d="M251.60000610351562,321.3999938964844 C250.6666717529297,320.06666056315106 249.33333333333334,320.3333231608073 246,313.3999938964844 C242.66666666666666,306.46666463216144 235.0666707356771,288.6000162760417 231.60000610351562,279.8000183105469 C228.13334147135416,271.00002034505206 226.5333455403646,265.93333689371747 225.20001220703125,260.6000061035156 C223.8666788736979,255.2666753133138 223.8666737874349,251.80003356933594 223.60000610351562,247.80003356933594 C223.33333841959634,243.80003356933594 223.0666707356771,239.66667683919272 223.60000610351562,236.60000610351562 C224.13334147135416,233.53333536783853 224.933349609375,232.20000457763672 226.80001831054688,229.40000915527344 C228.66668701171875,226.60001373291016 230.0000203450521,223.93336741129556 234.80001831054688,219.80003356933594 C239.60001627604166,215.6666997273763 249.33334350585938,208.06667836507162 255.60000610351562,204.60000610351562 C261.8666687011719,201.13333384195963 266.79999287923175,199.79999542236328 272.3999938964844,199 C277.999994913737,198.20000457763672 281.86667887369794,197.93336741129556 289.20001220703125,199.80003356933594 C296.53334554036456,201.6666997273763 309.1999969482422,206.46666971842447 316.3999938964844,210.1999969482422 C323.59999084472656,213.9333241780599 327.1999918619792,217.39999643961588 332.3999938964844,222.1999969482422 C337.59999593098956,226.9999974568685 340.6666717529297,230.86666615804037 347.6000061035156,239 C354.53334045410156,247.13333384195963 367.2000020345052,263.1333312988281 374,271 C380.7999979654948,278.8666687011719 383.1999918619792,281.1333465576172 388.3999938964844,286.20001220703125 C393.59999593098956,291.2666778564453 397.3333435058594,296.8666636149089 405.20001220703125,301.3999938964844 C413.0666809082031,305.9333241780599 426.53333536783856,310.99998982747394 435.6000061035156,313.3999938964844 C444.6666768391927,315.7999979654948 451.4667002360026,315.66668192545575 459.60003662109375,315.8000183105469 C467.7333730061849,315.933354695638 473.7333577473958,315.40001424153644 484.4000244140625,314.20001220703125 C495.0666910807292,313.00001017252606 513.0667012532552,309.53334045410156 523.6000366210938,308.6000061035156 C534.1333719889323,307.6666717529297 539.866709391276,308.06667073567706 547.6000366210938,308.6000061035156 C555.3333638509115,309.1333414713542 561.2000020345052,309.933349609375 570,311.8000183105469 C578.7999979654948,313.66668701171875 592.933359781901,317.5333557128906 600.4000244140625,319.8000183105469 C607.866689046224,322.0666809082031 609.4666544596354,323.5333302815755 614.7999877929688,325.3999938964844 C620.1333211263021,327.26665751139325 624.5333557128906,329.3999989827474 632.4000244140625,331 C640.2666931152344,332.6000010172526 653.6000061035156,334.06666564941406 662,335 C670.3999938964844,335.93333435058594 676.5333150227865,336.4666697184245 682.7999877929688,336.6000061035156 C689.066660563151,336.73334248860675 692.9333699544271,336.0666859944661 699.6000366210938,335.8000183105469 C706.2667032877604,335.5333506266276 717.066660563151,335.1333363850911 722.7999877929688,335 C728.5333150227865,334.8666636149089 730.9333292643229,334.8666636149089 734,335 C737.0666707356771,335.1333363850911 738.6666768391927,335.2666829427083 741.2000122070312,335.8000183105469 C743.7333475748698,336.33335367838544 747.6000162760416,337.66668192545575 749.2000122070312,338.20001220703125 C750.8000081380209,338.73334248860675 750.3999837239584,338.8666687011719 750.7999877929688,339 Q751.1999918619791,339.1333312988281 751.6000366210938,339" stroke-linejoin="round" stroke-linecap="round" stroke-width="3" stroke="#000000" fill="none"></path><path d="M438,201.40000915527344 C438.3999989827474,201.00000762939453 436.79998779296875,201.26666259765625 440.3999938964844,199 C444,196.73333740234375 454.2666982014974,190.73336537679037 459.60003662109375,187.80003356933594 C464.9333750406901,184.8667017618815 466.2666931152344,183.40000915527344 472.4000244140625,181.40000915527344 C478.5333557128906,179.40000915527344 489.0666910807292,177.5333684285482 496.4000244140625,175.80003356933594 C503.7333577473958,174.0666987101237 510.0000305175781,171.8000055948893 516.4000244140625,171 C522.8000183105469,170.1999944051107 525.7333272298177,170.33333333333334 534.7999877929688,171 C543.8666483561198,171.66666666666666 561.3333129882812,173.533327738444 570.7999877929688,175 C580.2666625976562,176.466672261556 584.4000345865885,177.66669464111328 591.6000366210938,179.80003356933594 C598.800038655599,181.9333724975586 605.6000061035156,184.333371480306 614,187.80003356933594 C622.3999938964844,191.26669565836588 634.5333353678385,196.466677347819 642,200.60000610351562 C649.4666646321615,204.73333485921225 652.6666564941406,208.06666819254556 658.7999877929688,212.60000610351562 C664.9333190917969,217.1333440144857 672.3999837239584,223.26669565836588 678.7999877929688,227.80003356933594 C685.1999918619791,232.333371480306 688.4000040690104,235.13336690266928 697.2000122070312,239.80003356933594 C706.0000203450521,244.4667002360026 722.4000345865885,252.06670379638672 731.6000366210938,255.80003356933594 C740.800038655599,259.53336334228516 743.3333638509115,260.2000147501628 752.4000244140625,262.20001220703125 C761.4666849772135,264.2000096638997 776.933339436849,266.6000213623047 786,267.8000183105469 C795.066660563151,269.00001525878906 801.066650390625,268.59999593098956 806.7999877929688,269.3999938964844 C812.5333251953125,270.1999918619792 815.866689046224,271.40000406901044 820.4000244140625,272.6000061035156 C824.933359781901,273.8000081380208 828.6666666666666,274.4666748046875 834,276.6000061035156 C839.3333333333334,278.73333740234375 847.7333577473959,282.46665954589844 852.4000244140625,285.3999938964844 C857.0666910807291,288.3333282470703 857.6000061035156,287.00001017252606 862,294.20001220703125 C866.3999938964844,301.40001424153644 874.5333150227865,318.73334248860675 878.7999877929688,328.6000061035156 C883.066660563151,338.4666697184245 884.8000284830729,345.3999938964844 887.6000366210938,353.3999938964844 C890.4000447591146,361.3999938964844 892.9333699544271,369.6666717529297 895.6000366210938,376.6000061035156 C898.2667032877604,383.53334045410156 900.4000447591146,389.53333536783856 903.6000366210938,395 C906.8000284830729,400.46666463216144 911.8666585286459,405.9333241780599 914.7999877929688,409.3999938964844 C917.7333170572916,412.8666636149089 918.933339436849,414.0666809082031 921.2000122070312,415.8000183105469 C923.4666849772135,417.5333557128906 925.7333577473959,418.0666859944661 928.4000244140625,419.8000183105469 C931.0666910807291,421.5333506266276 934.5333455403646,424.06667073567706 937.2000122070312,426.20001220703125 C939.8666788736979,428.33335367838544 942.4000244140625,430.20005798339844 944.4000244140625,432.6000671386719 C946.4000244140625,435.0000762939453 946.933349609375,437.0000762939453 949.2000122070312,440.6000671386719 C951.4666748046875,444.20005798339844 956.1333312988281,449.933354695638 958,454.20001220703125 C959.8666687011719,458.4666697184245 959.6000162760416,459.933344523112 960.4000244140625,466.20001220703125 C961.2000325520834,472.4666798909505 962.800048828125,485.00002034505206 962.800048828125,491.8000183105469 C962.800048828125,498.6000162760417 961.2000325520834,501.93333435058594 960.4000244140625,507 C959.6000162760416,512.0666656494141 959.6000061035156,517.2666727701823 958,522.2000122070312 Q956.3999938964844,527.1333516438802 950.7999877929688,536.6000366210938" stroke-linejoin="round" stroke-linecap="round" stroke-width="3" stroke="#000000" fill="none"></path><path d="M568.4000244140625,463 C567.866689046224,462.6000111897786 566.000010172526,461.1333974202474 565.2000122070312,460.6000671386719 C564.4000142415365,460.0667368570964 565.3333740234375,460.7333628336589 563.6000366210938,459.8000183105469 C561.86669921875,458.8666737874349 557.4666544596354,455.93333435058594 554.7999877929688,455 C552.1333211263021,454.06666564941406 550.2667032877604,454.20001220703125 547.6000366210938,454.20001220703125 C544.9333699544271,454.20001220703125 542.3999938964844,454.2000020345052 538.7999877929688,455 C535.1999816894531,455.7999979654948 530,457.6666666666667 526,459 C522,460.3333333333333 518.6666564941406,461.5333302815755 514.7999877929688,463 C510.9333190917969,464.4666697184245 507.33331298828125,465.933349609375 502.79998779296875,467.8000183105469 C498.26666259765625,469.66668701171875 491.33336385091144,472.6000162760417 487.60003662109375,474.20001220703125 C483.86670939127606,475.8000081380208 482.5333658854167,476.46665954589844 480.4000244140625,477.3999938964844 C478.2666829427083,478.3333282470703 476.9333190917969,478.46668497721356 474.79998779296875,479.8000183105469 C472.6666564941406,481.1333516438802 467.86669921875,482.06666056315106 467.60003662109375,485.3999938964844 C467.3333740234375,488.7333272298177 470.53334554036456,495.40001424153644 473.20001220703125,499.8000183105469 C475.86667887369794,504.2000223795573 478.5333658854167,507.4000193277995 483.60003662109375,511.8000183105469 C488.6667073567708,516.2000172932943 496.80003865559894,521.4000091552734 503.60003662109375,526.2000122070312 C510.40003458658856,531.0000152587891 515.2000325520834,536.2000325520834 524.4000244140625,540.6000366210938 C533.6000162760416,545.0000406901041 549.1999918619791,550.2000427246094 558.7999877929688,552.6000366210938 C568.3999837239584,555.0000305175781 574,554.8666687011719 582,555 C590,555.1333312988281 592.6666564941406,556.0666910807291 606.7999877929688,553.4000244140625 C620.9333190917969,550.7333577473959 651.4666544596354,543.4000040690104 666.7999877929688,539 C682.1333211263021,534.5999959309896 688.1333211263021,530.4666646321615 698.7999877929688,527 C709.4666544596354,523.5333353678385 720.6666463216146,520.4666748046875 730.7999877929688,518.2000122070312 C740.9333292643229,515.933349609375 751.4666951497396,514.3333536783854 759.6000366210938,513.4000244140625 C767.7333780924479,512.4666951497396 773.0667114257812,512.3333740234375 779.6000366210938,512.6000366210938 C786.1333618164062,512.86669921875 791.7333272298177,512.8666687011719 798.7999877929688,515 C805.8666483561198,517.1333312988281 815.3333333333334,522.2000223795573 822,525.4000244140625 C828.6666666666666,528.6000264485677 833.999989827474,531.8000183105469 838.7999877929688,534.2000122070312 C843.5999857584635,536.6000061035156 847.066650390625,537.6666564941406 850.7999877929688,539.7999877929688 C854.5333251953125,541.9333190917969 858.933339436849,545.5333251953125 861.2000122070312,547 C863.4666849772135,548.4666748046875 863.7333577473959,548.3333638509115 864.4000244140625,548.6000366210938 C865.0666910807291,548.866709391276 864.933349609375,548.4667053222656 865.2000122070312,548.6000366210938 C865.4666748046875,548.7333679199219 865.8666687011719,549.1333618164062 866,549.4000244140625 C866.1333312988281,549.6666870117188 865.7333272298177,549.933349609375 866,550.2000122070312 C866.2666727701823,550.4666748046875 866.6666971842448,550.7333374023438 867.6000366210938,551 C868.5333760579427,551.2666625976562 869.7333780924479,551.3999837239584 871.6000366210938,551.7999877929688 C873.4666951497396,552.1999918619791 875.8666585286459,552.7333577473959 878.7999877929688,553.4000244140625 C881.7333170572916,554.0666910807291 885.4666748046875,554.5999857584635 889.2000122070312,555.7999877929688 C892.933349609375,556.999989827474 898.2666829427084,559.4000345865885 901.2000122070312,560.6000366210938 C904.1333414713541,561.800038655599 905.3333231608073,562.2000020345052 906.7999877929688,563 C908.2666524251302,563.7999979654948 908.5333251953125,564.3333536783854 910,565.4000244140625 C911.4666748046875,566.4666951497396 914.0000305175781,568.3333638509115 915.6000366210938,569.4000244140625 C917.2000427246094,570.4666849772135 918.2667032877604,571.1333211263021 919.6000366210938,571.7999877929688 C920.9333699544271,572.4666544596354 922.2667032877604,572.866689046224 923.6000366210938,573.4000244140625 C924.9333699544271,573.933359781901 926.800038655599,574.7333374023438 927.6000366210938,575 Q928.4000345865885,575.2666625976562 928.4000244140625,575" stroke-linejoin="round" stroke-linecap="round" stroke-width="3" stroke="#000000" fill="none"></path><path d="M604.4000244140625,406.20001220703125 C602.2666931152344,406.20001220703125 602.800038655599,405.53334554036456 591.6000366210938,406.20001220703125 C580.4000345865885,406.86667887369794 552.4000142415365,409.40001424153644 537.2000122070312,410.20001220703125 C522.000010172526,411.00001017252606 510.66668701171875,410.73333231608075 500.4000244140625,411 C490.13336181640625,411.26666768391925 486.1333719889323,411.4000193277995 475.60003662109375,411.8000183105469 C465.0667012532552,412.20001729329425 446.66668192545575,413.1333312988281 437.20001220703125,413.3999938964844 C427.73334248860675,413.6666564941406 424.8000183105469,413.26665751139325 418.8000183105469,413.3999938964844 C412.8000183105469,413.5333302815755 408.66668192545575,413.53334554036456 401.20001220703125,414.20001220703125 C393.73334248860675,414.86667887369794 381.06666564941406,416.3333282470703 374,417.3999938964844 C366.93333435058594,418.46665954589844 363.86668395996094,419.40000406901044 358.8000183105469,420.6000061035156 C353.7333526611328,421.8000081380208 349.4666748046875,422.59999593098956 343.6000061035156,424.6000061035156 C337.73333740234375,426.6000162760417 328.8000081380208,430.3333994547526 323.6000061035156,432.6000671386719 C318.40000406901044,434.8667348225911 315.7333272298177,436.7333577473958 312.3999938964844,438.20001220703125 C309.06666056315106,439.6666666666667 306.93333943684894,439.79999287923175 303.6000061035156,441.3999938964844 C300.2666727701823,442.999994913737 295.1999918619792,446.3333485921224 292.3999938964844,447.8000183105469 C289.59999593098956,449.2666880289714 288.00001525878906,449.66668192545575 286.8000183105469,450.20001220703125 C285.6000213623047,450.73334248860675 287.0666809082031,450.2000020345052 285.20001220703125,451 C283.3333435058594,451.7999979654948 277.6000061035156,454.3333333333333 275.6000061035156,455 Q273.6000061035156,455.6666666666667 273.20001220703125,455" stroke-linejoin="round" stroke-linecap="round" stroke-width="3" stroke="#000000" fill="none"></path></svg>