<svg xmlns="http://www.w3.org/2000/svg" version="1.1" xmlns:xlink="http://www.w3.org/1999/xlink" xmlns:svgjs="http://svgjs.com/svgjs" width="100%" height="100%" id="drawing-svg"><path d="M144.8000030517578,173.40000915527344 C144.8000030517578,171.53334045410156 144.8000030517578,164.86666361490884 144.8000030517578,162.1999969482422 C144.8000030517578,159.53333028157553 144.8000030517578,158.73334248860678 144.8000030517578,157.40000915527344 C144.8000030517578,156.0666758219401 144.0000025431315,155.66666412353516 144.8000030517578,154.1999969482422 C145.60000356038412,152.73332977294922 148.00000508626303,149.8000055948893 149.60000610351562,148.60000610351562 C151.20000712076822,147.40000661214194 152.2666753133138,147.93333435058594 154.40000915527344,147 C156.53334299723306,146.06666564941406 158.80001068115234,143.8000005086263 162.40000915527344,143 C166.00000762939453,142.1999994913737 171.73333485921225,141.9333292643229 176,142.1999969482422 C180.26666514078775,142.46666463216147 184.3999989827474,143.8000055948893 188,144.60000610351562 C191.6000010172526,145.40000661214194 193.46666971842447,145 197.60000610351562,147 C201.73334248860678,149 208.26668294270834,152.86667124430338 212.80001831054688,156.60000610351562 C217.3333536783854,160.33334096272787 220.93335469563803,165.2666753133138 224.80001831054688,169.40000915527344 C228.66668192545572,173.53334299723306 231.46666971842447,177.00001017252603 236,181.40000915527344 C240.53333028157553,185.80000813802084 247.46666463216147,192.46666971842447 252,195.8000030517578 C256.53333536783856,199.13333638509116 258.6666768391927,199.80000813802084 263.20001220703125,201.40000915527344 C267.7333475748698,203.00001017252603 272.933344523112,204.60001118977866 279.20001220703125,205.40000915527344 C285.4666798909505,206.20000712076822 295.0666859944661,206.06666564941406 300.8000183105469,206.1999969482422 C306.5333506266276,206.3333282470703 308.93333943684894,206.1999969482422 313.6000061035156,206.1999969482422 C318.2666727701823,206.1999969482422 323.46668497721356,206.06666310628256 328.8000183105469,206.1999969482422 C334.1333516438802,206.3333307902018 341.73334248860675,206.46666463216147 345.6000061035156,207 C349.4666697184245,207.53333536783853 349.8666687011719,208.0666758219401 352,209.40000915527344 C354.1333312988281,210.73334248860678 354.9333241780599,211.4000015258789 358.3999938964844,215 C361.8666636149089,218.5999984741211 368.8000183105469,226.46666717529297 372.8000183105469,231 C376.8000183105469,235.53333282470703 379.46666463216144,238.73332977294922 382.3999938964844,242.1999969482422 C385.3333231608073,245.66666412353516 387.3333231608073,248.46666717529297 390.3999938964844,251.8000030517578 C393.46666463216144,255.13333892822266 398.40001424153644,259.93334706624347 400.8000183105469,262.20001220703125 C403.2000223795573,264.46667734781903 403.46668497721356,264.59999593098956 404.8000183105469,265.3999938964844 C406.1333516438802,266.1999918619792 407.33335367838544,266.73333231608075 408.8000183105469,267 C410.2666829427083,267.26666768391925 412.2666727701823,267 413.6000061035156,267 C414.93333943684894,267 416.1333516438802,267 416.8000183105469,267 Q417.46668497721356,267 417.6000061035156,267" stroke-linejoin="round" stroke-linecap="round" stroke-width="3" stroke="#000000" fill="none"></path><path d="M192,321.3999938964844 C191.86666870117188,319.93332926432294 191.60001118977866,317.6666717529297 191.20001220703125,312.6000061035156 C190.80001322428384,307.53334045410156 189.8666737874349,297.1333312988281 189.60000610351562,291 C189.33333841959634,284.8666687011719 189.4666748046875,280.3333485921224 189.60000610351562,275.8000183105469 C189.73333740234375,271.2666880289714 189.86665852864584,267.933354695638 190.39999389648438,263.8000183105469 C190.9333292643229,259.66668192545575 192.13335164388022,253.6666692097982 192.80001831054688,251 C193.46668497721353,248.3333307902018 193.5999959309896,248.46666971842447 194.39999389648438,247.8000030517578 C195.19999186197916,247.13333638509116 196.00000508626303,247.26666768391928 197.60000610351562,247 C199.20000712076822,246.73333231608072 201.86666870117188,245.9333292643229 204,246.1999969482422 C206.13333129882812,246.46666463216147 208.1333262125651,247.53333791097006 210.39999389648438,248.60000610351562 C212.66666158040366,249.6666742960612 214.6666717529297,250.8666737874349 217.60000610351562,252.60000610351562 C220.53334045410156,254.33333841959634 225.06666564941406,256.8666687011719 228,259 C230.93333435058594,261.1333312988281 232.66667683919272,263.6666615804036 235.20001220703125,265.3999938964844 C237.73334757486978,267.1333262125651 238.93334452311197,267.5333251953125 243.20001220703125,269.3999938964844 C247.46667989095053,271.26666259765625 256.00002034505206,275.1333363850911 260.8000183105469,276.6000061035156 C265.6000162760417,278.0666758219401 268,277.933344523112 272,278.20001220703125 C276,278.4666798909505 278.933349609375,278.4666798909505 284.8000183105469,278.20001220703125 C290.66668701171875,277.933344523112 302.1333465576172,276.8666737874349 307.20001220703125,276.6000061035156 C312.2666778564453,276.3333384195964 313.3333485921224,276.6000061035156 315.20001220703125,276.6000061035156 C317.0666758219401,276.6000061035156 317.06666056315106,276.6000061035156 318.3999938964844,276.6000061035156 C319.7333272298177,276.6000061035156 321.0666758219401,275.2666727701823 323.20001220703125,276.6000061035156 C325.3333485921224,277.93333943684894 329.3333485921224,281.93333943684894 331.20001220703125,284.6000061035156 C333.0666758219401,287.2666727701823 332.5333302815755,289.53334045410156 334.3999938964844,292.6000061035156 C336.26665751139325,295.6666717529297 340.3999938964844,300.46666463216144 342.3999938964844,303 C344.3999938964844,305.53333536783856 344.6666564941406,306.46668497721356 346.3999938964844,307.8000183105469 C348.1333312988281,309.1333516438802 349.7333475748698,310.2000020345052 352.8000183105469,311 C355.86668904622394,311.7999979654948 361.2000223795573,312.3333384195964 364.8000183105469,312.6000061035156 C368.40001424153644,312.8666737874349 371.1999969482422,312.6000061035156 374.3999938964844,312.6000061035156 C377.59999084472656,312.6000061035156 380.7999979654948,312.73333740234375 384,312.6000061035156 C387.2000020345052,312.4666748046875 391.4666697184245,311.933349609375 393.6000061035156,311.8000183105469 C395.73334248860675,311.66668701171875 396.1333516438802,311.8000183105469 396.8000183105469,311.8000183105469 C397.46668497721356,311.8000183105469 397.3333435058594,311.8000183105469 397.6000061035156,311.8000183105469 C397.8666687011719,311.8000183105469 398.1333262125651,311.8000183105469 398.3999938964844,311.8000183105469 Q398.6666615804036,311.8000183105469 399.20001220703125,311.8000183105469" stroke-linejoin="round" stroke-linecap="round" stroke-width="3" stroke="#000000" fill="none"></path></svg>