<svg xmlns="http://www.w3.org/2000/svg" version="1.1" xmlns:xlink="http://www.w3.org/1999/xlink" xmlns:svgjs="http://svgjs.com/svgjs" width="100%" height="100%" id="drawing-svg"><path d="M70.40000915527344,151.8000030517578 C71.06667582194011,151.26667022705078 72.53334299723308,149.53334045410156 74.40000915527344,148.60000610351562 C76.2666753133138,147.6666717529297 78.6666742960612,147.26666514078775 81.60000610351562,146.1999969482422 C84.53333791097005,145.13332875569662 87.46666717529297,142.5999959309896 92,142.1999969482422 C96.53333282470703,141.79999796549478 104.00000254313152,142.73333485921225 108.80000305175781,143.8000030517578 C113.60000356038411,144.86667124430338 117.06667073567708,146.8666737874349 120.80000305175781,148.60000610351562 C124.53333536783855,150.33333841959634 127.19999694824219,150.73332977294922 131.1999969482422,154.1999969482422 C135.1999969482422,157.66666412353516 140.93333435058594,164.60000864664713 144.8000030517578,169.40000915527344 C148.6666717529297,174.20000966389975 151.73334248860678,178.73333485921225 154.40000915527344,183 C157.0666758219401,187.26666514078775 157.86667124430338,191.26666514078775 160.8000030517578,195 C163.73333485921225,198.73333485921225 168.13333384195963,202.73334248860678 172,205.40000915527344 C175.86666615804037,208.0666758219401 179.46666463216147,209.4000015258789 184,211 C188.53333536783853,212.5999984741211 191.0666758219401,215 199.20001220703125,215 C207.3333485921224,215 223.6000213623047,212.1999994913737 232.80001831054688,211 C242.00001525878906,209.8000005086263 245.3333282470703,209.26667022705078 254.39999389648438,207.8000030517578 C263.46665954589844,206.33333587646484 279.4666748046875,203.39999643961588 287.20001220703125,202.1999969482422 C294.933349609375,200.9999974568685 296.933354695638,200.73333740234375 300.8000183105469,200.60000610351562 C304.66668192545575,200.4666748046875 306.26666259765625,200.466677347819 310.3999938964844,201.40000915527344 C314.5333251953125,202.33334096272787 321.3333384195964,204.3333307902018 325.6000061035156,206.1999969482422 C329.8666737874349,208.06666310628256 332.7999979654948,210.0666707356771 336,212.60000610351562 C339.2000020345052,215.13334147135416 341.46668497721356,217.53334299723306 344.8000183105469,221.40000915527344 C348.1333516438802,225.2666753133138 353.2000020345052,232.0666707356771 356,235.8000030517578 C358.7999979654948,239.53333536783853 360.2666727701823,241.8000030517578 361.6000061035156,243.8000030517578 C362.93333943684894,245.8000030517578 363.46666463216144,247.0000025431315 364,247.8000030517578 C364.53333536783856,248.60000356038412 364.66668192545575,248.33333841959634 364.8000183105469,248.60000610351562 Q364.933354695638,248.8666737874349 364.8000183105469,249.40000915527344" stroke-linejoin="round" stroke-linecap="round" stroke-width="3" stroke="#4d90fe" fill="none"></path><path d="M196.80001831054688,258.20001220703125 C197.20001729329428,258.20001220703125 198.26668294270834,258.3333485921224 199.20001220703125,258.20001220703125 C200.13334147135416,258.0666758219401 200.39999389648438,257.5333302815755 202.39999389648438,257.3999938964844 C204.39999389648438,257.26665751139325 206.80000813802084,257.26665751139325 211.20001220703125,257.3999938964844 C215.60001627604166,257.5333302815755 224.13335164388022,257.53334554036456 228.80001831054688,258.20001220703125 C233.46668497721353,258.86667887369794 235.73334757486978,259.93332926432294 239.20001220703125,261.3999938964844 C242.66667683919272,262.8666585286458 245.0666758219401,264.06666564941406 249.60000610351562,267 C254.13333638509116,269.93333435058594 261.1999918619792,275.3999989827474 266.3999938964844,279 C271.59999593098956,282.6000010172526 276.2666829427083,285.93333943684894 280.8000183105469,288.6000061035156 C285.33335367838544,291.2666727701823 289.6000061035156,292.73333231608075 293.6000061035156,295 C297.6000061035156,297.26666768391925 299.6000162760417,299.40000915527344 304.8000183105469,302.20001220703125 C310.00002034505206,305.00001525878906 319.0666859944661,309.5333506266276 324.8000183105469,311.8000183105469 C330.5333506266276,314.0666859944661 333.0666809082031,313.933354695638 339.20001220703125,315.8000183105469 C345.3333435058594,317.66668192545575 355.3333384195964,321.26666768391925 361.6000061035156,323 C367.8666737874349,324.73333231608075 372.00002034505206,325.53334554036456 376.8000183105469,326.20001220703125 C381.6000162760417,326.86667887369794 385.06666056315106,326.4666697184245 390.3999938964844,327 C395.7333272298177,327.5333302815755 404.1333516438802,328.59999084472656 408.8000183105469,329.3999938964844 C413.46668497721356,330.1999969482422 415.06666056315106,331.00001525878906 418.3999938964844,331.8000183105469 C421.7333272298177,332.6000213623047 425.3333485921224,332.86667887369794 428.8000183105469,334.20001220703125 C432.2666880289714,335.53334554036456 435.4666798909505,337.8000183105469 439.20001220703125,339.8000183105469 C442.933344523112,341.8000183105469 448.1333414713542,344.4666798909505 451.20001220703125,346.20001220703125 C454.2666829427083,347.933344523112 455.60003662109375,348.4666798909505 457.60003662109375,350.20001220703125 C459.60003662109375,351.933344523112 460.53334554036456,354.4666748046875 463.20001220703125,356.6000061035156 C465.86667887369794,358.73333740234375 470.80003865559894,361 473.60003662109375,363 C476.40003458658856,365 478,367.2666727701823 480,368.6000061035156 C482,369.93333943684894 484.1333719889323,370.3333333333333 485.60003662109375,371 C487.0667012532552,371.6666666666667 488.13332112630206,372.3333384195964 488.79998779296875,372.6000061035156 Q489.46665445963544,372.8666737874349 489.60003662109375,372.6000061035156" stroke-linejoin="round" stroke-linecap="round" stroke-width="3" stroke="#4d90fe" fill="none"></path><path d="M238.39999389648438,76.5999984741211 C239.5999959309896,76.73333231608073 241.86666870117188,76.86666742960612 245.60000610351562,77.4000015258789 C249.33334350585938,77.93333562215169 254.933349609375,79.00000254313152 260.8000183105469,79.80000305175781 C266.66668701171875,80.60000356038411 272.933354695638,80.7333386739095 280.8000183105469,82.20000457763672 C288.66668192545575,83.66667048136394 300.26666768391925,86.33333206176758 308,88.5999984741211 C315.73333231608075,90.86666488647461 320.8000132242839,92.733336130778 327.20001220703125,95.80000305175781 C333.6000111897786,98.86666997273763 339.999994913737,102.20000076293945 346.3999938964844,107 C352.79999287923175,111.79999923706055 360.000005086263,118.46666463216145 365.6000061035156,124.5999984741211 C371.20000712076825,130.73333231608072 375.46666463216144,136.86666997273764 380,143.8000030517578 C384.53333536783856,150.73333613077799 387.86668395996094,156.9999974568685 392.8000183105469,166.1999969482422 C397.7333526611328,175.39999643961588 405.6000061035156,190.06666564941406 409.6000061035156,199 C413.6000061035156,207.93333435058594 414.8000183105469,214.20000203450522 416.8000183105469,219.8000030517578 C418.8000183105469,225.4000040690104 420.00001017252606,228.73333994547525 421.6000061035156,232.60000610351562 C423.2000020345052,236.466672261556 424.1333262125651,240.46666717529297 426.3999938964844,243 C428.6666615804036,245.53333282470703 431.6000111897786,246.06666819254556 435.20001220703125,247.8000030517578 C438.8000132242839,249.53333791097006 442.7999979654948,251.93334197998047 448,253.40000915527344 C453.2000020345052,254.8666763305664 461.0666910807292,255.40000661214194 466.4000244140625,256.6000061035156 C471.7333577473958,257.80000559488934 475.8666687011719,259.53334045410156 480,260.6000061035156 C484.1333312988281,261.6666717529297 487.3333435058594,262.06666564941406 491.20001220703125,263 C495.0666809082031,263.93333435058594 500.2666829427083,265.1333465576172 503.20001220703125,266.20001220703125 C506.1333414713542,267.2666778564453 507.3333231608073,268.59999593098956 508.79998779296875,269.3999938964844 C510.2666524251302,270.1999918619792 510.6666666666667,269.93332926432294 512,271 C513.3333333333334,272.06667073567706 515.8666483561198,274.6000162760417 516.7999877929688,275.8000183105469 C517.7333272298177,277.00002034505206 517.4666951497396,277.40001424153644 517.6000366210938,278.20001220703125 Q517.7333780924479,279.00001017252606 517.6000366210938,280.6000061035156" stroke-linejoin="round" stroke-linecap="round" stroke-width="3" stroke="#4d90fe" fill="none"></path><path d="M132.8000030517578,272.6000061035156 C132.0000025431315,274.73333740234375 129.06666564941406,282.06666056315106 128,285.3999938964844 C126.93333435058594,288.7333272298177 128.00000762939453,287.40000406901044 126.40000915527344,292.6000061035156 C124.80001068115234,297.8000081380208 120.80001068115234,309.40000406901044 118.40000915527344,316.6000061035156 C116.00000762939453,323.8000081380208 113.46666717529297,330.33335367838544 112,335.8000183105469 C110.53333282470703,341.2666829427083 110.53333791097005,343.93332926432294 109.60000610351562,349.3999938964844 C108.6666742960612,354.8666585286458 106.93334197998047,363.93333943684894 106.40000915527344,368.6000061035156 C105.8666763305664,373.2666727701823 106.00001017252605,374.46665954589844 106.40000915527344,377.3999938964844 C106.80000813802083,380.3333282470703 108.00000508626302,383.1333414713542 108.80000305175781,386.20001220703125 C109.60000101725261,389.2666829427083 110.39999643961589,393.8000183105469 111.19999694824219,395.8000183105469 C111.99999745686848,397.8000183105469 112.66667175292969,397.1333465576172 113.60000610351562,398.20001220703125 C114.53334045410156,399.2666778564453 114.00000254313152,400.4666798909505 116.80000305175781,402.20001220703125 C119.60000356038411,403.933344523112 125.8666763305664,407.000005086263 130.40000915527344,408.6000061035156 C134.93334197998047,410.20000712076825 137.33333333333334,410.46668497721356 144,411.8000183105469 C150.66666666666666,413.1333516438802 162.6666742960612,415.00001017252606 170.40000915527344,416.6000061035156 C178.1333440144857,418.2000020345052 184.2666753133138,420.1999918619792 190.40000915527344,421.3999938964844 C196.53334299723306,422.59999593098956 201.466677347819,422.86668395996094 207.20001220703125,423.8000183105469 C212.9333470662435,424.7333526611328 217.6000213623047,425.8000030517578 224.80001831054688,427 C232.00001525878906,428.1999969482422 243.3333282470703,429.93333435058594 250.39999389648438,431 C257.46665954589844,432.06666564941406 261.4666748046875,432.59999084472656 267.20001220703125,433.3999938964844 C272.933349609375,434.1999969482422 278.00002034505206,435.1333516438802 284.8000183105469,435.8000183105469 C291.6000162760417,436.46668497721356 302.26666768391925,436.59999593098956 308,437.3999938964844 C313.73333231608075,438.1999918619792 316.00001017252606,439.93333943684894 319.20001220703125,440.6000061035156 C322.40001424153644,441.2666727701823 325.7333475748698,441.26666259765625 327.20001220703125,441.3999938964844 C328.6666768391927,441.5333251953125 327.73333231608075,441.3999938964844 328,441.3999938964844 Q328.26666768391925,441.3999938964844 328.8000183105469,441.3999938964844" stroke-linejoin="round" stroke-linecap="round" stroke-width="3" stroke="#4d90fe" fill="none"></path><path d="M219.20001220703125,369.3999938964844 C221.73334248860678,369.5333302815755 228.26666259765625,369.933344523112 234.39999389648438,370.20001220703125 C240.5333251953125,370.4666798909505 247.73333231608072,370.3333333333333 256,371 C264.26666768391925,371.6666666666667 276.3999989827474,373.1333465576172 284,374.20001220703125 C291.6000010172526,375.2666778564453 296.2666727701823,376.3333282470703 301.6000061035156,377.3999938964844 C306.93333943684894,378.46665954589844 311.6000010172526,379.8000030517578 316,380.6000061035156 C320.3999989827474,381.40000915527344 325.6000010172526,381.8000132242839 328,382.20001220703125 C330.3999989827474,382.6000111897786 329.8666585286458,382.8666687011719 330.3999938964844,383 C330.93332926432294,383.1333312988281 330.933344523112,383 331.20001220703125,383 Q331.4666798909505,383 332,383" stroke-linejoin="round" stroke-linecap="round" stroke-width="3" stroke="#4d90fe" fill="none"></path></svg>